<?xml version='1.0' encoding='ascii'?>
<svg xmlns="http://www.w3.org/2000/svg" version="1.1" width="1920" height="1080">
    <g id="ViewLayer_LineSet" xmlns:inkscape="http://www.inkscape.org/namespaces/inkscape" inkscape:groupmode="lineset" inkscape:label="ViewLayer_LineSet">
        <g xmlns:inkscape="http://www.inkscape.org/namespaces/inkscape" inkscape:groupmode="layer" id="strokes" inkscape:label="strokes">
            <path fill="none" stroke-width="2.0000009536743164" stroke-linecap="butt" stroke-opacity="1.0" stroke="rgb(0, 0, 0)" stroke-linejoin="round" d=" M 1335.728, 595.679 1336.717, 595.826 1337.706, 595.972 1337.864, 595.996 1338.864, 595.996 1339.864, 595.996 1340.864, 595.996 1341.864, 595.996 1342.864, 595.996 1343.864, 595.996 1344.864, 595.996 1345.864, 595.996 1346.864, 595.996 1347.864, 595.996 1348.864, 595.996 1349.864, 595.996 1350.864, 595.996 1351.864, 595.996 1352.864, 595.996 1353.864, 595.996 1354.864, 595.996 1355.864, 595.996 1356.985, 595.996 1356.985, 594.996 1356.985, 593.996 1356.985, 592.996 1356.985, 591.996 1356.985, 590.996 1356.985, 589.996 1356.985, 588.996 1356.985, 587.996 1356.985, 586.996 1356.985, 585.996 1356.985, 584.996 1356.985, 583.996 1356.985, 582.996 1356.985, 581.996 1356.985, 580.996 1356.985, 579.996 1356.985, 578.996 1356.985, 577.996 1356.985, 576.996 1356.985, 575.996 1356.985, 574.996 1356.985, 573.996 1356.985, 572.996 1356.985, 571.996 1356.985, 570.996 1356.985, 569.996 1356.985, 568.996 1356.985, 567.996 1356.985, 566.996 1356.985, 565.996 1356.985, 564.996 1356.985, 563.996 1356.985, 562.996 1356.985, 561.996 1356.985, 560.996 1356.985, 559.996 1356.985, 558.996 1356.985, 557.996 1356.985, 556.996 1356.985, 555.996 1356.985, 554.996 1356.985, 553.996 1356.985, 552.996 1356.985, 551.996 1356.985, 550.996 1356.985, 549.996 1356.985, 548.996 1356.985, 547.996 1356.985, 546.996 1356.985, 545.996 1356.985, 544.996 1356.985, 543.996 1356.985, 542.996 1356.985, 541.996 1356.985, 540.996 1356.985, 539.996 1356.985, 538.996 1356.985, 537.996 1356.985, 536.996 1356.985, 535.996 1356.985, 534.996 1356.985, 533.996 1356.985, 532.996 1356.985, 531.996 1356.985, 530.996 1356.985, 529.996 1356.985, 528.996 1356.985, 527.996 1356.985, 526.996 1356.985, 525.996 1356.985, 524.996 1356.985, 523.996 1356.985, 522.996 1356.985, 521.996 1356.985, 520.996 1356.985, 519.996 1356.985, 518.996 1356.985, 517.996 1356.985, 516.996 1356.985, 515.996 1356.985, 514.996 1356.985, 513.996 1356.985, 512.996 1356.985, 511.996 1356.985, 510.996 1356.985, 509.996 1356.985, 508.996 1356.985, 507.996 1356.985, 506.996 1356.985, 505.996 1356.985, 504.996 1356.985, 503.996 1356.985, 502.996 1356.985, 501.996 1356.985, 500.996 1356.985, 499.996 1356.985, 498.996 1356.985, 497.996 1356.985, 496.996 1356.985, 495.996 1356.985, 494.996 1356.985, 493.996 1356.985, 492.996 1356.985, 491.996 1356.985, 490.996 1356.985, 489.996 1356.985, 488.996 1356.985, 487.996 1356.985, 486.996 1356.985, 485.996 1356.985, 484.996 1356.985, 483.996 1356.985, 482.996 1356.985, 481.266 1355.985, 481.266 1354.985, 481.266 1353.985, 481.266 1352.985, 481.266 1351.985, 481.266 1350.985, 481.266 1349.985, 481.266 1348.985, 481.266 1347.985, 481.266 1346.985, 481.266 1345.985, 481.266 1344.985, 481.266 1344.518, 481.266 " />
            <path fill="none" stroke-width="2.0000009536743164" stroke-linecap="butt" stroke-opacity="1.0" stroke="rgb(0, 0, 0)" stroke-linejoin="round" d=" M 1330.617, 283.217 1331.617, 283.217 1332.617, 283.217 1333.617, 283.217 1334.617, 283.217 1335.617, 283.217 1336.617, 283.217 1337.617, 283.217 1338.617, 283.217 1339.617, 283.217 1340.617, 283.217 1341.617, 283.217 1341.780, 283.217 1342.610, 282.659 1342.803, 282.529 " />
            <path fill="none" stroke-width="2.0000009536743164" stroke-linecap="butt" stroke-opacity="1.0" stroke="rgb(0, 0, 0)" stroke-linejoin="round" d=" M 1337.164, 166.647 1336.164, 166.647 1335.164, 166.647 1334.164, 166.647 1333.164, 166.647 1332.164, 166.647 1331.164, 166.647 1330.164, 166.647 1329.164, 166.647 1328.164, 166.647 1327.164, 166.647 1326.164, 166.647 1325.396, 166.647 1324.926, 167.128 " />
            <path fill="none" stroke-width="2.0000009536743164" stroke-linecap="butt" stroke-opacity="1.0" stroke="rgb(0, 0, 0)" stroke-linejoin="round" d=" M 1225.804, 678.324 1225.059, 677.656 1224.315, 676.988 1223.571, 676.320 1222.827, 675.652 1222.082, 674.984 1221.338, 674.317 1220.594, 673.649 1219.850, 672.981 1219.105, 672.313 1218.361, 671.645 1217.617, 670.977 1217.430, 670.809 1216.896, 669.964 1216.361, 669.119 1215.827, 668.274 1215.292, 667.429 1214.758, 666.583 1214.223, 665.738 1213.689, 664.893 1213.154, 664.048 1212.620, 663.203 1212.085, 662.358 1211.551, 661.512 1211.016, 660.667 1210.482, 659.822 1209.947, 658.977 1209.413, 658.132 1209.049, 657.557 1208.668, 656.632 1208.287, 655.707 1207.906, 654.783 1207.526, 653.858 1207.145, 652.934 1206.764, 652.009 1206.383, 651.084 1206.002, 650.160 1205.621, 649.235 1205.240, 648.310 1204.860, 647.386 1204.479, 646.461 1204.098, 645.536 1203.717, 644.612 1203.336, 643.687 1202.955, 642.763 1202.575, 641.838 1202.194, 640.913 1201.813, 639.989 1201.703, 639.722 1201.436, 638.758 1201.168, 637.794 1200.901, 636.831 1200.634, 635.867 1200.366, 634.904 1200.099, 633.940 1199.832, 632.976 1199.564, 632.013 1199.297, 631.049 1199.030, 630.086 1198.762, 629.122 1198.495, 628.158 1198.228, 627.195 1197.960, 626.231 1197.693, 625.268 1197.426, 624.304 1197.159, 623.340 1196.891, 622.377 1196.624, 621.413 1196.357, 620.449 1196.089, 619.486 1195.822, 618.522 1195.674, 617.990 1195.496, 617.006 1195.319, 616.021 1195.141, 615.037 1194.963, 614.053 1194.785, 613.069 1194.607, 612.085 1194.430, 611.101 1194.252, 610.117 1194.074, 609.133 1193.896, 608.149 1193.718, 607.165 1193.541, 606.181 1193.363, 605.197 1193.185, 604.213 1193.007, 603.229 1192.829, 602.245 1192.651, 601.260 1192.474, 600.276 1192.296, 599.292 1192.118, 598.308 1191.940, 597.324 1191.762, 596.340 1191.585, 595.356 1191.407, 594.372 1191.194, 593.196 1191.092, 592.201 1190.990, 591.206 1190.888, 590.211 1190.786, 589.217 1190.684, 588.222 1190.582, 587.227 1190.480, 586.232 1190.378, 585.237 1190.276, 584.243 1190.174, 583.248 1190.072, 582.253 1189.970, 581.258 1189.868, 580.263 1189.766, 579.269 1189.664, 578.274 1189.562, 577.279 1189.460, 576.284 1189.358, 575.290 1189.256, 574.295 1189.154, 573.300 1189.052, 572.305 1188.950, 571.310 1188.848, 570.316 1188.746, 569.321 1188.644, 568.326 1188.542, 567.331 1188.436, 566.293 1188.402, 565.293 1188.369, 564.294 1188.336, 563.294 1188.303, 562.295 1188.269, 561.295 1188.236, 560.296 1188.203, 559.297 1188.170, 558.297 1188.136, 557.298 1188.103, 556.298 1188.070, 555.299 1188.036, 554.299 1188.003, 553.300 1187.970, 552.300 1187.937, 551.301 1187.903, 550.302 1187.870, 549.302 1187.837, 548.303 1187.804, 547.303 1187.770, 546.304 1187.737, 545.304 1187.704, 544.305 1187.671, 543.305 1187.637, 542.306 1187.604, 541.306 1187.571, 540.307 1187.537, 539.308 1187.504, 538.314 1187.538, 537.315 1187.571, 536.316 1187.604, 535.316 1187.637, 534.317 1187.671, 533.317 1187.704, 532.318 1187.737, 531.318 1187.771, 530.319 1187.804, 529.319 1187.837, 528.320 1187.870, 527.321 1187.904, 526.321 1187.937, 525.322 1187.970, 524.322 1188.003, 523.323 1188.037, 522.323 1188.070, 521.324 1188.103, 520.324 1188.136, 519.325 1188.170, 518.326 1188.203, 517.326 1188.236, 516.327 1188.270, 515.327 1188.303, 514.328 1188.336, 513.328 1188.370, 512.329 1188.403, 511.329 1188.436, 510.336 1188.538, 509.341 1188.640, 508.347 1188.742, 507.352 1188.844, 506.357 1188.946, 505.362 1189.048, 504.368 1189.150, 503.373 1189.252, 502.378 1189.354, 501.383 1189.456, 500.388 1189.558, 499.394 1189.660, 498.399 1189.762, 497.404 1189.864, 496.409 1189.966, 495.414 1190.068, 494.420 1190.170, 493.425 1190.272, 492.430 1190.374, 491.435 1190.476, 490.441 1190.578, 489.446 1190.680, 488.451 1190.782, 487.456 1190.884, 486.461 1190.986, 485.467 1191.088, 484.472 1191.194, 483.433 1191.372, 482.449 1191.550, 481.465 1191.728, 480.481 1191.906, 479.497 1192.083, 478.513 1192.261, 477.529 1192.439, 476.545 1192.617, 475.561 1192.795, 474.577 1192.972, 473.593 1193.150, 472.609 1193.328, 471.624 1193.506, 470.640 1193.684, 469.656 1193.861, 468.672 1194.039, 467.688 1194.217, 466.704 1194.395, 465.720 1194.573, 464.736 1194.750, 463.752 1194.928, 462.768 1195.106, 461.784 1195.284, 460.800 1195.462, 459.816 1195.674, 458.639 1195.942, 457.676 1196.209, 456.712 1196.476, 455.748 1196.743, 454.785 1197.011, 453.821 1197.278, 452.858 1197.545, 451.894 1197.813, 450.930 1198.080, 449.967 1198.347, 449.003 1198.615, 448.040 1198.882, 447.076 1199.149, 446.112 1199.417, 445.149 1199.684, 444.185 1199.951, 443.222 1200.219, 442.258 1200.486, 441.294 1200.753, 440.331 1201.021, 439.367 1201.288, 438.404 1201.555, 437.440 1201.703, 436.907 1202.084, 435.983 1202.465, 435.058 1202.845, 434.133 1203.226, 433.209 1203.607, 432.284 1203.988, 431.359 1204.369, 430.435 1204.750, 429.510 1205.130, 428.585 1205.511, 427.661 1205.892, 426.736 1206.273, 425.812 1206.654, 424.887 1207.035, 423.962 1207.416, 423.038 1207.797, 422.113 1208.177, 421.188 1208.558, 420.264 1208.939, 419.339 1209.049, 419.072 1209.583, 418.227 1210.118, 417.382 1210.652, 416.537 1211.187, 415.691 1211.721, 414.846 1212.256, 414.001 1212.790, 413.156 1213.325, 412.311 1213.859, 411.466 1214.394, 410.620 1214.928, 409.775 1215.463, 408.930 1215.997, 408.085 1216.532, 407.240 1217.066, 406.395 1217.430, 405.820 1218.174, 405.152 1218.918, 404.484 1219.663, 403.816 1220.407, 403.148 1221.151, 402.480 1221.896, 401.812 1222.640, 401.144 1223.384, 400.476 1224.128, 399.809 1224.873, 399.141 1225.617, 398.473 1225.764, 398.341 " />
            <path fill="none" stroke-width="2.0000009536743164" stroke-linecap="butt" stroke-opacity="1.0" stroke="rgb(0, 0, 0)" stroke-linejoin="round" d=" M 1225.764, 398.341 1226.724, 398.061 1227.684, 397.781 1228.644, 397.501 1229.604, 397.222 1230.565, 396.942 1231.525, 396.662 1232.485, 396.382 1233.445, 396.103 1234.017, 395.936 1234.977, 396.216 1235.937, 396.495 1236.897, 396.775 1237.857, 397.055 1238.817, 397.335 1239.777, 397.614 1240.737, 397.894 1241.697, 398.174 1242.657, 398.454 1243.407, 398.672 1244.151, 399.340 1244.895, 400.008 1245.640, 400.676 1246.384, 401.344 1247.128, 402.011 1247.872, 402.679 1248.616, 403.347 1249.361, 404.015 1250.105, 404.683 1250.849, 405.351 1251.594, 406.019 1252.338, 406.687 1252.436, 406.775 1252.970, 407.620 1253.505, 408.465 1254.039, 409.310 1254.574, 410.156 1255.108, 411.001 1255.643, 411.846 1256.177, 412.691 1256.712, 413.536 1257.246, 414.381 1257.781, 415.227 1258.315, 416.072 1258.850, 416.917 1259.384, 417.762 1259.919, 418.607 1260.453, 419.452 1260.757, 419.933 1261.138, 420.858 1261.519, 421.782 1261.900, 422.707 1262.281, 423.632 1262.661, 424.556 1263.042, 425.481 1263.423, 426.406 1263.804, 427.330 1264.185, 428.255 1264.566, 429.179 1264.947, 430.104 1265.327, 431.029 1265.708, 431.953 1266.089, 432.878 1266.470, 433.803 1266.851, 434.727 1267.232, 435.652 1267.612, 436.577 1268.051, 437.641 1268.318, 438.605 1268.586, 439.568 1268.853, 440.532 1269.120, 441.496 1269.388, 442.459 1269.655, 443.423 1269.922, 444.386 1270.190, 445.350 1270.457, 446.314 1270.724, 447.277 1270.991, 448.241 1271.259, 449.204 1271.526, 450.168 1271.793, 451.132 1272.061, 452.095 1272.328, 453.059 1272.595, 454.023 1272.863, 454.986 1273.130, 455.950 1273.397, 456.913 1273.665, 457.877 1273.932, 458.841 1274.037, 459.219 1274.215, 460.203 1274.392, 461.187 1274.570, 462.171 1274.748, 463.155 1274.926, 464.139 1275.104, 465.123 1275.281, 466.107 1275.459, 467.091 1275.637, 468.075 1275.815, 469.059 1275.993, 470.043 1276.171, 471.027 1276.348, 472.011 1276.526, 472.995 1276.704, 473.980 1276.882, 474.964 1277.059, 475.948 1277.237, 476.932 1277.415, 477.916 1277.593, 478.900 1277.771, 479.884 1277.948, 480.868 1278.126, 481.852 1278.304, 482.836 1278.485, 483.836 1278.587, 484.831 1278.689, 485.826 1278.791, 486.820 1278.893, 487.815 1278.995, 488.810 1279.097, 489.805 1279.199, 490.799 1279.301, 491.794 1279.403, 492.789 1279.505, 493.784 1279.607, 494.779 1279.709, 495.773 1279.811, 496.768 1279.913, 497.763 1280.015, 498.758 1280.117, 499.753 1280.219, 500.747 1280.321, 501.742 1280.423, 502.737 1280.525, 503.732 1280.627, 504.726 1280.729, 505.721 1280.831, 506.716 1280.933, 507.711 1281.035, 508.706 1281.137, 509.700 1281.224, 510.547 1281.257, 511.547 1281.290, 512.546 1281.324, 513.546 1281.357, 514.545 1281.390, 515.545 1281.423, 516.544 1281.457, 517.544 1281.490, 518.543 1281.523, 519.542 1281.557, 520.542 1281.590, 521.541 1281.623, 522.541 1281.656, 523.540 1281.690, 524.540 1281.723, 525.539 1281.756, 526.539 1281.789, 527.538 1281.823, 528.537 1281.856, 529.537 1281.889, 530.536 1281.922, 531.536 1281.956, 532.535 1281.989, 533.535 1282.022, 534.534 1282.056, 535.534 1282.089, 536.533 1282.122, 537.532 1282.149, 538.326 1282.115, 539.326 1282.082, 540.325 1282.049, 541.325 1282.015, 542.324 1281.982, 543.324 1281.949, 544.323 1281.916, 545.323 1281.882, 546.322 1281.849, 547.321 1281.816, 548.321 1281.783, 549.320 1281.749, 550.320 1281.716, 551.319 1281.683, 552.319 1281.649, 553.318 1281.616, 554.318 1281.583, 555.317 1281.550, 556.316 1281.516, 557.316 1281.483, 558.315 1281.450, 559.315 1281.417, 560.314 1281.383, 561.314 1281.350, 562.313 1281.317, 563.313 1281.283, 564.312 1281.250, 565.312 1281.224, 566.105 1281.122, 567.100 1281.020, 568.095 1280.918, 569.090 1280.816, 570.085 1280.714, 571.079 1280.612, 572.074 1280.510, 573.069 1280.408, 574.064 1280.306, 575.059 1280.204, 576.053 1280.102, 577.048 1280.000, 578.043 1279.898, 579.038 1279.796, 580.032 1279.694, 581.027 1279.592, 582.022 1279.490, 583.017 1279.388, 584.012 1279.286, 585.006 1279.184, 586.001 1279.082, 586.996 1278.980, 587.991 1278.878, 588.985 1278.776, 589.980 1278.674, 590.975 1278.572, 591.970 1278.485, 592.817 1278.307, 593.801 1278.129, 594.785 1277.951, 595.769 1277.774, 596.753 1277.596, 597.737 1277.418, 598.721 1277.240, 599.705 1277.062, 600.689 1276.885, 601.674 1276.707, 602.658 1276.529, 603.642 1276.351, 604.626 1276.173, 605.610 1275.995, 606.594 1275.818, 607.578 1275.640, 608.562 1275.462, 609.546 1275.284, 610.530 1275.107, 611.514 1274.929, 612.498 1274.751, 613.482 1274.573, 614.466 1274.395, 615.450 1274.218, 616.435 1274.037, 617.434 1273.770, 618.398 1273.502, 619.362 1273.235, 620.325 1272.968, 621.289 1272.700, 622.252 1272.433, 623.216 1272.166, 624.180 1271.898, 625.143 1271.631, 626.107 1271.364, 627.070 1271.096, 628.034 1270.829, 628.998 1270.562, 629.961 1270.294, 630.925 1270.027, 631.888 1269.760, 632.852 1269.492, 633.816 1269.225, 634.779 1268.958, 635.743 1268.690, 636.706 1268.423, 637.670 1268.156, 638.634 1268.051, 639.012 1267.670, 639.936 1267.289, 640.861 1266.908, 641.786 1266.528, 642.710 1266.147, 643.635 1265.766, 644.560 1265.385, 645.484 1265.004, 646.409 1264.623, 647.333 1264.242, 648.258 1263.862, 649.183 1263.481, 650.107 1263.100, 651.032 1262.719, 651.957 1262.338, 652.881 1261.957, 653.806 1261.577, 654.731 1261.196, 655.655 1260.757, 656.720 1260.223, 657.565 1259.688, 658.410 1259.154, 659.255 1258.619, 660.100 1258.085, 660.946 1257.550, 661.791 1257.016, 662.636 1256.481, 663.481 1255.947, 664.326 1255.412, 665.172 1254.878, 666.017 1254.343, 666.862 1253.809, 667.707 1253.274, 668.552 1252.740, 669.397 1252.436, 669.878 1251.692, 670.546 1250.947, 671.214 1250.203, 671.882 1249.459, 672.550 1248.715, 673.218 1247.970, 673.885 1247.226, 674.553 1246.482, 675.221 1245.738, 675.889 1244.993, 676.557 1244.249, 677.225 1243.505, 677.893 1243.407, 677.981 1242.447, 678.261 1241.487, 678.540 1240.526, 678.820 1239.566, 679.100 1238.606, 679.380 1237.646, 679.659 1236.686, 679.939 1235.726, 680.219 1234.766, 680.499 1234.016, 680.717 1233.056, 680.437 1232.096, 680.157 1231.136, 679.878 1230.176, 679.598 1229.216, 679.318 1228.256, 679.038 1227.296, 678.759 1226.336, 678.479 1225.804, 678.324 " />
            <path fill="none" stroke-width="2.0000009536743164" stroke-linecap="butt" stroke-opacity="1.0" stroke="rgb(0, 0, 0)" stroke-linejoin="round" d=" M 931.757, 297.033 931.298, 297.190 931.415, 298.183 931.502, 298.919 931.826, 299.865 932.150, 300.811 932.474, 301.757 932.798, 302.703 933.121, 303.649 933.445, 304.595 933.769, 305.542 934.093, 306.488 934.417, 307.434 934.741, 308.380 935.065, 309.326 935.389, 310.272 935.713, 311.218 936.037, 312.164 936.361, 313.110 936.685, 314.056 936.774, 314.318 " />
            <path fill="none" stroke-width="2.0000009536743164" stroke-linecap="butt" stroke-opacity="1.0" stroke="rgb(0, 0, 0)" stroke-linejoin="round" d=" M 936.785, 762.315 936.461, 763.261 936.137, 764.207 935.813, 765.153 935.489, 766.099 935.165, 767.045 934.841, 767.991 934.517, 768.937 934.193, 769.883 933.869, 770.829 933.545, 771.775 933.221, 772.721 932.898, 773.668 932.574, 774.614 932.250, 775.560 931.926, 776.506 931.602, 777.452 931.505, 777.734 931.386, 778.727 931.301, 779.439 931.347, 779.454 " />
            <path fill="none" stroke-width="2.0000009536743164" stroke-linecap="butt" stroke-opacity="1.0" stroke="rgb(0, 0, 0)" stroke-linejoin="round" d=" M 1344.518, 481.266 1344.518, 480.950 1343.518, 480.950 1342.518, 480.950 1341.518, 480.950 1340.518, 480.950 1339.518, 480.950 1338.518, 480.950 1337.518, 480.950 1336.518, 480.950 1335.518, 480.950 1334.518, 480.950 1333.518, 480.950 1332.518, 480.950 1331.518, 480.950 1330.617, 480.950 " />
            <path fill="none" stroke-width="2.0000009536743164" stroke-linecap="butt" stroke-opacity="1.0" stroke="rgb(0, 0, 0)" stroke-linejoin="round" d=" M 1218.532, 855.916 1218.208, 856.862 1217.884, 857.808 1217.560, 858.754 1217.236, 859.701 1216.912, 860.647 1216.588, 861.593 1216.264, 862.539 1215.940, 863.485 1215.616, 864.431 1215.293, 865.377 1214.969, 866.323 1214.645, 867.269 1214.321, 868.215 1213.997, 869.161 1213.789, 869.768 1214.122, 870.201 " />
            <path fill="none" stroke-width="2.0000009536743164" stroke-linecap="butt" stroke-opacity="1.0" stroke="rgb(0, 0, 0)" stroke-linejoin="round" d=" M 1324.660, 909.236 1325.363, 909.947 1325.396, 909.981 1326.396, 909.981 1327.396, 909.981 1328.396, 909.981 1329.396, 909.981 1330.396, 909.981 1331.396, 909.981 1332.396, 909.981 1333.396, 909.981 1334.396, 909.981 1335.396, 909.981 1336.396, 909.981 1337.396, 909.981 1338.396, 909.981 1339.396, 909.981 1340.396, 909.981 1341.396, 909.981 1342.396, 909.981 1343.396, 909.982 1344.518, 909.982 1344.518, 909.829 " />
            <path fill="none" stroke-width="2.0000009536743164" stroke-linecap="butt" stroke-opacity="1.0" stroke="rgb(0, 0, 0)" stroke-linejoin="round" d=" M 630.966, 495.541 631.470, 495.609 632.470, 495.609 633.470, 495.609 634.470, 495.609 635.470, 495.609 636.470, 495.609 637.470, 495.609 638.470, 495.609 639.470, 495.609 640.470, 495.609 641.470, 495.609 642.241, 495.609 " />
            <path fill="none" stroke-width="2.0000009536743164" stroke-linecap="butt" stroke-opacity="1.0" stroke="rgb(0, 0, 0)" stroke-linejoin="round" d=" M 635.622, 397.391 634.676, 397.715 633.730, 398.039 632.784, 398.363 631.837, 398.687 630.891, 399.011 629.945, 399.335 629.481, 399.493 629.523, 399.615 " />
            <path fill="none" stroke-width="2.0000009536743164" stroke-linecap="butt" stroke-opacity="1.0" stroke="rgb(0, 0, 0)" stroke-linejoin="round" d=" M 629.546, 676.946 629.481, 677.136 630.427, 677.460 631.374, 677.784 632.320, 678.108 633.266, 678.431 634.212, 678.755 634.470, 678.844 " />
            <path fill="none" stroke-width="2.0000009536743164" stroke-linecap="butt" stroke-opacity="1.0" stroke="rgb(0, 0, 0)" stroke-linejoin="round" d=" M 629.115, 676.748 629.115, 676.946 629.546, 676.946 " />
            <path fill="none" stroke-width="2.0000009536743164" stroke-linecap="butt" stroke-opacity="1.0" stroke="rgb(0, 0, 0)" stroke-linejoin="round" d=" M 1214.366, 206.127 1213.789, 206.884 1214.113, 207.830 1214.437, 208.776 1214.761, 209.723 1215.085, 210.669 1215.409, 211.615 1215.733, 212.561 1216.057, 213.507 1216.380, 214.453 1216.704, 215.399 1217.028, 216.345 1217.352, 217.291 1217.676, 218.237 1218.000, 219.183 1218.324, 220.130 1218.524, 220.715 " />
            <path fill="none" stroke-width="2.0000009536743164" stroke-linecap="butt" stroke-opacity="1.0" stroke="rgb(0, 0, 0)" stroke-linejoin="round" d=" M 1344.518, 909.829 1345.518, 909.829 1346.518, 909.829 1347.518, 909.829 1348.518, 909.829 1349.518, 909.829 1350.518, 909.829 1351.518, 909.829 1352.518, 909.829 1353.518, 909.829 1354.518, 909.829 1355.518, 909.829 1356.518, 909.829 1356.985, 909.829 1356.985, 908.829 1356.985, 907.829 1356.985, 906.829 1356.985, 905.829 1356.985, 904.829 1356.985, 903.829 1356.985, 902.829 1356.985, 901.829 1356.985, 900.829 1356.985, 899.829 1356.985, 898.829 1356.985, 897.829 1356.985, 896.829 1356.985, 895.829 1356.985, 894.829 1356.985, 893.829 1356.985, 892.829 1356.985, 891.829 1356.985, 890.829 1356.985, 889.829 1356.985, 888.829 1356.985, 887.829 1356.985, 886.829 1356.985, 885.829 1356.985, 884.829 1356.985, 883.829 1356.985, 882.829 1356.985, 881.829 1356.985, 880.829 1356.985, 879.829 1356.985, 878.829 1356.985, 877.829 1356.985, 876.829 1356.985, 875.829 1356.985, 874.829 1356.985, 873.829 1356.985, 872.829 1356.985, 871.829 1356.985, 870.829 1356.985, 869.829 1356.985, 868.829 1356.985, 867.829 1356.985, 866.829 1356.985, 865.829 1356.985, 864.829 1356.985, 863.829 1356.985, 862.829 1356.985, 861.829 1356.985, 860.829 1356.985, 859.829 1356.985, 858.829 1356.985, 857.829 1356.985, 856.829 1356.985, 855.829 1356.985, 854.829 1356.985, 853.829 1356.985, 852.829 1356.985, 851.829 1356.985, 850.829 1356.985, 849.829 1356.985, 848.829 1356.985, 847.829 1356.985, 846.829 1356.985, 845.829 1356.985, 844.829 1356.985, 843.829 1356.985, 842.829 1356.985, 841.829 1356.985, 840.829 1356.985, 839.829 1356.985, 838.829 1356.985, 837.829 1356.985, 836.829 1356.985, 835.829 1356.985, 834.829 1356.985, 833.829 1356.985, 832.829 1356.985, 831.829 1356.985, 830.829 1356.985, 829.829 1356.985, 828.829 1356.985, 827.829 1356.985, 826.829 1356.985, 825.829 1356.985, 824.829 1356.985, 823.829 1356.985, 822.829 1356.985, 821.829 1356.985, 820.829 1356.985, 819.829 1356.985, 818.829 1356.985, 817.829 1356.985, 816.829 1356.985, 815.829 1356.985, 814.829 1356.985, 813.829 1356.985, 812.829 1356.985, 811.829 1356.985, 810.829 1356.985, 809.829 1356.985, 808.829 1356.985, 807.829 1356.985, 806.829 1356.985, 805.829 1356.985, 804.829 1356.985, 803.829 1356.985, 802.829 1356.985, 801.829 1356.985, 800.829 1356.985, 799.829 1356.985, 798.829 1356.985, 797.829 1356.985, 796.829 1356.985, 795.100 1356.144, 794.559 1355.303, 794.019 1354.461, 793.478 1354.159, 793.284 1353.159, 793.284 1352.159, 793.284 1351.159, 793.284 1350.159, 793.284 1349.159, 793.284 1348.159, 793.284 1347.159, 793.284 1346.159, 793.284 1345.159, 793.284 1344.159, 793.284 1343.159, 793.284 1342.159, 793.284 1341.159, 793.284 1340.159, 793.284 1339.159, 793.284 1338.159, 793.284 1337.159, 793.284 1336.159, 793.284 1335.173, 793.284 1335.173, 793.435 " />
            <path fill="none" stroke-width="2.0000009536743164" stroke-linecap="butt" stroke-opacity="1.0" stroke="rgb(0, 0, 0)" stroke-linejoin="round" d=" M 641.295, 581.044 641.295, 580.847 640.295, 580.847 639.295, 580.847 638.295, 580.847 637.295, 580.847 636.295, 580.847 635.295, 580.847 634.295, 580.847 633.295, 580.847 632.295, 580.847 631.295, 580.847 630.295, 580.847 629.295, 580.847 628.295, 580.847 627.295, 580.847 626.295, 580.847 625.295, 580.847 624.295, 580.847 623.295, 580.847 622.309, 580.847 621.317, 580.967 620.324, 581.087 619.888, 581.140 619.888, 582.140 619.888, 583.140 619.888, 584.140 619.888, 585.140 619.888, 586.140 619.888, 587.140 619.888, 588.140 619.888, 589.140 619.888, 590.140 619.888, 591.140 619.888, 592.140 619.888, 593.140 619.888, 594.140 619.888, 595.140 619.888, 596.140 619.888, 597.140 619.888, 598.140 619.888, 599.140 619.888, 600.140 619.888, 601.140 619.888, 602.140 619.888, 603.140 619.888, 604.140 619.888, 605.140 619.888, 606.140 619.888, 607.140 619.888, 608.140 619.888, 609.140 619.888, 610.140 619.888, 611.140 619.888, 612.140 619.888, 613.140 619.888, 614.140 619.888, 615.140 619.888, 616.140 619.888, 617.140 619.888, 618.140 619.888, 619.140 619.888, 620.140 619.888, 621.140 619.888, 622.140 619.888, 623.140 619.888, 624.140 619.888, 625.140 619.888, 626.140 619.888, 627.140 619.888, 628.140 619.888, 629.140 619.888, 630.140 619.888, 631.140 619.888, 632.140 619.888, 633.140 619.888, 634.140 619.888, 635.140 619.888, 636.140 619.888, 637.140 619.888, 638.140 619.888, 639.140 619.888, 640.140 619.888, 641.140 619.888, 642.140 619.888, 643.140 619.888, 644.140 619.888, 645.140 619.888, 646.140 619.888, 647.140 619.888, 648.140 619.888, 649.140 619.888, 650.140 619.888, 651.140 619.888, 652.140 619.888, 653.140 619.888, 654.140 619.888, 655.140 619.888, 656.140 619.888, 657.140 619.888, 658.140 619.888, 659.140 619.888, 660.140 619.888, 661.140 619.888, 662.140 619.888, 663.140 619.888, 664.140 619.888, 665.140 619.888, 666.140 619.888, 667.140 619.888, 668.140 619.888, 669.140 619.888, 670.140 619.888, 671.140 619.888, 672.140 619.888, 673.140 619.888, 674.140 619.888, 675.140 619.888, 676.748 620.888, 676.748 621.888, 676.748 622.888, 676.748 623.888, 676.748 624.888, 676.748 625.888, 676.748 626.888, 676.748 627.888, 676.748 628.888, 676.748 629.115, 676.748 " />
            <path fill="none" stroke-width="2.0000009536743164" stroke-linecap="butt" stroke-opacity="1.0" stroke="rgb(0, 0, 0)" stroke-linejoin="round" d=" M 629.523, 399.615 628.523, 399.615 627.523, 399.615 626.523, 399.615 625.523, 399.615 624.523, 399.615 623.523, 399.615 622.523, 399.615 621.523, 399.615 620.523, 399.615 619.888, 399.615 619.888, 400.615 619.888, 401.615 619.888, 402.615 619.888, 403.615 619.888, 404.615 619.888, 405.615 619.888, 406.615 619.888, 407.615 619.888, 408.615 619.888, 409.615 619.888, 410.615 619.888, 411.615 619.888, 412.615 619.888, 413.615 619.888, 414.615 619.888, 415.615 619.888, 416.615 619.888, 417.615 619.888, 418.615 619.888, 419.615 619.888, 420.615 619.888, 421.615 619.888, 422.615 619.888, 423.615 619.888, 424.615 619.888, 425.615 619.888, 426.615 619.888, 427.615 619.888, 428.615 619.888, 429.615 619.888, 430.615 619.888, 431.615 619.888, 432.615 619.888, 433.615 619.888, 434.615 619.888, 435.615 619.888, 436.615 619.888, 437.615 619.888, 438.615 619.888, 439.615 619.888, 440.615 619.888, 441.615 619.888, 442.615 619.888, 443.615 619.888, 444.615 619.888, 445.615 619.888, 446.615 619.888, 447.615 619.888, 448.615 619.888, 449.615 619.888, 450.615 619.888, 451.615 619.888, 452.615 619.888, 453.615 619.888, 454.615 619.888, 455.615 619.888, 456.615 619.888, 457.615 619.888, 458.615 619.888, 459.615 619.888, 460.615 619.888, 461.615 619.888, 462.615 619.888, 463.615 619.888, 464.615 619.888, 465.615 619.888, 466.615 619.888, 467.615 619.888, 468.615 619.888, 469.615 619.888, 470.615 619.888, 471.615 619.888, 472.615 619.888, 473.615 619.888, 474.615 619.888, 475.615 619.888, 476.615 619.888, 477.615 619.888, 478.615 619.888, 479.615 619.888, 480.615 619.888, 481.615 619.888, 482.615 619.888, 483.615 619.888, 484.615 619.888, 485.615 619.888, 486.615 619.888, 487.615 619.888, 488.615 619.888, 489.615 619.888, 490.615 619.888, 491.615 619.888, 492.615 619.888, 493.615 619.888, 495.222 620.879, 495.353 621.871, 495.483 622.309, 495.541 623.309, 495.541 624.309, 495.541 625.309, 495.541 626.309, 495.541 627.309, 495.541 628.309, 495.541 629.309, 495.541 630.309, 495.541 630.966, 495.541 " />
            <path fill="none" stroke-width="2.0000009536743164" stroke-linecap="butt" stroke-opacity="1.0" stroke="rgb(0, 0, 0)" stroke-linejoin="round" d=" M 1214.122, 870.201 1213.810, 871.151 1213.498, 872.101 1213.186, 873.051 1212.873, 874.001 1212.561, 874.951 1212.249, 875.901 1211.937, 876.851 1211.625, 877.801 1211.312, 878.751 1211.000, 879.701 1210.688, 880.651 1210.376, 881.601 1210.064, 882.551 1209.752, 883.502 1209.439, 884.452 1209.259, 885.002 1209.844, 885.812 1210.430, 886.623 1211.016, 887.433 1211.046, 887.475 1211.996, 887.788 1212.946, 888.100 1213.896, 888.412 1214.846, 888.724 1215.796, 889.036 1216.746, 889.348 1217.696, 889.661 1218.646, 889.973 1219.596, 890.285 1220.546, 890.597 1221.496, 890.909 1222.446, 891.221 1223.396, 891.534 1224.346, 891.846 1225.297, 892.158 1226.246, 892.470 1227.197, 892.782 1228.146, 893.095 1229.097, 893.407 1230.047, 893.719 1230.997, 894.031 1231.947, 894.343 1232.897, 894.655 1233.847, 894.968 1234.797, 895.280 1235.747, 895.592 1236.697, 895.904 1237.647, 896.216 1238.597, 896.528 1239.547, 896.841 1240.497, 897.153 1241.447, 897.465 1242.397, 897.777 1243.347, 898.089 1244.297, 898.401 1245.247, 898.714 1246.197, 899.026 1247.147, 899.338 1248.097, 899.650 1249.047, 899.962 1249.997, 900.274 1250.947, 900.587 1251.897, 900.899 1252.847, 901.211 1253.797, 901.523 1254.747, 901.835 1255.697, 902.147 1256.647, 902.460 1257.597, 902.772 1258.547, 903.084 1259.497, 903.396 1260.447, 903.708 1261.397, 904.020 1262.348, 904.333 1263.297, 904.645 1264.248, 904.957 1265.198, 905.269 1266.148, 905.581 1267.098, 905.893 1268.048, 906.206 1268.998, 906.518 1269.948, 906.830 1270.898, 907.142 1271.848, 907.454 1272.798, 907.766 1273.748, 908.079 1274.698, 908.391 1275.648, 908.703 1276.598, 909.015 1277.548, 909.327 1278.498, 909.639 1279.448, 909.952 1280.398, 910.264 1281.348, 910.576 1282.298, 910.888 1283.248, 911.200 1284.198, 911.512 1285.148, 911.825 1286.098, 912.137 1287.048, 912.449 1287.998, 912.761 1288.948, 913.073 1289.898, 913.385 1290.848, 913.698 1291.798, 914.010 1292.748, 914.322 1293.698, 914.634 1294.648, 914.946 1295.598, 915.259 1296.548, 915.571 1297.498, 915.883 1298.448, 916.195 1299.399, 916.507 1300.349, 916.819 1301.299, 917.132 1302.249, 917.444 1303.199, 917.756 1304.149, 918.068 1305.099, 918.380 1306.049, 918.692 1306.999, 919.005 1307.949, 919.317 1308.899, 919.629 1309.849, 919.941 1310.799, 920.253 1311.749, 920.565 1312.699, 920.878 1313.649, 921.190 1314.599, 921.502 1315.549, 921.814 1316.499, 922.126 1317.449, 922.438 1318.399, 922.751 1320.042, 923.290 1320.354, 922.340 1320.666, 921.390 1320.978, 920.440 1321.291, 919.490 1321.603, 918.540 1321.915, 917.590 1322.227, 916.640 1322.539, 915.690 1322.851, 914.740 1323.163, 913.790 1323.476, 912.840 1323.788, 911.890 1324.100, 910.940 1324.412, 909.990 1324.660, 909.236 " />
            <path fill="none" stroke-width="2.0000009536743164" stroke-linecap="butt" stroke-opacity="1.0" stroke="rgb(0, 0, 0)" stroke-linejoin="round" d=" M 931.347, 779.454 931.034, 780.404 930.722, 781.354 930.410, 782.304 930.098, 783.254 929.786, 784.205 929.474, 785.155 929.161, 786.105 928.849, 787.055 928.537, 788.005 928.225, 788.955 927.913, 789.905 927.743, 790.420 927.616, 791.412 927.512, 792.216 928.462, 792.528 929.412, 792.840 930.362, 793.153 931.312, 793.465 932.262, 793.777 933.212, 794.089 934.162, 794.401 935.112, 794.713 936.062, 795.026 937.012, 795.338 937.962, 795.650 938.912, 795.962 939.862, 796.274 940.812, 796.586 941.762, 796.899 942.712, 797.211 943.663, 797.523 944.613, 797.835 945.563, 798.147 946.513, 798.459 947.463, 798.772 948.413, 799.084 949.363, 799.396 950.313, 799.708 951.263, 800.020 952.213, 800.332 953.163, 800.645 954.113, 800.957 955.063, 801.269 956.013, 801.581 956.963, 801.893 957.913, 802.205 958.863, 802.518 959.813, 802.830 960.763, 803.142 961.713, 803.454 962.663, 803.766 963.613, 804.078 964.563, 804.391 965.513, 804.703 966.463, 805.015 967.413, 805.327 968.363, 805.639 969.313, 805.951 970.263, 806.264 971.213, 806.576 972.163, 806.888 973.113, 807.200 974.063, 807.512 975.013, 807.824 975.963, 808.137 976.913, 808.449 977.863, 808.761 978.813, 809.073 979.764, 809.385 980.714, 809.697 981.664, 810.010 982.614, 810.322 983.564, 810.634 984.514, 810.946 985.464, 811.258 986.414, 811.570 987.364, 811.883 988.314, 812.195 989.264, 812.507 990.214, 812.819 991.164, 813.131 992.114, 813.444 993.064, 813.756 994.014, 814.068 994.964, 814.380 995.914, 814.692 996.864, 815.004 997.814, 815.317 998.764, 815.629 999.714, 815.941 1000.664, 816.253 1001.614, 816.565 1002.564, 816.877 1003.514, 817.190 1004.464, 817.502 1005.414, 817.814 1006.364, 818.126 1007.314, 818.438 1008.264, 818.750 1009.214, 819.063 1010.164, 819.375 1011.114, 819.687 1012.064, 819.999 1013.014, 820.311 1013.964, 820.623 1014.914, 820.936 1015.865, 821.248 1016.815, 821.560 1017.765, 821.872 1018.715, 822.184 1019.665, 822.496 1020.615, 822.809 1021.565, 823.121 1022.515, 823.433 1023.465, 823.745 1024.415, 824.057 1025.365, 824.369 1026.315, 824.682 1027.265, 824.994 1028.215, 825.306 1029.165, 825.618 1030.115, 825.930 1031.065, 826.242 1032.015, 826.555 1032.965, 826.867 1033.915, 827.179 1034.865, 827.491 1036.508, 828.031 1036.820, 827.081 1037.132, 826.131 1037.444, 825.181 1037.757, 824.231 1038.069, 823.281 1038.381, 822.331 1038.693, 821.381 1039.005, 820.431 1039.317, 819.481 1039.630, 818.531 1039.942, 817.581 1040.254, 816.631 1040.566, 815.681 1040.878, 814.731 1041.190, 813.781 1041.503, 812.830 1041.815, 811.880 1042.127, 810.930 1042.477, 809.865 1042.323, 809.362 " />
            <path fill="none" stroke-width="2.0000009536743164" stroke-linecap="butt" stroke-opacity="1.0" stroke="rgb(0, 0, 0)" stroke-linejoin="round" d=" M 634.470, 678.844 634.157, 679.794 633.845, 680.744 633.533, 681.694 633.221, 682.644 632.909, 683.594 632.596, 684.544 632.284, 685.494 631.972, 686.444 631.660, 687.394 631.348, 688.344 631.036, 689.294 630.723, 690.244 630.643, 690.489 631.593, 690.801 632.543, 691.113 633.493, 691.426 634.443, 691.738 635.393, 692.050 636.343, 692.362 637.293, 692.674 638.243, 692.986 639.193, 693.299 640.143, 693.611 641.093, 693.923 642.043, 694.235 642.993, 694.547 643.943, 694.859 644.893, 695.172 645.843, 695.484 646.793, 695.796 647.743, 696.108 648.693, 696.420 649.643, 696.732 650.593, 697.045 651.543, 697.357 652.493, 697.669 653.443, 697.981 654.393, 698.293 655.344, 698.605 656.294, 698.918 657.244, 699.230 658.194, 699.542 659.144, 699.854 660.094, 700.166 661.044, 700.478 661.994, 700.791 662.944, 701.103 663.894, 701.415 664.844, 701.727 665.794, 702.039 666.744, 702.352 667.694, 702.664 668.644, 702.976 669.594, 703.288 670.544, 703.600 671.494, 703.912 672.444, 704.225 673.394, 704.537 674.344, 704.849 675.294, 705.161 676.244, 705.473 677.194, 705.785 678.144, 706.098 679.094, 706.410 680.044, 706.722 680.994, 707.034 681.944, 707.346 682.894, 707.658 683.844, 707.971 684.794, 708.283 685.744, 708.595 686.694, 708.907 687.644, 709.219 688.594, 709.531 689.544, 709.844 690.495, 710.156 691.445, 710.468 692.395, 710.780 693.345, 711.092 694.295, 711.404 695.245, 711.717 696.195, 712.029 697.145, 712.341 698.095, 712.653 699.045, 712.965 699.995, 713.277 700.945, 713.590 701.895, 713.902 702.845, 714.214 703.795, 714.526 704.745, 714.838 705.695, 715.150 706.645, 715.463 707.595, 715.775 708.545, 716.087 709.495, 716.399 710.445, 716.711 711.395, 717.023 712.345, 717.336 713.295, 717.648 714.245, 717.960 715.195, 718.272 716.145, 718.584 717.095, 718.896 718.045, 719.209 718.995, 719.521 719.945, 719.833 720.895, 720.145 721.845, 720.457 722.795, 720.769 723.745, 721.082 724.695, 721.394 725.646, 721.706 726.596, 722.018 727.546, 722.330 728.496, 722.642 729.446, 722.955 730.396, 723.267 731.346, 723.579 732.296, 723.891 733.246, 724.203 734.196, 724.515 735.146, 724.828 736.096, 725.140 737.046, 725.452 737.996, 725.764 738.946, 726.076 739.896, 726.388 740.846, 726.701 741.796, 727.013 742.746, 727.325 743.696, 727.637 744.646, 727.949 745.596, 728.262 746.546, 728.574 747.496, 728.886 748.446, 729.198 749.396, 729.510 750.346, 729.822 751.296, 730.135 752.246, 730.447 753.196, 730.759 754.146, 731.071 755.096, 731.383 756.046, 731.695 757.805, 732.273 758.529, 731.584 759.244, 730.904 759.556, 729.954 759.869, 729.004 760.181, 728.054 760.493, 727.104 760.805, 726.154 761.117, 725.204 761.429, 724.254 761.742, 723.304 762.054, 722.354 762.366, 721.404 762.678, 720.454 762.990, 719.504 763.302, 718.554 763.615, 717.604 763.927, 716.654 764.239, 715.704 764.551, 714.754 764.863, 713.804 765.171, 712.868 765.095, 712.843 " />
            <path fill="none" stroke-width="2.0000009536743164" stroke-linecap="butt" stroke-opacity="1.0" stroke="rgb(0, 0, 0)" stroke-linejoin="round" d=" M 763.903, 360.329 764.853, 360.017 765.171, 359.913 764.859, 358.963 764.547, 358.012 764.234, 357.062 763.922, 356.112 763.610, 355.162 763.298, 354.212 762.986, 353.262 762.674, 352.312 762.361, 351.362 762.049, 350.412 761.737, 349.462 761.425, 348.512 761.113, 347.562 760.801, 346.612 760.488, 345.662 760.176, 344.712 759.864, 343.762 759.552, 342.812 759.244, 341.876 758.532, 341.173 757.821, 340.471 757.805, 340.455 756.855, 340.767 755.905, 341.080 754.955, 341.392 754.005, 341.704 753.055, 342.016 752.104, 342.328 751.154, 342.640 750.204, 342.953 749.254, 343.265 748.304, 343.577 747.354, 343.889 746.404, 344.201 745.454, 344.513 744.504, 344.826 743.554, 345.138 742.604, 345.450 741.654, 345.762 740.704, 346.074 739.754, 346.386 738.804, 346.699 737.854, 347.011 736.904, 347.323 735.954, 347.635 735.004, 347.947 734.054, 348.259 733.104, 348.572 732.154, 348.884 731.204, 349.196 730.254, 349.508 729.304, 349.820 728.354, 350.132 727.404, 350.445 726.454, 350.757 725.504, 351.069 724.554, 351.381 723.604, 351.693 722.654, 352.005 721.704, 352.318 720.754, 352.630 719.804, 352.942 718.854, 353.254 717.904, 353.566 716.953, 353.878 716.003, 354.191 715.053, 354.503 714.103, 354.815 713.153, 355.127 712.203, 355.439 711.253, 355.751 710.303, 356.064 709.353, 356.376 708.403, 356.688 707.453, 357.000 706.503, 357.312 705.553, 357.625 704.603, 357.937 703.653, 358.249 702.703, 358.561 701.753, 358.873 700.803, 359.185 699.853, 359.497 698.903, 359.810 697.953, 360.122 697.003, 360.434 696.053, 360.746 695.103, 361.058 694.153, 361.371 693.203, 361.683 692.253, 361.995 691.303, 362.307 690.353, 362.619 689.403, 362.931 688.453, 363.244 687.503, 363.556 686.553, 363.868 685.603, 364.180 684.653, 364.492 683.703, 364.804 682.753, 365.117 681.803, 365.429 680.852, 365.741 679.902, 366.053 678.952, 366.365 678.002, 366.677 677.052, 366.990 676.102, 367.302 675.152, 367.614 674.202, 367.926 673.252, 368.238 672.302, 368.550 671.352, 368.863 670.402, 369.175 669.452, 369.487 668.502, 369.799 667.552, 370.111 666.602, 370.423 665.652, 370.736 664.702, 371.048 663.752, 371.360 662.802, 371.672 661.852, 371.984 660.902, 372.296 659.952, 372.609 659.002, 372.921 658.052, 373.233 657.102, 373.545 656.152, 373.857 655.202, 374.169 654.252, 374.482 653.302, 374.794 652.352, 375.106 651.402, 375.418 650.452, 375.730 649.502, 376.042 648.552, 376.355 647.602, 376.667 646.652, 376.979 645.702, 377.291 644.752, 377.603 643.801, 377.915 642.851, 378.228 641.901, 378.540 640.951, 378.852 640.001, 379.164 639.051, 379.476 638.101, 379.789 637.151, 380.101 636.201, 380.413 635.251, 380.725 634.301, 381.037 633.351, 381.349 632.401, 381.661 630.643, 382.239 630.955, 383.189 631.267, 384.139 631.579, 385.089 631.892, 386.039 632.204, 386.989 632.516, 387.939 632.828, 388.889 633.140, 389.839 633.452, 390.789 633.765, 391.740 634.077, 392.690 634.389, 393.640 634.701, 394.590 635.013, 395.540 635.326, 396.490 635.622, 397.391 " />
            <path fill="none" stroke-width="2.0000009536743164" stroke-linecap="butt" stroke-opacity="1.0" stroke="rgb(0, 0, 0)" stroke-linejoin="round" d=" M 1042.095, 266.611 1042.383, 265.653 1042.477, 265.339 1042.165, 264.389 1041.853, 263.439 1041.541, 262.489 1041.228, 261.539 1040.916, 260.589 1040.604, 259.639 1040.292, 258.689 1039.980, 257.739 1039.667, 256.789 1039.355, 255.839 1039.043, 254.889 1038.731, 253.939 1038.419, 252.989 1038.107, 252.039 1037.795, 251.089 1037.482, 250.139 1037.170, 249.189 1036.858, 248.239 1036.508, 247.173 1035.558, 247.486 1034.608, 247.798 1033.658, 248.110 1032.708, 248.422 1031.758, 248.734 1030.808, 249.046 1029.858, 249.359 1028.908, 249.671 1027.958, 249.983 1027.008, 250.295 1026.058, 250.607 1025.108, 250.919 1024.158, 251.232 1023.208, 251.544 1022.258, 251.856 1021.308, 252.168 1020.357, 252.480 1019.407, 252.792 1018.457, 253.105 1017.507, 253.417 1016.557, 253.729 1015.607, 254.041 1014.657, 254.353 1013.707, 254.665 1012.757, 254.978 1011.807, 255.290 1010.857, 255.602 1009.907, 255.914 1008.957, 256.226 1008.007, 256.538 1007.057, 256.851 1006.107, 257.163 1005.157, 257.475 1004.207, 257.787 1003.257, 258.099 1002.307, 258.411 1001.357, 258.724 1000.407, 259.036 999.457, 259.348 998.507, 259.660 997.557, 259.972 996.607, 260.284 995.657, 260.597 994.707, 260.909 993.757, 261.221 992.807, 261.533 991.857, 261.845 990.907, 262.157 989.957, 262.470 989.007, 262.782 988.057, 263.094 987.107, 263.406 986.157, 263.718 985.207, 264.031 984.257, 264.343 983.306, 264.655 982.356, 264.967 981.406, 265.279 980.456, 265.591 979.506, 265.904 978.556, 266.216 977.606, 266.528 976.656, 266.840 975.706, 267.152 974.756, 267.464 973.806, 267.776 972.856, 268.089 971.906, 268.401 970.956, 268.713 970.006, 269.025 969.056, 269.337 968.106, 269.650 967.156, 269.962 966.206, 270.274 965.256, 270.586 964.306, 270.898 963.356, 271.210 962.406, 271.523 961.456, 271.835 960.506, 272.147 959.556, 272.459 958.606, 272.771 957.656, 273.083 956.706, 273.396 955.756, 273.708 954.806, 274.020 953.856, 274.332 952.906, 274.644 951.956, 274.956 951.006, 275.269 950.056, 275.581 949.106, 275.893 948.156, 276.205 947.205, 276.517 946.255, 276.829 945.305, 277.142 944.355, 277.454 943.405, 277.766 942.455, 278.078 941.505, 278.390 940.555, 278.702 939.605, 279.015 938.655, 279.327 937.705, 279.639 936.755, 279.951 935.805, 280.263 934.855, 280.575 933.905, 280.888 932.955, 281.200 932.005, 281.512 931.055, 281.824 930.105, 282.136 929.155, 282.448 927.512, 282.988 927.638, 283.980 927.743, 284.818 928.056, 285.768 928.368, 286.718 928.680, 287.668 928.992, 288.618 929.304, 289.568 929.616, 290.518 929.929, 291.468 930.241, 292.418 930.553, 293.368 930.865, 294.318 931.177, 295.268 931.489, 296.218 931.757, 297.033 " />
            <path fill="none" stroke-width="2.0000009536743164" stroke-linecap="butt" stroke-opacity="1.0" stroke="rgb(0, 0, 0)" stroke-linejoin="round" d=" M 1342.803, 282.529 1343.803, 282.529 1344.803, 282.529 1345.803, 282.529 1346.803, 282.529 1347.803, 282.529 1348.803, 282.529 1349.803, 282.529 1350.803, 282.529 1351.803, 282.529 1352.803, 282.529 1353.803, 282.529 1354.159, 282.529 1354.996, 281.983 1355.833, 281.436 1356.671, 280.889 1356.985, 280.683 1356.985, 279.683 1356.985, 278.683 1356.985, 277.683 1356.985, 276.683 1356.985, 275.683 1356.985, 274.683 1356.985, 273.683 1356.985, 272.683 1356.985, 271.683 1356.985, 270.683 1356.985, 269.683 1356.985, 268.683 1356.985, 267.683 1356.985, 266.683 1356.985, 265.683 1356.985, 264.683 1356.985, 263.683 1356.985, 262.683 1356.985, 261.683 1356.985, 260.683 1356.985, 259.683 1356.985, 258.683 1356.985, 257.683 1356.985, 256.683 1356.985, 255.683 1356.985, 254.683 1356.985, 253.683 1356.985, 252.683 1356.985, 251.683 1356.985, 250.683 1356.985, 249.683 1356.985, 248.683 1356.985, 247.683 1356.985, 246.683 1356.985, 245.683 1356.985, 244.683 1356.985, 243.683 1356.985, 242.683 1356.985, 241.683 1356.985, 240.683 1356.985, 239.683 1356.985, 238.683 1356.985, 237.683 1356.985, 236.683 1356.985, 235.683 1356.985, 234.683 1356.985, 233.683 1356.985, 232.683 1356.985, 231.683 1356.985, 230.683 1356.985, 229.683 1356.985, 228.683 1356.985, 227.683 1356.985, 226.683 1356.985, 225.683 1356.985, 224.683 1356.985, 223.683 1356.985, 222.683 1356.985, 221.683 1356.985, 220.683 1356.985, 219.683 1356.985, 218.683 1356.985, 217.683 1356.985, 216.683 1356.985, 215.683 1356.985, 214.683 1356.985, 213.683 1356.985, 212.683 1356.985, 211.683 1356.985, 210.683 1356.985, 209.683 1356.985, 208.683 1356.985, 207.683 1356.985, 206.683 1356.985, 205.683 1356.985, 204.683 1356.985, 203.683 1356.985, 202.683 1356.985, 201.683 1356.985, 200.683 1356.985, 199.683 1356.985, 198.683 1356.985, 197.683 1356.985, 196.683 1356.985, 195.683 1356.985, 194.683 1356.985, 193.683 1356.985, 192.683 1356.985, 191.683 1356.985, 190.683 1356.985, 189.683 1356.985, 188.683 1356.985, 187.683 1356.985, 186.683 1356.985, 185.683 1356.985, 184.683 1356.985, 183.683 1356.985, 182.683 1356.985, 181.683 1356.985, 180.683 1356.985, 179.683 1356.985, 178.683 1356.985, 177.683 1356.985, 176.683 1356.985, 175.683 1356.985, 174.683 1356.985, 173.683 1356.985, 172.683 1356.985, 171.683 1356.985, 170.683 1356.985, 169.683 1356.985, 168.683 1356.985, 167.683 1356.985, 165.954 1355.985, 165.954 1354.985, 165.954 1353.985, 165.954 1352.985, 165.954 1351.985, 165.954 1350.985, 165.954 1349.985, 165.954 1348.985, 165.954 1347.985, 165.954 1346.985, 165.954 1345.985, 165.954 1344.985, 165.954 1343.985, 165.954 1342.985, 165.954 1341.985, 165.954 1340.985, 165.954 1339.985, 165.954 1338.985, 165.954 1337.864, 165.954 1337.164, 166.647 " />
            <path fill="none" stroke-width="2.0000009536743164" stroke-linecap="butt" stroke-opacity="1.0" stroke="rgb(0, 0, 0)" stroke-linejoin="round" d=" M 1324.926, 167.128 1324.614, 166.178 1324.302, 165.228 1323.989, 164.278 1323.677, 163.328 1323.365, 162.378 1323.053, 161.427 1322.741, 160.477 1322.429, 159.527 1322.116, 158.577 1321.804, 157.627 1321.492, 156.677 1321.180, 155.727 1320.868, 154.777 1320.556, 153.827 1320.243, 152.877 1320.042, 152.264 1319.092, 152.576 1318.142, 152.888 1317.192, 153.200 1316.242, 153.513 1315.292, 153.825 1314.342, 154.137 1313.392, 154.449 1312.442, 154.761 1311.492, 155.073 1310.542, 155.386 1309.592, 155.698 1308.641, 156.010 1307.692, 156.322 1306.741, 156.634 1305.791, 156.946 1304.841, 157.259 1303.891, 157.571 1302.941, 157.883 1301.991, 158.195 1301.041, 158.507 1300.091, 158.819 1299.141, 159.132 1298.191, 159.444 1297.241, 159.756 1296.291, 160.068 1295.341, 160.380 1294.391, 160.693 1293.441, 161.005 1292.491, 161.317 1291.541, 161.629 1290.591, 161.941 1289.641, 162.253 1288.691, 162.565 1287.741, 162.878 1286.791, 163.190 1285.841, 163.502 1284.891, 163.814 1283.941, 164.126 1282.991, 164.438 1282.041, 164.751 1281.091, 165.063 1280.141, 165.375 1279.191, 165.687 1278.241, 165.999 1277.291, 166.312 1276.341, 166.624 1275.391, 166.936 1274.441, 167.248 1273.490, 167.560 1272.541, 167.872 1271.590, 168.185 1270.641, 168.497 1269.690, 168.809 1268.740, 169.121 1267.790, 169.433 1266.840, 169.745 1265.890, 170.058 1264.940, 170.370 1263.990, 170.682 1263.040, 170.994 1262.090, 171.306 1261.140, 171.618 1260.190, 171.931 1259.240, 172.243 1258.290, 172.555 1257.340, 172.867 1256.390, 173.179 1255.440, 173.491 1254.490, 173.804 1253.540, 174.116 1252.590, 174.428 1251.640, 174.740 1250.690, 175.052 1249.740, 175.364 1248.790, 175.677 1247.840, 175.989 1246.890, 176.301 1245.940, 176.613 1244.990, 176.925 1244.040, 177.237 1243.090, 177.550 1242.140, 177.862 1241.190, 178.174 1240.240, 178.486 1239.290, 178.798 1238.340, 179.110 1237.390, 179.423 1236.439, 179.735 1235.490, 180.047 1234.539, 180.359 1233.589, 180.671 1232.639, 180.983 1231.689, 181.296 1230.739, 181.608 1229.789, 181.920 1228.839, 182.232 1227.889, 182.544 1226.939, 182.857 1225.989, 183.169 1225.039, 183.481 1224.089, 183.793 1223.139, 184.105 1222.189, 184.417 1221.239, 184.729 1220.289, 185.042 1219.339, 185.354 1218.389, 185.666 1217.439, 185.978 1216.489, 186.290 1215.539, 186.603 1214.589, 186.915 1213.639, 187.227 1212.689, 187.539 1211.046, 188.079 1210.465, 188.893 1209.885, 189.707 1209.304, 190.521 1209.259, 190.584 1209.571, 191.534 1209.883, 192.484 1210.195, 193.434 1210.507, 194.384 1210.820, 195.334 1211.132, 196.284 1211.444, 197.234 1211.756, 198.185 1212.068, 199.135 1212.380, 200.085 1212.693, 201.035 1213.005, 201.985 1213.317, 202.935 1213.629, 203.885 1213.941, 204.835 1214.254, 205.785 1214.366, 206.127 " />
            <path fill="none" stroke-width="2.0000009536743164" stroke-linecap="butt" stroke-opacity="1.0" stroke="rgb(0, 0, 0)" stroke-linejoin="round" d=" M 642.241, 495.609 642.241, 496.609 642.241, 497.609 642.241, 498.609 642.241, 499.609 642.241, 500.609 642.241, 501.609 642.241, 502.609 642.241, 503.609 642.241, 504.609 642.241, 505.609 642.241, 506.609 642.241, 507.609 642.241, 508.609 642.241, 509.609 642.241, 510.609 642.241, 511.609 642.241, 512.609 642.241, 513.609 642.241, 514.609 642.241, 515.609 642.241, 516.609 642.241, 517.609 642.241, 518.609 642.241, 519.609 642.241, 520.609 642.241, 521.609 642.241, 522.609 642.241, 523.609 642.241, 524.609 642.241, 525.609 642.241, 526.609 642.241, 527.609 642.241, 528.609 642.241, 529.609 642.241, 530.609 642.241, 531.609 642.241, 532.609 642.241, 533.609 642.241, 534.609 642.241, 535.609 642.241, 536.609 642.241, 537.609 642.241, 538.609 642.241, 539.609 642.241, 540.609 642.241, 541.609 642.241, 542.609 642.241, 543.609 642.241, 544.609 642.241, 545.609 642.241, 546.609 642.241, 547.609 642.241, 548.609 642.241, 549.609 642.241, 550.609 642.241, 551.609 642.241, 552.609 642.241, 553.609 642.241, 554.609 642.241, 555.609 642.241, 556.609 642.241, 557.609 642.241, 558.609 642.241, 559.609 642.241, 560.609 642.241, 561.609 642.241, 562.609 642.241, 563.609 642.241, 564.609 642.241, 565.609 642.241, 566.609 642.241, 567.609 642.241, 568.609 642.241, 569.609 642.241, 570.609 642.241, 571.609 642.241, 572.609 642.241, 573.609 642.241, 574.609 642.241, 575.609 642.241, 576.609 642.241, 577.609 642.241, 578.609 642.241, 579.609 642.241, 581.044 " />
            <path fill="none" stroke-width="2.0000009536743164" stroke-linecap="butt" stroke-opacity="1.0" stroke="rgb(0, 0, 0)" stroke-linejoin="round" d=" M 642.241, 581.044 641.295, 581.044 " />
            <path fill="none" stroke-width="2.0000009536743164" stroke-linecap="butt" stroke-opacity="1.0" stroke="rgb(0, 0, 0)" stroke-linejoin="round" d=" M 765.095, 712.843 765.419, 711.897 765.743, 710.950 766.067, 710.004 766.391, 709.058 766.715, 708.112 767.038, 707.166 767.362, 706.220 767.421, 706.049 " />
            <path fill="none" stroke-width="2.0000009536743164" stroke-linecap="butt" stroke-opacity="1.0" stroke="rgb(0, 0, 0)" stroke-linejoin="round" d=" M 767.414, 370.583 767.090, 369.637 766.766, 368.690 766.442, 367.744 766.118, 366.798 765.794, 365.852 765.470, 364.906 765.146, 363.960 764.822, 363.014 764.498, 362.068 764.174, 361.122 763.903, 360.329 " />
            <path fill="none" stroke-width="2.0000009536743164" stroke-linecap="butt" stroke-opacity="1.0" stroke="rgb(0, 0, 0)" stroke-linejoin="round" d=" M 1046.005, 278.029 1045.681, 277.083 1045.357, 276.137 1045.033, 275.191 1044.709, 274.245 1044.385, 273.299 1044.061, 272.353 1043.737, 271.407 1043.413, 270.461 1043.089, 269.515 1042.765, 268.569 1042.442, 267.622 1042.095, 266.611 " />
            <path fill="none" stroke-width="2.0000009536743164" stroke-linecap="butt" stroke-opacity="1.0" stroke="rgb(0, 0, 0)" stroke-linejoin="round" d=" M 1042.323, 809.362 1042.647, 808.416 1042.971, 807.470 1043.295, 806.524 1043.619, 805.578 1043.943, 804.632 1044.267, 803.685 1044.591, 802.739 1044.915, 801.793 1045.239, 800.847 1045.562, 799.901 1045.886, 798.955 1046.008, 798.600 " />
            <path fill="none" stroke-width="2.0000009536743164" stroke-linecap="butt" stroke-opacity="1.0" stroke="rgb(0, 0, 0)" stroke-linejoin="round" d=" M 1046.008, 798.600 1046.957, 798.916 1047.906, 799.231 1048.855, 799.546 1049.804, 799.862 1050.753, 800.177 1051.702, 800.492 1052.651, 800.807 1053.600, 801.123 1054.549, 801.438 1055.498, 801.753 1056.447, 802.069 1057.396, 802.384 1058.345, 802.699 1059.294, 803.014 1060.243, 803.330 1061.192, 803.645 1062.141, 803.960 1063.090, 804.275 1064.039, 804.591 1064.988, 804.906 1065.937, 805.221 1066.886, 805.537 1067.835, 805.852 1068.784, 806.167 1069.733, 806.482 1070.682, 806.798 1071.631, 807.113 1072.580, 807.428 1073.529, 807.743 1074.478, 808.059 1075.427, 808.374 1076.376, 808.689 1077.325, 809.005 1078.274, 809.320 1079.223, 809.635 1080.172, 809.950 1081.121, 810.266 1082.070, 810.581 1083.019, 810.896 1083.968, 811.212 1084.917, 811.527 1085.866, 811.842 1086.815, 812.157 1087.764, 812.473 1088.713, 812.788 1089.662, 813.103 1090.611, 813.418 1091.560, 813.734 1092.509, 814.049 1093.458, 814.364 1094.407, 814.680 1095.356, 814.995 1096.305, 815.310 1097.254, 815.625 1098.203, 815.941 1099.152, 816.256 1100.101, 816.571 1101.050, 816.886 1101.999, 817.202 1102.948, 817.517 1103.897, 817.832 1104.846, 818.148 1105.795, 818.463 1106.744, 818.778 1107.693, 819.093 1108.642, 819.409 1109.591, 819.724 1110.540, 820.039 1111.489, 820.355 1112.438, 820.670 1113.387, 820.985 1114.336, 821.300 1115.285, 821.616 1116.234, 821.931 1117.183, 822.246 1118.132, 822.561 1119.081, 822.877 1120.030, 823.192 1120.979, 823.507 1121.928, 823.823 1122.877, 824.138 1123.826, 824.453 1124.775, 824.768 1125.724, 825.084 1126.673, 825.399 1127.622, 825.714 1128.571, 826.029 1129.520, 826.345 1130.469, 826.660 1131.418, 826.975 1132.367, 827.291 1133.316, 827.606 1134.265, 827.921 1135.214, 828.236 1136.163, 828.552 1137.112, 828.867 1138.061, 829.182 1139.010, 829.498 1139.959, 829.813 1140.908, 830.128 1141.857, 830.443 1142.806, 830.759 1143.755, 831.074 1144.704, 831.389 1145.653, 831.704 1146.602, 832.020 1147.551, 832.335 1148.500, 832.650 1149.449, 832.966 1150.398, 833.281 1151.347, 833.596 1152.296, 833.911 1153.245, 834.227 1154.194, 834.542 1155.143, 834.857 1156.092, 835.172 1157.041, 835.488 1157.990, 835.803 1158.939, 836.118 1159.888, 836.434 1160.837, 836.749 1161.786, 837.064 1162.735, 837.379 1163.684, 837.695 1164.633, 838.010 1165.582, 838.325 1166.531, 838.641 1167.480, 838.956 1168.429, 839.271 1169.378, 839.586 1170.327, 839.902 1171.276, 840.217 1172.225, 840.532 1173.174, 840.847 1174.123, 841.163 1175.072, 841.478 1176.021, 841.793 1176.970, 842.109 1177.919, 842.424 1178.868, 842.739 1179.817, 843.054 1180.766, 843.370 1181.715, 843.685 1182.664, 844.000 1183.613, 844.315 1184.562, 844.631 1185.511, 844.946 1186.460, 845.261 1187.409, 845.577 1188.358, 845.892 1189.307, 846.207 1190.256, 846.522 1191.205, 846.838 1192.154, 847.153 1193.103, 847.468 1194.052, 847.783 1195.001, 848.099 1195.950, 848.414 1196.899, 848.729 1197.848, 849.045 1198.797, 849.360 1199.746, 849.675 1200.695, 849.990 1201.644, 850.306 1202.593, 850.621 1203.542, 850.936 1204.491, 851.252 1205.440, 851.567 1206.389, 851.882 1207.338, 852.197 1208.287, 852.513 1209.236, 852.828 1210.185, 853.143 1211.134, 853.458 1212.083, 853.774 1213.032, 854.089 1213.981, 854.404 1214.930, 854.720 1215.879, 855.035 1218.532, 855.916 " />
            <path fill="none" stroke-width="2.0000009536743164" stroke-linecap="butt" stroke-opacity="1.0" stroke="rgb(0, 0, 0)" stroke-linejoin="round" d=" M 767.421, 706.049 768.370, 706.364 769.319, 706.679 770.268, 706.995 771.217, 707.310 772.166, 707.625 773.115, 707.940 774.064, 708.256 775.013, 708.571 775.962, 708.886 776.911, 709.202 777.860, 709.517 778.809, 709.832 779.758, 710.147 780.707, 710.463 781.656, 710.778 782.605, 711.093 783.554, 711.408 784.503, 711.724 785.452, 712.039 786.401, 712.354 787.350, 712.670 788.299, 712.985 789.248, 713.300 790.197, 713.615 791.146, 713.931 792.095, 714.246 793.044, 714.561 793.993, 714.876 794.942, 715.192 795.891, 715.507 796.840, 715.822 797.789, 716.138 798.738, 716.453 799.687, 716.768 800.636, 717.083 801.585, 717.399 802.534, 717.714 803.483, 718.029 804.432, 718.345 805.381, 718.660 806.330, 718.975 807.279, 719.290 808.228, 719.606 809.177, 719.921 810.126, 720.236 811.075, 720.551 812.024, 720.867 812.973, 721.182 813.922, 721.497 814.871, 721.813 815.820, 722.128 816.769, 722.443 817.718, 722.758 818.667, 723.074 819.616, 723.389 820.565, 723.704 821.514, 724.019 822.463, 724.335 823.412, 724.650 824.361, 724.965 825.310, 725.281 826.259, 725.596 827.208, 725.911 828.157, 726.226 829.106, 726.542 830.055, 726.857 831.004, 727.172 831.953, 727.487 832.902, 727.803 833.851, 728.118 834.800, 728.433 835.749, 728.749 836.698, 729.064 837.647, 729.379 838.596, 729.694 839.545, 730.010 840.494, 730.325 841.443, 730.640 842.392, 730.956 843.341, 731.271 844.290, 731.586 845.239, 731.901 846.188, 732.217 847.137, 732.532 848.086, 732.847 849.035, 733.162 849.984, 733.478 850.933, 733.793 851.882, 734.108 852.831, 734.424 853.780, 734.739 854.729, 735.054 855.678, 735.369 856.627, 735.685 857.576, 736.000 858.525, 736.315 859.474, 736.630 860.423, 736.946 861.372, 737.261 862.321, 737.576 863.270, 737.892 864.219, 738.207 865.168, 738.522 866.117, 738.837 867.066, 739.153 868.015, 739.468 868.964, 739.783 869.913, 740.099 870.862, 740.414 871.811, 740.729 872.760, 741.044 873.709, 741.360 874.658, 741.675 875.607, 741.990 876.556, 742.305 877.505, 742.621 878.454, 742.936 879.403, 743.251 880.352, 743.567 881.301, 743.882 882.250, 744.197 883.199, 744.512 884.148, 744.828 885.097, 745.143 886.046, 745.458 886.995, 745.773 887.944, 746.089 888.893, 746.404 889.842, 746.719 890.791, 747.035 891.740, 747.350 892.689, 747.665 893.638, 747.980 894.587, 748.296 895.536, 748.611 896.485, 748.926 897.434, 749.242 898.383, 749.557 899.332, 749.872 900.281, 750.187 901.230, 750.503 902.179, 750.818 903.128, 751.133 904.077, 751.448 905.026, 751.764 905.975, 752.079 906.924, 752.394 907.873, 752.710 908.822, 753.025 909.771, 753.340 910.720, 753.655 911.669, 753.971 912.618, 754.286 913.567, 754.601 914.516, 754.916 915.465, 755.232 916.414, 755.547 917.363, 755.862 918.312, 756.178 919.261, 756.493 920.210, 756.808 921.159, 757.123 922.108, 757.439 923.057, 757.754 924.006, 758.069 924.955, 758.385 925.904, 758.700 926.853, 759.015 927.802, 759.330 928.751, 759.646 929.700, 759.961 930.649, 760.276 931.598, 760.591 932.547, 760.907 933.496, 761.222 934.445, 761.537 936.785, 762.315 " />
            <path fill="none" stroke-width="2.0000009536743164" stroke-linecap="butt" stroke-opacity="1.0" stroke="rgb(0, 0, 0)" stroke-linejoin="round" d=" M 936.774, 314.318 935.825, 314.633 934.876, 314.948 933.927, 315.264 932.978, 315.579 932.029, 315.894 931.080, 316.209 930.131, 316.525 929.182, 316.840 928.233, 317.155 927.284, 317.471 926.335, 317.786 925.386, 318.101 924.437, 318.416 923.488, 318.732 922.539, 319.047 921.590, 319.362 920.641, 319.677 919.692, 319.993 918.743, 320.308 917.794, 320.623 916.845, 320.939 915.896, 321.254 914.947, 321.569 913.998, 321.884 913.049, 322.200 912.100, 322.515 911.151, 322.830 910.202, 323.146 909.253, 323.461 908.304, 323.776 907.355, 324.091 906.406, 324.407 905.457, 324.722 904.508, 325.037 903.559, 325.352 902.610, 325.668 901.661, 325.983 900.712, 326.298 899.763, 326.614 898.814, 326.929 897.865, 327.244 896.916, 327.559 895.967, 327.875 895.018, 328.190 894.069, 328.505 893.120, 328.820 892.171, 329.136 891.222, 329.451 890.273, 329.766 889.324, 330.082 888.375, 330.397 887.426, 330.712 886.477, 331.027 885.528, 331.343 884.579, 331.658 883.630, 331.973 882.681, 332.289 881.732, 332.604 880.783, 332.919 879.834, 333.234 878.885, 333.550 877.936, 333.865 876.987, 334.180 876.038, 334.495 875.089, 334.811 874.140, 335.126 873.191, 335.441 872.242, 335.757 871.293, 336.072 870.344, 336.387 869.395, 336.702 868.446, 337.018 867.497, 337.333 866.548, 337.648 865.599, 337.964 864.650, 338.279 863.701, 338.594 862.752, 338.909 861.803, 339.225 860.854, 339.540 859.905, 339.855 858.956, 340.170 858.007, 340.486 857.058, 340.801 856.109, 341.116 855.160, 341.432 854.211, 341.747 853.262, 342.062 852.313, 342.377 851.364, 342.693 850.415, 343.008 849.466, 343.323 848.517, 343.638 847.568, 343.954 846.619, 344.269 845.670, 344.584 844.721, 344.900 843.772, 345.215 842.823, 345.530 841.874, 345.845 840.925, 346.161 839.976, 346.476 839.027, 346.791 838.078, 347.107 837.129, 347.422 836.180, 347.737 835.231, 348.052 834.282, 348.368 833.333, 348.683 832.384, 348.998 831.435, 349.313 830.486, 349.629 829.537, 349.944 828.588, 350.259 827.639, 350.575 826.690, 350.890 825.741, 351.205 824.792, 351.520 823.843, 351.836 822.894, 352.151 821.945, 352.466 820.996, 352.781 820.047, 353.097 819.098, 353.412 818.149, 353.727 817.200, 354.043 816.251, 354.358 815.302, 354.673 814.353, 354.988 813.404, 355.304 812.455, 355.619 811.506, 355.934 810.557, 356.250 809.608, 356.565 808.659, 356.880 807.710, 357.195 806.761, 357.511 805.812, 357.826 804.863, 358.141 803.914, 358.456 802.965, 358.772 802.016, 359.087 801.067, 359.402 800.118, 359.718 799.169, 360.033 798.220, 360.348 797.271, 360.663 796.322, 360.979 795.373, 361.294 794.424, 361.609 793.475, 361.924 792.526, 362.240 791.577, 362.555 790.628, 362.870 789.679, 363.186 788.730, 363.501 787.781, 363.816 786.832, 364.131 785.883, 364.447 784.934, 364.762 783.985, 365.077 783.036, 365.393 782.087, 365.708 781.138, 366.023 780.189, 366.338 779.240, 366.654 778.291, 366.969 777.342, 367.284 776.393, 367.599 775.444, 367.915 774.495, 368.230 773.546, 368.545 772.597, 368.861 771.648, 369.176 770.699, 369.491 769.750, 369.806 767.414, 370.583 " />
            <path fill="none" stroke-width="2.0000009536743164" stroke-linecap="butt" stroke-opacity="1.0" stroke="rgb(0, 0, 0)" stroke-linejoin="round" d=" M 1218.524, 220.715 1217.575, 221.030 1216.626, 221.346 1215.677, 221.661 1214.728, 221.976 1213.779, 222.291 1212.830, 222.607 1211.881, 222.922 1210.932, 223.237 1209.983, 223.552 1209.034, 223.868 1208.085, 224.183 1207.136, 224.498 1206.187, 224.814 1205.238, 225.129 1204.289, 225.444 1203.340, 225.759 1202.391, 226.075 1201.442, 226.390 1200.493, 226.705 1199.544, 227.021 1198.595, 227.336 1197.646, 227.651 1196.697, 227.966 1195.748, 228.282 1194.799, 228.597 1193.850, 228.912 1192.901, 229.227 1191.952, 229.543 1191.003, 229.858 1190.054, 230.173 1189.105, 230.489 1188.156, 230.804 1187.207, 231.119 1186.258, 231.434 1185.309, 231.750 1184.360, 232.065 1183.411, 232.380 1182.462, 232.695 1181.513, 233.011 1180.564, 233.326 1179.615, 233.641 1178.666, 233.957 1177.717, 234.272 1176.768, 234.587 1175.819, 234.902 1174.870, 235.218 1173.921, 235.533 1172.972, 235.848 1172.023, 236.164 1171.074, 236.479 1170.125, 236.794 1169.176, 237.109 1168.227, 237.425 1167.278, 237.740 1166.329, 238.055 1165.380, 238.370 1164.431, 238.686 1163.482, 239.001 1162.533, 239.316 1161.584, 239.632 1160.635, 239.947 1159.686, 240.262 1158.737, 240.577 1157.788, 240.893 1156.839, 241.208 1155.890, 241.523 1154.941, 241.839 1153.992, 242.154 1153.043, 242.469 1152.094, 242.784 1151.145, 243.100 1150.196, 243.415 1149.247, 243.730 1148.298, 244.045 1147.349, 244.361 1146.400, 244.676 1145.451, 244.991 1144.502, 245.307 1143.553, 245.622 1142.604, 245.937 1141.655, 246.252 1140.706, 246.568 1139.757, 246.883 1138.808, 247.198 1137.859, 247.513 1136.910, 247.829 1135.961, 248.144 1135.012, 248.459 1134.063, 248.775 1133.114, 249.090 1132.165, 249.405 1131.216, 249.720 1130.267, 250.036 1129.318, 250.351 1128.369, 250.666 1127.420, 250.982 1126.471, 251.297 1125.522, 251.612 1124.573, 251.927 1123.624, 252.243 1122.675, 252.558 1121.726, 252.873 1120.777, 253.188 1119.828, 253.504 1118.879, 253.819 1117.930, 254.134 1116.981, 254.450 1116.032, 254.765 1115.083, 255.080 1114.134, 255.395 1113.185, 255.711 1112.236, 256.026 1111.287, 256.341 1110.338, 256.656 1109.389, 256.972 1108.440, 257.287 1107.491, 257.602 1106.542, 257.918 1105.593, 258.233 1104.644, 258.548 1103.695, 258.863 1102.746, 259.179 1101.797, 259.494 1100.848, 259.809 1099.899, 260.125 1098.950, 260.440 1098.001, 260.755 1097.052, 261.070 1096.103, 261.386 1095.154, 261.701 1094.205, 262.016 1093.256, 262.331 1092.307, 262.647 1091.358, 262.962 1090.409, 263.277 1089.460, 263.593 1088.511, 263.908 1087.562, 264.223 1086.613, 264.538 1085.664, 264.854 1084.715, 265.169 1083.766, 265.484 1082.817, 265.799 1081.868, 266.115 1080.919, 266.430 1079.970, 266.745 1079.021, 267.061 1078.072, 267.376 1077.123, 267.691 1076.174, 268.006 1075.225, 268.322 1074.276, 268.637 1073.327, 268.952 1072.378, 269.268 1071.429, 269.583 1070.480, 269.898 1069.531, 270.213 1068.582, 270.529 1067.633, 270.844 1066.684, 271.159 1065.735, 271.474 1064.786, 271.790 1063.837, 272.105 1062.888, 272.420 1061.939, 272.736 1060.990, 273.051 1060.041, 273.366 1059.092, 273.681 1058.143, 273.997 1057.194, 274.312 1056.245, 274.627 1055.296, 274.942 1054.347, 275.258 1053.398, 275.573 1052.449, 275.888 1051.500, 276.204 1050.551, 276.519 1049.602, 276.834 1048.653, 277.149 1046.005, 278.029 " />
            <path fill="none" stroke-width="2.0000009536743164" stroke-linecap="butt" stroke-opacity="1.0" stroke="rgb(0, 0, 0)" stroke-linejoin="round" d=" M 1330.617, 480.950 1330.617, 479.950 1330.617, 478.950 1330.617, 477.950 1330.617, 476.950 1330.617, 475.950 1330.617, 474.950 1330.617, 473.950 1330.617, 472.950 1330.617, 471.950 1330.617, 470.950 1330.617, 469.950 1330.617, 468.950 1330.617, 467.950 1330.617, 466.950 1330.617, 465.950 1330.617, 464.950 1330.617, 463.950 1330.617, 462.950 1330.617, 461.950 1330.617, 460.950 1330.617, 459.950 1330.617, 458.950 1330.617, 457.950 1330.617, 456.950 1330.617, 455.950 1330.617, 454.950 1330.617, 453.950 1330.617, 452.950 1330.617, 451.950 1330.617, 450.950 1330.617, 449.950 1330.617, 448.950 1330.617, 447.950 1330.617, 446.950 1330.617, 445.950 1330.617, 444.950 1330.617, 443.950 1330.617, 442.950 1330.617, 441.950 1330.617, 440.950 1330.617, 439.950 1330.617, 438.950 1330.617, 437.950 1330.617, 436.950 1330.617, 435.950 1330.617, 434.950 1330.617, 433.950 1330.617, 432.950 1330.617, 431.950 1330.617, 430.950 1330.617, 429.950 1330.617, 428.950 1330.617, 427.950 1330.617, 426.950 1330.617, 425.950 1330.617, 424.950 1330.617, 423.950 1330.617, 422.950 1330.617, 421.950 1330.617, 420.950 1330.617, 419.950 1330.617, 418.950 1330.617, 417.950 1330.617, 416.950 1330.617, 415.950 1330.617, 414.950 1330.617, 413.950 1330.617, 412.950 1330.617, 411.950 1330.617, 410.950 1330.617, 409.950 1330.617, 408.950 1330.617, 407.950 1330.617, 406.950 1330.617, 405.950 1330.617, 404.950 1330.617, 403.950 1330.617, 402.950 1330.617, 401.950 1330.617, 400.950 1330.617, 399.950 1330.617, 398.950 1330.617, 397.950 1330.617, 396.950 1330.617, 395.950 1330.617, 394.950 1330.617, 393.950 1330.617, 392.950 1330.617, 391.950 1330.617, 390.950 1330.617, 389.950 1330.617, 388.950 1330.617, 387.950 1330.617, 386.950 1330.617, 385.950 1330.617, 384.950 1330.617, 383.950 1330.617, 382.950 1330.617, 381.950 1330.617, 380.950 1330.617, 379.950 1330.617, 378.950 1330.617, 377.950 1330.617, 376.950 1330.617, 375.950 1330.617, 374.950 1330.617, 373.950 1330.617, 372.950 1330.617, 371.950 1330.617, 370.950 1330.617, 369.950 1330.617, 368.950 1330.617, 367.950 1330.617, 366.950 1330.617, 365.950 1330.617, 364.950 1330.617, 363.950 1330.617, 362.950 1330.617, 361.950 1330.617, 360.950 1330.617, 359.950 1330.617, 358.950 1330.617, 357.950 1330.617, 356.950 1330.617, 355.950 1330.617, 354.950 1330.617, 353.950 1330.617, 352.950 1330.617, 351.950 1330.617, 350.950 1330.617, 349.950 1330.617, 348.950 1330.617, 347.950 1330.617, 346.950 1330.617, 345.950 1330.617, 344.950 1330.617, 343.950 1330.617, 342.950 1330.617, 341.950 1330.617, 340.950 1330.617, 339.950 1330.617, 338.950 1330.617, 337.950 1330.617, 336.950 1330.617, 335.950 1330.617, 334.950 1330.617, 333.950 1330.617, 332.950 1330.617, 331.950 1330.617, 330.950 1330.617, 329.950 1330.617, 328.950 1330.617, 327.950 1330.617, 326.950 1330.617, 325.950 1330.617, 324.950 1330.617, 323.950 1330.617, 322.950 1330.617, 321.950 1330.617, 320.950 1330.617, 319.950 1330.617, 318.950 1330.617, 317.950 1330.617, 316.950 1330.617, 315.950 1330.617, 314.950 1330.617, 313.950 1330.617, 312.950 1330.617, 311.950 1330.617, 310.950 1330.617, 309.950 1330.617, 308.950 1330.617, 307.950 1330.617, 306.950 1330.617, 305.950 1330.617, 304.950 1330.617, 303.950 1330.617, 302.950 1330.617, 301.950 1330.617, 300.950 1330.617, 299.950 1330.617, 298.950 1330.617, 297.950 1330.617, 296.950 1330.617, 295.950 1330.617, 294.950 1330.617, 293.950 1330.617, 292.950 1330.617, 291.950 1330.617, 290.950 1330.617, 289.950 1330.617, 288.950 1330.617, 287.950 1330.617, 286.950 1330.617, 285.950 1330.617, 283.217 " />
            <path fill="none" stroke-width="2.0000009536743164" stroke-linecap="butt" stroke-opacity="1.0" stroke="rgb(0, 0, 0)" stroke-linejoin="round" d=" M 1330.617, 793.435 1330.617, 792.435 1330.617, 791.435 1330.617, 790.435 1330.617, 789.435 1330.617, 788.435 1330.617, 787.435 1330.617, 786.435 1330.617, 785.435 1330.617, 784.435 1330.617, 783.435 1330.617, 782.435 1330.617, 781.435 1330.617, 780.435 1330.617, 779.435 1330.617, 778.435 1330.617, 777.435 1330.617, 776.435 1330.617, 775.435 1330.617, 774.435 1330.617, 773.435 1330.617, 772.435 1330.617, 771.435 1330.617, 770.435 1330.617, 769.435 1330.617, 768.435 1330.617, 767.435 1330.617, 766.435 1330.617, 765.435 1330.617, 764.435 1330.617, 763.435 1330.617, 762.435 1330.617, 761.435 1330.617, 760.435 1330.617, 759.435 1330.617, 758.435 1330.617, 757.435 1330.617, 756.435 1330.617, 755.435 1330.617, 754.435 1330.617, 753.435 1330.617, 752.435 1330.617, 751.435 1330.617, 750.435 1330.617, 749.435 1330.617, 748.435 1330.617, 747.435 1330.617, 746.435 1330.617, 745.435 1330.617, 744.435 1330.617, 743.435 1330.617, 742.435 1330.617, 741.435 1330.617, 740.435 1330.617, 739.435 1330.617, 738.435 1330.617, 737.435 1330.617, 736.435 1330.617, 735.435 1330.617, 734.435 1330.617, 733.435 1330.617, 732.435 1330.617, 731.435 1330.617, 730.435 1330.617, 729.435 1330.617, 728.435 1330.617, 727.435 1330.617, 726.435 1330.617, 725.435 1330.617, 724.435 1330.617, 723.435 1330.617, 722.435 1330.617, 721.435 1330.617, 720.435 1330.617, 719.435 1330.617, 718.435 1330.617, 717.435 1330.617, 716.435 1330.617, 715.435 1330.617, 714.435 1330.617, 713.435 1330.617, 712.435 1330.617, 711.435 1330.617, 710.435 1330.617, 709.435 1330.617, 708.435 1330.617, 707.435 1330.617, 706.435 1330.617, 705.435 1330.617, 704.435 1330.617, 703.435 1330.617, 702.435 1330.617, 701.435 1330.617, 700.435 1330.617, 699.435 1330.617, 698.435 1330.617, 697.435 1330.617, 696.435 1330.617, 695.435 1330.617, 694.435 1330.617, 693.435 1330.617, 692.435 1330.617, 691.435 1330.617, 690.435 1330.617, 689.435 1330.617, 688.435 1330.617, 687.435 1330.617, 686.435 1330.617, 685.435 1330.617, 684.435 1330.617, 683.435 1330.617, 682.435 1330.617, 681.435 1330.617, 680.435 1330.617, 679.435 1330.617, 678.435 1330.617, 677.435 1330.617, 676.435 1330.617, 675.435 1330.617, 674.435 1330.617, 673.435 1330.617, 672.435 1330.617, 671.435 1330.617, 670.435 1330.617, 669.435 1330.617, 668.435 1330.617, 667.435 1330.617, 666.435 1330.617, 665.435 1330.617, 664.435 1330.617, 663.435 1330.617, 662.435 1330.617, 661.435 1330.617, 660.435 1330.617, 659.435 1330.617, 658.435 1330.617, 657.435 1330.617, 656.435 1330.617, 655.435 1330.617, 654.435 1330.617, 653.435 1330.617, 652.435 1330.617, 651.435 1330.617, 650.435 1330.617, 649.435 1330.617, 648.435 1330.617, 647.435 1330.617, 646.435 1330.617, 645.435 1330.617, 644.435 1330.617, 643.435 1330.617, 642.435 1330.617, 641.435 1330.617, 640.435 1330.617, 639.435 1330.617, 638.435 1330.617, 637.435 1330.617, 636.435 1330.617, 635.435 1330.617, 634.435 1330.617, 633.435 1330.617, 632.435 1330.617, 631.435 1330.617, 630.435 1330.617, 629.435 1330.617, 628.435 1330.617, 627.435 1330.617, 626.435 1330.617, 625.435 1330.617, 624.435 1330.617, 623.435 1330.617, 622.435 1330.617, 621.435 1330.617, 620.435 1330.617, 619.435 1330.617, 618.435 1330.617, 617.435 1330.617, 616.435 1330.617, 615.435 1330.617, 614.435 1330.617, 613.435 1330.617, 612.435 1330.617, 611.435 1330.617, 610.435 1330.617, 609.435 1330.617, 608.435 1330.617, 607.435 1330.617, 606.435 1330.617, 605.435 1330.617, 604.435 1330.617, 603.435 1330.617, 602.435 1330.617, 601.435 1330.617, 600.435 1330.617, 599.435 1330.617, 598.435 1330.617, 595.679 " />
            <path fill="none" stroke-width="2.0000009536743164" stroke-linecap="butt" stroke-opacity="1.0" stroke="rgb(0, 0, 0)" stroke-linejoin="round" d=" M 1335.173, 793.435 1334.173, 793.435 1333.173, 793.435 1332.173, 793.435 1331.173, 793.435 1330.617, 793.435 " />
            <path fill="none" stroke-width="2.0000009536743164" stroke-linecap="butt" stroke-opacity="1.0" stroke="rgb(0, 0, 0)" stroke-linejoin="round" d=" M 1330.617, 595.679 1331.617, 595.679 1332.617, 595.679 1333.617, 595.679 1334.617, 595.679 1335.617, 595.679 1335.728, 595.679 " />
        </g>
    </g>
</svg>
