<?xml version='1.0' encoding='ascii'?>
<svg xmlns="http://www.w3.org/2000/svg" version="1.1" width="1920" height="1080">
    <g id="ViewLayer_LineSet" xmlns:inkscape="http://www.inkscape.org/namespaces/inkscape" inkscape:groupmode="lineset" inkscape:label="ViewLayer_LineSet">
        <g xmlns:inkscape="http://www.inkscape.org/namespaces/inkscape" inkscape:groupmode="layer" id="strokes" inkscape:label="strokes">
            <path fill="none" stroke-width="3.0" stroke-linecap="butt" stroke-opacity="1.0" stroke="rgb(0, 0, 0)" stroke-linejoin="round" d=" M 846.673, 428.251 846.673, 418.251 846.673, 408.251 846.673, 402.112 845.583, 400.241 835.583, 400.241 825.583, 400.241 815.583, 400.241 805.583, 400.241 795.583, 400.241 785.583, 400.241 775.583, 400.241 765.583, 400.241 755.583, 400.241 745.583, 400.241 735.583, 400.241 725.583, 400.241 715.583, 400.241 705.583, 400.241 695.583, 400.241 685.583, 400.241 675.583, 400.241 665.583, 400.241 655.583, 400.241 645.583, 400.241 635.583, 400.241 625.583, 400.241 615.583, 400.241 605.583, 400.241 595.583, 400.241 585.583, 400.241 575.583, 400.241 565.583, 400.241 558.910, 400.241 558.910, 410.241 558.910, 420.241 558.910, 428.251 548.910, 428.251 538.910, 428.251 528.910, 428.251 518.910, 428.251 508.910, 428.251 498.910, 428.251 488.910, 428.251 478.910, 428.251 468.910, 428.251 458.910, 428.251 448.910, 428.251 438.910, 428.251 428.910, 428.251 418.910, 428.251 408.910, 428.251 398.910, 428.251 388.910, 428.251 378.910, 428.251 377.005, 428.251 377.005, 438.251 377.005, 448.251 377.005, 458.251 377.005, 468.251 377.005, 478.251 377.005, 488.251 377.005, 498.251 377.005, 508.251 377.005, 518.251 377.005, 528.251 377.005, 538.251 377.005, 548.251 377.005, 551.547 " />
            <path fill="none" stroke-width="3.0" stroke-linecap="butt" stroke-opacity="1.0" stroke="rgb(0, 0, 0)" stroke-linejoin="round" d=" M 1029.366, 556.352 1029.366, 566.352 1029.366, 576.352 1029.366, 578.899 1030.755, 579.427 1040.755, 579.427 1050.755, 579.427 1060.755, 579.427 1070.755, 579.427 1080.755, 579.427 1090.755, 579.427 1100.755, 579.427 1110.755, 579.427 1120.755, 579.427 1130.755, 579.427 1140.755, 579.427 1150.755, 579.427 1160.755, 579.427 1170.755, 579.427 1180.755, 579.427 1190.755, 579.427 1200.755, 579.427 1210.755, 579.427 1220.755, 579.427 1230.755, 579.427 1240.755, 579.427 1250.755, 579.427 1260.755, 579.427 1270.755, 579.427 1280.755, 579.427 1291.195, 579.427 1291.195, 569.427 1291.195, 559.427 1291.195, 551.523 1301.195, 551.523 1311.195, 551.523 1321.195, 551.523 1331.195, 551.523 1341.195, 551.523 1351.195, 551.523 1361.195, 551.523 1371.195, 551.523 1381.195, 551.523 1391.195, 551.523 1401.195, 551.523 1411.195, 551.523 1421.195, 551.523 1431.195, 551.523 1441.195, 551.523 1451.195, 551.523 1461.195, 551.523 1471.195, 551.523 1477.366, 551.523 1477.366, 541.523 1477.366, 531.523 1477.366, 521.523 1477.366, 511.523 1477.366, 501.523 1477.366, 491.523 1477.366, 481.523 1477.366, 471.523 1477.366, 461.523 1477.366, 451.523 1477.366, 441.523 1477.366, 431.523 1477.366, 422.021 1467.366, 422.021 1457.366, 422.021 1447.366, 422.021 1437.366, 422.021 1427.366, 422.021 1417.366, 422.021 1407.366, 422.021 1397.366, 422.021 1387.366, 422.021 1377.366, 422.021 1367.366, 422.021 1357.366, 422.021 1347.366, 422.021 1337.366, 422.021 1327.366, 422.021 1317.366, 422.021 1307.366, 422.021 1298.386, 422.021 1298.386, 412.021 1298.386, 402.021 1298.386, 400.241 1288.386, 400.241 1278.386, 400.241 1268.386, 400.241 1258.386, 400.241 1248.386, 400.241 1238.386, 400.241 1228.386, 400.241 1218.386, 400.241 1208.386, 400.241 1198.386, 400.241 1188.386, 400.241 1178.386, 400.241 1168.386, 400.241 1158.386, 400.241 1148.386, 400.241 1138.386, 400.241 1128.386, 400.241 1118.386, 400.241 1108.386, 400.241 1098.386, 400.241 1088.386, 400.241 1078.386, 400.241 1068.386, 400.241 1058.386, 400.241 1048.386, 400.241 1038.386, 400.241 1030.756, 400.241 1029.366, 402.112 1029.366, 412.112 1029.366, 422.112 1029.366, 428.251 " />
            <path fill="none" stroke-width="3.0" stroke-linecap="butt" stroke-opacity="1.0" stroke="rgb(0, 0, 0)" stroke-linejoin="round" d=" M 377.007, 551.547 377.007, 551.547 387.007, 551.547 397.007, 551.547 407.007, 551.547 417.007, 551.547 427.007, 551.547 437.007, 551.547 447.007, 551.547 457.007, 551.547 467.007, 551.547 477.007, 551.547 487.007, 551.547 497.007, 551.547 507.007, 551.547 517.007, 551.547 527.007, 551.547 537.007, 551.547 547.007, 551.547 557.007, 551.547 559.828, 551.547 559.828, 561.547 559.828, 571.547 559.828, 579.427 569.828, 579.427 579.828, 579.427 589.828, 579.427 599.828, 579.427 609.828, 579.427 619.828, 579.427 629.828, 579.427 639.828, 579.427 649.828, 579.427 659.828, 579.427 669.828, 579.427 679.828, 579.427 689.828, 579.427 699.828, 579.427 709.828, 579.427 719.828, 579.427 729.828, 579.427 739.828, 579.427 749.828, 579.427 759.828, 579.427 769.828, 579.427 779.828, 579.427 789.828, 579.427 799.828, 579.427 809.828, 579.427 819.828, 579.427 829.828, 579.427 839.828, 579.427 845.583, 579.427 846.672, 578.899 846.672, 568.899 846.672, 558.899 846.672, 556.352 " />
            <path fill="none" stroke-width="3.0" stroke-linecap="butt" stroke-opacity="1.0" stroke="rgb(0, 0, 0)" stroke-linejoin="round" d=" M 846.672, 556.352 856.672, 556.352 866.672, 556.352 876.672, 556.352 886.672, 556.352 896.672, 556.352 906.672, 556.352 916.672, 556.352 926.672, 556.352 936.672, 556.352 946.672, 556.352 956.672, 556.352 966.672, 556.352 976.672, 556.352 986.672, 556.352 996.672, 556.352 1006.672, 556.352 1016.672, 556.352 1026.672, 556.352 1029.366, 556.352 " />
            <path fill="none" stroke-width="3.0" stroke-linecap="butt" stroke-opacity="1.0" stroke="rgb(0, 0, 0)" stroke-linejoin="round" d=" M 1029.366, 428.251 1019.366, 428.251 1009.366, 428.251 999.366, 428.251 989.366, 428.251 979.366, 428.251 969.366, 428.251 959.366, 428.251 949.366, 428.251 939.366, 428.251 929.366, 428.251 919.366, 428.251 909.366, 428.251 899.366, 428.251 889.366, 428.251 879.366, 428.251 869.366, 428.251 859.366, 428.251 849.366, 428.251 846.673, 428.251 " />
        </g>
    </g>
</svg>
