<?xml version='1.0' encoding='ascii'?>
<svg xmlns="http://www.w3.org/2000/svg" version="1.1" width="1920" height="1080">
    <g id="ViewLayer_LineSet" xmlns:inkscape="http://www.inkscape.org/namespaces/inkscape" inkscape:groupmode="lineset" inkscape:label="ViewLayer_LineSet">
        <g xmlns:inkscape="http://www.inkscape.org/namespaces/inkscape" inkscape:groupmode="layer" id="strokes" inkscape:label="strokes">
            <path fill="none" stroke-width="3.0" stroke-linecap="butt" stroke-opacity="1.0" stroke="rgb(0, 0, 0)" stroke-linejoin="round" d=" M 671.889, 277.260 671.218, 276.648 661.218, 276.648 654.638, 276.648 654.638, 286.648 654.638, 296.648 654.638, 306.648 654.638, 316.648 654.638, 326.648 654.638, 336.648 654.638, 346.648 654.638, 356.648 654.638, 366.648 654.638, 376.133 656.525, 377.146 665.734, 377.146 " />
            <path fill="none" stroke-width="3.0" stroke-linecap="butt" stroke-opacity="1.0" stroke="rgb(0, 0, 0)" stroke-linejoin="round" d=" M 989.553, 590.089 991.081, 592.868 992.045, 595.960 992.371, 599.174 992.045, 602.389 991.081, 605.480 989.514, 608.329 987.407, 610.826 984.838, 612.876 981.908, 614.398 978.728, 615.336 975.422, 615.653 972.115, 615.336 968.936, 614.398 966.005, 612.876 963.437, 610.826 961.329, 608.329 959.763, 605.480 958.798, 602.389 958.476, 599.210 " />
            <path fill="none" stroke-width="3.0" stroke-linecap="butt" stroke-opacity="1.0" stroke="rgb(0, 0, 0)" stroke-linejoin="round" d=" M 958.476, 599.210 958.796, 596.050 959.762, 592.954 961.331, 590.100 963.442, 587.599 966.015, 585.547 968.950, 584.022 972.135, 583.082 975.447, 582.765 978.759, 583.082 981.943, 584.022 984.878, 585.547 987.451, 587.599 989.553, 590.089 " />
            <path fill="none" stroke-width="3.0" stroke-linecap="butt" stroke-opacity="1.0" stroke="rgb(0, 0, 0)" stroke-linejoin="round" d=" M 923.855, 825.243 927.094, 834.704 929.199, 840.852 929.271, 840.828 " />
            <path fill="none" stroke-width="3.0" stroke-linecap="butt" stroke-opacity="1.0" stroke="rgb(0, 0, 0)" stroke-linejoin="round" d=" M 677.064, 549.739 667.064, 549.739 666.832, 549.739 665.010, 549.800 665.010, 550.002 " />
            <path fill="none" stroke-width="3.0" stroke-linecap="butt" stroke-opacity="1.0" stroke="rgb(0, 0, 0)" stroke-linejoin="round" d=" M 1018.273, 405.209 1021.512, 395.748 1023.323, 390.457 1023.028, 390.356 " />
            <path fill="none" stroke-width="3.0" stroke-linecap="butt" stroke-opacity="1.0" stroke="rgb(0, 0, 0)" stroke-linejoin="round" d=" M 1165.428, 744.988 1168.667, 754.449 1169.743, 757.592 1170.154, 758.018 " />
            <path fill="none" stroke-width="3.0" stroke-linecap="butt" stroke-opacity="1.0" stroke="rgb(0, 0, 0)" stroke-linejoin="round" d=" M 1281.108, 721.263 1285.036, 719.918 1284.980, 719.753 " />
            <path fill="none" stroke-width="3.0" stroke-linecap="butt" stroke-opacity="1.0" stroke="rgb(0, 0, 0)" stroke-linejoin="round" d=" M 1284.980, 719.753 1285.354, 719.753 1285.354, 719.571 " />
            <path fill="none" stroke-width="3.0" stroke-linecap="butt" stroke-opacity="1.0" stroke="rgb(0, 0, 0)" stroke-linejoin="round" d=" M 1273.971, 562.236 1283.971, 562.236 1285.354, 562.236 1285.354, 562.165 " />
            <path fill="none" stroke-width="3.0" stroke-linecap="butt" stroke-opacity="1.0" stroke="rgb(0, 0, 0)" stroke-linejoin="round" d=" M 1285.004, 479.262 1285.036, 479.167 1280.103, 477.478 " />
            <path fill="none" stroke-width="3.0" stroke-linecap="butt" stroke-opacity="1.0" stroke="rgb(0, 0, 0)" stroke-linejoin="round" d=" M 773.661, 323.944 776.901, 314.483 777.922, 311.500 777.721, 311.248 " />
            <path fill="none" stroke-width="3.0" stroke-linecap="butt" stroke-opacity="1.0" stroke="rgb(0, 0, 0)" stroke-linejoin="round" d=" M 665.734, 377.146 666.832, 377.753 676.832, 377.753 677.064, 377.753 " />
            <path fill="none" stroke-width="3.0" stroke-linecap="butt" stroke-opacity="1.0" stroke="rgb(0, 0, 0)" stroke-linejoin="round" d=" M 682.339, 277.966 681.590, 277.260 671.889, 277.260 " />
            <path fill="none" stroke-width="3.0" stroke-linecap="butt" stroke-opacity="1.0" stroke="rgb(0, 0, 0)" stroke-linejoin="round" d=" M 682.463, 920.628 682.669, 921.230 682.686, 921.224 " />
            <path fill="none" stroke-width="3.0" stroke-linecap="butt" stroke-opacity="1.0" stroke="rgb(0, 0, 0)" stroke-linejoin="round" d=" M 665.010, 921.682 665.010, 921.824 675.010, 921.824 681.590, 921.824 682.463, 920.628 " />
            <path fill="none" stroke-width="3.0" stroke-linecap="butt" stroke-opacity="1.0" stroke="rgb(0, 0, 0)" stroke-linejoin="round" d=" M 777.721, 311.248 780.843, 301.748 782.290, 297.342 781.185, 295.833 771.685, 292.712 762.185, 289.590 752.684, 286.468 743.184, 283.347 733.684, 280.225 724.184, 277.103 714.683, 273.982 705.183, 270.860 695.683, 267.738 686.672, 264.777 683.550, 274.278 682.339, 277.966 " />
            <path fill="none" stroke-width="3.0" stroke-linecap="butt" stroke-opacity="1.0" stroke="rgb(0, 0, 0)" stroke-linejoin="round" d=" M 665.010, 550.002 656.525, 550.002 654.638, 550.064 654.638, 560.064 654.638, 570.064 654.638, 580.064 654.638, 590.064 654.638, 600.064 654.638, 610.064 654.638, 620.064 654.638, 630.064 654.638, 640.064 654.638, 649.548 664.638, 649.548 671.218, 649.548 671.914, 649.285 " />
            <path fill="none" stroke-width="3.0" stroke-linecap="butt" stroke-opacity="1.0" stroke="rgb(0, 0, 0)" stroke-linejoin="round" d=" M 673.003, 820.595 673.003, 820.453 663.003, 820.453 656.525, 820.453 654.638, 822.197 654.638, 832.197 654.638, 842.197 654.638, 852.197 654.638, 862.197 654.638, 872.197 654.638, 882.197 654.638, 892.197 654.638, 902.197 654.638, 912.197 654.638, 921.682 664.638, 921.682 665.010, 921.682 " />
            <path fill="none" stroke-width="3.0" stroke-linecap="butt" stroke-opacity="1.0" stroke="rgb(0, 0, 0)" stroke-linejoin="round" d=" M 682.686, 921.224 685.808, 930.724 686.672, 933.354 696.172, 930.232 705.673, 927.111 715.173, 923.989 724.673, 920.867 734.174, 917.746 743.674, 914.624 753.174, 911.502 762.674, 908.381 772.175, 905.259 781.185, 902.298 782.290, 900.059 779.169, 890.559 777.146, 884.405 777.091, 884.423 " />
            <path fill="none" stroke-width="3.0" stroke-linecap="butt" stroke-opacity="1.0" stroke="rgb(0, 0, 0)" stroke-linejoin="round" d=" M 929.271, 840.828 932.392, 850.328 932.532, 850.752 942.032, 847.631 951.532, 844.509 961.033, 841.387 970.533, 838.265 980.033, 835.144 989.533, 832.022 999.034, 828.900 1008.534, 825.779 1018.034, 822.657 1027.045, 819.696 1026.630, 817.968 1023.509, 808.468 1021.486, 802.313 1021.351, 802.358 " />
            <path fill="none" stroke-width="3.0" stroke-linecap="butt" stroke-opacity="1.0" stroke="rgb(0, 0, 0)" stroke-linejoin="round" d=" M 1170.154, 758.018 1172.879, 766.311 1174.202, 767.718 1183.703, 764.597 1193.203, 761.475 1202.703, 758.353 1212.203, 755.231 1221.704, 752.110 1231.204, 748.988 1240.704, 745.866 1250.204, 742.745 1259.705, 739.623 1269.205, 736.501 1278.705, 733.380 1284.468, 731.486 1281.346, 721.986 1281.108, 721.263 " />
            <path fill="none" stroke-width="3.0" stroke-linecap="butt" stroke-opacity="1.0" stroke="rgb(0, 0, 0)" stroke-linejoin="round" d=" M 1285.354, 719.571 1293.794, 719.571 1293.794, 709.571 1293.794, 699.571 1293.794, 689.571 1293.794, 679.571 1293.794, 669.571 1293.794, 659.571 1293.794, 649.571 1293.794, 639.571 1293.794, 636.667 1291.731, 636.069 1281.731, 636.069 1275.253, 636.069 1275.253, 636.251 " />
            <path fill="none" stroke-width="3.0" stroke-linecap="butt" stroke-opacity="1.0" stroke="rgb(0, 0, 0)" stroke-linejoin="round" d=" M 1285.354, 562.165 1293.794, 562.165 1293.794, 552.165 1293.794, 542.165 1293.794, 532.165 1293.794, 522.165 1293.794, 512.165 1293.794, 502.165 1293.794, 492.165 1293.794, 482.165 1293.794, 479.262 1285.004, 479.262 " />
            <path fill="none" stroke-width="3.0" stroke-linecap="butt" stroke-opacity="1.0" stroke="rgb(0, 0, 0)" stroke-linejoin="round" d=" M 1280.103, 477.478 1283.225, 467.978 1284.468, 464.195 1274.967, 461.073 1265.467, 457.951 1255.967, 454.830 1246.467, 451.708 1236.966, 448.586 1227.466, 445.465 1217.966, 442.343 1208.465, 439.221 1198.965, 436.100 1189.465, 432.978 1179.965, 429.856 1174.202, 427.963 1172.879, 428.655 1169.757, 438.155 1167.735, 444.310 1168.447, 444.544 " />
            <path fill="none" stroke-width="3.0" stroke-linecap="butt" stroke-opacity="1.0" stroke="rgb(0, 0, 0)" stroke-linejoin="round" d=" M 1023.028, 390.356 1026.150, 380.856 1027.045, 378.132 1017.544, 375.010 1008.044, 371.888 998.544, 368.767 989.044, 365.645 979.543, 362.523 970.043, 359.402 960.543, 356.280 951.043, 353.158 941.542, 350.037 932.532, 347.076 929.410, 356.576 927.356, 362.828 927.451, 363.347 " />
            <path fill="none" stroke-width="3.0" stroke-linecap="butt" stroke-opacity="1.0" stroke="rgb(0, 0, 0)" stroke-linejoin="round" d=" M 677.064, 649.285 677.064, 659.285 677.064, 669.285 677.064, 679.285 677.064, 689.285 677.064, 699.285 677.064, 709.285 677.064, 719.285 677.064, 729.285 677.064, 739.285 677.064, 749.285 677.064, 759.285 677.064, 769.285 677.064, 779.285 677.064, 789.285 677.064, 799.285 677.064, 809.285 677.064, 820.595 " />
            <path fill="none" stroke-width="3.0" stroke-linecap="butt" stroke-opacity="1.0" stroke="rgb(0, 0, 0)" stroke-linejoin="round" d=" M 677.064, 377.753 677.064, 387.753 677.064, 397.753 677.064, 407.753 677.064, 417.753 677.064, 427.753 677.064, 437.753 677.064, 447.753 677.064, 457.753 677.064, 467.753 677.064, 477.753 677.064, 487.753 677.064, 497.753 677.064, 507.753 677.064, 517.753 677.064, 527.753 677.064, 537.753 677.064, 547.753 677.064, 549.739 " />
            <path fill="none" stroke-width="3.0" stroke-linecap="butt" stroke-opacity="1.0" stroke="rgb(0, 0, 0)" stroke-linejoin="round" d=" M 671.914, 649.285 677.064, 649.285 " />
            <path fill="none" stroke-width="3.0" stroke-linecap="butt" stroke-opacity="1.0" stroke="rgb(0, 0, 0)" stroke-linejoin="round" d=" M 677.064, 820.595 673.003, 820.595 " />
            <path fill="none" stroke-width="3.0" stroke-linecap="butt" stroke-opacity="1.0" stroke="rgb(0, 0, 0)" stroke-linejoin="round" d=" M 777.091, 884.423 773.888, 875.065 " />
            <path fill="none" stroke-width="3.0" stroke-linecap="butt" stroke-opacity="1.0" stroke="rgb(0, 0, 0)" stroke-linejoin="round" d=" M 927.451, 363.347 924.212, 372.808 923.858, 373.842 " />
            <path fill="none" stroke-width="3.0" stroke-linecap="butt" stroke-opacity="1.0" stroke="rgb(0, 0, 0)" stroke-linejoin="round" d=" M 1021.351, 802.358 1018.429, 793.824 " />
            <path fill="none" stroke-width="3.0" stroke-linecap="butt" stroke-opacity="1.0" stroke="rgb(0, 0, 0)" stroke-linejoin="round" d=" M 1168.447, 444.544 1165.202, 454.021 " />
            <path fill="none" stroke-width="3.0" stroke-linecap="butt" stroke-opacity="1.0" stroke="rgb(0, 0, 0)" stroke-linejoin="round" d=" M 1018.429, 793.824 1027.919, 790.671 1037.409, 787.518 1046.899, 784.366 1056.389, 781.213 1065.879, 778.060 1075.369, 774.907 1084.859, 771.755 1094.349, 768.602 1103.839, 765.449 1113.329, 762.296 1122.819, 759.144 1132.309, 755.991 1141.799, 752.838 1151.289, 749.685 1160.779, 746.533 1165.428, 744.988 " />
            <path fill="none" stroke-width="3.0" stroke-linecap="butt" stroke-opacity="1.0" stroke="rgb(0, 0, 0)" stroke-linejoin="round" d=" M 773.888, 875.065 783.378, 871.912 792.868, 868.760 802.358, 865.607 811.848, 862.454 821.338, 859.301 830.828, 856.149 840.318, 852.996 849.808, 849.843 859.298, 846.690 868.788, 843.538 878.278, 840.385 887.768, 837.232 897.258, 834.079 906.748, 830.927 916.238, 827.774 923.855, 825.243 " />
            <path fill="none" stroke-width="3.0" stroke-linecap="butt" stroke-opacity="1.0" stroke="rgb(0, 0, 0)" stroke-linejoin="round" d=" M 923.858, 373.842 914.368, 370.690 904.878, 367.537 895.388, 364.384 885.898, 361.231 876.408, 358.079 866.918, 354.926 857.428, 351.773 847.938, 348.620 838.448, 345.468 828.958, 342.315 819.468, 339.162 809.978, 336.009 800.488, 332.857 790.998, 329.704 781.508, 326.551 773.661, 323.944 " />
            <path fill="none" stroke-width="3.0" stroke-linecap="butt" stroke-opacity="1.0" stroke="rgb(0, 0, 0)" stroke-linejoin="round" d=" M 1165.202, 454.021 1155.712, 450.869 1146.222, 447.716 1136.732, 444.563 1127.242, 441.410 1117.752, 438.258 1108.262, 435.105 1098.772, 431.952 1089.282, 428.799 1079.792, 425.647 1070.302, 422.494 1060.812, 419.341 1051.322, 416.188 1041.832, 413.036 1032.342, 409.883 1022.852, 406.730 1018.273, 405.209 " />
            <path fill="none" stroke-width="3.0" stroke-linecap="butt" stroke-opacity="1.0" stroke="rgb(0, 0, 0)" stroke-linejoin="round" d=" M 1273.971, 636.251 1273.971, 626.251 1273.971, 616.251 1273.971, 606.251 1273.971, 596.251 1273.971, 586.251 1273.971, 576.251 1273.971, 566.251 1273.971, 562.236 " />
            <path fill="none" stroke-width="3.0" stroke-linecap="butt" stroke-opacity="1.0" stroke="rgb(0, 0, 0)" stroke-linejoin="round" d=" M 1275.253, 636.251 1273.971, 636.251 " />
        </g>
    </g>
</svg>
