<?xml version='1.0' encoding='ascii'?>
<svg xmlns="http://www.w3.org/2000/svg" version="1.1" width="1920" height="1080">
    <g id="ViewLayer_LineSet" xmlns:inkscape="http://www.inkscape.org/namespaces/inkscape" inkscape:groupmode="lineset" inkscape:label="ViewLayer_LineSet">
        <g xmlns:inkscape="http://www.inkscape.org/namespaces/inkscape" inkscape:groupmode="layer" id="strokes" inkscape:label="strokes">
            <path fill="none" stroke-width="2.0000009536743164" stroke-linecap="butt" stroke-opacity="1.0" stroke="rgb(0, 0, 0)" stroke-linejoin="round" d=" M 718.136, 601.254 717.136, 601.254 716.136, 601.254 715.136, 601.254 714.136, 601.254 713.136, 601.254 712.136, 601.254 711.136, 601.254 710.136, 601.254 709.136, 601.254 708.136, 601.254 707.136, 601.254 706.136, 601.254 705.136, 601.254 704.136, 601.254 703.136, 601.254 702.136, 601.254 701.136, 601.254 700.068, 601.254 699.095, 601.483 698.121, 601.713 697.634, 601.828 697.634, 602.828 697.634, 603.828 697.634, 604.828 697.634, 605.828 697.634, 606.828 697.634, 607.828 697.634, 608.828 697.634, 609.828 697.634, 610.828 697.634, 611.828 697.634, 612.828 697.634, 613.828 697.634, 614.828 697.634, 615.828 697.634, 616.828 697.634, 617.828 697.634, 618.828 697.634, 619.828 697.634, 620.828 697.634, 621.828 697.634, 622.828 697.634, 623.828 697.634, 624.828 697.634, 625.828 697.634, 626.828 697.634, 627.828 697.634, 628.828 697.634, 629.828 697.634, 630.828 697.634, 631.828 697.634, 632.828 697.634, 633.828 697.634, 634.828 697.634, 635.828 697.634, 636.828 697.634, 637.828 697.634, 638.828 697.634, 639.828 697.634, 640.828 697.634, 641.828 697.634, 642.828 697.634, 643.828 697.634, 644.828 697.634, 645.828 697.634, 646.828 697.634, 647.828 697.634, 648.828 697.634, 649.828 697.634, 650.828 697.634, 651.828 697.634, 652.828 697.634, 653.828 697.634, 654.828 697.634, 655.828 697.634, 656.828 697.634, 657.828 697.634, 658.828 697.634, 659.828 697.634, 660.828 697.634, 661.828 697.634, 662.828 697.634, 663.828 697.634, 664.828 697.634, 665.828 697.634, 666.828 697.634, 667.828 697.634, 668.828 697.634, 669.828 697.634, 670.828 697.634, 671.828 697.634, 672.828 697.634, 673.828 697.634, 674.828 697.634, 675.828 697.634, 676.828 697.634, 677.828 697.634, 678.828 697.634, 679.828 697.634, 680.828 697.634, 681.828 697.634, 682.828 697.634, 683.828 697.634, 684.828 697.634, 685.828 697.634, 686.828 697.634, 687.828 697.634, 688.828 697.634, 689.828 697.634, 690.828 697.634, 691.828 697.634, 692.828 697.634, 693.828 697.634, 694.828 697.634, 695.828 697.634, 696.828 697.634, 697.828 697.634, 698.828 697.634, 699.828 697.634, 700.828 697.634, 701.828 697.634, 702.828 697.634, 703.828 697.634, 704.828 697.634, 705.828 697.634, 706.828 697.634, 707.828 697.634, 708.828 697.634, 709.828 697.634, 710.828 697.634, 711.828 697.634, 712.828 697.634, 713.828 697.634, 714.828 697.634, 715.828 697.634, 716.828 697.634, 717.828 697.634, 718.828 697.634, 719.828 697.634, 720.828 697.634, 721.828 697.634, 722.828 697.634, 723.828 697.634, 724.828 697.634, 725.828 697.634, 726.828 697.634, 727.828 697.634, 728.828 697.634, 729.828 697.634, 730.828 697.634, 731.828 697.634, 732.828 697.634, 733.828 697.634, 734.828 697.634, 735.828 697.634, 736.828 697.634, 737.828 697.634, 738.828 697.634, 739.828 697.634, 740.828 697.634, 741.828 697.634, 742.828 697.634, 743.828 697.634, 744.828 697.634, 745.828 697.634, 746.828 697.634, 747.828 697.634, 748.828 697.634, 749.828 697.634, 750.828 697.634, 751.828 697.634, 752.828 697.634, 753.828 697.634, 754.828 697.634, 755.828 697.634, 756.828 697.634, 757.828 697.634, 758.828 697.634, 759.828 697.634, 760.828 697.634, 761.828 697.634, 762.828 697.634, 763.828 697.634, 764.828 697.634, 765.828 697.634, 766.828 697.634, 767.828 697.634, 768.828 697.634, 769.828 697.634, 770.828 697.634, 771.828 697.634, 772.828 697.634, 773.828 697.634, 774.828 697.634, 775.828 697.634, 776.828 697.634, 777.828 697.634, 778.828 697.634, 779.828 697.634, 780.828 697.634, 781.828 697.634, 782.828 697.634, 783.828 697.634, 784.828 697.634, 785.828 697.634, 786.828 697.634, 787.828 697.634, 788.828 697.634, 789.828 697.634, 790.828 697.634, 791.828 697.634, 792.828 697.634, 793.828 697.634, 794.828 697.634, 795.828 697.634, 796.828 697.634, 797.828 697.634, 798.828 697.634, 799.828 697.634, 800.828 697.634, 801.828 697.634, 802.828 697.634, 803.828 697.634, 804.828 697.634, 805.828 697.634, 806.828 697.634, 807.828 697.634, 808.828 697.634, 809.828 697.634, 810.828 697.634, 811.828 697.634, 812.828 697.634, 813.828 697.634, 816.766 698.634, 816.766 699.634, 816.766 700.634, 816.766 701.634, 816.766 702.634, 816.766 703.634, 816.766 704.634, 816.766 705.634, 816.766 706.634, 816.766 707.634, 816.766 708.634, 816.766 709.634, 816.766 710.634, 816.766 711.634, 816.766 712.634, 816.766 713.634, 816.766 714.634, 816.766 715.634, 816.766 716.634, 816.766 717.634, 816.766 718.136, 816.766 718.136, 817.766 718.136, 818.766 718.136, 819.766 718.136, 820.766 718.136, 821.766 718.136, 822.766 718.136, 823.766 718.136, 824.766 718.136, 825.766 718.136, 826.766 718.136, 827.766 718.136, 828.766 718.136, 829.766 718.136, 830.766 718.136, 831.766 718.136, 832.766 718.136, 832.998 718.462, 832.998 718.462, 833.998 718.462, 834.998 718.462, 835.998 718.462, 836.998 718.462, 837.998 718.462, 838.998 718.462, 839.998 718.462, 840.998 718.462, 841.998 718.462, 842.998 718.462, 843.998 718.462, 844.998 718.462, 845.998 718.462, 846.998 718.462, 847.998 718.462, 848.998 718.462, 849.998 718.462, 850.998 718.462, 851.998 718.462, 852.998 718.462, 853.998 718.462, 854.998 718.462, 855.998 718.462, 856.998 718.462, 857.998 718.462, 858.998 718.462, 859.998 718.462, 860.998 718.462, 861.998 718.462, 862.998 718.462, 863.998 718.462, 864.998 718.462, 865.998 718.462, 866.998 718.462, 867.998 718.462, 868.998 718.462, 869.998 718.462, 870.998 718.462, 871.998 718.462, 872.998 718.462, 873.998 718.462, 874.998 718.462, 875.998 718.462, 876.998 718.462, 877.998 718.462, 878.998 718.462, 879.998 718.462, 880.998 718.462, 881.998 718.462, 882.998 718.462, 883.998 718.462, 884.998 718.462, 885.998 718.462, 886.998 718.462, 887.998 718.462, 888.998 718.462, 889.998 718.462, 890.998 718.462, 891.998 718.462, 892.998 718.462, 893.998 718.462, 894.998 718.462, 895.998 718.462, 896.998 718.462, 897.998 718.462, 898.998 718.462, 899.998 718.462, 900.998 718.462, 901.998 718.462, 902.998 718.462, 903.998 718.462, 904.998 718.462, 905.998 718.462, 906.998 718.462, 907.998 718.462, 908.998 718.462, 909.998 718.462, 910.998 718.462, 911.998 718.462, 912.998 718.462, 913.998 718.462, 914.998 718.462, 915.998 718.462, 916.998 718.462, 917.998 718.462, 918.998 718.462, 919.998 718.462, 920.998 718.462, 921.998 718.462, 922.998 718.462, 923.998 718.462, 924.998 718.462, 925.998 718.462, 926.998 718.462, 927.998 718.462, 928.998 718.462, 929.998 718.462, 930.998 718.462, 931.998 718.462, 932.998 718.462, 933.998 718.462, 934.998 718.462, 935.998 718.462, 936.998 718.462, 937.998 718.462, 938.998 718.462, 939.998 718.462, 941.888 719.462, 941.888 720.462, 941.888 721.462, 941.888 722.462, 941.888 723.462, 941.888 724.462, 941.888 725.462, 941.888 726.462, 941.888 727.462, 941.888 728.462, 941.888 729.462, 941.888 730.462, 941.888 731.462, 941.888 732.462, 941.888 733.462, 941.888 734.462, 941.888 735.462, 941.888 736.462, 941.888 737.462, 941.888 738.462, 941.888 739.462, 941.888 740.462, 941.888 741.462, 941.888 742.462, 941.888 743.462, 941.888 744.462, 941.888 745.462, 941.888 746.462, 941.888 747.462, 941.888 748.462, 941.888 749.462, 941.888 750.462, 941.888 751.462, 941.888 752.462, 941.888 753.462, 941.888 754.462, 941.888 755.462, 941.888 756.462, 941.888 757.462, 941.888 758.462, 941.888 759.462, 941.888 760.462, 941.888 761.462, 941.888 762.462, 941.888 763.462, 941.888 764.462, 941.888 765.462, 941.888 766.462, 941.888 767.462, 941.888 768.462, 941.888 769.462, 941.888 770.462, 941.888 771.462, 941.888 772.462, 941.888 773.462, 941.888 774.462, 941.888 775.462, 941.888 776.462, 941.888 777.462, 941.888 778.462, 941.888 779.462, 941.888 780.462, 941.888 781.462, 941.888 782.462, 941.888 783.462, 941.888 784.462, 941.888 785.462, 941.888 786.462, 941.888 787.462, 941.888 788.462, 941.888 789.462, 941.888 790.462, 941.888 791.462, 941.888 792.462, 941.888 793.462, 941.888 794.462, 941.888 795.462, 941.888 796.462, 941.888 797.462, 941.888 798.462, 941.888 799.462, 941.888 800.462, 941.888 801.462, 941.888 802.462, 941.888 803.462, 941.888 804.462, 941.888 805.462, 941.888 806.462, 941.888 807.462, 941.888 808.462, 941.888 809.462, 941.888 810.462, 941.888 811.462, 941.888 812.462, 941.888 813.462, 941.888 814.462, 941.888 815.462, 941.888 816.462, 941.888 817.462, 941.888 818.462, 941.888 819.462, 941.888 820.462, 941.888 821.462, 941.888 822.462, 941.888 823.462, 941.888 824.462, 941.888 825.462, 941.888 826.462, 941.888 827.462, 941.888 828.462, 941.888 829.462, 941.888 830.462, 941.888 831.462, 941.888 832.462, 941.888 833.462, 941.888 834.462, 941.888 835.462, 941.888 836.462, 941.888 837.462, 941.888 838.462, 941.888 839.462, 941.888 840.462, 941.888 841.462, 941.888 842.462, 941.888 843.462, 941.888 844.462, 941.888 845.462, 941.888 846.462, 941.888 847.462, 941.888 848.462, 941.888 849.462, 941.888 850.462, 941.888 851.462, 941.888 852.462, 941.888 853.462, 941.888 854.462, 941.888 855.462, 941.888 856.462, 941.888 857.462, 941.888 858.462, 941.888 859.462, 941.888 860.462, 941.888 861.462, 941.888 862.462, 941.888 863.462, 941.888 864.462, 941.888 865.462, 941.888 866.462, 941.888 867.462, 941.888 868.462, 941.888 869.462, 941.888 870.462, 941.888 871.462, 941.888 872.462, 941.888 873.462, 941.888 874.462, 941.888 875.462, 941.888 876.462, 941.888 877.462, 941.888 878.462, 941.888 879.462, 941.888 880.462, 941.888 881.462, 941.888 882.462, 941.888 883.462, 941.888 884.462, 941.888 885.462, 941.888 886.462, 941.888 887.462, 941.888 888.462, 941.888 889.462, 941.888 890.462, 941.888 891.462, 941.888 892.462, 941.888 893.462, 941.888 894.462, 941.888 895.462, 941.888 896.462, 941.888 897.462, 941.888 898.462, 941.888 899.462, 941.888 900.462, 941.888 901.462, 941.888 902.462, 941.888 903.462, 941.888 904.462, 941.888 905.462, 941.888 906.462, 941.888 907.462, 941.888 908.462, 941.888 909.462, 941.888 910.462, 941.888 911.462, 941.888 912.462, 941.888 913.462, 941.888 914.462, 941.888 915.462, 941.888 916.462, 941.888 917.462, 941.888 918.462, 941.888 919.462, 941.888 920.462, 941.888 921.462, 941.888 922.462, 941.888 923.462, 941.888 924.462, 941.888 925.462, 941.888 926.462, 941.888 927.462, 941.888 928.462, 941.888 929.462, 941.888 930.462, 941.888 931.462, 941.888 932.462, 941.888 933.462, 941.888 934.462, 941.888 935.462, 941.888 936.462, 941.888 937.462, 941.888 938.462, 941.888 939.462, 941.888 940.462, 941.888 941.462, 941.888 942.462, 941.888 943.462, 941.888 944.462, 941.888 945.462, 941.888 946.462, 941.888 947.462, 941.888 948.462, 941.888 949.462, 941.888 950.462, 941.888 951.462, 941.888 952.462, 941.888 953.462, 941.888 954.462, 941.888 955.462, 941.888 956.462, 941.888 957.462, 941.888 958.462, 941.888 959.462, 941.888 960.462, 941.888 961.462, 941.888 962.462, 941.888 963.462, 941.888 964.462, 941.888 965.462, 941.888 966.462, 941.888 967.462, 941.888 968.462, 941.888 969.462, 941.888 970.462, 941.888 971.462, 941.888 972.462, 941.888 973.462, 941.888 974.462, 941.888 975.462, 941.888 976.462, 941.888 977.462, 941.888 978.462, 941.888 979.462, 941.888 980.462, 941.888 981.462, 941.888 982.462, 941.888 983.462, 941.888 984.462, 941.888 985.462, 941.888 989.161, 941.888 989.161, 941.053 989.161, 940.053 989.161, 939.053 989.161, 938.053 989.161, 937.053 989.161, 936.053 989.161, 935.053 989.161, 934.053 989.161, 933.053 989.161, 932.053 989.161, 931.053 989.161, 930.053 989.161, 929.053 989.161, 928.053 989.161, 927.053 989.161, 926.053 989.161, 925.053 989.161, 924.053 989.161, 923.053 989.161, 922.053 989.161, 921.053 989.161, 920.053 989.161, 919.053 989.161, 918.053 989.161, 917.053 989.161, 916.053 989.161, 915.053 989.161, 914.053 989.161, 913.053 989.161, 912.053 989.161, 911.053 989.161, 910.053 989.161, 909.053 989.161, 908.053 989.161, 907.053 989.161, 906.053 989.161, 905.053 989.161, 904.053 989.161, 903.053 989.161, 902.053 989.161, 901.053 989.161, 900.053 989.161, 899.053 989.161, 898.053 989.161, 897.053 989.161, 896.053 989.161, 895.053 989.161, 894.053 989.161, 893.053 989.161, 892.053 989.161, 891.053 989.161, 890.053 989.161, 889.053 989.161, 888.053 989.161, 887.053 989.161, 886.053 989.161, 885.053 989.161, 884.053 989.161, 883.053 989.161, 882.053 989.161, 881.053 989.161, 880.053 989.161, 879.053 989.161, 878.053 989.161, 877.053 989.161, 876.053 989.161, 875.053 989.161, 874.053 989.161, 873.053 989.161, 872.053 989.161, 871.053 989.161, 870.053 989.161, 869.053 989.161, 868.053 989.161, 867.053 989.161, 866.053 989.161, 865.053 989.161, 864.053 989.161, 863.053 989.161, 862.053 989.161, 861.053 989.161, 860.053 989.161, 859.053 989.161, 858.053 989.161, 857.053 989.161, 856.053 989.161, 855.053 989.161, 854.053 989.161, 853.053 989.161, 852.053 989.161, 851.053 989.161, 850.053 989.161, 849.053 989.161, 848.053 989.161, 847.053 989.161, 846.053 989.161, 845.053 989.161, 844.053 989.161, 843.053 989.161, 842.053 989.161, 841.053 989.161, 840.053 989.161, 839.053 989.161, 838.053 989.161, 837.053 989.161, 836.053 989.161, 835.053 989.161, 834.053 989.161, 833.053 989.161, 832.053 989.161, 831.053 989.161, 830.053 989.161, 828.675 989.161, 827.675 989.161, 826.675 989.161, 825.675 989.161, 824.675 989.161, 823.675 989.161, 822.675 989.161, 821.675 989.161, 820.675 989.161, 819.675 989.161, 818.675 989.161, 817.675 989.161, 817.395 990.161, 817.395 991.161, 817.395 992.161, 817.395 993.161, 817.395 994.161, 817.395 995.161, 817.395 996.161, 817.395 997.161, 817.395 998.161, 817.395 999.161, 817.395 1000.161, 817.395 1001.161, 817.395 1002.161, 817.395 1003.161, 817.395 1004.161, 817.395 1005.161, 817.395 1006.161, 817.395 1007.161, 817.395 1008.161, 817.395 1009.309, 817.395 " />
            <path fill="none" stroke-width="2.0000009536743164" stroke-linecap="butt" stroke-opacity="1.0" stroke="rgb(0, 0, 0)" stroke-linejoin="round" d=" M 1009.309, 817.395 1009.309, 818.395 1009.309, 819.395 1009.309, 820.395 1009.309, 821.395 1009.309, 822.395 1009.309, 823.395 1009.309, 824.395 1009.309, 825.395 1009.309, 825.996 1009.309, 826.996 1009.309, 827.996 1009.309, 828.996 1009.309, 829.996 1009.309, 830.996 1009.309, 831.996 1009.309, 832.996 1009.309, 833.996 1009.309, 834.996 1009.309, 835.996 1009.309, 836.996 1009.309, 837.996 1009.309, 838.996 1009.309, 839.996 1009.309, 840.996 1009.309, 841.996 1009.309, 842.996 1009.309, 843.996 1009.309, 844.996 1009.309, 845.996 1009.309, 846.996 1009.309, 847.996 1009.309, 848.996 1009.309, 849.996 1009.309, 850.996 1009.309, 851.996 1009.309, 852.996 1009.309, 853.996 1009.309, 854.996 1009.309, 855.996 1009.309, 856.996 1009.309, 857.996 1009.309, 858.996 1009.309, 859.996 1009.309, 860.996 1009.309, 861.996 1009.309, 862.996 1009.309, 863.996 1009.309, 864.996 1009.309, 865.996 1009.309, 866.996 1009.309, 867.996 1009.309, 868.996 1009.309, 869.996 1009.309, 870.996 1009.309, 871.996 1009.309, 872.996 1009.309, 873.996 1009.309, 874.996 1009.309, 875.996 1009.309, 876.996 1009.309, 877.996 1009.309, 878.996 1009.309, 879.996 1009.309, 880.996 1009.309, 881.996 1009.309, 882.996 1009.309, 883.996 1009.309, 884.996 1009.309, 885.996 1009.309, 886.996 1009.309, 887.996 1009.309, 888.996 1009.309, 889.996 1009.309, 890.996 1009.309, 891.996 1009.309, 892.996 1009.309, 893.996 1009.309, 894.996 1009.309, 895.996 1009.309, 896.996 1009.309, 897.996 1009.309, 898.996 1009.309, 899.996 1009.309, 900.996 1009.309, 901.996 1009.309, 902.996 1009.309, 903.996 1009.309, 904.996 1009.309, 905.996 1009.309, 906.996 1009.309, 907.996 1009.309, 908.996 1009.309, 909.996 1009.309, 910.996 1009.309, 911.996 1009.309, 912.996 1009.309, 913.996 1009.309, 914.996 1009.309, 915.996 1009.309, 916.996 1009.309, 917.996 1009.309, 918.996 1009.309, 919.996 1009.309, 920.996 1009.309, 921.996 1009.309, 922.996 1009.309, 923.996 1009.309, 924.996 1009.309, 925.996 1009.309, 926.996 1009.309, 927.996 1009.309, 928.996 1009.309, 929.996 1009.309, 930.996 1009.309, 931.996 1009.309, 932.996 1009.309, 933.996 1009.309, 934.996 1009.309, 935.996 1009.309, 937.332 1009.309, 938.159 1009.432, 939.152 1009.555, 940.144 1009.677, 941.137 1009.771, 941.888 1010.771, 941.888 1011.771, 941.888 1012.771, 941.888 1013.771, 941.888 1014.771, 941.888 1015.771, 941.888 1016.771, 941.888 1017.770, 941.888 1018.771, 941.888 1019.771, 941.888 1020.771, 941.888 1021.771, 941.888 1022.770, 941.888 1023.770, 941.888 1024.771, 941.888 1025.771, 941.888 1026.771, 941.888 1027.771, 941.888 1028.771, 941.888 1029.771, 941.888 1030.771, 941.888 1031.771, 941.888 1032.771, 941.888 1033.771, 941.888 1034.771, 941.888 1035.771, 941.888 1036.771, 941.888 1037.771, 941.888 1038.771, 941.888 1039.771, 941.888 1040.771, 941.888 1041.771, 941.888 1042.771, 941.888 1043.771, 941.888 1044.771, 941.888 1045.771, 941.888 1046.771, 941.888 1047.771, 941.888 1048.771, 941.888 1049.771, 941.888 1050.771, 941.888 1051.771, 941.888 1052.771, 941.888 1053.771, 941.888 1054.771, 941.888 1055.771, 941.888 1056.771, 941.888 1057.771, 941.888 1058.771, 941.888 1059.771, 941.888 1060.771, 941.888 1061.771, 941.888 1062.771, 941.888 1063.771, 941.888 1064.771, 941.888 1065.771, 941.888 1066.771, 941.888 1067.771, 941.888 1068.771, 941.888 1069.771, 941.888 1070.771, 941.888 1071.771, 941.888 1072.771, 941.888 1073.771, 941.888 1074.771, 941.888 1075.771, 941.888 1076.771, 941.888 1077.771, 941.888 1078.771, 941.888 1079.771, 941.888 1080.771, 941.888 1081.771, 941.888 1082.771, 941.888 1083.771, 941.888 1084.771, 941.888 1085.771, 941.888 1086.771, 941.888 1087.771, 941.888 1088.771, 941.888 1089.771, 941.888 1090.771, 941.888 1091.771, 941.888 1092.771, 941.888 1093.771, 941.888 1094.771, 941.888 1095.771, 941.888 1096.771, 941.888 1097.771, 941.888 1098.859, 941.888 1098.859, 941.797 1098.859, 941.438 1098.859, 940.438 1098.859, 939.438 1098.859, 938.438 1098.859, 937.438 1098.859, 936.438 1098.859, 935.438 1098.859, 934.438 1098.859, 933.438 1098.859, 932.438 1098.859, 931.438 1098.859, 930.438 1098.859, 929.438 1098.859, 928.438 1098.859, 927.438 1098.859, 926.438 1098.859, 925.438 1098.859, 924.438 1098.859, 923.438 1098.859, 922.438 1098.859, 921.438 1098.859, 920.438 1098.859, 919.438 1098.859, 918.438 1098.859, 917.438 1098.859, 916.438 1098.859, 915.438 1098.859, 914.438 1098.859, 913.438 1098.859, 912.438 1098.859, 911.438 1098.859, 910.438 1098.859, 909.438 1098.859, 908.438 1098.859, 907.438 1098.859, 906.438 1098.859, 905.438 1098.859, 904.502 1098.859, 903.502 1098.859, 902.502 1098.859, 901.502 1098.859, 900.502 1098.859, 899.502 1098.859, 898.502 1098.859, 897.502 1098.859, 896.502 1098.859, 895.502 1098.859, 894.502 1098.859, 893.502 1098.859, 892.502 1098.859, 891.502 1098.859, 890.502 1098.859, 889.502 1098.859, 888.502 1098.859, 887.502 1098.859, 886.502 1098.859, 885.502 1098.859, 884.502 1098.859, 883.502 1098.859, 882.502 1098.859, 881.502 1098.859, 880.502 1098.859, 879.502 1098.859, 878.502 1098.859, 877.502 1098.859, 876.502 1098.859, 875.502 1098.859, 874.502 1098.859, 873.502 1098.859, 872.502 1098.859, 871.502 1098.859, 870.502 1098.859, 869.502 1098.859, 868.502 1098.859, 867.502 1098.859, 866.502 1098.859, 865.502 1098.859, 864.502 1098.859, 863.502 1098.859, 862.502 1098.859, 861.502 1098.859, 860.502 1098.859, 859.502 1098.859, 858.502 1098.859, 857.502 1098.859, 856.502 1098.859, 855.502 1098.859, 854.502 1098.859, 853.502 1098.859, 852.502 1098.859, 851.502 1098.859, 850.502 1098.859, 849.502 1098.859, 848.502 1098.859, 847.502 1098.859, 846.502 1098.859, 845.494 1098.859, 844.494 1098.859, 843.494 1098.859, 842.494 1098.859, 841.494 1098.859, 840.494 1098.859, 839.494 1098.859, 838.494 1098.859, 837.494 1098.859, 836.494 1098.859, 835.494 1098.859, 834.494 1098.859, 833.494 1098.859, 832.494 1098.859, 831.494 1098.859, 830.494 1098.859, 829.494 1098.859, 828.675 1098.859, 827.675 1098.859, 826.675 1098.859, 825.675 1098.859, 824.675 1098.859, 823.675 1098.859, 822.675 1098.859, 821.675 1098.859, 820.675 1098.859, 819.675 1098.859, 818.675 1098.859, 817.779 1099.859, 817.779 1100.859, 817.779 1101.859, 817.779 1102.859, 817.779 1103.859, 817.779 1104.859, 817.779 1105.859, 817.779 1106.859, 817.779 1107.859, 817.779 1108.859, 817.779 1109.828, 817.779 1109.828, 816.779 1109.828, 815.779 1109.828, 814.779 1109.828, 813.779 1109.828, 812.779 1109.828, 811.779 1109.828, 810.779 1109.828, 809.779 1109.828, 808.779 1109.828, 807.779 1109.828, 806.779 1109.828, 805.779 1109.828, 804.779 1109.828, 803.779 1109.828, 802.779 1109.828, 801.779 1109.828, 800.779 1109.828, 799.779 1109.828, 798.779 1109.828, 797.779 1109.828, 796.779 1109.828, 795.779 1109.828, 794.779 1109.828, 793.779 1109.828, 792.779 1109.828, 791.779 1109.828, 790.779 1109.828, 789.779 1109.828, 788.779 1109.828, 787.779 1109.828, 786.779 1109.828, 785.779 1109.828, 784.779 1109.828, 783.779 1109.828, 782.779 1109.828, 781.779 1109.828, 780.779 1109.828, 779.779 1109.828, 778.779 1109.828, 777.779 1109.828, 776.779 1109.828, 775.779 1109.828, 774.779 1109.828, 773.779 1109.828, 772.779 1109.828, 771.779 1109.828, 770.779 1109.828, 769.779 1109.828, 768.779 1109.828, 767.779 1109.828, 766.779 1109.828, 765.779 1109.828, 764.779 1109.828, 763.779 1109.828, 762.779 1109.828, 761.779 1109.828, 760.779 1109.828, 759.779 1109.828, 758.779 1109.828, 757.779 1109.828, 756.779 1109.828, 755.779 1109.828, 754.779 1109.828, 753.779 1109.828, 752.779 1109.828, 751.779 1109.828, 750.779 1109.828, 749.779 1109.828, 748.779 1109.828, 747.779 1109.828, 746.779 1109.828, 745.779 1109.828, 744.779 1109.828, 743.779 1109.828, 742.779 1109.828, 741.779 1109.828, 740.779 1109.828, 739.779 1109.828, 738.779 1109.828, 737.779 1109.828, 736.779 1109.828, 735.779 1109.828, 734.779 1109.828, 733.779 1109.828, 732.779 1109.828, 731.779 1109.828, 730.779 1109.828, 729.779 1109.828, 728.779 1109.828, 727.779 1109.828, 726.779 1109.828, 725.779 1109.828, 724.779 1109.828, 723.779 1109.828, 722.779 1109.828, 721.779 1109.828, 720.779 1109.828, 719.779 1109.828, 718.779 1109.828, 717.779 1109.828, 716.779 1109.828, 715.779 1109.828, 714.779 1109.828, 713.779 1109.828, 712.779 1109.828, 711.779 1109.828, 710.779 1109.828, 709.779 1109.828, 708.779 1109.828, 707.779 1109.828, 706.779 1109.828, 705.779 1109.828, 704.779 1109.828, 703.779 1109.828, 702.779 1109.828, 701.779 1109.828, 700.779 1109.828, 699.779 1109.828, 698.779 1109.828, 697.779 1109.828, 696.779 1109.828, 695.779 1109.828, 694.779 1109.828, 693.779 1109.828, 692.779 1109.828, 691.779 1109.828, 690.779 1109.828, 689.779 1109.828, 688.779 1109.828, 687.779 1109.828, 686.779 1109.828, 685.779 1109.828, 684.779 1109.828, 683.779 1109.828, 682.779 1109.828, 681.779 1109.828, 680.779 1109.828, 679.779 1109.828, 678.779 1109.828, 677.779 1109.828, 676.779 1109.828, 675.779 1109.828, 674.779 1109.828, 673.779 1109.828, 672.779 1109.828, 671.779 1109.828, 670.779 1109.828, 669.779 1109.828, 668.779 1109.828, 667.779 1109.828, 666.779 1109.828, 665.779 1109.828, 664.779 1109.828, 663.779 1109.828, 662.779 1109.828, 661.779 1109.828, 660.779 1109.828, 659.779 1109.828, 658.779 1109.828, 657.779 1109.828, 656.779 1109.828, 655.779 1109.828, 654.779 1109.828, 653.779 1109.828, 652.779 1109.828, 651.779 1109.828, 650.779 1109.828, 649.779 1109.828, 648.779 1109.828, 647.779 1109.828, 646.779 1109.828, 645.779 1109.828, 644.779 1109.828, 643.779 1109.828, 642.779 1109.828, 641.779 1109.828, 640.779 1109.828, 639.779 1109.828, 638.779 1109.828, 637.779 1109.828, 636.779 1109.828, 635.779 1109.828, 634.779 1109.828, 633.779 1109.828, 632.779 1109.828, 631.779 1109.828, 630.779 1109.828, 629.779 1109.828, 628.779 1109.828, 627.779 1109.828, 626.779 1109.828, 625.779 1109.828, 624.779 1109.828, 623.779 1109.828, 622.779 1109.828, 621.779 1109.828, 620.779 1109.828, 619.779 1109.828, 618.779 1109.828, 617.779 1109.828, 616.779 1109.828, 615.779 1109.828, 614.779 1109.828, 613.779 1109.828, 612.779 1109.828, 611.779 1109.828, 610.779 1109.828, 609.779 1109.828, 608.779 1109.828, 607.779 1109.828, 606.779 1109.828, 605.779 1109.828, 603.212 1108.906, 602.823 1108.437, 602.625 1107.437, 602.625 1106.437, 602.625 1105.437, 602.625 1104.437, 602.625 1103.437, 602.625 1102.437, 602.625 1101.437, 602.625 1100.437, 602.625 1099.437, 602.625 1098.859, 602.625 " />
            <path fill="none" stroke-width="2.0000009536743164" stroke-linecap="butt" stroke-opacity="1.0" stroke="rgb(0, 0, 0)" stroke-linejoin="round" d=" M 1009.309, 258.575 1008.309, 258.575 1007.309, 258.575 1006.309, 258.575 1005.309, 258.575 1004.309, 258.575 1003.309, 258.575 1002.309, 258.575 1001.309, 258.575 1000.309, 258.575 999.309, 258.575 998.309, 258.575 997.309, 258.575 996.309, 258.575 995.309, 258.575 994.309, 258.575 993.309, 258.575 992.309, 258.575 991.309, 258.575 990.309, 258.575 989.161, 258.575 989.161, 257.575 989.161, 256.575 989.161, 255.575 989.161, 254.575 989.161, 253.575 989.161, 252.575 989.161, 251.575 989.161, 250.575 989.161, 249.575 989.161, 248.575 989.161, 247.575 989.161, 246.575 989.161, 245.575 989.161, 244.575 989.161, 243.575 989.161, 242.575 989.161, 241.575 989.161, 240.575 989.161, 239.575 989.161, 238.575 989.161, 237.575 989.161, 236.575 989.161, 235.575 989.161, 234.575 989.161, 233.575 989.161, 232.575 989.161, 231.575 989.161, 230.575 989.161, 229.575 989.161, 228.575 989.161, 227.575 989.161, 226.575 989.161, 225.575 989.161, 224.575 989.161, 223.575 989.161, 222.575 989.161, 221.575 989.161, 220.575 989.161, 219.575 989.161, 218.575 989.161, 217.575 989.161, 216.575 989.161, 215.575 989.161, 214.575 989.161, 213.575 989.161, 212.575 989.161, 211.575 989.161, 210.575 989.161, 209.575 989.161, 208.575 989.161, 207.575 989.161, 206.575 989.161, 205.575 989.161, 204.575 989.161, 203.575 989.161, 202.575 989.161, 201.575 989.161, 200.575 989.161, 199.575 989.161, 198.575 989.161, 197.575 989.161, 196.575 989.161, 195.575 989.161, 194.575 989.161, 193.575 989.161, 192.575 989.161, 191.575 989.161, 190.575 989.161, 189.575 989.161, 188.575 989.161, 187.575 989.161, 186.575 989.161, 185.575 989.161, 184.575 989.161, 183.575 989.161, 182.575 989.161, 181.575 989.161, 180.575 989.161, 179.575 989.161, 178.575 989.161, 177.575 989.161, 176.575 989.161, 175.575 989.161, 174.575 989.161, 173.575 989.161, 172.575 989.161, 171.575 989.161, 170.575 989.161, 169.575 989.161, 168.575 989.161, 167.575 989.161, 166.575 989.161, 165.575 989.161, 164.575 989.161, 163.575 989.161, 162.575 989.161, 161.575 989.161, 160.575 989.161, 159.575 989.161, 158.575 989.161, 157.575 989.161, 156.575 989.161, 155.575 989.161, 154.575 989.161, 153.575 989.161, 152.575 989.161, 151.575 989.161, 150.575 989.161, 149.575 989.161, 148.575 989.161, 147.575 989.161, 146.575 989.161, 145.575 989.161, 144.575 989.161, 143.575 989.161, 142.575 989.161, 141.575 989.161, 140.575 989.161, 139.575 989.161, 138.109 988.161, 138.109 987.161, 138.109 986.161, 138.109 985.161, 138.109 984.161, 138.109 983.161, 138.109 982.161, 138.109 981.161, 138.109 980.161, 138.109 979.161, 138.109 978.161, 138.109 977.161, 138.109 976.161, 138.109 975.161, 138.109 974.161, 138.109 973.161, 138.109 972.161, 138.109 971.161, 138.109 970.161, 138.109 969.161, 138.109 968.161, 138.109 967.161, 138.109 966.161, 138.109 965.161, 138.109 964.161, 138.109 963.161, 138.109 962.161, 138.109 961.161, 138.109 960.161, 138.109 959.161, 138.109 958.161, 138.109 957.161, 138.109 956.161, 138.109 955.161, 138.109 954.161, 138.109 953.161, 138.109 952.161, 138.109 951.161, 138.109 950.161, 138.109 949.161, 138.109 948.161, 138.109 947.161, 138.109 946.161, 138.109 945.161, 138.109 944.161, 138.109 943.161, 138.109 942.161, 138.109 941.161, 138.109 940.161, 138.109 939.161, 138.109 938.161, 138.109 937.161, 138.109 936.161, 138.109 935.161, 138.109 934.161, 138.109 933.161, 138.109 932.161, 138.109 931.161, 138.109 930.161, 138.109 929.161, 138.109 928.161, 138.109 927.161, 138.109 926.161, 138.109 925.161, 138.109 924.161, 138.109 923.161, 138.109 922.161, 138.109 921.161, 138.109 920.161, 138.109 919.161, 138.109 918.161, 138.109 917.161, 138.109 916.161, 138.109 915.161, 138.109 914.161, 138.109 913.161, 138.109 912.161, 138.109 911.161, 138.109 910.161, 138.109 909.161, 138.109 908.161, 138.109 907.161, 138.109 906.161, 138.109 905.161, 138.109 904.161, 138.109 903.161, 138.109 902.161, 138.109 901.161, 138.109 900.161, 138.109 899.161, 138.109 898.161, 138.109 897.161, 138.109 896.161, 138.109 895.161, 138.109 894.161, 138.109 893.161, 138.109 892.161, 138.109 891.161, 138.109 890.161, 138.109 889.161, 138.109 888.161, 138.109 887.161, 138.109 886.161, 138.109 885.161, 138.109 884.161, 138.109 883.161, 138.109 882.161, 138.109 881.161, 138.109 880.161, 138.109 879.161, 138.109 878.161, 138.109 877.161, 138.109 876.161, 138.109 875.161, 138.109 874.161, 138.109 873.161, 138.109 872.161, 138.109 871.161, 138.109 870.161, 138.109 869.161, 138.109 868.161, 138.109 867.161, 138.109 866.161, 138.109 865.161, 138.109 864.161, 138.109 863.161, 138.109 862.161, 138.109 861.161, 138.109 860.161, 138.109 859.161, 138.109 858.161, 138.109 857.161, 138.109 856.161, 138.109 855.161, 138.109 854.161, 138.109 853.161, 138.109 852.161, 138.109 851.161, 138.109 850.161, 138.109 849.161, 138.109 848.161, 138.109 847.161, 138.109 846.161, 138.109 845.161, 138.109 844.161, 138.109 843.161, 138.109 842.161, 138.109 841.161, 138.109 840.161, 138.109 839.161, 138.109 838.161, 138.109 837.161, 138.109 836.161, 138.109 835.161, 138.109 834.161, 138.109 833.161, 138.109 832.161, 138.109 831.161, 138.109 830.161, 138.109 829.161, 138.109 828.161, 138.109 827.161, 138.109 826.161, 138.109 825.161, 138.109 824.161, 138.109 823.161, 138.109 822.161, 138.109 821.161, 138.109 820.161, 138.109 819.161, 138.109 818.161, 138.109 817.161, 138.109 816.161, 138.109 815.161, 138.109 814.161, 138.109 813.161, 138.109 812.161, 138.109 811.161, 138.109 810.161, 138.109 809.161, 138.109 808.161, 138.109 807.161, 138.109 806.161, 138.109 805.161, 138.109 804.161, 138.109 803.161, 138.109 802.161, 138.109 801.161, 138.109 800.161, 138.109 799.161, 138.109 798.161, 138.109 797.161, 138.109 796.161, 138.109 795.161, 138.109 794.161, 138.109 793.161, 138.109 792.161, 138.109 791.161, 138.109 790.161, 138.109 789.161, 138.109 788.161, 138.109 787.161, 138.109 786.161, 138.109 785.161, 138.109 784.161, 138.109 783.161, 138.109 782.161, 138.109 781.161, 138.109 780.161, 138.109 779.161, 138.109 778.161, 138.109 777.161, 138.109 776.161, 138.109 775.161, 138.109 774.161, 138.109 773.161, 138.109 772.161, 138.109 771.161, 138.109 770.161, 138.109 769.161, 138.109 768.161, 138.109 767.161, 138.109 766.161, 138.109 765.161, 138.109 764.161, 138.109 763.161, 138.109 762.161, 138.109 761.161, 138.109 760.161, 138.109 759.161, 138.109 758.161, 138.109 757.161, 138.109 756.161, 138.109 755.161, 138.109 754.161, 138.109 753.161, 138.109 752.161, 138.109 751.161, 138.109 750.161, 138.109 749.161, 138.109 748.161, 138.109 747.161, 138.109 746.161, 138.109 745.161, 138.109 744.161, 138.109 743.161, 138.109 742.161, 138.109 741.161, 138.109 740.161, 138.109 739.161, 138.109 738.161, 138.109 737.161, 138.109 736.161, 138.109 735.161, 138.109 734.161, 138.109 733.161, 138.109 732.161, 138.109 731.161, 138.109 730.161, 138.109 729.161, 138.109 728.161, 138.109 727.161, 138.109 726.161, 138.109 725.161, 138.109 724.161, 138.109 723.161, 138.109 722.161, 138.109 721.161, 138.109 718.143, 138.109 718.143, 139.109 718.143, 140.109 718.143, 141.109 718.143, 142.109 718.143, 143.109 718.143, 144.109 718.143, 145.109 718.143, 146.109 718.143, 147.109 718.143, 148.109 718.143, 149.109 718.143, 150.109 718.143, 151.109 718.143, 152.109 718.143, 153.109 718.143, 154.109 718.143, 155.109 718.143, 156.109 718.143, 157.109 718.143, 158.109 718.143, 159.109 718.143, 160.109 718.143, 161.109 718.143, 162.109 718.143, 163.109 718.143, 164.109 718.143, 165.109 718.143, 166.109 718.143, 167.109 718.143, 168.109 718.143, 169.109 718.143, 170.109 718.143, 171.109 718.143, 172.109 718.143, 173.109 718.143, 174.109 718.143, 175.109 718.143, 176.109 718.143, 177.109 718.143, 178.109 718.143, 179.109 718.143, 180.109 718.143, 181.109 718.143, 182.109 718.143, 183.109 718.143, 184.109 718.143, 185.109 718.143, 186.109 718.143, 187.109 718.143, 188.109 718.143, 189.109 718.143, 190.109 718.143, 191.109 718.143, 192.109 718.143, 193.109 718.143, 194.109 718.143, 195.109 718.143, 196.109 718.143, 197.109 718.143, 198.109 718.143, 199.109 718.143, 200.109 718.143, 201.109 718.143, 202.109 718.143, 203.109 718.143, 204.109 718.143, 205.109 718.143, 206.109 718.143, 207.109 718.143, 208.109 718.143, 209.109 718.143, 210.109 718.143, 211.109 718.143, 212.109 718.143, 213.109 718.143, 214.109 718.143, 215.109 718.143, 216.109 718.143, 217.109 718.143, 218.109 718.143, 219.109 718.143, 220.109 718.143, 221.109 718.143, 222.109 718.143, 223.109 718.143, 224.109 718.143, 225.109 718.143, 226.109 718.143, 227.109 718.143, 228.109 718.143, 229.109 718.143, 230.109 718.143, 231.109 718.143, 232.109 718.143, 233.109 718.143, 234.109 718.143, 235.109 718.143, 236.109 718.143, 237.109 718.143, 238.109 718.143, 239.109 718.143, 240.109 718.143, 241.602 718.136, 241.602 718.136, 242.602 718.136, 243.602 718.136, 244.602 718.136, 245.602 718.136, 246.602 718.136, 247.602 718.136, 248.602 718.136, 249.602 718.136, 250.602 718.136, 251.602 718.136, 252.602 718.136, 253.602 718.136, 254.602 718.136, 255.602 718.136, 256.602 718.136, 257.602 718.136, 258.602 718.136, 259.602 718.136, 260.602 718.136, 261.602 718.136, 262.602 718.136, 262.859 717.136, 262.859 716.136, 262.859 715.136, 262.859 714.136, 262.859 713.136, 262.859 712.136, 262.859 711.136, 262.859 710.136, 262.859 709.136, 262.859 708.136, 262.859 707.136, 262.859 706.136, 262.859 705.136, 262.859 704.136, 262.859 703.136, 262.859 702.136, 262.859 701.136, 262.859 700.136, 262.859 699.136, 262.859 698.136, 262.859 697.634, 262.859 697.634, 263.859 697.634, 264.859 697.634, 265.859 697.634, 266.859 697.634, 267.859 697.634, 268.859 697.634, 269.859 697.634, 270.859 697.634, 271.859 697.634, 272.859 697.634, 273.859 697.634, 274.859 697.634, 275.859 697.634, 276.859 697.634, 277.859 697.634, 278.859 697.634, 279.859 697.634, 280.859 697.634, 281.859 697.634, 282.859 697.634, 283.859 697.634, 284.859 697.634, 285.859 697.634, 286.859 697.634, 287.859 697.634, 288.859 697.634, 289.859 697.634, 290.859 697.634, 291.859 697.634, 292.859 697.634, 293.859 697.634, 294.859 697.634, 295.859 697.634, 296.859 697.634, 297.859 697.634, 298.859 697.634, 299.859 697.634, 300.859 697.634, 301.859 697.634, 302.859 697.634, 303.859 697.634, 304.859 697.634, 305.859 697.634, 306.859 697.634, 307.859 697.634, 308.859 697.634, 309.859 697.634, 310.859 697.634, 311.859 697.634, 312.859 697.634, 313.859 697.634, 314.859 697.634, 315.859 697.634, 316.859 697.634, 317.859 697.634, 318.859 697.634, 319.859 697.634, 320.859 697.634, 321.859 697.634, 322.859 697.634, 323.859 697.634, 324.859 697.634, 325.859 697.634, 326.859 697.634, 327.859 697.634, 328.859 697.634, 329.859 697.634, 330.859 697.634, 331.859 697.634, 332.859 697.634, 333.859 697.634, 334.859 697.634, 335.859 697.634, 336.859 697.634, 337.859 697.634, 338.859 697.634, 339.859 697.634, 340.859 697.634, 341.859 697.634, 342.859 697.634, 343.859 697.634, 344.859 697.634, 345.859 697.634, 346.859 697.634, 347.859 697.634, 348.859 697.634, 349.859 697.634, 350.859 697.634, 351.859 697.634, 352.859 697.634, 353.859 697.634, 354.859 697.634, 355.859 697.634, 356.859 697.634, 357.859 697.634, 358.859 697.634, 359.859 697.634, 360.859 697.634, 361.859 697.634, 362.859 697.634, 363.859 697.634, 364.859 697.634, 365.859 697.634, 366.859 697.634, 367.859 697.634, 368.859 697.634, 369.859 697.634, 370.859 697.634, 371.859 697.634, 372.859 697.634, 373.859 697.634, 374.859 697.634, 375.859 697.634, 376.859 697.634, 377.859 697.634, 378.859 697.634, 379.859 697.634, 380.859 697.634, 381.859 697.634, 382.859 697.634, 383.859 697.634, 384.859 697.634, 385.859 697.634, 386.859 697.634, 387.859 697.634, 388.859 697.634, 389.859 697.634, 390.859 697.634, 391.859 697.634, 392.859 697.634, 393.859 697.634, 394.859 697.634, 395.859 697.634, 396.859 697.634, 397.859 697.634, 398.859 697.634, 399.859 697.634, 400.859 697.634, 401.859 697.634, 402.859 697.634, 403.859 697.634, 404.859 697.634, 405.859 697.634, 406.859 697.634, 407.859 697.634, 408.859 697.634, 409.859 697.634, 410.859 697.634, 411.859 697.634, 412.859 697.634, 413.859 697.634, 414.859 697.634, 415.859 697.634, 416.859 697.634, 417.859 697.634, 418.859 697.634, 419.859 697.634, 420.859 697.634, 421.859 697.634, 422.859 697.634, 423.859 697.634, 424.859 697.634, 425.859 697.634, 426.859 697.634, 427.859 697.634, 428.859 697.634, 429.859 697.634, 430.859 697.634, 431.859 697.634, 432.859 697.634, 433.859 697.634, 434.859 697.634, 435.859 697.634, 436.859 697.634, 437.859 697.634, 438.859 697.634, 439.859 697.634, 440.859 697.634, 441.859 697.634, 442.859 697.634, 443.859 697.634, 444.859 697.634, 445.859 697.634, 446.859 697.634, 447.859 697.634, 448.859 697.634, 449.859 697.634, 450.859 697.634, 451.859 697.634, 452.859 697.634, 453.859 697.634, 454.859 697.634, 455.859 697.634, 456.859 697.634, 457.859 697.634, 458.859 697.634, 459.859 697.634, 460.859 697.634, 461.859 697.634, 462.859 697.634, 463.859 697.634, 464.859 697.634, 465.859 697.634, 466.859 697.634, 467.859 697.634, 468.859 697.634, 469.859 697.634, 470.859 697.634, 471.859 697.634, 472.859 697.634, 473.859 697.634, 474.859 697.634, 475.859 697.634, 478.169 698.607, 478.399 699.581, 478.628 700.068, 478.743 701.068, 478.743 702.068, 478.743 703.068, 478.743 704.068, 478.743 705.068, 478.743 706.068, 478.743 707.068, 478.743 708.068, 478.743 709.068, 478.743 710.068, 478.743 711.068, 478.743 712.068, 478.743 713.068, 478.743 714.068, 478.743 715.068, 478.743 716.068, 478.743 717.068, 478.743 718.136, 478.743 " />
            <path fill="none" stroke-width="2.0000009536743164" stroke-linecap="butt" stroke-opacity="1.0" stroke="rgb(0, 0, 0)" stroke-linejoin="round" d=" M 1098.859, 480.114 1099.859, 480.114 1100.859, 480.114 1101.859, 480.114 1102.859, 480.114 1103.859, 480.114 1104.859, 480.114 1105.859, 480.114 1106.859, 480.114 1107.859, 480.114 1108.437, 480.114 1109.365, 479.740 1109.828, 479.554 1109.828, 478.554 1109.828, 477.554 1109.828, 476.554 1109.828, 475.554 1109.828, 474.554 1109.828, 473.554 1109.828, 472.554 1109.828, 471.554 1109.828, 470.554 1109.828, 469.554 1109.828, 468.554 1109.828, 467.554 1109.828, 466.554 1109.828, 465.554 1109.828, 464.554 1109.828, 463.554 1109.828, 462.554 1109.828, 461.554 1109.828, 460.554 1109.828, 459.554 1109.828, 458.554 1109.828, 457.554 1109.828, 456.554 1109.828, 455.554 1109.828, 454.554 1109.828, 453.554 1109.828, 452.554 1109.828, 451.554 1109.828, 450.554 1109.828, 449.554 1109.828, 448.554 1109.828, 447.554 1109.828, 446.554 1109.828, 445.554 1109.828, 444.554 1109.828, 443.554 1109.828, 442.554 1109.828, 441.554 1109.828, 440.554 1109.828, 439.554 1109.828, 438.554 1109.828, 437.554 1109.828, 436.554 1109.828, 435.554 1109.828, 434.554 1109.828, 433.554 1109.828, 432.554 1109.828, 431.554 1109.828, 430.554 1109.828, 429.554 1109.828, 428.554 1109.828, 427.554 1109.828, 426.554 1109.828, 425.554 1109.828, 424.554 1109.828, 423.554 1109.828, 422.554 1109.828, 421.554 1109.828, 420.554 1109.828, 419.554 1109.828, 418.554 1109.828, 417.554 1109.828, 416.554 1109.828, 415.554 1109.828, 414.554 1109.828, 413.554 1109.828, 412.554 1109.828, 411.554 1109.828, 410.554 1109.828, 409.554 1109.828, 408.554 1109.828, 407.554 1109.828, 406.554 1109.828, 405.554 1109.828, 404.554 1109.828, 403.554 1109.828, 402.554 1109.828, 401.554 1109.828, 400.554 1109.828, 399.554 1109.828, 398.554 1109.828, 397.554 1109.828, 396.554 1109.828, 395.554 1109.828, 394.554 1109.828, 393.554 1109.828, 392.554 1109.828, 391.554 1109.828, 390.554 1109.828, 389.554 1109.828, 388.554 1109.828, 387.554 1109.828, 386.554 1109.828, 385.554 1109.828, 384.554 1109.828, 383.554 1109.828, 382.554 1109.828, 381.554 1109.828, 380.554 1109.828, 379.554 1109.828, 378.554 1109.828, 377.554 1109.828, 376.554 1109.828, 375.554 1109.828, 374.554 1109.828, 373.554 1109.828, 372.554 1109.828, 371.554 1109.828, 370.554 1109.828, 369.554 1109.828, 368.554 1109.828, 367.554 1109.828, 366.554 1109.828, 365.554 1109.828, 364.554 1109.828, 363.554 1109.828, 362.554 1109.828, 361.554 1109.828, 360.554 1109.828, 359.554 1109.828, 358.554 1109.828, 357.554 1109.828, 356.554 1109.828, 355.554 1109.828, 354.554 1109.828, 353.554 1109.828, 352.554 1109.828, 351.554 1109.828, 350.554 1109.828, 349.554 1109.828, 348.554 1109.828, 347.554 1109.828, 346.554 1109.828, 345.554 1109.828, 344.554 1109.828, 343.554 1109.828, 342.554 1109.828, 341.554 1109.828, 340.554 1109.828, 339.554 1109.828, 338.554 1109.828, 337.554 1109.828, 336.554 1109.828, 335.554 1109.828, 334.554 1109.828, 333.554 1109.828, 332.554 1109.828, 331.554 1109.828, 330.554 1109.828, 329.554 1109.828, 328.554 1109.828, 327.554 1109.828, 326.554 1109.828, 325.554 1109.828, 324.554 1109.828, 323.554 1109.828, 322.554 1109.828, 321.554 1109.828, 320.554 1109.828, 319.554 1109.828, 318.554 1109.828, 317.554 1109.828, 316.554 1109.828, 315.554 1109.828, 314.554 1109.828, 313.554 1109.828, 312.554 1109.828, 311.554 1109.828, 310.554 1109.828, 309.554 1109.828, 308.554 1109.828, 307.554 1109.828, 306.554 1109.828, 305.554 1109.828, 304.554 1109.828, 303.554 1109.828, 302.554 1109.828, 301.554 1109.828, 300.554 1109.828, 299.554 1109.828, 298.554 1109.828, 297.554 1109.828, 296.554 1109.828, 295.554 1109.828, 294.554 1109.828, 293.554 1109.828, 292.554 1109.828, 291.554 1109.828, 290.554 1109.828, 289.554 1109.828, 288.554 1109.828, 287.554 1109.828, 286.554 1109.828, 285.554 1109.828, 284.554 1109.828, 283.554 1109.828, 282.554 1109.828, 281.554 1109.828, 280.554 1109.828, 279.554 1109.828, 278.554 1109.828, 277.554 1109.828, 276.554 1109.828, 275.554 1109.828, 274.554 1109.828, 273.554 1109.828, 272.554 1109.828, 271.554 1109.828, 270.554 1109.828, 269.554 1109.828, 268.554 1109.828, 267.554 1109.828, 266.554 1109.828, 264.320 1108.828, 264.320 1107.828, 264.320 1106.828, 264.320 1105.828, 264.320 1104.828, 264.320 1103.828, 264.320 1102.828, 264.320 1101.828, 264.320 1100.828, 264.320 1099.828, 264.320 1098.859, 264.320 1098.859, 263.320 1098.859, 262.320 1098.859, 261.320 1098.859, 260.320 1098.859, 259.320 1098.859, 258.320 1098.859, 257.320 1098.859, 256.320 1098.859, 255.320 1098.859, 254.320 1098.859, 253.320 1098.859, 252.320 1098.859, 251.320 1098.859, 250.320 1098.859, 249.320 1098.859, 248.320 1098.859, 247.320 1098.859, 246.320 1098.859, 245.320 1098.859, 244.320 1098.859, 243.320 1098.859, 242.320 1098.859, 241.320 1098.859, 240.320 1098.859, 239.320 1098.859, 238.695 1098.859, 237.695 1098.859, 236.695 1098.859, 235.695 1098.859, 234.695 1098.859, 233.695 1098.859, 232.695 1098.859, 231.695 1098.859, 230.695 1098.859, 229.695 1098.859, 228.695 1098.859, 227.695 1098.859, 226.695 1098.859, 225.695 1098.859, 224.695 1098.859, 223.695 1098.859, 222.695 1098.859, 221.695 1098.859, 220.695 1098.859, 219.695 1098.859, 218.695 1098.859, 217.695 1098.859, 216.695 1098.859, 215.695 1098.859, 214.695 1098.859, 213.695 1098.859, 212.695 1098.859, 211.695 1098.859, 210.695 1098.859, 209.695 1098.859, 208.695 1098.859, 207.695 1098.859, 206.695 1098.859, 205.695 1098.859, 204.695 1098.859, 203.695 1098.859, 202.695 1098.859, 201.695 1098.859, 200.695 1098.859, 199.695 1098.859, 198.695 1098.859, 197.695 1098.859, 196.695 1098.859, 195.695 1098.859, 194.695 1098.859, 193.695 1098.859, 192.695 1098.859, 191.695 1098.859, 190.695 1098.859, 189.695 1098.859, 188.695 1098.859, 187.695 1098.859, 186.695 1098.859, 185.695 1098.859, 184.695 1098.859, 183.695 1098.859, 182.695 1098.859, 181.695 1098.859, 180.695 1098.859, 179.695 1098.859, 178.695 1098.859, 177.695 1098.859, 176.695 1098.859, 175.695 1098.859, 174.695 1098.859, 173.695 1098.859, 172.695 1098.859, 171.695 1098.859, 170.695 1098.859, 169.695 1098.859, 168.695 1098.859, 167.695 1098.859, 166.695 1098.859, 165.695 1098.859, 164.695 1098.859, 163.695 1098.859, 162.695 1098.859, 161.695 1098.859, 160.695 1098.859, 159.695 1098.859, 158.695 1098.859, 157.695 1098.859, 156.695 1098.859, 155.695 1098.859, 154.695 1098.859, 153.695 1098.859, 152.695 1098.859, 151.695 1098.859, 150.695 1098.859, 149.695 1098.859, 148.695 1098.859, 147.695 1098.859, 146.695 1098.859, 145.695 1098.859, 144.695 1098.859, 143.695 1098.859, 142.695 1098.859, 141.695 1098.859, 140.662 1098.859, 139.662 1098.859, 138.662 1098.859, 138.109 1097.859, 138.109 1096.859, 138.109 1095.859, 138.109 1094.859, 138.109 1093.859, 138.109 1092.859, 138.109 1091.859, 138.109 1090.859, 138.109 1089.859, 138.109 1088.859, 138.109 1087.859, 138.109 1086.859, 138.109 1085.859, 138.109 1084.859, 138.109 1083.859, 138.109 1082.859, 138.109 1081.859, 138.109 1080.859, 138.109 1079.859, 138.109 1078.859, 138.109 1077.859, 138.109 1076.859, 138.109 1075.859, 138.109 1074.859, 138.109 1073.859, 138.109 1072.859, 138.109 1071.859, 138.109 1070.859, 138.109 1069.859, 138.109 1068.859, 138.109 1067.859, 138.109 1066.859, 138.109 1065.859, 138.109 1064.859, 138.109 1063.859, 138.109 1062.859, 138.109 1061.859, 138.109 1060.859, 138.109 1059.859, 138.109 1058.859, 138.109 1057.859, 138.109 1056.859, 138.109 1055.859, 138.109 1054.859, 138.109 1053.859, 138.109 1052.859, 138.109 1051.859, 138.109 1050.859, 138.109 1049.859, 138.109 1048.859, 138.109 1047.859, 138.109 1046.859, 138.109 1045.859, 138.109 1044.859, 138.109 1043.859, 138.109 1042.859, 138.109 1041.859, 138.109 1040.859, 138.109 1039.859, 138.109 1038.859, 138.109 1037.859, 138.109 1036.859, 138.109 1035.859, 138.109 1034.859, 138.109 1033.859, 138.109 1032.859, 138.109 1031.859, 138.109 1030.859, 138.109 1029.859, 138.109 1028.859, 138.109 1027.859, 138.109 1026.859, 138.109 1025.859, 138.109 1024.859, 138.109 1023.859, 138.109 1022.859, 138.109 1021.859, 138.109 1020.859, 138.109 1019.859, 138.109 1018.859, 138.109 1017.859, 138.109 1016.859, 138.109 1015.859, 138.109 1014.859, 138.109 1013.859, 138.109 1012.859, 138.109 1011.859, 138.109 1010.859, 138.109 1009.771, 138.109 1009.648, 139.101 1009.525, 140.094 1009.402, 141.086 1009.309, 141.838 1009.309, 142.838 1009.309, 143.838 1009.309, 144.838 1009.309, 145.838 1009.309, 146.838 1009.309, 147.838 1009.309, 148.838 1009.309, 149.838 1009.309, 150.838 1009.309, 151.838 1009.309, 152.838 1009.309, 153.838 1009.309, 154.838 1009.309, 155.838 1009.309, 156.838 1009.309, 157.838 1009.309, 158.838 1009.309, 159.838 1009.309, 160.838 1009.309, 161.838 1009.309, 162.838 1009.309, 163.838 1009.309, 164.838 1009.309, 165.838 1009.309, 166.838 1009.309, 167.838 1009.309, 168.838 1009.309, 169.838 1009.309, 170.838 1009.309, 171.838 1009.309, 172.838 1009.309, 173.838 1009.309, 174.838 1009.309, 175.838 1009.309, 176.838 1009.309, 177.838 1009.309, 178.838 1009.309, 179.838 1009.309, 180.838 1009.309, 181.838 1009.309, 182.838 1009.309, 183.838 1009.309, 184.838 1009.309, 185.838 1009.309, 186.838 1009.309, 187.838 1009.309, 188.838 1009.309, 189.838 1009.309, 190.838 1009.309, 191.838 1009.309, 192.838 1009.309, 193.838 1009.309, 194.838 1009.309, 195.838 1009.309, 196.838 1009.309, 197.838 1009.309, 198.838 1009.309, 199.838 1009.309, 200.838 1009.309, 201.838 1009.309, 202.838 1009.309, 203.838 1009.309, 204.838 1009.309, 205.838 1009.309, 206.838 1009.309, 207.838 1009.309, 208.838 1009.309, 209.838 1009.309, 210.838 1009.309, 211.838 1009.309, 212.838 1009.309, 213.838 1009.309, 214.838 1009.309, 215.838 1009.309, 216.838 1009.309, 217.838 1009.309, 218.838 1009.309, 219.838 1009.309, 220.838 1009.309, 221.838 1009.309, 222.838 1009.309, 223.838 1009.309, 224.838 1009.309, 225.838 1009.309, 226.838 1009.309, 227.838 1009.309, 228.838 1009.309, 229.838 1009.309, 230.838 1009.309, 231.838 1009.309, 232.838 1009.309, 233.838 1009.309, 234.838 1009.309, 235.838 1009.309, 236.838 1009.309, 237.838 1009.309, 238.838 1009.309, 239.838 1009.309, 240.838 1009.309, 241.838 1009.309, 242.838 1009.309, 243.838 1009.309, 244.838 1009.309, 245.838 1009.309, 246.838 1009.309, 247.838 1009.309, 248.838 1009.309, 249.838 1009.309, 250.838 1009.309, 251.838 1009.309, 252.838 1009.309, 253.838 1009.309, 254.838 1009.309, 255.838 1009.309, 256.838 1009.309, 258.575 " />
            <path fill="none" stroke-width="2.0000009536743164" stroke-linecap="butt" stroke-opacity="1.0" stroke="rgb(0, 0, 0)" stroke-linejoin="round" d=" M 989.161, 477.762 990.161, 477.762 991.161, 477.762 992.161, 477.762 993.161, 477.762 994.161, 477.762 995.161, 477.762 996.161, 477.762 997.161, 477.762 998.161, 477.762 999.161, 477.762 1000.161, 477.762 1001.161, 477.762 1002.161, 477.762 1003.161, 477.762 1004.161, 477.762 1005.161, 477.762 1006.161, 477.762 1007.161, 477.762 1008.161, 477.762 1009.309, 477.762 1009.309, 478.762 1009.309, 479.762 1009.309, 480.762 1009.309, 481.762 1009.309, 482.762 1009.309, 483.762 1009.309, 484.762 1009.309, 485.762 1009.309, 486.762 1009.309, 487.762 1009.309, 488.762 1009.309, 489.762 1009.309, 490.762 1009.309, 491.762 1009.309, 492.762 1009.309, 493.762 1009.309, 494.762 1009.309, 495.762 1009.309, 496.762 1009.309, 497.762 1009.309, 498.762 1009.309, 499.762 1009.309, 500.762 1009.309, 501.762 1009.309, 502.762 1009.309, 503.762 1009.309, 504.762 1009.309, 505.762 1009.309, 506.762 1009.309, 507.762 1009.309, 508.762 1009.309, 509.762 1009.309, 510.762 1009.309, 511.762 1009.309, 512.762 1009.309, 513.762 1009.309, 514.762 1009.309, 515.762 1009.309, 516.762 1009.309, 517.762 1009.309, 518.762 1009.309, 519.762 1009.309, 520.762 1009.309, 521.762 1009.309, 522.762 1009.309, 523.762 1009.309, 524.762 1009.309, 525.762 1009.309, 526.762 1009.309, 527.762 1009.309, 528.762 1009.309, 529.762 1009.309, 530.762 1009.309, 531.762 1009.309, 532.762 1009.309, 533.762 1009.309, 534.762 1009.309, 535.762 1009.309, 536.762 1009.309, 537.762 1009.309, 538.762 1009.309, 539.762 1009.309, 540.762 1009.309, 541.762 1009.309, 542.762 1009.309, 543.762 1009.309, 544.762 1009.309, 545.762 1009.309, 546.762 1009.309, 547.762 1009.309, 548.762 1009.309, 549.762 1009.309, 550.762 1009.309, 551.762 1009.309, 552.762 1009.309, 553.762 1009.309, 554.762 1009.309, 555.762 1009.309, 556.762 1009.309, 557.762 1009.309, 558.762 1009.309, 559.762 1009.309, 560.762 1009.309, 561.762 1009.309, 562.762 1009.309, 563.762 1009.309, 564.762 1009.309, 565.762 1009.309, 566.762 1009.309, 567.762 1009.309, 568.762 1009.309, 569.762 1009.309, 570.762 1009.309, 571.762 1009.309, 572.762 1009.309, 573.762 1009.309, 574.762 1009.309, 575.762 1009.309, 576.762 1009.309, 577.762 1009.309, 578.762 1009.309, 579.762 1009.309, 580.762 1009.309, 581.762 1009.309, 582.762 1009.309, 583.762 1009.309, 584.762 1009.309, 585.762 1009.309, 586.762 1009.309, 587.762 1009.309, 588.762 1009.309, 589.762 1009.309, 590.762 1009.309, 591.762 1009.309, 592.762 1009.309, 593.762 1009.309, 594.762 1009.309, 595.762 1009.309, 596.762 1009.309, 597.762 1009.309, 598.762 1009.309, 600.273 1008.309, 600.273 1007.309, 600.273 1006.309, 600.273 1005.309, 600.273 1004.309, 600.273 1003.309, 600.273 1002.309, 600.273 1001.309, 600.273 1000.309, 600.273 999.309, 600.273 998.309, 600.273 997.309, 600.273 996.309, 600.273 995.309, 600.273 994.309, 600.273 993.309, 600.273 992.309, 600.273 991.309, 600.273 990.309, 600.273 989.161, 600.273 " />
            <path fill="none" stroke-width="2.0000009536743164" stroke-linecap="butt" stroke-opacity="1.0" stroke="rgb(0, 0, 0)" stroke-linejoin="round" d=" M 718.136, 478.743 718.136, 479.743 718.136, 480.743 718.136, 481.743 718.136, 482.743 718.136, 483.743 718.136, 484.743 718.136, 485.743 718.136, 486.743 718.136, 487.743 718.136, 488.743 718.136, 489.743 718.136, 490.743 718.136, 491.743 718.136, 492.743 718.136, 493.743 718.136, 494.743 718.136, 495.743 718.136, 496.743 718.136, 497.743 718.136, 498.743 718.136, 499.743 718.136, 500.743 718.136, 501.743 718.136, 502.743 718.136, 503.743 718.136, 504.743 718.136, 505.743 718.136, 506.743 718.136, 507.743 718.136, 508.743 718.136, 509.743 718.136, 510.743 718.136, 511.743 718.136, 512.743 718.136, 513.743 718.136, 514.743 718.136, 515.743 718.136, 516.743 718.136, 517.743 718.136, 518.743 718.136, 519.743 718.136, 520.743 718.136, 521.743 718.136, 522.743 718.136, 523.743 718.136, 524.743 718.136, 525.743 718.136, 526.743 718.136, 527.743 718.136, 528.743 718.136, 529.743 718.136, 530.743 718.136, 531.743 718.136, 532.743 718.136, 533.743 718.136, 534.743 718.136, 535.743 718.136, 536.743 718.136, 537.743 718.136, 538.743 718.136, 539.743 718.136, 540.743 718.136, 541.743 718.136, 542.743 718.136, 543.743 718.136, 544.743 718.136, 545.743 718.136, 546.743 718.136, 547.743 718.136, 548.743 718.136, 549.743 718.136, 550.743 718.136, 551.743 718.136, 552.743 718.136, 553.743 718.136, 554.743 718.136, 555.743 718.136, 556.743 718.136, 557.743 718.136, 558.743 718.136, 559.743 718.136, 560.743 718.136, 561.743 718.136, 562.743 718.136, 563.743 718.136, 564.743 718.136, 565.743 718.136, 566.743 718.136, 567.743 718.136, 568.743 718.136, 569.743 718.136, 570.743 718.136, 571.743 718.136, 572.743 718.136, 573.743 718.136, 574.743 718.136, 575.743 718.136, 576.743 718.136, 577.743 718.136, 578.743 718.136, 579.743 718.136, 580.743 718.136, 581.743 718.136, 582.743 718.136, 583.743 718.136, 584.743 718.136, 585.743 718.136, 586.743 718.136, 587.743 718.136, 588.743 718.136, 589.743 718.136, 590.743 718.136, 591.743 718.136, 592.743 718.136, 593.743 718.136, 594.743 718.136, 595.743 718.136, 596.743 718.136, 597.743 718.136, 598.743 718.136, 599.743 718.136, 601.254 " />
            <path fill="none" stroke-width="2.0000009536743164" stroke-linecap="butt" stroke-opacity="1.0" stroke="rgb(0, 0, 0)" stroke-linejoin="round" d=" M 989.161, 600.273 989.161, 599.273 989.161, 598.273 989.161, 597.273 989.161, 596.273 989.161, 595.273 989.161, 594.273 989.161, 593.273 989.161, 592.273 989.161, 591.273 989.161, 590.273 989.161, 589.273 989.161, 588.273 989.161, 587.273 989.161, 586.273 989.161, 585.273 989.161, 584.273 989.161, 583.273 989.161, 582.273 989.161, 581.273 989.161, 580.273 989.161, 579.273 989.161, 578.273 989.161, 577.273 989.161, 576.273 989.161, 575.273 989.161, 574.273 989.161, 573.273 989.161, 572.273 989.161, 571.273 989.161, 570.273 989.161, 569.273 989.161, 568.273 989.161, 567.273 989.161, 566.273 989.161, 565.273 989.161, 564.273 989.161, 563.273 989.161, 562.273 989.161, 561.273 989.161, 560.273 989.161, 559.273 989.161, 558.273 989.161, 557.273 989.161, 556.273 989.161, 555.273 989.161, 554.273 989.161, 553.273 989.161, 552.273 989.161, 551.273 989.161, 550.273 989.161, 549.273 989.161, 548.273 989.161, 547.273 989.161, 546.273 989.161, 545.273 989.161, 544.273 989.161, 543.273 989.161, 542.273 989.161, 541.273 989.161, 540.273 989.161, 539.273 989.161, 538.273 989.161, 537.273 989.161, 536.273 989.161, 535.273 989.161, 534.273 989.161, 533.273 989.161, 532.273 989.161, 531.273 989.161, 530.273 989.161, 529.273 989.161, 528.273 989.161, 527.273 989.161, 526.273 989.161, 525.273 989.161, 524.273 989.161, 523.273 989.161, 522.273 989.161, 521.273 989.161, 520.273 989.161, 519.273 989.161, 518.273 989.161, 517.273 989.161, 516.273 989.161, 515.273 989.161, 514.273 989.161, 513.273 989.161, 512.273 989.161, 511.273 989.161, 510.273 989.161, 509.273 989.161, 508.273 989.161, 507.273 989.161, 506.273 989.161, 505.273 989.161, 504.273 989.161, 503.273 989.161, 502.273 989.161, 501.273 989.161, 500.273 989.161, 499.273 989.161, 498.273 989.161, 497.273 989.161, 496.273 989.161, 495.273 989.161, 494.273 989.161, 493.273 989.161, 492.273 989.161, 491.273 989.161, 490.273 989.161, 489.273 989.161, 488.273 989.161, 487.273 989.161, 486.273 989.161, 485.273 989.161, 484.273 989.161, 483.273 989.161, 482.273 989.161, 481.273 989.161, 480.273 989.161, 479.273 989.161, 477.762 " />
            <path fill="none" stroke-width="2.0000009536743164" stroke-linecap="butt" stroke-opacity="1.0" stroke="rgb(0, 0, 0)" stroke-linejoin="round" d=" M 1098.859, 602.625 1098.859, 601.625 1098.859, 600.625 1098.859, 599.625 1098.859, 598.625 1098.859, 597.625 1098.859, 596.625 1098.859, 595.625 1098.859, 594.625 1098.859, 593.625 1098.859, 592.625 1098.859, 591.625 1098.859, 590.625 1098.859, 589.625 1098.859, 588.625 1098.859, 587.625 1098.859, 586.625 1098.859, 585.625 1098.859, 584.625 1098.859, 583.625 1098.859, 582.625 1098.859, 581.625 1098.859, 580.625 1098.859, 579.625 1098.859, 578.625 1098.859, 577.625 1098.859, 576.625 1098.859, 575.625 1098.859, 574.625 1098.859, 573.625 1098.859, 572.625 1098.859, 571.625 1098.859, 570.625 1098.859, 569.625 1098.859, 568.625 1098.859, 567.625 1098.859, 566.625 1098.859, 565.625 1098.859, 564.625 1098.859, 563.625 1098.859, 562.625 1098.859, 561.625 1098.859, 560.625 1098.859, 559.625 1098.859, 558.625 1098.859, 557.625 1098.859, 556.625 1098.859, 555.625 1098.859, 554.625 1098.859, 553.625 1098.859, 552.625 1098.859, 551.625 1098.859, 550.625 1098.859, 549.625 1098.859, 548.625 1098.859, 547.625 1098.859, 546.625 1098.859, 545.625 1098.859, 544.625 1098.859, 543.625 1098.859, 542.625 1098.859, 541.625 1098.859, 540.625 1098.859, 539.625 1098.859, 538.625 1098.859, 537.625 1098.859, 536.625 1098.859, 535.625 1098.859, 534.625 1098.859, 533.625 1098.859, 532.625 1098.859, 531.625 1098.859, 530.625 1098.859, 529.625 1098.859, 528.625 1098.859, 527.625 1098.859, 526.625 1098.859, 525.625 1098.859, 524.625 1098.859, 523.625 1098.859, 522.625 1098.859, 521.625 1098.859, 520.625 1098.859, 519.625 1098.859, 518.625 1098.859, 517.625 1098.859, 516.625 1098.859, 515.625 1098.859, 514.625 1098.859, 513.625 1098.859, 512.625 1098.859, 511.625 1098.859, 510.625 1098.859, 509.625 1098.859, 508.625 1098.859, 507.625 1098.859, 506.625 1098.859, 505.625 1098.859, 504.625 1098.859, 503.625 1098.859, 502.625 1098.859, 501.625 1098.859, 500.625 1098.859, 499.625 1098.859, 498.625 1098.859, 497.625 1098.859, 496.625 1098.859, 495.625 1098.859, 494.625 1098.859, 493.625 1098.859, 492.625 1098.859, 491.625 1098.859, 490.625 1098.859, 489.625 1098.859, 488.625 1098.859, 487.625 1098.859, 486.625 1098.859, 485.625 1098.859, 484.625 1098.859, 483.625 1098.859, 482.625 1098.859, 481.625 1098.859, 480.114 " />
        </g>
    </g>
</svg>
