<?xml version='1.0' encoding='ascii'?>
<svg xmlns="http://www.w3.org/2000/svg" version="1.1" width="1920" height="1080">
    <g id="ViewLayer_LineSet" xmlns:inkscape="http://www.inkscape.org/namespaces/inkscape" inkscape:groupmode="lineset" inkscape:label="ViewLayer_LineSet">
        <g xmlns:inkscape="http://www.inkscape.org/namespaces/inkscape" inkscape:groupmode="layer" id="strokes" inkscape:label="strokes">
            <path fill="none" stroke-width="2.0000009536743164" stroke-linecap="butt" stroke-opacity="1.0" stroke="rgb(0, 0, 0)" stroke-linejoin="round" d=" M 1152.037, 492.474 1151.037, 492.474 1150.037, 492.474 1149.037, 492.474 1148.037, 492.474 1147.037, 492.473 1146.037, 492.473 1145.037, 492.473 1144.037, 492.473 1143.037, 492.473 1142.037, 492.473 1141.037, 492.473 1140.037, 492.473 1139.037, 492.473 1138.037, 492.473 1137.037, 492.473 1136.037, 492.473 1135.037, 492.473 1134.037, 492.473 1133.263, 492.473 1133.263, 491.473 1133.263, 490.473 1133.263, 489.473 1133.263, 488.473 1133.263, 487.473 1133.263, 486.473 1133.263, 485.473 1133.263, 484.473 1133.263, 483.473 1133.263, 482.473 1133.263, 481.473 1133.263, 480.473 1133.263, 479.473 1133.263, 478.473 1133.263, 477.473 1133.263, 476.473 1133.263, 475.473 1133.263, 474.473 1133.263, 473.473 1133.263, 472.473 1133.263, 471.473 1133.263, 470.473 1133.263, 469.473 1133.263, 468.473 1133.263, 467.473 1133.263, 466.473 1133.263, 465.473 1133.263, 464.473 1133.263, 463.473 1133.263, 462.473 1133.263, 461.473 1133.263, 460.473 1133.263, 459.473 1133.263, 458.473 1133.263, 457.473 1133.263, 456.473 1133.263, 455.473 1133.263, 454.473 1133.263, 453.473 1133.263, 452.473 1133.263, 451.473 1133.263, 450.473 1133.263, 449.473 1133.263, 448.473 1133.263, 447.473 1133.263, 446.473 1133.263, 445.473 1133.263, 444.473 1133.263, 443.473 1133.263, 442.473 1133.263, 441.473 1133.263, 440.473 1133.263, 439.473 1133.263, 438.473 1133.263, 437.473 1133.263, 436.473 1133.263, 435.473 1133.263, 434.473 1133.263, 433.473 1133.263, 432.473 1133.263, 431.473 1133.263, 430.473 1133.263, 429.473 1133.263, 428.473 1133.263, 427.473 1133.263, 426.473 1133.263, 425.473 1133.263, 424.473 1133.263, 423.473 1133.263, 422.473 1133.263, 421.473 1133.263, 420.473 1133.263, 419.473 1133.262, 418.473 1133.262, 417.473 1133.262, 416.473 1133.262, 415.473 1133.262, 414.473 1133.262, 413.473 1133.262, 412.473 1133.262, 411.473 1133.262, 410.473 1133.262, 409.473 1133.262, 408.473 1133.262, 407.473 1133.262, 406.473 1133.262, 405.473 1133.262, 404.473 1133.262, 403.473 1133.262, 402.473 1133.262, 401.473 1133.262, 400.473 1133.262, 399.473 1133.262, 398.473 1133.262, 397.473 1133.262, 396.011 1132.262, 396.011 1131.262, 396.011 1130.262, 396.011 1129.262, 396.011 1128.262, 396.011 1127.262, 396.011 1126.262, 396.011 1125.262, 396.011 1124.262, 396.011 1123.262, 396.011 1122.262, 396.011 1121.262, 396.011 1120.262, 396.011 1119.262, 396.011 1118.262, 396.011 1117.262, 396.011 1116.262, 396.011 1115.262, 396.011 1114.262, 396.011 1113.262, 396.011 1112.262, 396.011 1111.262, 396.011 1110.262, 396.011 1109.262, 396.011 1108.262, 396.011 1107.262, 396.011 1106.262, 396.011 1105.262, 396.011 1104.262, 396.011 1103.262, 396.011 1102.262, 396.011 1101.262, 396.011 1100.262, 396.011 1099.262, 396.011 1098.262, 396.011 1097.262, 396.011 1096.262, 396.011 1095.262, 396.011 1094.262, 396.011 1093.262, 396.011 1092.262, 396.011 1091.262, 396.011 1090.262, 396.011 1089.262, 396.011 1088.262, 396.011 1087.262, 396.011 1086.262, 396.011 1085.262, 396.011 1084.262, 396.011 1083.262, 396.011 1082.262, 396.011 1081.262, 396.011 1080.262, 396.011 1079.262, 396.011 1078.262, 396.011 1077.262, 396.011 1076.262, 396.011 1075.262, 396.011 1074.262, 396.011 1073.262, 396.011 1072.262, 396.011 1071.262, 396.011 1070.262, 396.011 1069.262, 396.011 1068.262, 396.011 1067.262, 396.011 1066.262, 396.011 1065.262, 396.011 1064.262, 396.011 1063.262, 396.011 1062.262, 396.011 1061.262, 396.011 1060.262, 396.011 1059.262, 396.011 1058.262, 396.011 1057.262, 396.011 1056.262, 396.011 1055.262, 396.011 1054.262, 396.011 1053.262, 396.011 1052.262, 396.011 1051.262, 396.011 1050.262, 396.011 1049.262, 396.011 1048.262, 396.011 1047.262, 396.011 1046.262, 396.011 1045.262, 396.011 1044.262, 396.011 1043.262, 396.011 1042.262, 396.011 1041.262, 396.011 1040.262, 396.011 1039.262, 396.011 1038.262, 396.011 1037.262, 396.011 1036.262, 396.011 1035.262, 396.011 1034.262, 396.011 1033.262, 396.011 1032.262, 396.011 1031.262, 396.011 1030.262, 396.011 1029.262, 396.011 1028.262, 396.011 1027.262, 396.011 1026.262, 396.011 1025.262, 396.011 1024.262, 396.011 1023.262, 396.011 1022.262, 396.011 1021.262, 396.011 1020.262, 396.011 1019.262, 396.011 1018.262, 396.011 1017.262, 396.011 1016.262, 396.011 1015.262, 396.011 1014.262, 396.011 1013.262, 396.011 1012.262, 396.011 1011.262, 396.011 1010.262, 396.011 1009.262, 396.011 1008.262, 396.011 1007.262, 396.011 1006.262, 396.011 1005.262, 396.011 1004.262, 396.011 1003.262, 396.011 1002.262, 396.011 1001.262, 396.011 1000.262, 396.011 999.263, 396.011 998.262, 396.011 997.262, 396.011 996.263, 396.011 995.262, 396.011 994.263, 396.011 993.262, 396.011 992.262, 396.011 991.263, 396.011 990.262, 396.011 989.263, 396.011 988.262, 396.011 987.262, 396.011 986.262, 396.011 985.262, 396.011 984.263, 396.011 983.262, 396.011 982.262, 396.011 981.262, 396.011 980.262, 396.011 979.263, 396.011 978.262, 396.011 977.262, 396.011 976.262, 396.011 975.262, 396.011 974.263, 396.011 973.262, 396.011 972.263, 396.011 971.262, 396.011 970.262, 396.011 969.263, 396.011 968.262, 396.011 967.263, 396.011 966.262, 396.011 965.262, 396.011 964.263, 396.011 963.262, 396.011 962.263, 396.011 961.262, 396.011 960.262, 396.011 959.263, 396.011 958.262, 396.011 957.263, 396.011 956.262, 396.011 955.262, 396.011 954.263, 396.011 953.262, 396.011 952.263, 396.011 951.262, 396.011 950.263, 396.011 949.263, 396.011 948.262, 396.011 947.263, 396.011 946.262, 396.011 945.263, 396.011 944.262, 396.011 943.262, 396.011 942.263, 396.011 941.262, 396.011 940.263, 396.011 939.262, 396.011 938.262, 396.011 937.263, 396.011 936.262, 396.011 935.263, 396.011 934.262, 396.011 933.262, 396.011 932.263, 396.011 931.262, 396.011 930.263, 396.011 929.262, 396.011 928.263, 396.011 927.263, 396.011 926.262, 396.011 925.263, 396.011 924.262, 396.011 923.263, 396.011 922.263, 396.011 921.262, 396.011 920.263, 396.011 919.262, 396.011 918.263, 396.011 917.263, 396.011 916.262, 396.011 915.263, 396.011 914.262, 396.011 913.263, 396.011 912.263, 396.011 911.262, 396.011 910.263, 396.011 909.262, 396.011 908.263, 396.011 907.263, 396.011 906.263, 396.011 905.263, 396.011 904.262, 396.011 903.263, 396.011 902.262, 396.011 901.263, 396.011 900.263, 396.011 899.262, 396.011 898.263, 396.011 897.262, 396.011 896.263, 396.011 895.263, 396.011 894.262, 396.011 893.263, 396.011 892.262, 396.011 891.263, 396.011 890.263, 396.011 889.262, 396.011 888.263, 396.011 887.262, 396.011 886.263, 396.011 885.263, 396.011 884.262, 396.011 883.263, 396.011 882.262, 396.011 881.263, 396.011 880.263, 396.011 879.263, 396.011 878.263, 396.011 877.262, 396.011 876.263, 396.011 875.263, 396.011 874.263, 396.011 873.263, 396.011 872.262, 396.011 871.263, 396.011 870.263, 396.011 869.263, 396.011 868.263, 396.011 867.262, 396.011 866.263, 396.011 862.795, 396.011 862.795, 397.011 862.795, 398.011 862.795, 399.011 862.795, 400.011 862.795, 401.011 862.795, 402.011 862.795, 403.011 862.795, 404.011 862.795, 405.011 862.795, 406.011 862.795, 407.011 862.795, 408.011 862.795, 409.011 862.795, 410.011 862.795, 411.011 862.795, 412.011 862.795, 413.011 862.795, 414.011 862.795, 415.011 862.795, 416.011 862.795, 417.011 862.795, 418.011 862.795, 419.011 862.795, 420.011 862.795, 421.011 862.795, 422.011 862.795, 423.011 862.795, 424.011 862.795, 425.011 862.795, 426.011 862.795, 427.011 862.795, 428.011 862.795, 429.011 862.795, 430.011 862.795, 431.011 862.795, 432.011 862.795, 433.011 862.795, 434.011 862.795, 435.011 862.795, 436.011 862.795, 437.011 862.795, 438.011 862.795, 439.011 862.795, 440.011 862.795, 441.011 862.795, 442.011 862.795, 443.011 862.795, 444.011 862.795, 445.011 862.795, 446.011 862.795, 447.011 862.795, 448.011 862.795, 449.011 862.795, 450.011 862.795, 451.011 862.795, 452.011 862.795, 453.011 862.795, 454.011 862.795, 455.011 862.795, 456.011 862.795, 457.011 862.795, 458.011 862.795, 459.011 862.795, 460.011 862.795, 461.011 862.795, 462.011 862.795, 463.011 862.795, 464.011 862.795, 465.011 862.795, 466.011 862.795, 467.011 862.795, 468.011 862.795, 469.011 862.795, 470.011 862.795, 471.011 862.795, 472.011 862.795, 473.011 862.795, 474.011 862.795, 475.011 862.795, 476.011 862.795, 477.011 862.795, 478.011 862.795, 479.011 862.795, 480.011 862.795, 481.011 862.795, 482.011 862.795, 483.011 862.795, 484.011 862.795, 485.011 862.795, 486.011 862.795, 487.011 862.795, 488.011 862.795, 489.011 862.795, 490.011 862.795, 491.011 862.795, 492.474 861.795, 492.474 860.795, 492.474 859.795, 492.474 858.795, 492.474 857.795, 492.474 856.795, 492.474 855.795, 492.474 854.795, 492.474 853.795, 492.474 852.795, 492.474 851.795, 492.474 850.795, 492.474 849.795, 492.474 848.795, 492.474 847.795, 492.474 846.795, 492.474 845.795, 492.474 845.107, 492.474 845.107, 493.474 845.107, 494.474 845.107, 495.474 845.107, 496.474 845.107, 497.474 845.107, 498.474 845.107, 499.474 845.107, 500.474 845.107, 501.474 845.107, 502.474 845.107, 503.474 845.107, 504.474 845.107, 505.474 845.107, 506.474 845.107, 507.474 845.107, 508.474 845.107, 509.474 845.107, 510.474 845.107, 511.474 845.107, 512.474 845.107, 513.474 845.107, 514.474 845.107, 515.474 845.107, 516.474 845.107, 517.474 845.107, 518.474 845.107, 519.474 845.107, 520.474 845.107, 521.474 845.107, 522.474 845.107, 523.474 845.107, 524.474 845.107, 525.474 845.107, 526.474 845.107, 527.474 845.107, 528.474 845.107, 529.474 845.107, 530.474 845.107, 531.474 845.107, 532.474 845.107, 533.474 845.107, 534.474 845.107, 535.474 845.107, 536.474 845.107, 537.474 845.107, 538.474 845.107, 539.474 845.107, 540.474 845.107, 541.474 845.107, 542.474 845.107, 543.474 845.107, 544.474 845.107, 545.474 845.107, 546.474 845.107, 547.474 845.107, 548.474 845.107, 549.474 845.107, 550.474 845.107, 551.474 845.107, 552.474 845.107, 553.474 845.107, 554.474 845.107, 555.474 845.107, 556.474 845.107, 557.474 845.107, 558.474 845.107, 559.474 845.107, 560.474 845.107, 561.474 845.107, 562.474 845.107, 563.474 845.107, 564.474 845.107, 565.474 845.107, 566.474 845.107, 567.474 845.107, 568.474 845.107, 569.474 845.107, 570.474 845.107, 571.474 845.107, 572.474 845.107, 573.474 845.107, 574.474 845.107, 575.474 845.107, 576.474 845.107, 577.474 845.107, 578.474 845.107, 579.474 845.107, 580.474 845.107, 581.474 845.107, 582.474 845.107, 583.474 845.107, 584.474 845.107, 585.474 845.107, 587.197 846.107, 587.197 847.107, 587.197 848.107, 587.197 849.107, 587.197 850.107, 587.197 851.107, 587.197 852.107, 587.197 853.107, 587.197 854.107, 587.197 855.107, 587.197 856.107, 587.197 857.107, 587.197 858.107, 587.197 859.107, 587.197 860.107, 587.197 861.107, 587.197 862.107, 587.197 862.795, 587.197 862.795, 588.197 862.795, 589.197 862.795, 590.197 862.795, 591.197 862.795, 592.197 862.795, 593.197 862.795, 594.197 862.795, 595.197 862.795, 596.197 862.795, 597.197 862.795, 598.197 862.795, 599.197 862.795, 600.197 862.795, 601.197 862.795, 602.197 862.795, 603.197 862.795, 604.197 862.795, 605.197 862.795, 606.197 862.795, 607.197 862.795, 608.197 862.795, 609.197 862.795, 610.197 862.795, 611.197 862.795, 612.197 862.795, 613.197 862.795, 614.197 862.795, 615.197 862.795, 616.197 862.795, 617.197 862.795, 618.197 862.795, 619.197 862.795, 620.197 862.795, 621.197 862.795, 622.197 862.795, 623.197 862.795, 624.197 862.795, 625.197 862.795, 626.197 862.795, 627.197 862.795, 628.197 862.795, 629.197 862.795, 630.197 862.795, 631.197 862.795, 632.197 862.795, 633.197 862.795, 634.197 862.795, 635.197 862.795, 636.197 862.795, 637.197 862.795, 638.197 862.795, 639.197 862.795, 640.197 862.795, 641.197 862.795, 642.197 862.795, 643.197 862.795, 644.197 862.795, 645.197 862.795, 646.197 862.795, 647.197 862.795, 648.197 862.795, 649.197 862.795, 650.197 862.795, 651.197 862.795, 652.197 862.795, 653.197 862.795, 654.197 862.795, 655.197 862.795, 656.197 862.795, 657.197 862.795, 658.197 862.795, 659.197 862.795, 660.197 862.795, 661.197 862.795, 662.197 862.795, 663.197 862.795, 664.197 862.795, 665.197 862.795, 666.197 862.795, 667.197 862.795, 668.197 862.795, 669.197 862.795, 670.197 862.795, 671.197 862.795, 672.197 862.795, 673.197 862.795, 674.197 862.795, 675.197 862.795, 676.197 862.795, 677.197 862.795, 678.197 862.795, 679.197 862.795, 680.197 862.795, 681.197 862.795, 682.197 862.795, 683.989 863.795, 683.989 864.795, 683.989 865.795, 683.989 866.795, 683.989 867.795, 683.989 868.795, 683.989 869.795, 683.989 870.795, 683.989 871.795, 683.989 872.795, 683.989 873.795, 683.989 874.795, 683.989 875.795, 683.989 876.795, 683.989 877.795, 683.989 878.795, 683.989 879.795, 683.989 880.795, 683.989 881.795, 683.989 882.795, 683.989 883.795, 683.989 884.795, 683.989 885.795, 683.989 886.795, 683.989 887.795, 683.989 888.795, 683.989 889.795, 683.989 890.795, 683.989 891.795, 683.989 892.795, 683.989 893.795, 683.989 894.795, 683.989 895.795, 683.989 896.795, 683.989 897.795, 683.989 898.795, 683.989 899.795, 683.989 900.795, 683.989 901.795, 683.989 902.795, 683.989 903.795, 683.989 904.795, 683.989 905.795, 683.989 906.795, 683.989 907.795, 683.989 908.795, 683.989 909.795, 683.989 910.795, 683.989 911.795, 683.989 912.795, 683.989 913.795, 683.989 914.795, 683.989 915.795, 683.989 916.795, 683.989 917.795, 683.989 918.795, 683.989 919.795, 683.989 920.795, 683.989 921.795, 683.989 922.795, 683.989 923.795, 683.989 924.795, 683.989 925.795, 683.989 926.795, 683.989 927.795, 683.989 928.795, 683.989 929.795, 683.989 930.795, 683.989 931.795, 683.989 932.795, 683.989 933.795, 683.989 934.795, 683.989 935.795, 683.989 936.795, 683.989 937.795, 683.989 938.795, 683.989 939.795, 683.989 940.795, 683.989 941.795, 683.989 942.795, 683.989 943.795, 683.989 944.795, 683.989 945.795, 683.989 946.795, 683.989 947.795, 683.989 948.795, 683.989 949.795, 683.989 950.795, 683.989 951.795, 683.989 952.795, 683.989 953.795, 683.989 954.795, 683.989 955.795, 683.989 956.795, 683.989 957.795, 683.989 958.795, 683.989 959.795, 683.989 960.795, 683.989 961.795, 683.989 962.795, 683.989 963.795, 683.989 964.795, 683.989 965.795, 683.989 966.795, 683.989 967.795, 683.989 968.795, 683.989 969.795, 683.989 970.795, 683.989 971.795, 683.989 972.795, 683.989 973.795, 683.989 974.795, 683.989 975.795, 683.989 976.795, 683.989 977.795, 683.989 978.795, 683.989 979.795, 683.989 980.795, 683.989 981.795, 683.989 982.795, 683.989 983.795, 683.989 984.795, 683.989 985.795, 683.989 986.795, 683.989 987.795, 683.989 988.795, 683.989 989.795, 683.989 990.795, 683.989 991.795, 683.989 992.795, 683.989 993.795, 683.989 994.795, 683.989 995.795, 683.989 996.795, 683.989 997.795, 683.989 998.795, 683.989 999.795, 683.989 1000.795, 683.989 1001.795, 683.989 1002.795, 683.989 1003.795, 683.989 1004.795, 683.989 1005.795, 683.989 1006.795, 683.989 1007.795, 683.989 1008.795, 683.989 1009.795, 683.989 1010.795, 683.989 1011.795, 683.989 1012.795, 683.989 1013.795, 683.989 1014.795, 683.989 1015.795, 683.989 1016.795, 683.989 1017.795, 683.989 1018.795, 683.989 1019.795, 683.989 1020.795, 683.989 1021.795, 683.989 1022.795, 683.989 1023.795, 683.989 1024.795, 683.989 1025.795, 683.989 1026.795, 683.989 1027.795, 683.989 1028.795, 683.989 1029.795, 683.989 1030.795, 683.989 1031.795, 683.989 1032.795, 683.989 1033.795, 683.989 1034.795, 683.989 1035.795, 683.989 1036.795, 683.989 1037.795, 683.989 1038.795, 683.989 1039.795, 683.989 1040.795, 683.989 1041.795, 683.989 1042.795, 683.989 1043.795, 683.989 1044.795, 683.989 1045.795, 683.989 1046.795, 683.989 1047.795, 683.989 1048.795, 683.989 1049.795, 683.989 1050.795, 683.989 1051.795, 683.989 1052.795, 683.989 1053.795, 683.989 1054.795, 683.989 1055.795, 683.989 1056.795, 683.989 1057.795, 683.989 1058.795, 683.989 1059.795, 683.989 1060.795, 683.989 1061.795, 683.989 1062.795, 683.989 1063.795, 683.989 1064.795, 683.989 1065.795, 683.989 1066.795, 683.989 1067.795, 683.989 1068.795, 683.989 1069.795, 683.989 1070.795, 683.989 1071.795, 683.989 1072.795, 683.989 1073.795, 683.989 1074.795, 683.989 1075.795, 683.989 1076.795, 683.989 1077.795, 683.989 1078.795, 683.989 1079.795, 683.989 1080.795, 683.989 1081.795, 683.989 1082.795, 683.989 1083.795, 683.989 1084.795, 683.989 1085.795, 683.989 1086.795, 683.989 1087.795, 683.989 1088.795, 683.989 1089.795, 683.989 1090.795, 683.989 1091.795, 683.989 1092.795, 683.989 1093.795, 683.989 1094.795, 683.989 1095.795, 683.989 1096.795, 683.989 1097.795, 683.989 1098.795, 683.989 1099.795, 683.989 1100.795, 683.989 1101.795, 683.989 1102.795, 683.989 1103.795, 683.989 1104.795, 683.989 1105.795, 683.989 1106.795, 683.989 1107.795, 683.989 1108.795, 683.989 1109.795, 683.989 1110.795, 683.989 1111.795, 683.989 1112.795, 683.989 1113.795, 683.989 1114.795, 683.989 1115.795, 683.989 1116.795, 683.989 1117.795, 683.989 1118.795, 683.989 1119.795, 683.989 1120.795, 683.989 1121.795, 683.989 1122.795, 683.989 1123.795, 683.989 1124.795, 683.989 1125.795, 683.989 1126.795, 683.989 1127.795, 683.989 1128.795, 683.989 1129.795, 683.989 1133.262, 683.989 1133.262, 682.989 1133.262, 681.989 1133.262, 680.989 1133.262, 679.989 1133.262, 678.989 1133.262, 677.989 1133.262, 676.989 1133.262, 675.989 1133.262, 674.989 1133.262, 673.989 1133.262, 672.989 1133.262, 671.989 1133.262, 670.989 1133.262, 669.989 1133.262, 668.989 1133.262, 667.989 1133.262, 666.989 1133.262, 665.989 1133.262, 664.989 1133.262, 663.989 1133.262, 662.989 1133.262, 661.989 1133.262, 660.989 1133.262, 659.989 1133.262, 658.989 1133.262, 657.989 1133.262, 656.989 1133.262, 655.989 1133.262, 654.989 1133.262, 653.989 1133.262, 652.989 1133.262, 651.989 1133.262, 650.989 1133.262, 649.989 1133.262, 648.989 1133.262, 647.989 1133.262, 646.989 1133.262, 645.989 1133.262, 644.989 1133.262, 643.989 1133.262, 642.989 1133.262, 641.989 1133.262, 640.989 1133.262, 639.989 1133.262, 638.989 1133.262, 637.989 1133.262, 636.989 1133.262, 635.989 1133.262, 634.989 1133.262, 633.989 1133.262, 632.989 1133.262, 631.989 1133.262, 630.989 1133.262, 629.989 1133.262, 628.989 1133.262, 627.989 1133.262, 626.989 1133.262, 625.989 1133.262, 624.989 1133.262, 623.989 1133.262, 622.989 1133.262, 621.989 1133.262, 620.989 1133.262, 619.989 1133.262, 618.989 1133.262, 617.989 1133.262, 616.989 1133.262, 615.989 1133.262, 614.989 1133.262, 613.989 1133.262, 612.989 1133.262, 611.989 1133.262, 610.989 1133.262, 609.989 1133.262, 608.989 1133.262, 607.989 1133.262, 606.989 1133.262, 605.989 1133.262, 604.989 1133.262, 603.989 1133.262, 602.989 1133.262, 601.989 1133.262, 600.989 1133.262, 599.989 1133.262, 598.989 1133.262, 597.989 1133.262, 596.989 1133.262, 595.989 1133.262, 594.989 1133.262, 593.989 1133.262, 592.989 1133.262, 591.989 1133.262, 590.989 1133.262, 589.989 1133.262, 588.989 1133.262, 587.989 1133.262, 586.712 1134.262, 586.712 1135.262, 586.712 1136.262, 586.712 1137.262, 586.712 1138.262, 586.712 1139.262, 586.712 1140.262, 586.712 1141.262, 586.712 1142.262, 586.712 1143.262, 586.712 1144.262, 586.712 1145.262, 586.712 1146.262, 586.712 1147.262, 586.712 1148.262, 586.712 1149.262, 586.712 1150.262, 586.712 1151.262, 586.712 1152.037, 586.712 " />
            <path fill="none" stroke-width="2.0000009536743164" stroke-linecap="butt" stroke-opacity="1.0" stroke="rgb(0, 0, 0)" stroke-linejoin="round" d=" M 1152.037, 586.712 1152.037, 587.712 1152.037, 588.712 1152.037, 589.712 1152.037, 590.712 1152.037, 591.712 1152.037, 592.712 1152.037, 593.712 1152.037, 594.712 1152.037, 595.712 1152.037, 596.712 1152.037, 597.712 1152.037, 598.712 1152.037, 599.712 1152.037, 600.712 1152.037, 601.712 1152.037, 602.712 1152.037, 603.712 1152.037, 604.712 1152.037, 605.712 1152.037, 606.712 1152.037, 607.712 1152.037, 608.712 1152.037, 609.712 1152.037, 610.712 1152.037, 611.712 1152.037, 612.712 1152.037, 613.712 1152.037, 614.712 1152.037, 615.712 1152.037, 616.712 1152.037, 617.712 1152.037, 618.712 1152.037, 619.712 1152.037, 620.712 1152.037, 621.712 1152.037, 622.712 1152.037, 623.712 1152.037, 624.712 1152.037, 625.712 1152.037, 626.712 1152.037, 627.712 1152.037, 628.712 1152.037, 629.712 1152.037, 630.712 1152.037, 631.712 1152.037, 632.712 1152.037, 633.712 1152.037, 634.712 1152.037, 635.712 1152.037, 636.712 1152.037, 637.712 1152.037, 638.712 1152.037, 639.712 1152.037, 640.712 1152.037, 641.712 1152.037, 642.712 1152.037, 643.712 1152.037, 644.712 1152.037, 645.712 1152.037, 646.712 1152.037, 647.712 1152.037, 648.712 1152.037, 649.712 1152.037, 650.712 1152.037, 651.712 1152.037, 652.712 1152.037, 653.712 1152.037, 654.712 1152.037, 655.712 1152.037, 656.712 1152.037, 657.712 1152.037, 658.712 1152.037, 659.712 1152.037, 660.712 1152.037, 661.712 1152.037, 662.712 1152.037, 663.712 1152.037, 664.712 1152.037, 665.712 1152.037, 666.712 1152.037, 667.712 1152.037, 668.712 1152.037, 669.712 1152.037, 670.712 1152.037, 671.712 1152.037, 672.712 1152.037, 673.712 1152.037, 674.712 1152.037, 675.712 1152.037, 676.712 1152.037, 677.712 1152.037, 678.712 1152.037, 679.712 1152.037, 680.712 1152.037, 682.655 1152.840, 683.252 1153.643, 683.848 1153.832, 683.989 1154.832, 683.989 1155.832, 683.989 1156.832, 683.989 1157.832, 683.989 1158.832, 683.989 1159.832, 683.989 1160.832, 683.989 1161.832, 683.989 1162.832, 683.989 1163.832, 683.989 1164.832, 683.989 1165.832, 683.989 1166.832, 683.989 1167.832, 683.989 1168.832, 683.989 1169.832, 683.989 1170.832, 683.989 1171.832, 683.989 1172.832, 683.989 1173.832, 683.989 1174.832, 683.989 1175.832, 683.989 1176.832, 683.989 1177.832, 683.989 1178.832, 683.989 1179.832, 683.989 1180.832, 683.989 1181.832, 683.989 1182.832, 683.989 1183.832, 683.989 1184.832, 683.989 1185.832, 683.989 1186.832, 683.989 1187.832, 683.989 1188.832, 683.989 1189.832, 683.989 1190.832, 683.989 1191.832, 683.989 1192.832, 683.989 1193.832, 683.989 1194.832, 683.989 1195.832, 683.989 1196.832, 683.989 1197.832, 683.989 1198.832, 683.989 1199.832, 683.989 1200.832, 683.989 1201.832, 683.989 1202.832, 683.989 1203.832, 683.989 1204.832, 683.989 1205.832, 683.989 1206.832, 683.989 1207.832, 683.989 1208.832, 683.989 1209.832, 683.989 1210.832, 683.989 1211.832, 683.989 1212.832, 683.989 1213.832, 683.989 1214.832, 683.989 1215.832, 683.989 1216.832, 683.989 1217.832, 683.989 1218.832, 683.989 1219.832, 683.989 1220.832, 683.989 1221.832, 683.989 1222.832, 683.989 1223.832, 683.989 1224.832, 683.989 1225.832, 683.989 1226.832, 683.989 1227.832, 683.989 1228.832, 683.989 1229.832, 683.989 1230.832, 683.989 1231.832, 683.989 1232.832, 683.989 1233.832, 683.989 1234.832, 683.989 1235.832, 683.989 1236.832, 683.989 1237.832, 683.989 1238.832, 683.989 1239.832, 683.989 1240.832, 683.989 1242.457, 683.989 1242.457, 682.989 1242.457, 681.989 1242.457, 680.989 1242.457, 679.989 1242.457, 678.989 1242.457, 677.989 1242.457, 676.989 1242.457, 675.989 1242.457, 674.989 1242.457, 673.989 1242.457, 672.989 1242.457, 671.989 1242.457, 670.989 1242.457, 669.989 1242.457, 668.989 1242.457, 667.989 1242.457, 666.989 1242.457, 665.989 1242.457, 664.989 1242.457, 663.989 1242.457, 662.989 1242.457, 661.989 1242.457, 660.989 1242.457, 659.989 1242.457, 658.989 1242.457, 657.989 1242.457, 656.989 1242.457, 655.989 1242.457, 654.989 1242.457, 653.989 1242.457, 652.989 1242.457, 651.989 1242.457, 650.989 1242.457, 649.989 1242.457, 648.989 1242.457, 647.989 1242.457, 646.989 1242.457, 645.989 1242.457, 644.989 1242.457, 643.989 1242.457, 642.989 1242.457, 641.989 1242.457, 640.989 1242.457, 639.989 1242.457, 638.989 1242.457, 637.989 1242.457, 636.989 1242.457, 635.989 1242.457, 634.989 1242.457, 633.989 1242.457, 632.989 1242.457, 631.989 1242.457, 630.989 1242.457, 629.989 1242.457, 628.989 1242.457, 627.989 1242.457, 626.989 1242.457, 625.989 1242.457, 624.989 1242.457, 623.989 1242.457, 622.989 1242.457, 621.989 1242.457, 620.989 1242.457, 619.989 1242.457, 618.989 1242.457, 617.989 1242.457, 616.989 1242.457, 615.989 1242.457, 614.989 1242.457, 613.989 1242.457, 612.989 1242.457, 611.989 1242.457, 610.989 1242.457, 609.989 1242.457, 608.989 1242.457, 607.989 1242.457, 606.989 1242.457, 605.989 1242.457, 604.989 1242.457, 603.989 1242.457, 602.989 1242.457, 601.989 1242.457, 600.989 1242.457, 599.989 1242.457, 598.989 1242.457, 597.989 1242.457, 596.989 1242.457, 595.989 1242.457, 594.989 1242.457, 593.989 1242.457, 592.989 1242.457, 591.989 1242.457, 590.989 1242.457, 589.989 1242.457, 588.989 1242.457, 587.989 1242.457, 586.712 1243.457, 586.712 1244.457, 586.712 1245.457, 586.712 1246.457, 586.712 1247.457, 586.712 1248.457, 586.712 1249.457, 586.712 1250.457, 586.712 1251.457, 586.712 1252.457, 586.712 1253.457, 586.712 1254.457, 586.712 1255.457, 586.712 1256.457, 586.712 1257.457, 586.712 1258.457, 586.712 1259.457, 586.712 1260.617, 586.712 1260.617, 585.712 1260.617, 584.712 1260.617, 583.712 1260.617, 582.712 1260.617, 581.712 1260.617, 580.712 1260.617, 579.712 1260.617, 578.712 1260.617, 577.712 1260.617, 576.712 1260.617, 575.712 1260.617, 574.712 1260.617, 573.712 1260.617, 572.712 1260.617, 571.712 1260.617, 570.712 1260.617, 569.712 1260.617, 568.712 1260.617, 567.712 1260.617, 566.712 1260.617, 565.712 1260.617, 564.712 1260.617, 563.712 1260.617, 562.712 1260.617, 561.712 1260.617, 560.712 1260.617, 559.712 1260.617, 558.712 1260.617, 557.712 1260.617, 556.712 1260.617, 555.712 1260.617, 554.712 1260.617, 553.712 1260.617, 552.712 1260.617, 551.712 1260.617, 550.712 1260.617, 549.712 1260.617, 548.712 1260.617, 547.712 1260.617, 546.712 1260.617, 545.712 1260.617, 544.712 1260.617, 543.712 1260.617, 542.712 1260.617, 541.712 1260.617, 540.712 1260.617, 539.712 1260.617, 538.712 1260.617, 537.712 1260.617, 536.712 1260.617, 535.712 1260.617, 534.712 1260.617, 533.712 1260.617, 532.712 1260.617, 531.712 1260.617, 530.712 1260.617, 529.712 1260.617, 528.712 1260.617, 527.712 1260.617, 526.712 1260.617, 525.712 1260.617, 524.712 1260.617, 523.712 1260.617, 522.712 1260.617, 521.712 1260.617, 520.712 1260.617, 519.712 1260.617, 518.712 1260.617, 517.712 1260.617, 516.712 1260.617, 515.712 1260.617, 514.712 1260.617, 513.712 1260.617, 512.712 1260.617, 511.712 1260.617, 510.712 1260.617, 509.712 1260.617, 508.712 1260.617, 507.712 1260.617, 506.712 1260.617, 505.712 1260.617, 504.712 1260.617, 503.712 1260.617, 502.712 1260.617, 501.712 1260.617, 500.712 1260.617, 499.712 1260.617, 498.712 1260.617, 497.712 1260.617, 496.712 1260.617, 495.712 1260.617, 494.712 1260.617, 493.712 1260.617, 492.474 1259.617, 492.474 1258.617, 492.474 1257.617, 492.474 1256.617, 492.474 1255.617, 492.474 1254.617, 492.474 1253.617, 492.474 1252.617, 492.474 1251.617, 492.474 1250.617, 492.474 1249.617, 492.474 1248.617, 492.474 1247.617, 492.474 1246.617, 492.474 1245.617, 492.474 1244.617, 492.474 1243.617, 492.474 1242.457, 492.474 1242.457, 491.474 1242.457, 490.474 1242.457, 489.474 1242.457, 488.474 1242.457, 487.474 1242.457, 486.474 1242.457, 485.474 1242.457, 484.474 1242.457, 483.474 1242.457, 482.474 1242.457, 481.474 1242.457, 480.474 1242.457, 479.474 1242.457, 478.474 1242.457, 477.474 1242.457, 476.474 1242.457, 475.474 1242.457, 474.474 1242.457, 473.474 1242.457, 472.474 1242.457, 471.474 1242.457, 470.474 1242.457, 469.474 1242.457, 468.474 1242.457, 467.474 1242.457, 466.474 1242.457, 465.474 1242.457, 464.474 1242.457, 463.474 1242.457, 462.474 1242.457, 461.474 1242.457, 460.474 1242.457, 459.474 1242.457, 458.474 1242.457, 457.474 1242.457, 456.474 1242.457, 455.474 1242.457, 454.474 1242.457, 453.474 1242.457, 452.474 1242.457, 451.474 1242.457, 450.474 1242.457, 449.474 1242.457, 448.474 1242.457, 447.474 1242.457, 446.474 1242.457, 445.474 1242.457, 444.474 1242.457, 443.474 1242.457, 442.474 1242.457, 441.474 1242.457, 440.474 1242.457, 439.474 1242.457, 438.474 1242.457, 437.474 1242.457, 436.474 1242.457, 435.474 1242.457, 434.474 1242.457, 433.474 1242.457, 432.474 1242.457, 431.474 1242.457, 430.474 1242.457, 429.474 1242.457, 428.474 1242.457, 427.474 1242.457, 426.474 1242.457, 425.474 1242.457, 424.474 1242.457, 423.474 1242.457, 422.474 1242.457, 421.474 1242.457, 420.474 1242.457, 419.474 1242.457, 418.474 1242.457, 417.474 1242.457, 416.474 1242.457, 415.474 1242.457, 414.474 1242.457, 413.474 1242.457, 412.474 1242.457, 411.474 1242.457, 410.474 1242.457, 409.474 1242.457, 408.474 1242.457, 407.474 1242.457, 406.474 1242.457, 405.474 1242.457, 404.474 1242.457, 403.474 1242.457, 402.474 1242.457, 401.474 1242.457, 400.474 1242.457, 399.474 1242.457, 398.474 1242.457, 397.474 1242.457, 396.011 1241.457, 396.011 1240.457, 396.011 1239.457, 396.011 1238.457, 396.011 1237.457, 396.011 1236.457, 396.011 1235.457, 396.011 1234.457, 396.011 1233.457, 396.011 1232.457, 396.011 1231.457, 396.011 1230.457, 396.011 1229.457, 396.011 1228.457, 396.011 1227.457, 396.011 1226.457, 396.011 1225.457, 396.011 1224.457, 396.011 1223.457, 396.011 1222.457, 396.011 1221.457, 396.011 1220.457, 396.011 1219.457, 396.011 1218.457, 396.011 1217.457, 396.011 1216.457, 396.011 1215.457, 396.011 1214.457, 396.011 1213.457, 396.011 1212.457, 396.011 1211.457, 396.011 1210.457, 396.011 1209.457, 396.011 1208.457, 396.011 1207.457, 396.011 1206.457, 396.011 1205.457, 396.011 1204.457, 396.011 1203.457, 396.011 1202.457, 396.011 1201.457, 396.011 1200.457, 396.011 1199.457, 396.011 1198.457, 396.011 1197.457, 396.011 1196.457, 396.011 1195.457, 396.011 1194.457, 396.011 1193.457, 396.011 1192.457, 396.011 1191.457, 396.011 1190.457, 396.011 1189.457, 396.011 1188.457, 396.011 1187.457, 396.011 1186.457, 396.011 1185.457, 396.011 1184.457, 396.011 1183.457, 396.011 1182.457, 396.011 1181.457, 396.011 1180.457, 396.011 1179.457, 396.011 1178.457, 396.011 1177.457, 396.011 1176.457, 396.011 1175.457, 396.011 1174.457, 396.011 1173.457, 396.011 1172.457, 396.011 1171.457, 396.011 1170.457, 396.011 1169.457, 396.011 1168.457, 396.011 1167.457, 396.011 1166.457, 396.011 1165.457, 396.011 1164.457, 396.011 1163.457, 396.011 1162.457, 396.011 1161.457, 396.011 1160.457, 396.011 1159.457, 396.011 1158.457, 396.011 1157.457, 396.011 1156.457, 396.011 1155.457, 396.011 1153.832, 396.011 1153.030, 396.608 1152.227, 397.204 1152.037, 397.345 1152.037, 398.345 1152.037, 399.345 1152.037, 400.345 1152.037, 401.345 1152.037, 402.345 1152.037, 403.345 1152.037, 404.345 1152.037, 405.345 1152.037, 406.345 1152.037, 407.345 1152.037, 408.345 1152.037, 409.345 1152.037, 410.345 1152.037, 411.345 1152.037, 412.345 1152.037, 413.345 1152.037, 414.345 1152.037, 415.345 1152.037, 416.345 1152.037, 417.345 1152.037, 418.345 1152.037, 419.345 1152.037, 420.345 1152.037, 421.345 1152.037, 422.345 1152.037, 423.345 1152.037, 424.345 1152.037, 425.345 1152.037, 426.345 1152.037, 427.345 1152.037, 428.345 1152.037, 429.345 1152.037, 430.345 1152.037, 431.345 1152.037, 432.345 1152.037, 433.345 1152.037, 434.345 1152.037, 435.345 1152.037, 436.345 1152.037, 437.345 1152.037, 438.345 1152.037, 439.345 1152.037, 440.345 1152.037, 441.345 1152.037, 442.345 1152.037, 443.345 1152.037, 444.345 1152.037, 445.345 1152.037, 446.345 1152.037, 447.345 1152.037, 448.345 1152.037, 449.345 1152.037, 450.345 1152.037, 451.345 1152.037, 452.345 1152.037, 453.345 1152.037, 454.345 1152.037, 455.345 1152.037, 456.345 1152.037, 457.345 1152.037, 458.345 1152.037, 459.345 1152.037, 460.345 1152.037, 461.345 1152.037, 462.345 1152.037, 463.345 1152.037, 464.345 1152.037, 465.345 1152.037, 466.345 1152.037, 467.345 1152.037, 468.345 1152.037, 469.345 1152.037, 470.345 1152.037, 471.345 1152.037, 472.345 1152.037, 473.345 1152.037, 474.345 1152.037, 475.345 1152.037, 476.345 1152.037, 477.345 1152.037, 478.345 1152.037, 479.345 1152.037, 480.345 1152.037, 481.345 1152.037, 482.345 1152.037, 483.345 1152.037, 484.345 1152.037, 485.345 1152.037, 486.345 1152.037, 487.345 1152.037, 488.345 1152.037, 489.345 1152.037, 490.345 1152.037, 491.345 1152.037, 492.474 " />
            <path fill="none" stroke-width="2.0000009536743164" stroke-linecap="butt" stroke-opacity="1.0" stroke="rgb(0, 0, 0)" stroke-linejoin="round" d=" M 1224.594, 529.810 1225.594, 529.810 1226.594, 529.810 1227.594, 529.810 1228.594, 529.810 1229.594, 529.810 1230.594, 529.810 1231.594, 529.810 1232.333, 529.810 1232.333, 530.810 1232.333, 531.810 1232.333, 532.810 1232.333, 533.810 1232.333, 534.810 1232.333, 535.810 1232.333, 536.810 1232.333, 537.810 1232.333, 538.810 1232.333, 539.810 1232.333, 540.810 1232.333, 541.810 1232.333, 542.810 1232.333, 543.810 1232.333, 544.810 1232.333, 545.810 1232.333, 546.810 1232.333, 547.810 1232.333, 548.810 1232.333, 549.810 1232.333, 550.190 1231.333, 550.190 1230.333, 550.190 1229.333, 550.190 1228.333, 550.190 1227.333, 550.190 1226.333, 550.190 1225.333, 550.190 1224.594, 550.190 " />
            <path fill="none" stroke-width="2.0000009536743164" stroke-linecap="butt" stroke-opacity="1.0" stroke="rgb(0, 0, 0)" stroke-linejoin="round" d=" M 1224.594, 550.190 1224.594, 549.190 1224.594, 548.190 1224.594, 547.190 1224.594, 546.190 1224.594, 545.190 1224.594, 544.190 1224.594, 543.190 1224.594, 542.190 1224.594, 541.190 1224.594, 540.190 1224.594, 539.190 1224.594, 538.190 1224.594, 537.190 1224.594, 536.190 1224.594, 535.190 1224.594, 534.190 1224.594, 533.190 1224.594, 532.190 1224.594, 531.190 1224.594, 530.190 1224.594, 529.810 " />
        </g>
    </g>
</svg>
