<?xml version='1.0' encoding='ascii'?>
<svg xmlns="http://www.w3.org/2000/svg" version="1.1" width="1920" height="1080">
    <g id="ViewLayer_LineSet" xmlns:inkscape="http://www.inkscape.org/namespaces/inkscape" inkscape:groupmode="lineset" inkscape:label="ViewLayer_LineSet">
        <g xmlns:inkscape="http://www.inkscape.org/namespaces/inkscape" inkscape:groupmode="layer" id="strokes" inkscape:label="strokes">
            <path fill="none" stroke-width="3.0" stroke-linecap="butt" stroke-opacity="1.0" stroke="rgb(0, 0, 0)" stroke-linejoin="round" d=" M 790.991, 182.491 781.039, 181.511 771.087, 180.531 761.135, 179.551 751.183, 178.571 741.231, 177.591 731.280, 176.610 721.328, 175.630 711.376, 174.650 710.430, 174.557 700.478, 175.537 690.526, 176.517 680.575, 177.497 670.623, 178.478 660.671, 179.458 650.719, 180.438 640.767, 181.418 630.815, 182.398 629.870, 182.491 620.300, 185.394 610.731, 188.297 601.161, 191.200 591.592, 194.103 582.023, 197.006 572.453, 199.909 562.884, 202.811 553.314, 205.714 552.405, 205.990 543.586, 210.704 534.767, 215.418 525.947, 220.132 517.128, 224.846 508.309, 229.560 499.490, 234.274 490.670, 238.988 481.851, 243.702 481.013, 244.150 473.283, 250.494 465.553, 256.838 457.823, 263.182 450.093, 269.526 442.363, 275.869 434.633, 282.213 426.902, 288.557 419.172, 294.901 418.438, 295.504 412.094, 303.234 405.750, 310.964 399.406, 318.694 393.062, 326.425 386.718, 334.155 380.374, 341.885 374.030, 349.615 367.686, 357.345 367.083, 358.080 362.369, 366.899 357.655, 375.718 352.941, 384.537 348.227, 393.356 343.514, 402.176 338.800, 410.995 334.086, 419.814 329.372, 428.633 328.924, 429.471 326.021, 439.041 323.118, 448.610 320.215, 458.180 317.312, 467.749 314.409, 477.318 311.507, 486.888 308.604, 496.457 305.701, 506.027 305.425, 506.936 304.445, 516.888 303.465, 526.840 302.484, 536.792 301.504, 546.743 300.524, 556.695 299.544, 566.647 298.564, 576.599 297.584, 586.551 297.490, 587.497 298.471, 597.448 299.451, 607.400 300.431, 617.352 301.411, 627.304 302.391, 637.256 303.372, 647.208 304.352, 657.160 305.332, 667.111 305.425, 668.057 308.328, 677.627 311.231, 687.196 314.134, 696.765 317.036, 706.335 319.939, 715.904 322.842, 725.474 325.745, 735.043 328.648, 744.612 328.924, 745.522 333.638, 754.341 338.352, 763.160 343.066, 771.979 347.780, 780.799 352.493, 789.618 357.207, 798.437 361.921, 807.256 366.635, 816.076 367.083, 816.914 373.427, 824.644 379.771, 832.374 386.115, 840.104 392.459, 847.834 398.803, 855.564 405.147, 863.294 411.491, 871.024 417.835, 878.754 418.438, 879.489 426.168, 885.833 433.898, 892.177 441.628, 898.521 449.358, 904.865 457.088, 911.209 464.818, 917.553 472.548, 923.897 480.279, 930.241 481.013, 930.843 489.832, 935.557 498.652, 940.271 507.471, 944.985 516.290, 949.699 525.109, 954.413 533.928, 959.127 542.748, 963.841 551.567, 968.555 552.405, 969.003 561.974, 971.906 571.544, 974.809 581.113, 977.712 590.683, 980.615 600.252, 983.517 609.821, 986.420 619.391, 989.323 628.960, 992.226 629.870, 992.502 639.821, 993.482 649.773, 994.462 659.725, 995.442 669.677, 996.422 679.629, 997.403 689.581, 998.383 699.533, 999.363 709.484, 1000.343 710.430, 1000.436 720.382, 999.456 730.334, 998.476 740.286, 997.496 750.238, 996.516 760.189, 995.535 770.141, 994.555 780.093, 993.575 790.045, 992.595 790.991, 992.502 800.560, 989.599 810.130, 986.696 819.699, 983.793 829.268, 980.890 838.838, 977.988 848.407, 975.085 857.977, 972.182 867.546, 969.279 868.455, 969.003 877.275, 964.289 886.094, 959.575 894.913, 954.861 903.732, 950.147 912.551, 945.433 921.371, 940.719 930.190, 936.005 939.009, 931.291 939.847, 930.843 947.577, 924.499 955.307, 918.156 963.037, 911.812 970.768, 905.468 978.498, 899.124 986.228, 892.780 993.958, 886.436 1001.688, 880.092 1002.423, 879.489 1008.767, 871.759 1015.110, 864.029 1021.454, 856.299 1027.798, 848.569 1034.142, 840.839 1040.486, 833.108 1046.830, 825.378 1053.174, 817.648 1053.777, 816.914 1058.491, 808.094 1063.205, 799.275 1067.919, 790.456 1072.633, 781.637 1077.347, 772.818 1082.061, 763.998 1086.775, 755.179 1091.489, 746.360 1091.937, 745.522 1094.839, 735.952 1097.742, 726.383 1100.645, 716.814 1103.548, 707.244 1106.451, 697.675 1109.354, 688.105 1112.257, 678.536 1115.159, 668.967 1115.435, 668.057 1116.416, 658.105 1117.396, 648.153 1118.376, 638.202 1119.356, 628.250 1120.336, 618.298 1121.316, 608.346 1122.297, 598.394 1123.277, 588.442 1123.370, 587.497 1122.390, 577.545 1121.410, 567.593 1120.429, 557.641 1119.449, 547.689 1118.469, 537.737 1117.489, 527.786 1116.509, 517.834 1115.528, 507.882 1115.435, 506.936 1112.532, 497.367 1109.630, 487.797 1106.727, 478.228 1103.824, 468.658 1100.921, 459.089 1098.018, 449.520 1095.115, 439.950 1092.213, 430.381 1091.937, 429.471 1087.223, 420.652 1082.509, 411.833 1077.795, 403.014 1073.081, 394.195 1068.367, 385.375 1063.653, 376.556 1058.939, 367.737 1054.225, 358.918 1053.777, 358.080 1047.433, 350.349 1041.089, 342.619 1034.745, 334.889 1028.401, 327.159 1022.057, 319.429 1015.713, 311.699 1009.369, 303.969 1003.026, 296.239 1002.423, 295.504 994.693, 289.160 986.962, 282.816 979.232, 276.472 971.502, 270.128 963.772, 263.784 956.042, 257.441 948.312, 251.097 940.582, 244.753 939.847, 244.150 931.028, 239.436 922.209, 234.722 913.390, 230.008 904.570, 225.294 895.751, 220.580 886.932, 215.866 878.113, 211.152 869.293, 206.438 868.455, 205.990 858.886, 203.087 849.317, 200.184 839.747, 197.282 830.178, 194.379 820.608, 191.476 811.039, 188.573 801.470, 185.670 791.900, 182.767 790.991, 182.491 " />
        </g>
    </g>
</svg>
