<?xml version='1.0' encoding='ascii'?>
<svg xmlns="http://www.w3.org/2000/svg" version="1.1" width="1920" height="1080">
    <g id="ViewLayer_LineSet" xmlns:inkscape="http://www.inkscape.org/namespaces/inkscape" inkscape:groupmode="lineset" inkscape:label="ViewLayer_LineSet">
        <g xmlns:inkscape="http://www.inkscape.org/namespaces/inkscape" inkscape:groupmode="layer" id="strokes" inkscape:label="strokes">
            <path fill="none" stroke-width="2.0000009536743164" stroke-linecap="butt" stroke-opacity="1.0" stroke="rgb(0, 0, 0)" stroke-linejoin="round" d=" M 1202.225, 927.771 1201.913, 928.721 1201.600, 929.671 1201.288, 930.621 1200.976, 931.571 1200.664, 932.521 1200.352, 933.471 1200.040, 934.421 1199.728, 935.371 1199.415, 936.321 1199.103, 937.271 1198.791, 938.221 1198.479, 939.171 1198.167, 940.121 1197.854, 941.071 1197.542, 942.021 1197.230, 942.971 1196.918, 943.921 1196.606, 944.871 1196.517, 945.141 1197.021, 946.005 1197.526, 946.868 1198.030, 947.732 1198.488, 948.517 1199.438, 948.829 1200.388, 949.141 1201.338, 949.453 1202.288, 949.766 1203.238, 950.078 1204.188, 950.390 1205.138, 950.702 1206.088, 951.014 1207.038, 951.326 1207.988, 951.639 1208.938, 951.951 1209.888, 952.263 1210.839, 952.575 1211.788, 952.887 1212.739, 953.199 1213.688, 953.512 1214.639, 953.824 1215.589, 954.136 1216.539, 954.448 1217.489, 954.760 1218.439, 955.072 1219.389, 955.385 1220.339, 955.697 1221.289, 956.009 1222.239, 956.321 1223.189, 956.633 1224.139, 956.945 1225.089, 957.258 1226.039, 957.570 1226.989, 957.882 1227.939, 958.194 1228.889, 958.506 1229.839, 958.819 1230.789, 959.131 1231.739, 959.443 1232.689, 959.755 1233.639, 960.067 1234.589, 960.379 1235.539, 960.692 1236.489, 961.004 1237.439, 961.316 1238.389, 961.628 1239.339, 961.940 1240.289, 962.252 1241.239, 962.565 1242.189, 962.877 1243.139, 963.189 1244.089, 963.501 1245.039, 963.813 1245.989, 964.125 1246.939, 964.438 1247.890, 964.750 1248.839, 965.062 1249.790, 965.374 1250.740, 965.686 1251.690, 965.998 1252.640, 966.311 1253.590, 966.623 1254.540, 966.935 1255.490, 967.247 1256.440, 967.559 1257.390, 967.871 1258.340, 968.184 1259.290, 968.496 1260.240, 968.808 1261.190, 969.120 1262.140, 969.432 1263.090, 969.744 1264.040, 970.057 1264.990, 970.369 1265.940, 970.681 1266.890, 970.993 1267.840, 971.305 1268.790, 971.617 1269.740, 971.930 1270.690, 972.242 1271.640, 972.554 1272.590, 972.866 1273.540, 973.178 1274.490, 973.490 1275.440, 973.803 1276.390, 974.115 1277.340, 974.427 1278.290, 974.739 1279.240, 975.051 1280.190, 975.363 1281.140, 975.676 1282.090, 975.988 1283.040, 976.300 1283.990, 976.612 1284.941, 976.924 1285.891, 977.236 1286.841, 977.549 1287.791, 977.861 1288.741, 978.173 1289.691, 978.485 1290.641, 978.797 1291.591, 979.110 1292.541, 979.422 1293.491, 979.734 1294.441, 980.046 1295.391, 980.358 1296.341, 980.670 1297.291, 980.983 1298.241, 981.295 1299.191, 981.607 1300.141, 981.919 1301.091, 982.231 1302.041, 982.543 1302.991, 982.856 1303.941, 983.168 1304.891, 983.480 1305.841, 983.792 1306.791, 984.104 1307.741, 984.416 1308.691, 984.729 1309.641, 985.041 1310.591, 985.353 1311.541, 985.665 1312.491, 985.977 1313.441, 986.289 1314.391, 986.602 1315.341, 986.914 1316.291, 987.226 1317.241, 987.538 1318.191, 987.850 1319.141, 988.162 1320.092, 988.475 1321.042, 988.787 1321.992, 989.099 1322.942, 989.411 1325.154, 990.138 1325.466, 989.188 1325.778, 988.238 1326.090, 987.288 1326.403, 986.338 1326.715, 985.388 1327.027, 984.438 1327.339, 983.488 1327.651, 982.538 1327.964, 981.588 1328.276, 980.638 1328.588, 979.688 1328.900, 978.738 1329.212, 977.788 1329.524, 976.838 1329.836, 975.888 1330.149, 974.938 1330.461, 973.988 1330.623, 973.494 " />
            <path fill="none" stroke-width="2.0000009536743164" stroke-linecap="butt" stroke-opacity="1.0" stroke="rgb(0, 0, 0)" stroke-linejoin="round" d=" M 1353.863, 476.454 1353.863, 476.101 1352.863, 476.101 1351.863, 476.101 1350.863, 476.101 1349.863, 476.101 1348.863, 476.101 1347.863, 476.101 1346.863, 476.101 1345.863, 476.101 1344.863, 476.101 1343.863, 476.101 1342.863, 476.101 1341.863, 476.101 1340.863, 476.101 1339.863, 476.101 1338.863, 476.101 1337.708, 476.101 " />
            <path fill="none" stroke-width="2.0000009536743164" stroke-linecap="butt" stroke-opacity="1.0" stroke="rgb(0, 0, 0)" stroke-linejoin="round" d=" M 740.006, 586.053 739.011, 586.151 738.016, 586.249 737.021, 586.347 736.026, 586.445 735.031, 586.543 734.035, 586.642 733.040, 586.740 732.242, 586.818 731.247, 586.720 730.252, 586.622 729.256, 586.524 728.261, 586.426 727.266, 586.328 726.271, 586.230 725.276, 586.132 724.281, 586.034 723.643, 585.971 722.686, 585.681 721.729, 585.391 720.772, 585.100 719.816, 584.810 718.859, 584.520 717.902, 584.230 716.945, 583.939 715.988, 583.649 715.375, 583.463 714.493, 582.992 713.611, 582.520 712.729, 582.049 711.847, 581.577 710.965, 581.106 710.083, 580.635 709.202, 580.163 708.320, 579.692 707.755, 579.390 706.982, 578.756 706.209, 578.121 705.436, 577.487 704.663, 576.852 703.890, 576.218 703.117, 575.584 702.344, 574.949 701.571, 574.315 701.076, 573.909 700.441, 573.136 699.807, 572.363 699.173, 571.590 698.538, 570.817 697.904, 570.044 697.269, 569.271 696.635, 568.498 696.001, 567.725 695.594, 567.230 695.123, 566.348 694.652, 565.466 694.180, 564.584 693.709, 563.702 693.237, 562.820 692.766, 561.938 692.295, 561.056 691.823, 560.174 691.522, 559.609 691.231, 558.653 690.941, 557.696 690.651, 556.739 690.360, 555.782 690.070, 554.825 689.780, 553.868 689.490, 552.911 689.199, 551.954 689.013, 551.341 688.915, 550.346 688.817, 549.351 688.719, 548.356 688.621, 547.361 688.523, 546.365 688.425, 545.370 688.327, 544.375 688.229, 543.380 688.166, 542.742 688.264, 541.747 688.362, 540.752 688.460, 539.757 688.558, 538.762 688.656, 537.767 688.755, 536.771 688.853, 535.776 688.951, 534.781 689.013, 534.144 689.304, 533.187 689.594, 532.230 689.884, 531.273 690.174, 530.316 690.465, 529.359 690.755, 528.402 691.045, 527.445 691.336, 526.488 691.522, 525.875 691.993, 524.994 692.464, 524.112 692.936, 523.230 693.407, 522.348 693.878, 521.466 694.350, 520.584 694.821, 519.702 695.293, 518.820 695.594, 518.255 696.229, 517.482 696.863, 516.709 697.498, 515.936 698.132, 515.163 698.766, 514.390 699.401, 513.617 700.035, 512.844 700.670, 512.071 701.076, 511.576 701.849, 510.942 702.622, 510.308 703.395, 509.673 704.168, 509.039 704.941, 508.404 705.714, 507.770 706.487, 507.136 707.260, 506.501 707.755, 506.095 708.637, 505.624 709.519, 505.152 710.401, 504.681 711.283, 504.209 712.164, 503.738 713.046, 503.267 713.928, 502.795 714.810, 502.324 715.375, 502.022 716.332, 501.732 717.289, 501.441 718.246, 501.151 719.203, 500.861 720.160, 500.570 721.117, 500.280 722.074, 499.990 723.031, 499.700 723.643, 499.514 724.638, 499.416 725.634, 499.318 726.629, 499.220 727.624, 499.122 728.619, 499.024 729.614, 498.926 730.610, 498.828 731.605, 498.730 732.242, 498.667 733.237, 498.765 734.232, 498.863 735.228, 498.961 736.223, 499.059 737.218, 499.157 738.213, 499.255 739.208, 499.353 739.783, 499.410 " />
            <path fill="none" stroke-width="2.0000009536743164" stroke-linecap="butt" stroke-opacity="1.0" stroke="rgb(0, 0, 0)" stroke-linejoin="round" d=" M 1151.128, 499.445 1152.123, 499.347 1153.119, 499.249 1154.114, 499.151 1155.109, 499.052 1156.104, 498.954 1157.099, 498.856 1158.094, 498.758 1159.024, 498.667 1160.019, 498.765 1161.015, 498.863 1162.010, 498.961 1163.005, 499.059 1164.000, 499.157 1164.995, 499.255 1165.990, 499.353 1166.986, 499.451 1167.623, 499.514 1168.580, 499.804 1169.537, 500.094 1170.494, 500.385 1171.451, 500.675 1172.408, 500.965 1173.365, 501.255 1174.321, 501.546 1175.278, 501.836 1175.891, 502.022 1176.773, 502.493 1177.655, 502.965 1178.537, 503.436 1179.419, 503.908 1180.301, 504.379 1181.183, 504.850 1182.065, 505.322 1182.947, 505.793 1183.511, 506.095 1184.284, 506.729 1185.057, 507.364 1185.830, 507.998 1186.603, 508.633 1187.376, 509.267 1188.149, 509.901 1188.922, 510.536 1189.695, 511.170 1190.190, 511.576 1190.825, 512.349 1191.459, 513.122 1192.094, 513.895 1192.728, 514.668 1193.362, 515.441 1193.997, 516.214 1194.631, 516.987 1195.266, 517.760 1195.672, 518.255 1196.143, 519.137 1196.615, 520.019 1197.086, 520.901 1197.557, 521.783 1198.029, 522.665 1198.500, 523.547 1198.971, 524.429 1199.443, 525.311 1199.745, 525.875 1200.035, 526.832 1200.325, 527.789 1200.615, 528.746 1200.906, 529.703 1201.196, 530.660 1201.486, 531.617 1201.777, 532.574 1202.067, 533.531 1202.253, 534.144 1202.351, 535.139 1202.449, 536.134 1202.547, 537.129 1202.645, 538.125 1202.743, 539.120 1202.841, 540.115 1202.939, 541.110 1203.037, 542.105 1203.100, 542.742 1203.002, 543.738 1202.904, 544.733 1202.806, 545.728 1202.708, 546.723 1202.610, 547.718 1202.512, 548.714 1202.414, 549.709 1202.316, 550.704 1202.253, 551.341 1201.963, 552.298 1201.672, 553.255 1201.382, 554.212 1201.092, 555.169 1200.801, 556.126 1200.511, 557.083 1200.221, 558.040 1199.931, 558.997 1199.745, 559.609 1199.273, 560.491 1198.802, 561.373 1198.330, 562.255 1197.859, 563.137 1197.388, 564.019 1196.916, 564.901 1196.445, 565.783 1195.974, 566.665 1195.672, 567.230 1195.037, 568.003 1194.403, 568.776 1193.768, 569.549 1193.134, 570.322 1192.500, 571.095 1191.865, 571.868 1191.231, 572.641 1190.597, 573.414 1190.190, 573.909 1189.417, 574.543 1188.644, 575.177 1187.871, 575.812 1187.098, 576.446 1186.325, 577.081 1185.552, 577.715 1184.779, 578.349 1184.006, 578.984 1183.511, 579.390 1182.629, 579.861 1181.747, 580.333 1180.865, 580.804 1179.984, 581.276 1179.102, 581.747 1178.220, 582.218 1177.338, 582.690 1176.456, 583.161 1175.891, 583.463 1174.934, 583.753 1173.977, 584.044 1173.020, 584.334 1172.063, 584.624 1171.106, 584.914 1170.150, 585.205 1169.193, 585.495 1168.236, 585.785 1167.623, 585.971 1166.628, 586.069 1165.632, 586.167 1164.637, 586.265 1163.642, 586.363 1162.647, 586.461 1161.652, 586.559 1160.656, 586.657 1159.661, 586.755 1159.024, 586.818 1158.029, 586.720 1157.034, 586.622 1156.039, 586.524 1155.043, 586.426 1154.048, 586.328 1153.053, 586.230 1152.058, 586.132 1151.063, 586.034 1150.905, 586.018 " />
            <path fill="none" stroke-width="2.0000009536743164" stroke-linecap="butt" stroke-opacity="1.0" stroke="rgb(0, 0, 0)" stroke-linejoin="round" d=" M 904.912, 525.875 905.384, 524.994 905.855, 524.112 906.327, 523.230 906.798, 522.348 907.269, 521.466 907.741, 520.584 908.212, 519.702 908.684, 518.820 908.986, 518.255 909.620, 517.482 910.254, 516.709 910.889, 515.936 911.523, 515.163 912.157, 514.390 912.792, 513.617 913.426, 512.844 914.061, 512.071 914.467, 511.576 915.240, 510.942 916.013, 510.308 916.786, 509.673 917.559, 509.039 918.332, 508.404 919.105, 507.770 919.878, 507.136 920.651, 506.501 921.146, 506.095 922.028, 505.624 922.910, 505.152 923.792, 504.681 924.674, 504.209 925.556, 503.738 926.438, 503.267 927.319, 502.795 928.201, 502.324 928.766, 502.022 929.723, 501.732 930.680, 501.441 931.637, 501.151 932.594, 500.861 933.551, 500.570 934.508, 500.280 935.465, 499.990 936.422, 499.700 937.034, 499.514 938.029, 499.416 939.025, 499.318 940.020, 499.220 941.015, 499.122 942.010, 499.024 943.005, 498.926 944.001, 498.828 944.996, 498.730 945.633, 498.667 946.628, 498.765 947.623, 498.863 948.619, 498.961 949.614, 499.059 950.609, 499.157 951.604, 499.255 952.599, 499.353 953.595, 499.451 954.232, 499.514 955.189, 499.804 956.146, 500.094 957.103, 500.385 958.060, 500.675 959.017, 500.965 959.973, 501.255 960.930, 501.546 961.887, 501.836 962.500, 502.022 963.382, 502.493 964.264, 502.965 965.146, 503.436 966.028, 503.908 966.910, 504.379 967.792, 504.850 968.674, 505.322 969.555, 505.793 970.120, 506.095 970.893, 506.729 971.666, 507.364 972.439, 507.998 973.212, 508.633 973.985, 509.267 974.758, 509.901 975.531, 510.536 976.304, 511.170 976.799, 511.576 977.434, 512.349 978.068, 513.122 978.702, 513.895 979.337, 514.668 979.971, 515.441 980.606, 516.214 981.240, 516.987 981.874, 517.760 982.281, 518.255 982.752, 519.137 983.223, 520.019 983.695, 520.901 984.166, 521.783 984.638, 522.665 985.109, 523.547 985.580, 524.429 986.052, 525.311 986.354, 525.875 986.644, 526.832 986.934, 527.789 987.224, 528.746 987.515, 529.703 987.805, 530.660 988.095, 531.617 988.386, 532.574 988.676, 533.531 988.862, 534.144 988.960, 535.139 989.058, 536.134 989.156, 537.129 989.254, 538.125 989.352, 539.120 989.450, 540.115 989.548, 541.110 989.646, 542.105 989.709, 542.742 989.611, 543.738 989.513, 544.733 989.415, 545.728 989.317, 546.723 989.219, 547.718 989.121, 548.714 989.023, 549.709 988.925, 550.704 988.862, 551.341 988.572, 552.298 988.281, 553.255 987.991, 554.212 987.701, 555.169 987.410, 556.126 987.120, 557.083 986.830, 558.040 986.539, 558.997 986.354, 559.609 985.882, 560.491 985.411, 561.373 984.939, 562.255 984.468, 563.137 983.997, 564.019 983.525, 564.901 983.054, 565.783 982.582, 566.665 982.281, 567.230 981.646, 568.003 981.012, 568.776 980.377, 569.549 979.743, 570.322 979.109, 571.095 978.474, 571.868 977.840, 572.641 977.206, 573.414 976.799, 573.909 976.026, 574.543 975.253, 575.177 974.480, 575.812 973.707, 576.446 972.934, 577.081 972.161, 577.715 971.388, 578.349 970.615, 578.984 970.120, 579.390 969.238, 579.861 968.356, 580.333 967.474, 580.804 966.593, 581.276 965.711, 581.747 964.829, 582.218 963.947, 582.690 963.065, 583.161 962.500, 583.463 961.543, 583.753 960.586, 584.044 959.629, 584.334 958.672, 584.624 957.715, 584.915 956.758, 585.205 955.802, 585.495 954.845, 585.785 954.232, 585.971 953.237, 586.069 952.241, 586.167 951.246, 586.265 950.251, 586.363 949.256, 586.461 948.261, 586.559 947.266, 586.657 946.270, 586.755 945.633, 586.818 944.638, 586.720 943.643, 586.622 942.648, 586.524 941.652, 586.426 940.657, 586.328 939.662, 586.230 938.667, 586.132 937.672, 586.034 937.034, 585.971 936.077, 585.681 935.120, 585.391 934.164, 585.100 933.207, 584.810 932.250, 584.520 931.293, 584.230 930.336, 583.939 929.379, 583.649 928.766, 583.463 927.884, 582.992 927.002, 582.520 926.120, 582.049 925.238, 581.577 924.356, 581.106 923.475, 580.635 922.593, 580.163 921.711, 579.692 921.146, 579.390 920.373, 578.756 919.600, 578.121 918.827, 577.487 918.054, 576.852 917.281, 576.218 916.508, 575.584 915.735, 574.949 914.962, 574.315 914.467, 573.909 913.832, 573.136 913.198, 572.363 912.564, 571.590 911.929, 570.817 911.295, 570.044 910.661, 569.271 910.026, 568.498 909.392, 567.725 908.986, 567.230 908.514, 566.348 908.043, 565.466 907.571, 564.584 907.100, 563.702 906.629, 562.820 906.157, 561.938 905.686, 561.056 905.214, 560.174 904.912, 559.609 904.622, 558.653 904.332, 557.696 904.042, 556.739 903.751, 555.782 903.461, 554.825 903.171, 553.868 902.880, 552.911 902.590, 551.954 902.404, 551.341 902.306, 550.346 902.208, 549.351 902.110, 548.356 902.012, 547.360 901.914, 546.365 901.816, 545.370 901.718, 544.375 901.620, 543.380 901.557, 542.742 901.655, 541.747 901.753, 540.752 901.852, 539.757 901.949, 538.762 902.047, 537.767 902.146, 536.771 902.244, 535.776 902.342, 534.781 902.404, 534.144 902.695, 533.187 902.985, 532.230 903.275, 531.273 903.565, 530.316 903.856, 529.359 904.146, 528.402 904.436, 527.445 904.727, 526.488 904.912, 525.875 " />
            <path fill="none" stroke-width="2.0000009536743164" stroke-linecap="butt" stroke-opacity="1.0" stroke="rgb(0, 0, 0)" stroke-linejoin="round" d=" M 739.783, 499.410 740.740, 499.700 741.697, 499.990 742.654, 500.281 743.611, 500.571 744.568, 500.861 745.525, 501.151 746.482, 501.442 747.352, 501.705 748.234, 502.177 749.115, 502.648 749.997, 503.120 750.879, 503.591 751.761, 504.062 752.643, 504.534 753.525, 505.005 754.407, 505.477 755.035, 505.812 755.808, 506.447 756.581, 507.081 757.354, 507.716 758.127, 508.350 758.900, 508.984 759.673, 509.619 760.446, 510.253 761.219, 510.888 761.770, 511.339 762.404, 512.112 763.039, 512.885 763.673, 513.659 764.308, 514.432 764.942, 515.205 765.576, 515.978 766.211, 516.751 766.845, 517.524 767.297, 518.074 767.768, 518.956 768.240, 519.838 768.711, 520.720 769.183, 521.602 769.654, 522.484 770.125, 523.366 770.597, 524.248 771.068, 525.130 771.404, 525.758 771.694, 526.715 771.985, 527.672 772.275, 528.629 772.565, 529.586 772.855, 530.542 773.146, 531.499 773.436, 532.456 773.726, 533.413 773.933, 534.095 774.031, 535.090 774.129, 536.085 774.227, 537.081 774.325, 538.076 774.423, 539.071 774.521, 540.066 774.619, 541.061 774.717, 542.056 774.787, 542.765 774.689, 543.761 774.591, 544.756 774.493, 545.751 774.395, 546.746 774.297, 547.741 774.199, 548.737 774.101, 549.732 774.003, 550.727 773.933, 551.436 773.643, 552.393 773.353, 553.350 773.062, 554.307 772.772, 555.263 772.482, 556.220 772.191, 557.177 771.901, 558.134 771.611, 559.091 771.404, 559.773 770.933, 560.655 770.461, 561.537 769.990, 562.419 769.518, 563.301 769.047, 564.183 768.576, 565.064 768.104, 565.946 767.633, 566.828 767.297, 567.457 766.663, 568.230 766.028, 569.003 765.394, 569.776 764.760, 570.549 764.125, 571.322 763.491, 572.095 762.856, 572.868 762.222, 573.641 761.770, 574.191 760.997, 574.826 760.224, 575.460 759.451, 576.094 758.678, 576.729 757.905, 577.363 757.132, 577.998 756.359, 578.632 755.586, 579.266 755.035, 579.718 754.153, 580.190 753.271, 580.661 752.389, 581.132 751.508, 581.604 750.626, 582.075 749.744, 582.547 748.862, 583.018 747.980, 583.489 747.352, 583.825 746.395, 584.116 745.438, 584.406 744.481, 584.696 743.524, 584.986 742.567, 585.277 741.610, 585.567 740.653, 585.857 740.006, 586.053 " />
            <path fill="none" stroke-width="2.0000009536743164" stroke-linecap="butt" stroke-opacity="1.0" stroke="rgb(0, 0, 0)" stroke-linejoin="round" d=" M 1150.905, 586.018 1149.948, 585.728 1148.991, 585.438 1148.034, 585.148 1147.077, 584.857 1146.120, 584.567 1145.163, 584.277 1144.207, 583.986 1143.675, 583.825 1142.793, 583.354 1141.911, 582.882 1141.029, 582.411 1140.147, 581.940 1139.265, 581.468 1138.384, 580.997 1137.502, 580.525 1136.620, 580.054 1135.991, 579.718 1135.218, 579.084 1134.445, 578.449 1133.672, 577.815 1132.899, 577.181 1132.126, 576.546 1131.353, 575.912 1130.580, 575.278 1129.807, 574.643 1129.257, 574.191 1128.622, 573.418 1127.988, 572.645 1127.354, 571.872 1126.719, 571.099 1126.085, 570.326 1125.450, 569.553 1124.816, 568.780 1124.182, 568.007 1123.730, 567.457 1123.258, 566.575 1122.787, 565.693 1122.315, 564.811 1121.844, 563.929 1121.373, 563.047 1120.901, 562.165 1120.430, 561.283 1119.958, 560.401 1119.623, 559.773 1119.332, 558.816 1119.042, 557.859 1118.752, 556.902 1118.462, 555.945 1118.171, 554.988 1117.881, 554.031 1117.591, 553.074 1117.300, 552.117 1117.094, 551.436 1116.996, 550.441 1116.898, 549.445 1116.800, 548.450 1116.702, 547.455 1116.604, 546.460 1116.505, 545.465 1116.407, 544.469 1116.309, 543.474 1116.240, 542.765 1116.338, 541.770 1116.436, 540.775 1116.534, 539.780 1116.632, 538.785 1116.730, 537.789 1116.828, 536.794 1116.926, 535.799 1117.024, 534.804 1117.094, 534.095 1117.384, 533.138 1117.674, 532.181 1117.964, 531.224 1118.255, 530.267 1118.545, 529.310 1118.835, 528.353 1119.126, 527.396 1119.416, 526.439 1119.623, 525.758 1120.094, 524.876 1120.565, 523.994 1121.037, 523.112 1121.508, 522.230 1121.980, 521.348 1122.451, 520.466 1122.922, 519.584 1123.394, 518.702 1123.730, 518.074 1124.364, 517.301 1124.998, 516.528 1125.633, 515.755 1126.267, 514.982 1126.902, 514.209 1127.536, 513.436 1128.170, 512.663 1128.805, 511.890 1129.257, 511.339 1130.030, 510.705 1130.803, 510.071 1131.576, 509.436 1132.349, 508.802 1133.122, 508.167 1133.895, 507.533 1134.668, 506.899 1135.441, 506.264 1135.991, 505.812 1136.873, 505.341 1137.755, 504.870 1138.637, 504.398 1139.519, 503.927 1140.401, 503.455 1141.283, 502.984 1142.165, 502.513 1143.047, 502.041 1143.675, 501.705 1144.632, 501.415 1145.589, 501.125 1146.546, 500.835 1147.503, 500.544 1148.460, 500.254 1149.417, 499.964 1150.374, 499.673 1151.128, 499.445 " />
            <path fill="none" stroke-width="2.0000009536743164" stroke-linecap="butt" stroke-opacity="1.0" stroke="rgb(0, 0, 0)" stroke-linejoin="round" d=" M 522.481, 703.626 522.481, 703.871 522.983, 703.871 " />
            <path fill="none" stroke-width="2.0000009536743164" stroke-linecap="butt" stroke-opacity="1.0" stroke="rgb(0, 0, 0)" stroke-linejoin="round" d=" M 677.968, 754.650 678.024, 754.608 678.348, 753.662 678.672, 752.715 678.996, 751.769 679.320, 750.823 679.644, 749.877 679.968, 748.931 680.291, 747.985 680.615, 747.039 680.939, 746.093 681.263, 745.147 681.587, 744.201 681.911, 743.255 682.235, 742.309 682.559, 741.362 682.883, 740.416 683.207, 739.470 683.531, 738.524 683.754, 737.873 " />
            <path fill="none" stroke-width="2.0000009536743164" stroke-linecap="butt" stroke-opacity="1.0" stroke="rgb(0, 0, 0)" stroke-linejoin="round" d=" M 522.983, 703.871 522.907, 704.092 523.853, 704.416 524.799, 704.740 525.745, 705.064 526.691, 705.388 527.637, 705.712 528.461, 705.994 " />
            <path fill="none" stroke-width="2.0000009536743164" stroke-linecap="butt" stroke-opacity="1.0" stroke="rgb(0, 0, 0)" stroke-linejoin="round" d=" M 880.347, 803.185 880.023, 804.131 879.699, 805.077 879.375, 806.023 879.051, 806.970 878.727, 807.916 878.404, 808.862 878.080, 809.808 877.756, 810.754 877.432, 811.700 877.108, 812.646 876.784, 813.592 876.460, 814.538 876.136, 815.484 875.812, 816.430 875.488, 817.377 875.164, 818.323 874.840, 819.269 874.517, 820.215 874.370, 820.641 874.079, 821.598 873.787, 822.554 873.657, 822.980 873.791, 823.026 " />
            <path fill="none" stroke-width="2.0000009536743164" stroke-linecap="butt" stroke-opacity="1.0" stroke="rgb(0, 0, 0)" stroke-linejoin="round" d=" M 1207.393, 911.836 1207.069, 912.782 1206.745, 913.728 1206.421, 914.674 1206.097, 915.620 1205.773, 916.566 1205.449, 917.512 1205.125, 918.459 1204.801, 919.405 1204.477, 920.351 1204.153, 921.297 1203.829, 922.243 1203.505, 923.189 1203.182, 924.135 1202.858, 925.081 1202.534, 926.027 1202.210, 926.973 1202.039, 927.473 1202.225, 927.771 " />
            <path fill="none" stroke-width="2.0000009536743164" stroke-linecap="butt" stroke-opacity="1.0" stroke="rgb(0, 0, 0)" stroke-linejoin="round" d=" M 1330.623, 973.494 1331.273, 974.255 1331.642, 974.686 1332.642, 974.686 1333.642, 974.686 1334.642, 974.686 1335.642, 974.686 1336.642, 974.686 1337.642, 974.686 1338.642, 974.686 1339.642, 974.686 1340.642, 974.686 1341.642, 974.686 1342.642, 974.686 1343.642, 974.686 1344.642, 974.686 1345.642, 974.686 1346.642, 974.686 1347.642, 974.686 1348.642, 974.686 1349.642, 974.686 1350.642, 974.686 1351.642, 974.686 1352.642, 974.686 1353.863, 974.686 1353.863, 974.494 " />
            <path fill="none" stroke-width="2.0000009536743164" stroke-linecap="butt" stroke-opacity="1.0" stroke="rgb(0, 0, 0)" stroke-linejoin="round" d=" M 1337.708, 246.618 1338.708, 246.618 1339.708, 246.618 1340.708, 246.618 1341.708, 246.618 1342.708, 246.618 1343.708, 246.618 1344.708, 246.618 1345.708, 246.618 1346.708, 246.618 1347.708, 246.618 1348.708, 246.618 1349.708, 246.618 1350.608, 246.618 1351.408, 246.017 1351.690, 245.805 " />
            <path fill="none" stroke-width="2.0000009536743164" stroke-linecap="butt" stroke-opacity="1.0" stroke="rgb(0, 0, 0)" stroke-linejoin="round" d=" M 1345.129, 110.844 1344.129, 110.844 1343.129, 110.844 1342.129, 110.844 1341.129, 110.844 1340.129, 110.844 1339.129, 110.844 1338.129, 110.844 1337.129, 110.844 1336.129, 110.844 1335.129, 110.844 1334.129, 110.844 1333.129, 110.844 1332.129, 110.844 1331.642, 110.844 1330.987, 111.600 1330.923, 111.674 " />
            <path fill="none" stroke-width="2.0000009536743164" stroke-linecap="butt" stroke-opacity="1.0" stroke="rgb(0, 0, 0)" stroke-linejoin="round" d=" M 1202.500, 157.284 1202.039, 158.012 1202.363, 158.958 1202.687, 159.904 1203.011, 160.850 1203.334, 161.796 1203.658, 162.742 1203.982, 163.689 1204.306, 164.635 1204.630, 165.581 1204.954, 166.527 1205.278, 167.473 1205.602, 168.419 1205.926, 169.365 1206.250, 170.311 1206.574, 171.257 1206.898, 172.203 1207.222, 173.149 1207.407, 173.690 " />
            <path fill="none" stroke-width="2.0000009536743164" stroke-linecap="butt" stroke-opacity="1.0" stroke="rgb(0, 0, 0)" stroke-linejoin="round" d=" M 874.298, 262.330 873.653, 262.551 873.950, 263.506 874.247, 264.460 874.366, 264.844 874.690, 265.790 875.014, 266.736 875.338, 267.682 875.662, 268.628 875.986, 269.574 876.310, 270.520 876.634, 271.466 876.958, 272.412 877.282, 273.358 877.606, 274.305 877.930, 275.251 878.253, 276.197 878.577, 277.143 878.901, 278.089 879.225, 279.035 879.549, 279.981 879.873, 280.927 880.197, 281.873 880.357, 282.342 " />
            <path fill="none" stroke-width="2.0000009536743164" stroke-linecap="butt" stroke-opacity="1.0" stroke="rgb(0, 0, 0)" stroke-linejoin="round" d=" M 525.232, 493.064 526.096, 493.157 527.096, 493.157 528.096, 493.157 529.096, 493.157 530.096, 493.157 531.096, 493.157 532.096, 493.157 533.096, 493.157 534.096, 493.157 535.096, 493.157 536.096, 493.157 537.096, 493.157 537.736, 493.157 " />
            <path fill="none" stroke-width="2.0000009536743164" stroke-linecap="butt" stroke-opacity="1.0" stroke="rgb(0, 0, 0)" stroke-linejoin="round" d=" M 529.809, 379.076 528.863, 379.400 527.917, 379.724 526.971, 380.048 526.025, 380.372 525.078, 380.696 524.132, 381.020 523.186, 381.343 522.907, 381.439 522.950, 381.566 " />
            <path fill="none" stroke-width="2.0000009536743164" stroke-linecap="butt" stroke-opacity="1.0" stroke="rgb(0, 0, 0)" stroke-linejoin="round" d=" M 1330.923, 111.674 1330.611, 110.724 1330.299, 109.774 1329.987, 108.824 1329.675, 107.874 1329.363, 106.924 1329.050, 105.974 1328.738, 105.023 1328.426, 104.073 1328.114, 103.123 1327.802, 102.173 1327.490, 101.223 1327.177, 100.273 1326.865, 99.323 1326.553, 98.373 1326.241, 97.423 1325.929, 96.473 1325.617, 95.523 1325.304, 94.573 1325.154, 94.115 1324.204, 94.427 1323.254, 94.740 1322.304, 95.052 1321.354, 95.364 1320.404, 95.676 1319.454, 95.988 1318.504, 96.300 1317.554, 96.613 1316.604, 96.925 1315.654, 97.237 1314.704, 97.549 1313.754, 97.861 1312.803, 98.173 1311.854, 98.486 1310.903, 98.798 1309.953, 99.110 1309.003, 99.422 1308.053, 99.734 1307.103, 100.046 1306.153, 100.359 1305.203, 100.671 1304.253, 100.983 1303.303, 101.295 1302.353, 101.607 1301.403, 101.919 1300.453, 102.232 1299.503, 102.544 1298.553, 102.856 1297.603, 103.168 1296.653, 103.480 1295.703, 103.792 1294.753, 104.105 1293.803, 104.417 1292.853, 104.729 1291.903, 105.041 1290.953, 105.353 1290.003, 105.665 1289.053, 105.978 1288.103, 106.290 1287.153, 106.602 1286.203, 106.914 1285.253, 107.226 1284.303, 107.538 1283.353, 107.851 1282.403, 108.163 1281.453, 108.475 1280.503, 108.787 1279.553, 109.099 1278.603, 109.411 1277.653, 109.724 1276.703, 110.036 1275.752, 110.348 1274.802, 110.660 1273.852, 110.972 1272.902, 111.284 1271.952, 111.597 1271.002, 111.909 1270.052, 112.221 1269.102, 112.533 1268.152, 112.845 1267.202, 113.157 1266.252, 113.470 1265.302, 113.782 1264.352, 114.094 1263.402, 114.406 1262.452, 114.718 1261.502, 115.031 1260.552, 115.343 1259.602, 115.655 1258.652, 115.967 1257.702, 116.279 1256.752, 116.591 1255.802, 116.904 1254.852, 117.216 1253.902, 117.528 1252.952, 117.840 1252.002, 118.152 1251.052, 118.464 1250.102, 118.777 1249.152, 119.089 1248.202, 119.401 1247.252, 119.713 1246.302, 120.025 1245.352, 120.337 1244.402, 120.650 1243.452, 120.962 1242.502, 121.274 1241.552, 121.586 1240.601, 121.898 1239.651, 122.210 1238.701, 122.523 1237.751, 122.835 1236.801, 123.147 1235.851, 123.459 1234.901, 123.771 1233.951, 124.083 1233.001, 124.396 1232.051, 124.708 1231.101, 125.020 1230.151, 125.332 1229.201, 125.644 1228.251, 125.956 1227.301, 126.269 1226.351, 126.581 1225.401, 126.893 1224.451, 127.205 1223.501, 127.517 1222.551, 127.829 1221.601, 128.142 1220.651, 128.454 1219.701, 128.766 1218.751, 129.078 1217.801, 129.390 1216.851, 129.702 1215.901, 130.015 1214.951, 130.327 1214.001, 130.639 1213.051, 130.951 1212.101, 131.263 1211.151, 131.575 1210.201, 131.888 1209.251, 132.200 1208.301, 132.512 1207.351, 132.824 1206.401, 133.136 1205.451, 133.448 1204.500, 133.761 1203.550, 134.073 1202.600, 134.385 1201.650, 134.697 1200.700, 135.009 1198.488, 135.736 1197.980, 136.598 1197.472, 137.459 1196.964, 138.320 1196.517, 139.077 1196.829, 140.027 1197.141, 140.977 1197.454, 141.927 1197.766, 142.877 1198.078, 143.827 1198.390, 144.777 1198.702, 145.727 1199.015, 146.677 1199.327, 147.627 1199.639, 148.577 1199.951, 149.527 1200.263, 150.477 1200.575, 151.428 1200.887, 152.378 1201.200, 153.328 1201.512, 154.278 1201.824, 155.228 1202.136, 156.178 1202.500, 157.284 " />
            <path fill="none" stroke-width="2.0000009536743164" stroke-linecap="butt" stroke-opacity="1.0" stroke="rgb(0, 0, 0)" stroke-linejoin="round" d=" M 1351.690, 245.805 1352.690, 245.805 1353.690, 245.805 1354.690, 245.805 1355.690, 245.805 1356.690, 245.805 1357.690, 245.805 1358.690, 245.805 1359.690, 245.805 1360.690, 245.805 1361.690, 245.805 1362.690, 245.805 1363.690, 245.805 1364.714, 245.805 1365.523, 245.217 1366.332, 244.629 1367.141, 244.041 1367.949, 243.453 1368.086, 243.353 1368.086, 242.353 1368.086, 241.353 1368.086, 240.353 1368.086, 239.353 1368.086, 238.353 1368.086, 237.353 1368.086, 236.353 1368.086, 235.353 1368.086, 234.353 1368.086, 233.353 1368.086, 232.353 1368.086, 231.353 1368.086, 230.353 1368.086, 229.353 1368.086, 228.353 1368.086, 227.353 1368.086, 226.353 1368.086, 225.353 1368.086, 224.353 1368.086, 223.353 1368.086, 222.353 1368.086, 221.353 1368.086, 220.353 1368.086, 219.353 1368.086, 218.353 1368.086, 217.353 1368.086, 216.353 1368.086, 215.353 1368.086, 214.353 1368.086, 213.353 1368.086, 212.353 1368.086, 211.353 1368.086, 210.353 1368.086, 209.353 1368.086, 208.353 1368.086, 207.353 1368.086, 206.353 1368.086, 205.353 1368.086, 204.353 1368.086, 203.353 1368.086, 202.353 1368.086, 201.353 1368.086, 200.353 1368.086, 199.353 1368.086, 198.353 1368.086, 197.353 1368.086, 196.353 1368.086, 195.353 1368.086, 194.353 1368.086, 193.353 1368.086, 192.353 1368.086, 191.353 1368.086, 190.353 1368.086, 189.353 1368.086, 188.353 1368.086, 187.353 1368.086, 186.353 1368.086, 185.353 1368.086, 184.353 1368.086, 183.353 1368.086, 182.353 1368.086, 181.353 1368.086, 180.353 1368.086, 179.353 1368.086, 178.353 1368.086, 177.353 1368.086, 176.353 1368.086, 175.353 1368.086, 174.353 1368.086, 173.353 1368.086, 172.353 1368.086, 171.353 1368.086, 170.353 1368.086, 169.353 1368.086, 168.353 1368.086, 167.353 1368.086, 166.353 1368.086, 165.353 1368.086, 164.353 1368.086, 163.353 1368.086, 162.353 1368.086, 161.353 1368.086, 160.353 1368.086, 159.353 1368.086, 158.353 1368.086, 157.353 1368.086, 156.353 1368.086, 155.353 1368.086, 154.353 1368.086, 153.353 1368.086, 152.353 1368.086, 151.353 1368.086, 150.353 1368.086, 149.353 1368.086, 148.353 1368.086, 147.353 1368.086, 146.353 1368.086, 145.353 1368.086, 144.353 1368.086, 143.353 1368.086, 142.353 1368.086, 141.353 1368.086, 140.353 1368.086, 139.353 1368.086, 138.353 1368.086, 137.353 1368.086, 136.353 1368.086, 135.353 1368.086, 134.353 1368.086, 133.353 1368.086, 132.353 1368.086, 131.353 1368.086, 130.353 1368.086, 129.353 1368.086, 128.353 1368.086, 127.353 1368.086, 126.353 1368.086, 125.353 1368.086, 124.353 1368.086, 123.353 1368.086, 122.353 1368.086, 121.353 1368.086, 120.353 1368.086, 119.353 1368.086, 118.353 1368.086, 117.353 1368.086, 116.353 1368.086, 115.353 1368.086, 114.353 1368.086, 113.353 1368.086, 112.353 1368.086, 110.025 1367.086, 110.025 1366.086, 110.025 1365.086, 110.025 1364.086, 110.025 1363.086, 110.025 1362.086, 110.025 1361.086, 110.025 1360.086, 110.025 1359.086, 110.025 1358.086, 110.025 1357.086, 110.025 1356.086, 110.025 1355.086, 110.025 1354.086, 110.025 1353.086, 110.025 1352.086, 110.025 1351.086, 110.025 1350.086, 110.025 1349.086, 110.025 1348.086, 110.025 1347.086, 110.025 1345.865, 110.025 1345.197, 110.769 1345.129, 110.844 " />
            <path fill="none" stroke-width="2.0000009536743164" stroke-linecap="butt" stroke-opacity="1.0" stroke="rgb(0, 0, 0)" stroke-linejoin="round" d=" M 1343.910, 609.430 1344.894, 609.608 1345.865, 609.783 1346.865, 609.783 1347.865, 609.783 1348.865, 609.783 1349.865, 609.783 1350.865, 609.783 1351.865, 609.783 1352.865, 609.783 1353.865, 609.783 1354.865, 609.783 1355.865, 609.783 1356.865, 609.783 1357.865, 609.783 1358.865, 609.783 1359.865, 609.783 1360.865, 609.783 1361.865, 609.783 1362.865, 609.783 1363.865, 609.783 1364.865, 609.783 1365.865, 609.783 1366.865, 609.783 1368.086, 609.783 1368.086, 608.783 1368.086, 607.783 1368.086, 606.783 1368.086, 605.783 1368.086, 604.783 1368.086, 603.783 1368.086, 602.783 1368.086, 601.783 1368.086, 600.783 1368.086, 599.783 1368.086, 598.783 1368.086, 597.783 1368.086, 596.783 1368.086, 595.783 1368.086, 594.783 1368.086, 593.783 1368.086, 592.783 1368.086, 591.783 1368.086, 590.783 1368.086, 589.783 1368.086, 588.783 1368.086, 587.783 1368.086, 586.783 1368.086, 585.783 1368.086, 584.783 1368.086, 583.783 1368.086, 582.783 1368.086, 581.783 1368.086, 580.783 1368.086, 579.783 1368.086, 578.783 1368.086, 577.783 1368.086, 576.783 1368.086, 575.783 1368.086, 574.783 1368.086, 573.783 1368.086, 572.783 1368.086, 571.783 1368.086, 570.783 1368.086, 569.783 1368.086, 568.783 1368.086, 567.783 1368.086, 566.783 1368.086, 565.783 1368.086, 564.783 1368.086, 563.783 1368.086, 562.783 1368.086, 561.783 1368.086, 560.783 1368.086, 559.783 1368.086, 558.783 1368.086, 557.783 1368.086, 556.783 1368.086, 555.783 1368.086, 554.783 1368.086, 553.783 1368.086, 552.783 1368.086, 551.783 1368.086, 550.783 1368.086, 549.783 1368.086, 548.783 1368.086, 547.783 1368.086, 546.783 1368.086, 545.783 1368.086, 544.783 1368.086, 543.783 1368.086, 542.783 1368.086, 541.783 1368.086, 540.783 1368.086, 539.783 1368.086, 538.783 1368.086, 537.783 1368.086, 536.783 1368.086, 535.783 1368.086, 534.783 1368.086, 533.783 1368.086, 532.783 1368.086, 531.783 1368.086, 530.783 1368.086, 529.783 1368.086, 528.783 1368.086, 527.783 1368.086, 526.783 1368.086, 525.783 1368.086, 524.783 1368.086, 523.783 1368.086, 522.783 1368.086, 521.783 1368.086, 520.783 1368.086, 519.783 1368.086, 518.783 1368.086, 517.783 1368.086, 516.783 1368.086, 515.783 1368.086, 514.783 1368.086, 513.783 1368.086, 512.783 1368.086, 511.783 1368.086, 510.783 1368.086, 509.783 1368.086, 508.783 1368.086, 507.783 1368.086, 506.783 1368.086, 505.783 1368.086, 504.783 1368.086, 503.783 1368.086, 502.783 1368.086, 501.783 1368.086, 500.783 1368.086, 499.783 1368.086, 498.783 1368.086, 497.783 1368.086, 496.783 1368.086, 495.783 1368.086, 494.783 1368.086, 493.783 1368.086, 492.783 1368.086, 491.783 1368.086, 490.783 1368.086, 489.783 1368.086, 488.783 1368.086, 487.783 1368.086, 486.783 1368.086, 485.783 1368.086, 484.783 1368.086, 483.783 1368.086, 482.783 1368.086, 481.783 1368.086, 480.783 1368.086, 479.783 1368.086, 478.783 1368.086, 476.454 1367.086, 476.454 1366.086, 476.454 1365.086, 476.454 1364.086, 476.454 1363.086, 476.454 1362.086, 476.454 1361.086, 476.454 1360.086, 476.454 1359.086, 476.454 1358.086, 476.454 1357.086, 476.454 1356.086, 476.454 1355.086, 476.454 1354.086, 476.454 1353.863, 476.454 " />
            <path fill="none" stroke-width="2.0000009536743164" stroke-linecap="butt" stroke-opacity="1.0" stroke="rgb(0, 0, 0)" stroke-linejoin="round" d=" M 1353.863, 974.494 1354.863, 974.494 1355.863, 974.494 1356.863, 974.494 1357.863, 974.494 1358.863, 974.494 1359.863, 974.494 1360.863, 974.494 1361.863, 974.494 1362.863, 974.494 1363.863, 974.494 1364.863, 974.494 1365.863, 974.494 1366.863, 974.494 1367.863, 974.494 1368.086, 974.494 1368.086, 973.494 1368.086, 972.494 1368.086, 971.494 1368.086, 970.494 1368.086, 969.494 1368.086, 968.494 1368.086, 967.494 1368.086, 966.494 1368.086, 965.494 1368.086, 964.494 1368.086, 963.494 1368.086, 962.494 1368.086, 961.494 1368.086, 960.494 1368.086, 959.494 1368.086, 958.494 1368.086, 957.494 1368.086, 956.494 1368.086, 955.494 1368.086, 954.494 1368.086, 953.494 1368.086, 952.494 1368.086, 951.494 1368.086, 950.494 1368.086, 949.494 1368.086, 948.494 1368.086, 947.494 1368.086, 946.494 1368.086, 945.494 1368.086, 944.494 1368.086, 943.494 1368.086, 942.494 1368.086, 941.494 1368.086, 940.494 1368.086, 939.494 1368.086, 938.494 1368.086, 937.494 1368.086, 936.494 1368.086, 935.494 1368.086, 934.494 1368.086, 933.494 1368.086, 932.494 1368.086, 931.494 1368.086, 930.494 1368.086, 929.494 1368.086, 928.494 1368.086, 927.494 1368.086, 926.494 1368.086, 925.494 1368.086, 924.494 1368.086, 923.494 1368.086, 922.494 1368.086, 921.494 1368.086, 920.494 1368.086, 919.494 1368.086, 918.494 1368.086, 917.494 1368.086, 916.494 1368.086, 915.494 1368.086, 914.494 1368.086, 913.494 1368.086, 912.494 1368.086, 911.494 1368.086, 910.494 1368.086, 909.494 1368.086, 908.494 1368.086, 907.494 1368.086, 906.494 1368.086, 905.494 1368.086, 904.494 1368.086, 903.494 1368.086, 902.494 1368.086, 901.494 1368.086, 900.494 1368.086, 899.494 1368.086, 898.494 1368.086, 897.494 1368.086, 896.494 1368.086, 895.494 1368.086, 894.494 1368.086, 893.494 1368.086, 892.494 1368.086, 891.494 1368.086, 890.494 1368.086, 889.494 1368.086, 888.494 1368.086, 887.494 1368.086, 886.494 1368.086, 885.494 1368.086, 884.494 1368.086, 883.494 1368.086, 882.494 1368.086, 881.494 1368.086, 880.494 1368.086, 879.494 1368.086, 878.494 1368.086, 877.494 1368.086, 876.494 1368.086, 875.494 1368.086, 874.494 1368.086, 873.494 1368.086, 872.494 1368.086, 871.494 1368.086, 870.494 1368.086, 869.494 1368.086, 868.494 1368.086, 867.494 1368.086, 866.494 1368.086, 865.494 1368.086, 864.494 1368.086, 863.494 1368.086, 862.494 1368.086, 861.494 1368.086, 860.494 1368.086, 859.494 1368.086, 858.494 1368.086, 857.494 1368.086, 856.494 1368.086, 855.494 1368.086, 854.494 1368.086, 853.494 1368.086, 852.494 1368.086, 851.494 1368.086, 850.494 1368.086, 849.494 1368.086, 848.494 1368.086, 847.494 1368.086, 846.494 1368.086, 845.494 1368.086, 844.494 1368.086, 843.494 1368.086, 841.166 1367.282, 840.572 1366.477, 839.978 1365.673, 839.384 1364.868, 838.791 1364.714, 838.677 1363.714, 838.677 1362.714, 838.677 1361.714, 838.677 1360.714, 838.677 1359.714, 838.677 1358.714, 838.677 1357.714, 838.677 1356.714, 838.677 1355.714, 838.677 1354.714, 838.677 1353.714, 838.677 1352.714, 838.677 1351.714, 838.677 1350.714, 838.677 1349.714, 838.677 1348.714, 838.677 1347.714, 838.677 1346.714, 838.677 1345.714, 838.677 1344.714, 838.677 1343.714, 838.677 1342.676, 838.677 1342.676, 838.867 " />
            <path fill="none" stroke-width="2.0000009536743164" stroke-linecap="butt" stroke-opacity="1.0" stroke="rgb(0, 0, 0)" stroke-linejoin="round" d=" M 873.791, 823.026 873.479, 823.976 873.167, 824.926 872.855, 825.876 872.542, 826.826 872.230, 827.776 871.918, 828.726 871.606, 829.676 871.294, 830.626 870.982, 831.576 870.669, 832.526 870.357, 833.476 870.045, 834.426 869.741, 835.353 869.448, 836.310 869.156, 837.266 868.988, 837.814 869.938, 838.127 870.888, 838.439 871.839, 838.751 872.789, 839.063 873.739, 839.375 874.689, 839.687 875.639, 840.000 876.589, 840.312 877.539, 840.624 878.489, 840.936 879.439, 841.248 880.389, 841.560 881.339, 841.873 882.289, 842.185 883.239, 842.497 884.189, 842.809 885.139, 843.121 886.089, 843.433 887.039, 843.746 887.989, 844.058 888.939, 844.370 889.889, 844.682 890.839, 844.994 891.789, 845.306 892.739, 845.619 893.689, 845.931 894.639, 846.243 895.589, 846.555 896.539, 846.867 897.489, 847.179 898.439, 847.492 899.389, 847.804 900.339, 848.116 901.289, 848.428 902.239, 848.740 903.189, 849.052 904.139, 849.365 905.089, 849.677 906.039, 849.989 906.990, 850.301 907.940, 850.613 908.890, 850.925 909.840, 851.238 910.790, 851.550 911.740, 851.862 912.690, 852.174 913.640, 852.486 914.590, 852.798 915.540, 853.111 916.490, 853.423 917.440, 853.735 918.390, 854.047 919.340, 854.359 920.290, 854.672 921.240, 854.984 922.190, 855.296 923.140, 855.608 924.090, 855.920 925.040, 856.232 925.990, 856.545 926.940, 856.857 927.890, 857.169 928.840, 857.481 929.790, 857.793 930.740, 858.105 931.690, 858.418 932.640, 858.730 933.590, 859.042 934.540, 859.354 935.490, 859.666 936.440, 859.978 937.390, 860.291 938.340, 860.603 939.290, 860.915 940.240, 861.227 941.190, 861.539 942.141, 861.851 943.091, 862.164 944.041, 862.476 944.991, 862.788 945.941, 863.100 946.891, 863.412 947.841, 863.724 948.791, 864.037 949.741, 864.349 950.691, 864.661 951.641, 864.973 952.591, 865.285 953.541, 865.597 954.491, 865.910 955.441, 866.222 956.391, 866.534 957.341, 866.846 958.291, 867.158 959.241, 867.470 960.191, 867.783 961.141, 868.095 962.091, 868.407 963.041, 868.719 963.991, 869.031 964.941, 869.343 965.891, 869.656 966.841, 869.968 967.791, 870.280 968.741, 870.592 969.691, 870.904 970.641, 871.216 971.591, 871.529 972.541, 871.841 973.491, 872.153 974.441, 872.465 975.391, 872.777 976.341, 873.089 977.291, 873.402 978.242, 873.714 979.192, 874.026 980.142, 874.338 981.092, 874.650 982.042, 874.963 982.992, 875.275 983.942, 875.587 984.892, 875.899 985.842, 876.211 986.792, 876.523 987.742, 876.836 988.692, 877.148 989.642, 877.460 990.592, 877.772 991.542, 878.084 992.492, 878.396 993.442, 878.709 995.654, 879.435 995.966, 878.485 996.279, 877.535 996.591, 876.585 996.903, 875.635 997.215, 874.685 997.527, 873.735 997.839, 872.785 998.152, 871.835 998.464, 870.885 998.776, 869.935 999.088, 868.985 999.400, 868.035 999.712, 867.085 1000.025, 866.135 1000.337, 865.185 1000.649, 864.235 1000.961, 863.285 1001.273, 862.335 1001.586, 861.385 1001.898, 860.435 1002.210, 859.485 1002.591, 858.325 1002.561, 858.096 " />
            <path fill="none" stroke-width="2.0000009536743164" stroke-linecap="butt" stroke-opacity="1.0" stroke="rgb(0, 0, 0)" stroke-linejoin="round" d=" M 528.461, 705.994 528.149, 706.944 527.837, 707.894 527.525, 708.844 527.213, 709.794 526.900, 710.744 526.588, 711.694 526.276, 712.644 525.964, 713.594 525.652, 714.544 525.340, 715.494 525.027, 716.444 524.715, 717.394 524.403, 718.344 524.091, 719.294 523.992, 719.596 524.942, 719.908 525.892, 720.220 526.842, 720.532 527.792, 720.844 528.742, 721.157 529.692, 721.469 530.642, 721.781 531.592, 722.093 532.542, 722.405 533.492, 722.717 534.442, 723.030 535.392, 723.342 536.342, 723.654 537.292, 723.966 538.242, 724.278 539.192, 724.590 540.142, 724.903 541.092, 725.215 542.042, 725.527 542.992, 725.839 543.942, 726.151 544.892, 726.463 545.842, 726.776 546.792, 727.088 547.742, 727.400 548.692, 727.712 549.642, 728.024 550.592, 728.336 551.543, 728.649 552.493, 728.961 553.443, 729.273 554.393, 729.585 555.343, 729.897 556.293, 730.210 557.243, 730.522 558.193, 730.834 559.143, 731.146 560.093, 731.458 561.043, 731.770 561.993, 732.083 562.943, 732.395 563.893, 732.707 564.843, 733.019 565.793, 733.331 566.743, 733.643 567.693, 733.956 568.643, 734.268 569.593, 734.580 570.543, 734.892 571.493, 735.204 572.443, 735.516 573.393, 735.829 574.343, 736.141 575.293, 736.453 576.243, 736.765 577.193, 737.077 578.143, 737.389 579.093, 737.702 580.043, 738.014 580.993, 738.326 581.943, 738.638 582.893, 738.950 583.843, 739.262 584.793, 739.575 585.743, 739.887 586.693, 740.199 587.644, 740.511 588.594, 740.823 589.544, 741.135 590.494, 741.448 591.444, 741.760 592.394, 742.072 593.344, 742.384 594.294, 742.696 595.244, 743.008 596.194, 743.321 597.144, 743.633 598.094, 743.945 599.044, 744.257 599.994, 744.569 600.944, 744.881 601.894, 745.194 602.844, 745.506 603.794, 745.818 604.744, 746.130 605.694, 746.442 606.644, 746.754 607.594, 747.067 608.544, 747.379 609.494, 747.691 610.444, 748.003 611.394, 748.315 612.344, 748.627 613.294, 748.940 614.244, 749.252 615.194, 749.564 616.144, 749.876 617.094, 750.188 618.044, 750.500 618.994, 750.813 619.944, 751.125 620.894, 751.437 621.844, 751.749 622.794, 752.061 623.745, 752.374 624.695, 752.686 625.645, 752.998 626.595, 753.310 627.545, 753.622 628.495, 753.934 629.445, 754.247 630.395, 754.559 631.345, 754.871 632.295, 755.183 633.245, 755.495 634.195, 755.807 635.145, 756.120 636.095, 756.432 637.045, 756.744 637.995, 757.056 638.945, 757.368 639.895, 757.680 640.845, 757.993 641.795, 758.305 642.745, 758.617 643.695, 758.929 644.645, 759.241 645.595, 759.553 646.545, 759.866 647.495, 760.178 648.445, 760.490 649.395, 760.802 650.345, 761.114 651.295, 761.426 652.245, 761.739 653.195, 762.051 654.145, 762.363 655.095, 762.675 656.045, 762.987 656.995, 763.299 657.945, 763.612 658.896, 763.924 659.846, 764.236 660.796, 764.548 661.746, 764.860 662.696, 765.172 663.646, 765.485 664.596, 765.797 665.546, 766.109 666.496, 766.421 667.446, 766.733 668.396, 767.045 669.346, 767.358 671.769, 768.154 672.553, 767.533 673.337, 766.912 674.121, 766.292 674.151, 766.268 674.463, 765.318 674.775, 764.368 675.087, 763.418 675.399, 762.468 675.711, 761.518 676.024, 760.568 676.336, 759.618 676.648, 758.668 676.960, 757.718 677.272, 756.768 677.584, 755.818 677.897, 754.868 677.968, 754.650 " />
            <path fill="none" stroke-width="2.0000009536743164" stroke-linecap="butt" stroke-opacity="1.0" stroke="rgb(0, 0, 0)" stroke-linejoin="round" d=" M 537.237, 592.328 537.237, 592.085 536.237, 592.085 535.237, 592.085 534.237, 592.085 533.237, 592.085 532.237, 592.085 531.237, 592.085 530.237, 592.085 529.237, 592.085 528.237, 592.085 527.237, 592.085 526.237, 592.085 525.237, 592.085 524.237, 592.085 523.237, 592.085 522.237, 592.085 521.237, 592.085 520.237, 592.085 519.237, 592.085 518.237, 592.085 517.237, 592.085 516.237, 592.085 515.200, 592.085 514.206, 592.201 513.213, 592.318 512.220, 592.434 511.493, 592.519 511.493, 593.519 511.493, 594.519 511.493, 595.519 511.493, 596.519 511.493, 597.519 511.493, 598.519 511.493, 599.519 511.493, 600.519 511.493, 601.519 511.493, 602.519 511.493, 603.519 511.493, 604.519 511.493, 605.519 511.493, 606.519 511.493, 607.519 511.493, 608.519 511.493, 609.519 511.493, 610.519 511.493, 611.519 511.493, 612.519 511.493, 613.519 511.493, 614.519 511.493, 615.519 511.493, 616.519 511.493, 617.519 511.493, 618.519 511.493, 619.519 511.493, 620.519 511.493, 621.519 511.493, 622.519 511.493, 623.519 511.493, 624.519 511.493, 625.519 511.493, 626.519 511.493, 627.519 511.493, 628.519 511.493, 629.519 511.493, 630.519 511.493, 631.519 511.493, 632.519 511.493, 633.519 511.493, 634.519 511.493, 635.519 511.493, 636.519 511.493, 637.519 511.493, 638.519 511.493, 639.519 511.493, 640.519 511.493, 641.519 511.493, 642.519 511.493, 643.519 511.493, 644.519 511.493, 645.519 511.493, 646.519 511.493, 647.519 511.493, 648.519 511.493, 649.519 511.493, 650.519 511.493, 651.519 511.493, 652.519 511.493, 653.519 511.493, 654.519 511.493, 655.519 511.493, 656.519 511.493, 657.519 511.493, 658.519 511.493, 659.519 511.493, 660.519 511.493, 661.519 511.493, 662.519 511.493, 663.519 511.493, 664.519 511.493, 665.519 511.493, 666.519 511.493, 667.519 511.493, 668.519 511.493, 669.519 511.493, 670.519 511.493, 671.519 511.493, 672.519 511.493, 673.519 511.493, 674.519 511.493, 675.519 511.493, 676.519 511.493, 677.519 511.493, 678.519 511.493, 679.519 511.493, 680.519 511.493, 681.519 511.493, 682.519 511.493, 683.519 511.493, 684.519 511.493, 685.519 511.493, 686.519 511.493, 687.519 511.493, 688.519 511.493, 689.519 511.493, 690.519 511.493, 691.519 511.493, 692.519 511.493, 693.519 511.493, 694.519 511.493, 695.519 511.493, 696.519 511.493, 697.519 511.493, 698.519 511.493, 699.519 511.493, 700.519 511.493, 701.519 511.493, 703.626 512.493, 703.626 513.493, 703.626 514.493, 703.626 515.493, 703.626 516.493, 703.626 517.493, 703.626 518.493, 703.626 519.493, 703.626 520.493, 703.626 521.493, 703.626 522.481, 703.626 " />
            <path fill="none" stroke-width="2.0000009536743164" stroke-linecap="butt" stroke-opacity="1.0" stroke="rgb(0, 0, 0)" stroke-linejoin="round" d=" M 522.950, 381.566 521.950, 381.566 520.950, 381.566 519.950, 381.566 518.950, 381.566 517.950, 381.566 516.950, 381.566 515.950, 381.566 514.950, 381.566 513.950, 381.566 512.950, 381.566 511.950, 381.566 511.493, 381.566 511.493, 382.566 511.493, 383.566 511.493, 384.566 511.493, 385.566 511.493, 386.566 511.493, 387.566 511.493, 388.566 511.493, 389.566 511.493, 390.566 511.493, 391.566 511.493, 392.566 511.493, 393.566 511.493, 394.566 511.493, 395.566 511.493, 396.566 511.493, 397.566 511.493, 398.566 511.493, 399.566 511.493, 400.566 511.493, 401.566 511.493, 402.566 511.493, 403.566 511.493, 404.566 511.493, 405.566 511.493, 406.566 511.493, 407.566 511.493, 408.566 511.493, 409.566 511.493, 410.566 511.493, 411.566 511.493, 412.566 511.493, 413.566 511.493, 414.566 511.493, 415.566 511.493, 416.566 511.493, 417.566 511.493, 418.566 511.493, 419.566 511.493, 420.566 511.493, 421.566 511.493, 422.566 511.493, 423.566 511.493, 424.566 511.493, 425.566 511.493, 426.566 511.493, 427.566 511.493, 428.566 511.493, 429.566 511.493, 430.566 511.493, 431.566 511.493, 432.566 511.493, 433.566 511.493, 434.566 511.493, 435.566 511.493, 436.566 511.493, 437.566 511.493, 438.566 511.493, 439.566 511.493, 440.566 511.493, 441.566 511.493, 442.566 511.493, 443.566 511.493, 444.566 511.493, 445.566 511.493, 446.566 511.493, 447.566 511.493, 448.566 511.493, 449.566 511.493, 450.566 511.493, 451.566 511.493, 452.566 511.493, 453.566 511.493, 454.566 511.493, 455.566 511.493, 456.566 511.493, 457.566 511.493, 458.566 511.493, 459.566 511.493, 460.566 511.493, 461.566 511.493, 462.566 511.493, 463.566 511.493, 464.566 511.493, 465.566 511.493, 466.566 511.493, 467.566 511.493, 468.566 511.493, 469.566 511.493, 470.566 511.493, 471.566 511.493, 472.566 511.493, 473.566 511.493, 474.566 511.493, 475.566 511.493, 476.566 511.493, 477.566 511.493, 478.566 511.493, 479.566 511.493, 480.566 511.493, 481.566 511.493, 482.566 511.493, 483.566 511.493, 484.566 511.493, 485.566 511.493, 486.566 511.493, 487.566 511.493, 488.566 511.493, 489.566 511.493, 490.566 511.493, 492.673 512.488, 492.778 513.482, 492.883 514.477, 492.988 515.200, 493.064 516.200, 493.064 517.200, 493.064 518.200, 493.064 519.200, 493.064 520.200, 493.064 521.200, 493.064 522.200, 493.064 523.200, 493.064 524.200, 493.064 525.232, 493.064 " />
            <path fill="none" stroke-width="2.0000009536743164" stroke-linecap="butt" stroke-opacity="1.0" stroke="rgb(0, 0, 0)" stroke-linejoin="round" d=" M 679.790, 336.037 680.740, 335.725 681.030, 335.630 680.718, 334.680 680.406, 333.729 680.094, 332.779 679.782, 331.829 679.470, 330.879 679.157, 329.929 678.845, 328.979 678.533, 328.029 678.221, 327.079 677.909, 326.129 677.596, 325.179 677.284, 324.229 676.972, 323.279 676.660, 322.329 676.348, 321.379 676.036, 320.429 675.724, 319.479 675.411, 318.529 675.099, 317.579 674.787, 316.629 674.475, 315.679 674.151, 314.693 673.365, 314.074 672.580, 313.455 671.795, 312.836 671.769, 312.816 670.819, 313.128 669.869, 313.440 668.919, 313.752 667.969, 314.064 667.019, 314.376 666.069, 314.689 665.119, 315.001 664.169, 315.313 663.219, 315.625 662.269, 315.937 661.319, 316.249 660.369, 316.562 659.419, 316.874 658.469, 317.186 657.518, 317.498 656.568, 317.810 655.618, 318.122 654.668, 318.435 653.718, 318.747 652.768, 319.059 651.818, 319.371 650.868, 319.683 649.918, 319.995 648.968, 320.308 648.018, 320.620 647.068, 320.932 646.118, 321.244 645.168, 321.556 644.218, 321.868 643.268, 322.181 642.318, 322.493 641.368, 322.805 640.418, 323.117 639.468, 323.429 638.518, 323.741 637.568, 324.054 636.618, 324.366 635.668, 324.678 634.718, 324.990 633.768, 325.302 632.818, 325.614 631.868, 325.927 630.918, 326.239 629.968, 326.551 629.018, 326.863 628.068, 327.175 627.118, 327.487 626.168, 327.800 625.218, 328.112 624.268, 328.424 623.318, 328.736 622.367, 329.048 621.417, 329.360 620.467, 329.673 619.517, 329.985 618.567, 330.297 617.617, 330.609 616.667, 330.921 615.717, 331.234 614.767, 331.546 613.817, 331.858 612.867, 332.170 611.917, 332.482 610.967, 332.794 610.017, 333.107 609.067, 333.419 608.117, 333.731 607.167, 334.043 606.217, 334.355 605.267, 334.667 604.317, 334.980 603.367, 335.292 602.417, 335.604 601.467, 335.916 600.517, 336.228 599.567, 336.540 598.617, 336.853 597.667, 337.165 596.717, 337.477 595.767, 337.789 594.817, 338.101 593.867, 338.413 592.917, 338.726 591.967, 339.038 591.017, 339.350 590.067, 339.662 589.117, 339.974 588.167, 340.286 587.216, 340.599 586.266, 340.911 585.316, 341.223 584.366, 341.535 583.416, 341.847 582.466, 342.159 581.516, 342.472 580.566, 342.784 579.616, 343.096 578.666, 343.408 577.716, 343.720 576.766, 344.032 575.816, 344.345 574.866, 344.657 573.916, 344.969 572.966, 345.281 572.016, 345.593 571.066, 345.905 570.116, 346.218 569.166, 346.530 568.216, 346.842 567.266, 347.154 566.316, 347.466 565.366, 347.778 564.416, 348.091 563.466, 348.403 562.516, 348.715 561.566, 349.027 560.616, 349.339 559.666, 349.651 558.716, 349.964 557.766, 350.276 556.816, 350.588 555.866, 350.900 554.916, 351.212 553.966, 351.524 553.016, 351.837 552.065, 352.149 551.115, 352.461 550.165, 352.773 549.215, 353.085 548.265, 353.398 547.315, 353.710 546.365, 354.022 545.415, 354.334 544.465, 354.646 543.515, 354.958 542.565, 355.271 541.615, 355.583 540.665, 355.895 539.715, 356.207 538.765, 356.519 537.815, 356.831 536.865, 357.143 535.915, 357.456 534.965, 357.768 534.015, 358.080 533.065, 358.392 532.115, 358.704 531.165, 359.017 530.215, 359.329 529.265, 359.641 528.315, 359.953 527.365, 360.265 526.415, 360.577 523.992, 361.373 524.304, 362.323 524.616, 363.273 524.929, 364.224 525.241, 365.174 525.553, 366.124 525.865, 367.074 526.177, 368.024 526.489, 368.974 526.802, 369.924 527.114, 370.874 527.426, 371.824 527.738, 372.774 528.050, 373.724 528.362, 374.674 528.675, 375.624 528.987, 376.574 529.299, 377.524 529.611, 378.474 529.809, 379.076 " />
            <path fill="none" stroke-width="2.0000009536743164" stroke-linecap="butt" stroke-opacity="1.0" stroke="rgb(0, 0, 0)" stroke-linejoin="round" d=" M 1002.396, 226.965 1002.530, 225.974 1002.591, 225.522 1002.279, 224.572 1001.967, 223.622 1001.655, 222.672 1001.342, 221.722 1001.030, 220.772 1000.718, 219.822 1000.406, 218.872 1000.094, 217.922 999.782, 216.972 999.469, 216.022 999.157, 215.072 998.845, 214.122 998.533, 213.172 998.221, 212.222 997.909, 211.272 997.596, 210.322 997.284, 209.372 996.972, 208.422 996.660, 207.472 996.348, 206.522 996.036, 205.572 995.654, 204.411 994.704, 204.723 993.754, 205.035 992.804, 205.348 991.854, 205.660 990.904, 205.972 989.954, 206.284 989.004, 206.596 988.054, 206.908 987.104, 207.221 986.154, 207.533 985.204, 207.845 984.254, 208.157 983.304, 208.469 982.354, 208.781 981.404, 209.094 980.454, 209.406 979.504, 209.718 978.554, 210.030 977.604, 210.342 976.654, 210.654 975.704, 210.967 974.754, 211.279 973.804, 211.591 972.854, 211.903 971.904, 212.215 970.954, 212.527 970.004, 212.840 969.054, 213.152 968.104, 213.464 967.154, 213.776 966.203, 214.088 965.253, 214.401 964.303, 214.713 963.353, 215.025 962.403, 215.337 961.453, 215.649 960.503, 215.961 959.553, 216.273 958.603, 216.586 957.653, 216.898 956.703, 217.210 955.753, 217.522 954.803, 217.834 953.853, 218.147 952.903, 218.459 951.953, 218.771 951.003, 219.083 950.053, 219.395 949.103, 219.707 948.153, 220.020 947.203, 220.332 946.253, 220.644 945.303, 220.956 944.353, 221.268 943.403, 221.580 942.453, 221.893 941.503, 222.205 940.553, 222.517 939.603, 222.829 938.653, 223.141 937.703, 223.453 936.753, 223.766 935.803, 224.078 934.853, 224.390 933.903, 224.702 932.953, 225.014 932.003, 225.326 931.052, 225.639 930.102, 225.951 929.152, 226.263 928.202, 226.575 927.252, 226.887 926.302, 227.199 925.352, 227.512 924.402, 227.824 923.452, 228.136 922.502, 228.448 921.552, 228.760 920.602, 229.072 919.652, 229.385 918.702, 229.697 917.752, 230.009 916.802, 230.321 915.852, 230.633 914.902, 230.945 913.952, 231.258 913.002, 231.570 912.052, 231.882 911.102, 232.194 910.152, 232.506 909.202, 232.818 908.252, 233.131 907.302, 233.443 906.352, 233.755 905.402, 234.067 904.452, 234.379 903.502, 234.692 902.552, 235.004 901.602, 235.316 900.652, 235.628 899.702, 235.940 898.752, 236.252 897.802, 236.565 896.852, 236.877 895.901, 237.189 894.951, 237.501 894.001, 237.813 893.051, 238.125 892.101, 238.438 891.151, 238.750 890.201, 239.062 889.251, 239.374 888.301, 239.686 887.351, 239.998 886.401, 240.311 885.451, 240.623 884.501, 240.935 883.551, 241.247 882.601, 241.559 881.651, 241.871 880.701, 242.184 879.751, 242.496 878.801, 242.808 877.851, 243.120 876.901, 243.432 875.951, 243.744 875.001, 244.057 874.051, 244.369 873.101, 244.681 872.151, 244.993 871.201, 245.305 868.988, 246.032 869.284, 246.987 869.580, 247.943 869.741, 248.462 870.053, 249.412 870.365, 250.362 870.677, 251.312 870.989, 252.262 871.301, 253.212 871.614, 254.162 871.926, 255.112 872.238, 256.062 872.550, 257.012 872.862, 257.962 873.174, 258.912 873.487, 259.862 873.799, 260.812 874.111, 261.762 874.298, 262.330 " />
            <path fill="none" stroke-width="2.0000009536743164" stroke-linecap="butt" stroke-opacity="1.0" stroke="rgb(0, 0, 0)" stroke-linejoin="round" d=" M 537.736, 493.157 537.736, 494.157 537.736, 495.157 537.736, 496.157 537.736, 497.157 537.736, 498.157 537.736, 499.157 537.736, 500.157 537.736, 501.157 537.736, 502.157 537.736, 503.157 537.736, 504.157 537.736, 505.157 537.736, 506.157 537.736, 507.157 537.736, 508.157 537.736, 509.157 537.736, 510.157 537.736, 511.157 537.736, 512.157 537.736, 513.157 537.736, 514.157 537.736, 515.157 537.736, 516.157 537.736, 517.157 537.736, 518.157 537.736, 519.157 537.736, 520.157 537.736, 521.157 537.736, 522.157 537.736, 523.157 537.736, 524.157 537.736, 525.157 537.736, 526.157 537.736, 527.157 537.736, 528.157 537.736, 529.157 537.736, 530.157 537.736, 531.157 537.736, 532.157 537.736, 533.157 537.736, 534.157 537.736, 535.157 537.736, 536.157 537.736, 537.157 537.736, 538.157 537.736, 539.157 537.736, 540.157 537.736, 541.157 537.736, 542.157 537.736, 543.157 537.736, 544.157 537.736, 545.157 537.736, 546.157 537.736, 547.157 537.736, 548.157 537.736, 549.157 537.736, 550.157 537.736, 551.157 537.736, 552.157 537.736, 553.157 537.736, 554.157 537.736, 555.157 537.736, 556.157 537.736, 557.157 537.736, 558.157 537.736, 559.157 537.736, 560.157 537.736, 561.157 537.736, 562.157 537.736, 563.157 537.736, 564.157 537.736, 565.157 537.736, 566.157 537.736, 567.157 537.736, 568.157 537.736, 569.157 537.736, 570.157 537.736, 571.157 537.736, 572.157 537.736, 573.157 537.736, 574.157 537.736, 575.157 537.736, 576.157 537.736, 577.157 537.736, 578.157 537.736, 579.157 537.736, 580.157 537.736, 581.157 537.736, 582.157 537.736, 583.157 537.736, 584.157 537.736, 585.157 537.736, 586.157 537.736, 587.157 537.736, 588.157 537.736, 589.157 537.736, 590.157 537.736, 591.157 537.736, 592.328 " />
            <path fill="none" stroke-width="2.0000009536743164" stroke-linecap="butt" stroke-opacity="1.0" stroke="rgb(0, 0, 0)" stroke-linejoin="round" d=" M 537.736, 592.328 537.237, 592.328 " />
            <path fill="none" stroke-width="2.0000009536743164" stroke-linecap="butt" stroke-opacity="1.0" stroke="rgb(0, 0, 0)" stroke-linejoin="round" d=" M 683.767, 347.653 683.444, 346.707 683.120, 345.761 682.796, 344.815 682.472, 343.869 682.148, 342.923 681.824, 341.976 681.500, 341.030 681.176, 340.084 680.852, 339.138 680.528, 338.192 680.204, 337.246 679.880, 336.300 679.790, 336.037 " />
            <path fill="none" stroke-width="2.0000009536743164" stroke-linecap="butt" stroke-opacity="1.0" stroke="rgb(0, 0, 0)" stroke-linejoin="round" d=" M 1006.956, 240.284 1006.632, 239.338 1006.308, 238.391 1005.984, 237.445 1005.660, 236.499 1005.336, 235.553 1005.012, 234.607 1004.688, 233.661 1004.365, 232.715 1004.041, 231.769 1003.717, 230.823 1003.393, 229.877 1003.069, 228.931 1002.745, 227.984 1002.396, 226.965 " />
            <path fill="none" stroke-width="2.0000009536743164" stroke-linecap="butt" stroke-opacity="1.0" stroke="rgb(0, 0, 0)" stroke-linejoin="round" d=" M 1002.561, 858.096 1002.885, 857.150 1003.208, 856.204 1003.532, 855.258 1003.856, 854.312 1004.180, 853.366 1004.504, 852.420 1004.828, 851.474 1005.152, 850.528 1005.476, 849.582 1005.800, 848.636 1006.124, 847.689 1006.448, 846.743 1006.772, 845.797 1006.959, 845.248 " />
            <path fill="none" stroke-width="2.0000009536743164" stroke-linecap="butt" stroke-opacity="1.0" stroke="rgb(0, 0, 0)" stroke-linejoin="round" d=" M 1006.959, 845.248 1007.908, 845.564 1008.857, 845.879 1009.806, 846.194 1010.755, 846.509 1011.704, 846.825 1012.653, 847.140 1013.602, 847.455 1014.551, 847.770 1015.500, 848.086 1016.449, 848.401 1017.398, 848.716 1018.347, 849.032 1019.296, 849.347 1020.245, 849.662 1021.194, 849.977 1022.143, 850.293 1023.092, 850.608 1024.042, 850.923 1024.990, 851.239 1025.939, 851.554 1026.888, 851.869 1027.838, 852.184 1028.786, 852.500 1029.735, 852.815 1030.684, 853.130 1031.633, 853.445 1032.583, 853.761 1033.531, 854.076 1034.480, 854.391 1035.429, 854.707 1036.378, 855.022 1037.328, 855.337 1038.276, 855.652 1039.225, 855.968 1040.174, 856.283 1041.124, 856.598 1042.073, 856.913 1043.021, 857.229 1043.970, 857.544 1044.919, 857.859 1045.869, 858.175 1046.818, 858.490 1047.766, 858.805 1048.715, 859.120 1049.664, 859.436 1050.614, 859.751 1051.562, 860.066 1052.511, 860.382 1053.460, 860.697 1054.409, 861.012 1055.359, 861.327 1056.307, 861.643 1057.256, 861.958 1058.205, 862.273 1059.154, 862.588 1060.104, 862.904 1061.052, 863.219 1062.001, 863.534 1062.950, 863.850 1063.900, 864.165 1064.849, 864.480 1065.797, 864.795 1066.746, 865.111 1067.695, 865.426 1068.645, 865.741 1069.594, 866.056 1070.542, 866.372 1071.491, 866.687 1072.440, 867.002 1073.390, 867.318 1074.339, 867.633 1075.287, 867.948 1076.236, 868.263 1077.185, 868.579 1078.135, 868.894 1079.083, 869.209 1080.032, 869.525 1080.981, 869.840 1081.930, 870.155 1082.880, 870.470 1083.828, 870.786 1084.777, 871.101 1085.726, 871.416 1086.676, 871.731 1087.625, 872.047 1088.573, 872.362 1089.522, 872.677 1090.471, 872.993 1091.421, 873.308 1092.370, 873.623 1093.318, 873.938 1094.267, 874.254 1095.216, 874.569 1096.166, 874.884 1097.115, 875.199 1098.063, 875.515 1099.012, 875.830 1099.961, 876.145 1100.911, 876.461 1101.859, 876.776 1102.808, 877.091 1103.757, 877.406 1104.707, 877.722 1105.656, 878.037 1106.604, 878.352 1107.553, 878.668 1108.502, 878.983 1109.452, 879.298 1110.401, 879.613 1111.349, 879.929 1112.298, 880.244 1113.247, 880.559 1114.197, 880.874 1115.146, 881.190 1116.094, 881.505 1117.043, 881.820 1117.992, 882.136 1118.942, 882.451 1119.891, 882.766 1120.839, 883.081 1121.788, 883.397 1122.737, 883.712 1123.687, 884.027 1124.635, 884.342 1125.584, 884.658 1126.533, 884.973 1127.482, 885.288 1128.432, 885.604 1129.380, 885.919 1130.329, 886.234 1131.278, 886.549 1132.228, 886.865 1133.177, 887.180 1134.125, 887.495 1135.074, 887.811 1136.023, 888.126 1136.973, 888.441 1137.922, 888.756 1138.870, 889.072 1139.819, 889.387 1140.768, 889.702 1141.718, 890.017 1142.667, 890.333 1143.615, 890.648 1144.564, 890.963 1145.514, 891.279 1146.463, 891.594 1147.411, 891.909 1148.360, 892.224 1149.309, 892.540 1150.259, 892.855 1151.208, 893.170 1152.156, 893.485 1153.105, 893.801 1154.054, 894.116 1155.004, 894.431 1155.953, 894.747 1156.901, 895.062 1157.850, 895.377 1158.799, 895.692 1159.749, 896.008 1160.698, 896.323 1161.646, 896.638 1162.595, 896.954 1163.544, 897.269 1164.494, 897.584 1165.443, 897.899 1166.391, 898.215 1167.340, 898.530 1168.289, 898.845 1169.239, 899.160 1170.188, 899.476 1171.136, 899.791 1172.085, 900.106 1173.035, 900.422 1173.984, 900.737 1174.932, 901.052 1175.881, 901.367 1176.830, 901.683 1177.780, 901.998 1178.729, 902.313 1179.677, 902.628 1180.626, 902.944 1181.575, 903.259 1182.525, 903.574 1183.474, 903.890 1184.422, 904.205 1185.371, 904.520 1186.320, 904.835 1187.270, 905.151 1188.219, 905.466 1189.167, 905.781 1190.116, 906.097 1191.066, 906.412 1192.015, 906.727 1192.964, 907.042 1193.912, 907.358 1194.861, 907.673 1195.811, 907.988 1196.760, 908.303 1197.708, 908.619 1198.657, 908.934 1199.606, 909.249 1200.556, 909.565 1201.505, 909.880 1202.453, 910.195 1203.402, 910.510 1204.351, 910.826 1205.301, 911.141 1207.393, 911.836 " />
            <path fill="none" stroke-width="2.0000009536743164" stroke-linecap="butt" stroke-opacity="1.0" stroke="rgb(0, 0, 0)" stroke-linejoin="round" d=" M 683.754, 737.873 684.703, 738.188 685.652, 738.504 686.601, 738.819 687.550, 739.134 688.499, 739.450 689.448, 739.765 690.397, 740.080 691.346, 740.395 692.295, 740.711 693.244, 741.026 694.193, 741.341 695.142, 741.656 696.091, 741.972 697.040, 742.287 697.989, 742.602 698.938, 742.918 699.887, 743.233 700.836, 743.548 701.785, 743.863 702.734, 744.179 703.683, 744.494 704.632, 744.809 705.581, 745.124 706.530, 745.440 707.479, 745.755 708.428, 746.070 709.377, 746.386 710.326, 746.701 711.275, 747.016 712.224, 747.331 713.173, 747.647 714.122, 747.962 715.071, 748.277 716.020, 748.593 716.969, 748.908 717.918, 749.223 718.867, 749.538 719.816, 749.854 720.765, 750.169 721.714, 750.484 722.663, 750.799 723.612, 751.115 724.561, 751.430 725.510, 751.745 726.459, 752.061 727.408, 752.376 728.357, 752.691 729.306, 753.006 730.255, 753.322 731.204, 753.637 732.153, 753.952 733.102, 754.267 734.051, 754.583 735.000, 754.898 735.949, 755.213 736.898, 755.529 737.847, 755.844 738.796, 756.159 739.745, 756.474 740.694, 756.790 741.643, 757.105 742.592, 757.420 743.541, 757.736 744.490, 758.051 745.439, 758.366 746.388, 758.681 747.337, 758.997 748.286, 759.312 749.235, 759.627 750.184, 759.942 751.133, 760.258 752.082, 760.573 753.031, 760.888 753.980, 761.204 754.929, 761.519 755.878, 761.834 756.827, 762.149 757.776, 762.465 758.725, 762.780 759.674, 763.095 760.623, 763.410 761.572, 763.726 762.521, 764.041 763.470, 764.356 764.419, 764.672 765.368, 764.987 766.317, 765.302 767.266, 765.617 768.215, 765.933 769.164, 766.248 770.113, 766.563 771.062, 766.879 772.011, 767.194 772.960, 767.509 773.909, 767.824 774.858, 768.140 775.807, 768.455 776.756, 768.770 777.705, 769.085 778.654, 769.401 779.603, 769.716 780.552, 770.031 781.501, 770.347 782.450, 770.662 783.399, 770.977 784.348, 771.292 785.297, 771.608 786.246, 771.923 787.195, 772.238 788.144, 772.553 789.093, 772.869 790.042, 773.184 790.991, 773.499 791.940, 773.815 792.889, 774.130 793.838, 774.445 794.787, 774.760 795.736, 775.076 796.685, 775.391 797.634, 775.706 798.583, 776.022 799.532, 776.337 800.481, 776.652 801.430, 776.967 802.379, 777.283 803.328, 777.598 804.277, 777.913 805.226, 778.228 806.175, 778.544 807.124, 778.859 808.073, 779.174 809.022, 779.490 809.971, 779.805 810.920, 780.120 811.869, 780.435 812.818, 780.751 813.767, 781.066 814.716, 781.381 815.665, 781.696 816.614, 782.012 817.563, 782.327 818.512, 782.642 819.461, 782.958 820.410, 783.273 821.359, 783.588 822.308, 783.903 823.257, 784.219 824.206, 784.534 825.155, 784.849 826.104, 785.165 827.053, 785.480 828.002, 785.795 828.951, 786.110 829.900, 786.426 830.849, 786.741 831.798, 787.056 832.747, 787.371 833.696, 787.687 834.645, 788.002 835.594, 788.317 836.543, 788.633 837.492, 788.948 838.441, 789.263 839.390, 789.578 840.339, 789.894 841.288, 790.209 842.237, 790.524 843.186, 790.839 844.135, 791.155 845.084, 791.470 846.033, 791.785 846.982, 792.101 847.931, 792.416 848.880, 792.731 849.829, 793.046 850.778, 793.362 851.727, 793.677 852.676, 793.992 853.625, 794.308 854.574, 794.623 855.523, 794.938 856.472, 795.253 857.421, 795.569 858.370, 795.884 859.319, 796.199 860.268, 796.514 861.217, 796.830 862.166, 797.145 863.115, 797.460 864.064, 797.776 865.013, 798.091 865.962, 798.406 866.911, 798.721 867.860, 799.037 868.809, 799.352 869.758, 799.667 870.707, 799.982 871.656, 800.298 872.605, 800.613 873.554, 800.928 874.503, 801.244 875.452, 801.559 876.401, 801.874 877.350, 802.189 878.299, 802.505 880.347, 803.185 " />
            <path fill="none" stroke-width="2.0000009536743164" stroke-linecap="butt" stroke-opacity="1.0" stroke="rgb(0, 0, 0)" stroke-linejoin="round" d=" M 1337.708, 476.101 1337.708, 475.101 1337.708, 474.101 1337.708, 473.101 1337.708, 472.101 1337.708, 471.101 1337.708, 470.101 1337.708, 469.101 1337.708, 468.101 1337.708, 467.101 1337.708, 466.101 1337.708, 465.101 1337.708, 464.101 1337.708, 463.101 1337.708, 462.101 1337.708, 461.101 1337.708, 460.101 1337.708, 459.101 1337.708, 458.101 1337.708, 457.101 1337.708, 456.101 1337.708, 455.101 1337.708, 454.101 1337.708, 453.101 1337.708, 452.101 1337.708, 451.101 1337.708, 450.101 1337.708, 449.101 1337.708, 448.101 1337.708, 447.101 1337.708, 446.101 1337.708, 445.101 1337.708, 444.101 1337.708, 443.101 1337.708, 442.101 1337.708, 441.101 1337.708, 440.101 1337.708, 439.101 1337.708, 438.101 1337.708, 437.101 1337.708, 436.101 1337.708, 435.101 1337.708, 434.101 1337.708, 433.101 1337.708, 432.101 1337.708, 431.101 1337.708, 430.101 1337.708, 429.101 1337.708, 428.101 1337.708, 427.101 1337.708, 426.101 1337.708, 425.101 1337.708, 424.101 1337.708, 423.101 1337.708, 422.101 1337.708, 421.101 1337.708, 420.101 1337.708, 419.101 1337.708, 418.101 1337.708, 417.101 1337.708, 416.101 1337.708, 415.101 1337.708, 414.101 1337.708, 413.101 1337.708, 412.101 1337.708, 411.101 1337.708, 410.101 1337.708, 409.101 1337.708, 408.101 1337.708, 407.101 1337.708, 406.101 1337.708, 405.101 1337.708, 404.101 1337.708, 403.101 1337.708, 402.101 1337.708, 401.101 1337.708, 400.101 1337.708, 399.101 1337.708, 398.101 1337.708, 397.101 1337.708, 396.101 1337.708, 395.101 1337.708, 394.101 1337.708, 393.101 1337.708, 392.101 1337.708, 391.101 1337.708, 390.101 1337.708, 389.101 1337.708, 388.101 1337.708, 387.101 1337.708, 386.101 1337.708, 385.101 1337.708, 384.101 1337.708, 383.101 1337.708, 382.101 1337.708, 381.101 1337.708, 380.101 1337.708, 379.101 1337.708, 378.101 1337.708, 377.101 1337.708, 376.101 1337.708, 375.101 1337.708, 374.101 1337.708, 373.101 1337.708, 372.101 1337.708, 371.101 1337.708, 370.101 1337.708, 369.101 1337.708, 368.101 1337.708, 367.101 1337.708, 366.101 1337.708, 365.101 1337.708, 364.101 1337.708, 363.101 1337.708, 362.101 1337.708, 361.101 1337.708, 360.101 1337.708, 359.101 1337.708, 358.101 1337.708, 357.101 1337.708, 356.101 1337.708, 355.101 1337.708, 354.101 1337.708, 353.101 1337.708, 352.101 1337.708, 351.101 1337.708, 350.101 1337.708, 349.101 1337.708, 348.101 1337.708, 347.101 1337.708, 346.101 1337.708, 345.101 1337.708, 344.101 1337.708, 343.101 1337.708, 342.101 1337.708, 341.101 1337.708, 340.101 1337.708, 339.101 1337.708, 338.101 1337.708, 337.101 1337.708, 336.101 1337.708, 335.101 1337.708, 334.101 1337.708, 333.101 1337.708, 332.101 1337.708, 331.101 1337.708, 330.101 1337.708, 329.101 1337.708, 328.101 1337.708, 327.101 1337.708, 326.101 1337.708, 325.101 1337.708, 324.101 1337.708, 323.101 1337.708, 322.101 1337.708, 321.101 1337.708, 320.101 1337.708, 319.101 1337.708, 318.101 1337.708, 317.101 1337.708, 316.101 1337.708, 315.101 1337.708, 314.101 1337.708, 313.101 1337.708, 312.101 1337.708, 311.101 1337.708, 310.101 1337.708, 309.101 1337.708, 308.101 1337.708, 307.101 1337.708, 306.101 1337.708, 305.101 1337.708, 304.101 1337.708, 303.101 1337.708, 302.101 1337.708, 301.101 1337.708, 300.101 1337.708, 299.101 1337.708, 298.101 1337.708, 297.101 1337.708, 296.101 1337.708, 295.101 1337.708, 294.101 1337.708, 293.101 1337.708, 292.101 1337.708, 291.101 1337.708, 290.101 1337.708, 289.101 1337.708, 288.101 1337.708, 287.101 1337.708, 286.101 1337.708, 285.101 1337.708, 284.101 1337.708, 283.101 1337.708, 282.101 1337.708, 281.101 1337.708, 280.101 1337.708, 279.101 1337.708, 278.101 1337.708, 277.101 1337.708, 276.101 1337.708, 275.101 1337.708, 274.101 1337.708, 273.101 1337.708, 272.101 1337.708, 271.101 1337.708, 270.101 1337.708, 269.101 1337.708, 268.101 1337.708, 267.101 1337.708, 266.101 1337.708, 265.101 1337.708, 264.101 1337.708, 263.101 1337.708, 262.101 1337.708, 261.101 1337.708, 260.101 1337.708, 259.101 1337.708, 258.101 1337.708, 257.101 1337.708, 256.101 1337.708, 255.101 1337.708, 254.101 1337.708, 253.101 1337.708, 252.101 1337.708, 251.101 1337.708, 250.101 1337.708, 249.101 1337.708, 246.618 " />
            <path fill="none" stroke-width="2.0000009536743164" stroke-linecap="butt" stroke-opacity="1.0" stroke="rgb(0, 0, 0)" stroke-linejoin="round" d=" M 1337.708, 838.867 1337.708, 837.867 1337.708, 836.867 1337.708, 835.867 1337.708, 834.867 1337.708, 833.867 1337.708, 832.867 1337.708, 831.867 1337.708, 830.867 1337.708, 829.867 1337.708, 828.867 1337.708, 827.867 1337.708, 826.867 1337.708, 825.867 1337.708, 824.867 1337.708, 823.867 1337.708, 822.867 1337.708, 821.867 1337.708, 820.867 1337.708, 819.867 1337.708, 818.867 1337.708, 817.867 1337.708, 816.867 1337.708, 815.867 1337.708, 814.867 1337.708, 813.867 1337.708, 812.867 1337.708, 811.867 1337.708, 810.867 1337.708, 809.867 1337.708, 808.867 1337.708, 807.867 1337.708, 806.867 1337.708, 805.867 1337.708, 804.867 1337.708, 803.867 1337.708, 802.867 1337.708, 801.867 1337.708, 800.867 1337.708, 799.867 1337.708, 798.867 1337.708, 797.867 1337.708, 796.867 1337.708, 795.867 1337.708, 794.867 1337.708, 793.867 1337.708, 792.867 1337.708, 791.867 1337.708, 790.867 1337.708, 789.867 1337.708, 788.867 1337.708, 787.867 1337.708, 786.867 1337.708, 785.867 1337.708, 784.867 1337.708, 783.867 1337.708, 782.867 1337.708, 781.867 1337.708, 780.867 1337.708, 779.867 1337.708, 778.867 1337.708, 777.867 1337.708, 776.867 1337.708, 775.867 1337.708, 774.867 1337.708, 773.867 1337.708, 772.867 1337.708, 771.867 1337.708, 770.867 1337.708, 769.867 1337.708, 768.867 1337.708, 767.867 1337.708, 766.867 1337.708, 765.867 1337.708, 764.867 1337.708, 763.867 1337.708, 762.867 1337.708, 761.867 1337.708, 760.867 1337.708, 759.867 1337.708, 758.867 1337.708, 757.867 1337.708, 756.867 1337.708, 755.867 1337.708, 754.867 1337.708, 753.867 1337.708, 752.867 1337.708, 751.867 1337.708, 750.867 1337.708, 749.867 1337.708, 748.867 1337.708, 747.867 1337.708, 746.867 1337.708, 745.867 1337.708, 744.867 1337.708, 743.867 1337.708, 742.867 1337.708, 741.867 1337.708, 740.867 1337.708, 739.867 1337.708, 738.867 1337.708, 737.867 1337.708, 736.867 1337.708, 735.867 1337.708, 734.867 1337.708, 733.867 1337.708, 732.867 1337.708, 731.867 1337.708, 730.867 1337.708, 729.867 1337.708, 728.867 1337.708, 727.867 1337.708, 726.867 1337.708, 725.867 1337.708, 724.867 1337.708, 723.867 1337.708, 722.867 1337.708, 721.867 1337.708, 720.867 1337.708, 719.867 1337.708, 718.867 1337.708, 717.867 1337.708, 716.867 1337.708, 715.867 1337.708, 714.867 1337.708, 713.867 1337.708, 712.867 1337.708, 711.867 1337.708, 710.867 1337.708, 709.867 1337.708, 708.867 1337.708, 707.867 1337.708, 706.867 1337.708, 705.867 1337.708, 704.867 1337.708, 703.867 1337.708, 702.867 1337.708, 701.867 1337.708, 700.867 1337.708, 699.867 1337.708, 698.867 1337.708, 697.867 1337.708, 696.867 1337.708, 695.867 1337.708, 694.867 1337.708, 693.867 1337.708, 692.867 1337.708, 691.867 1337.708, 690.867 1337.708, 689.867 1337.708, 688.867 1337.708, 687.867 1337.708, 686.867 1337.708, 685.867 1337.708, 684.867 1337.708, 683.867 1337.708, 682.867 1337.708, 681.867 1337.708, 680.867 1337.708, 679.867 1337.708, 678.867 1337.708, 677.867 1337.708, 676.867 1337.708, 675.867 1337.708, 674.867 1337.708, 673.867 1337.708, 672.867 1337.708, 671.867 1337.708, 670.867 1337.708, 669.867 1337.708, 668.867 1337.708, 667.867 1337.708, 666.867 1337.708, 665.867 1337.708, 664.867 1337.708, 663.867 1337.708, 662.867 1337.708, 661.867 1337.708, 660.867 1337.708, 659.867 1337.708, 658.867 1337.708, 657.867 1337.708, 656.867 1337.708, 655.867 1337.708, 654.867 1337.708, 653.867 1337.708, 652.867 1337.708, 651.867 1337.708, 650.867 1337.708, 649.867 1337.708, 648.867 1337.708, 647.867 1337.708, 646.867 1337.708, 645.867 1337.708, 644.867 1337.708, 643.867 1337.708, 642.867 1337.708, 641.867 1337.708, 640.867 1337.708, 639.867 1337.708, 638.867 1337.708, 637.867 1337.708, 636.867 1337.708, 635.867 1337.708, 634.867 1337.708, 633.867 1337.708, 632.867 1337.708, 631.867 1337.708, 630.867 1337.708, 629.867 1337.708, 628.867 1337.708, 627.867 1337.708, 626.867 1337.708, 625.867 1337.708, 624.867 1337.708, 623.867 1337.708, 622.867 1337.708, 621.867 1337.708, 620.867 1337.708, 619.867 1337.708, 618.867 1337.708, 617.867 1337.708, 616.867 1337.708, 615.867 1337.708, 614.867 1337.708, 613.867 1337.708, 612.867 1337.708, 611.867 1337.708, 609.430 " />
            <path fill="none" stroke-width="2.0000009536743164" stroke-linecap="butt" stroke-opacity="1.0" stroke="rgb(0, 0, 0)" stroke-linejoin="round" d=" M 880.357, 282.342 879.408, 282.657 878.459, 282.973 877.510, 283.288 876.561, 283.603 875.612, 283.918 874.663, 284.234 873.714, 284.549 872.765, 284.864 871.816, 285.180 870.867, 285.495 869.918, 285.810 868.969, 286.125 868.020, 286.441 867.071, 286.756 866.122, 287.071 865.173, 287.386 864.224, 287.702 863.275, 288.017 862.326, 288.332 861.377, 288.648 860.428, 288.963 859.479, 289.278 858.530, 289.593 857.581, 289.909 856.632, 290.224 855.683, 290.539 854.734, 290.854 853.785, 291.170 852.836, 291.485 851.887, 291.800 850.938, 292.116 849.989, 292.431 849.040, 292.746 848.091, 293.061 847.142, 293.377 846.193, 293.692 845.244, 294.007 844.295, 294.323 843.346, 294.638 842.397, 294.953 841.448, 295.268 840.499, 295.584 839.550, 295.899 838.601, 296.214 837.652, 296.529 836.703, 296.845 835.754, 297.160 834.805, 297.475 833.856, 297.791 832.907, 298.106 831.958, 298.421 831.009, 298.736 830.060, 299.052 829.111, 299.367 828.162, 299.682 827.213, 299.997 826.264, 300.313 825.315, 300.628 824.366, 300.943 823.417, 301.259 822.468, 301.574 821.519, 301.889 820.570, 302.204 819.621, 302.520 818.672, 302.835 817.723, 303.150 816.774, 303.466 815.825, 303.781 814.876, 304.096 813.927, 304.411 812.978, 304.727 812.029, 305.042 811.080, 305.357 810.131, 305.672 809.182, 305.988 808.233, 306.303 807.284, 306.618 806.335, 306.934 805.386, 307.249 804.437, 307.564 803.488, 307.879 802.539, 308.195 801.590, 308.510 800.641, 308.825 799.692, 309.141 798.743, 309.456 797.794, 309.771 796.845, 310.086 795.896, 310.402 794.947, 310.717 793.998, 311.032 793.049, 311.347 792.100, 311.663 791.151, 311.978 790.202, 312.293 789.253, 312.609 788.304, 312.924 787.355, 313.239 786.406, 313.554 785.457, 313.870 784.508, 314.185 783.559, 314.500 782.610, 314.815 781.661, 315.131 780.712, 315.446 779.763, 315.761 778.814, 316.077 777.865, 316.392 776.916, 316.707 775.967, 317.022 775.018, 317.338 774.069, 317.653 773.120, 317.968 772.171, 318.283 771.222, 318.599 770.273, 318.914 769.324, 319.229 768.375, 319.545 767.426, 319.860 766.477, 320.175 765.528, 320.490 764.579, 320.806 763.630, 321.121 762.681, 321.436 761.732, 321.752 760.783, 322.067 759.834, 322.382 758.885, 322.697 757.936, 323.013 756.987, 323.328 756.038, 323.643 755.089, 323.958 754.140, 324.274 753.191, 324.589 752.242, 324.904 751.293, 325.220 750.344, 325.535 749.395, 325.850 748.446, 326.165 747.497, 326.481 746.548, 326.796 745.599, 327.111 744.650, 327.426 743.701, 327.742 742.752, 328.057 741.803, 328.372 740.854, 328.688 739.905, 329.003 738.956, 329.318 738.007, 329.633 737.058, 329.949 736.109, 330.264 735.160, 330.579 734.211, 330.895 733.262, 331.210 732.313, 331.525 731.364, 331.840 730.415, 332.156 729.466, 332.471 728.517, 332.786 727.568, 333.101 726.619, 333.417 725.670, 333.732 724.721, 334.047 723.772, 334.363 722.823, 334.678 721.874, 334.993 720.925, 335.308 719.976, 335.624 719.027, 335.939 718.078, 336.254 717.129, 336.569 716.180, 336.885 715.231, 337.200 714.282, 337.515 713.333, 337.831 712.384, 338.146 711.435, 338.461 710.486, 338.776 709.537, 339.092 708.588, 339.407 707.639, 339.722 706.690, 340.038 705.741, 340.353 704.792, 340.668 703.843, 340.983 702.894, 341.299 701.945, 341.614 700.996, 341.929 700.047, 342.244 699.098, 342.560 698.149, 342.875 697.200, 343.190 696.251, 343.506 695.302, 343.821 694.353, 344.136 693.404, 344.451 692.455, 344.767 691.506, 345.082 690.557, 345.397 689.608, 345.712 688.659, 346.028 687.710, 346.343 686.761, 346.658 685.812, 346.974 683.767, 347.653 " />
            <path fill="none" stroke-width="2.0000009536743164" stroke-linecap="butt" stroke-opacity="1.0" stroke="rgb(0, 0, 0)" stroke-linejoin="round" d=" M 1207.407, 173.690 1206.458, 174.005 1205.509, 174.321 1204.560, 174.636 1203.611, 174.951 1202.662, 175.266 1201.713, 175.582 1200.764, 175.897 1199.815, 176.212 1198.866, 176.528 1197.917, 176.843 1196.968, 177.158 1196.019, 177.473 1195.070, 177.789 1194.121, 178.104 1193.172, 178.419 1192.223, 178.734 1191.274, 179.050 1190.325, 179.365 1189.376, 179.680 1188.427, 179.996 1187.478, 180.311 1186.529, 180.626 1185.580, 180.941 1184.631, 181.257 1183.682, 181.572 1182.733, 181.887 1181.784, 182.203 1180.835, 182.518 1179.886, 182.833 1178.937, 183.148 1177.988, 183.464 1177.039, 183.779 1176.090, 184.094 1175.141, 184.409 1174.192, 184.725 1173.243, 185.040 1172.294, 185.355 1171.345, 185.671 1170.396, 185.986 1169.447, 186.301 1168.498, 186.616 1167.549, 186.932 1166.600, 187.247 1165.651, 187.562 1164.702, 187.877 1163.753, 188.193 1162.804, 188.508 1161.855, 188.823 1160.906, 189.139 1159.957, 189.454 1159.008, 189.769 1158.059, 190.084 1157.110, 190.400 1156.161, 190.715 1155.212, 191.030 1154.263, 191.346 1153.314, 191.661 1152.365, 191.976 1151.416, 192.291 1150.467, 192.607 1149.518, 192.922 1148.569, 193.237 1147.620, 193.552 1146.671, 193.868 1145.722, 194.183 1144.773, 194.498 1143.824, 194.814 1142.875, 195.129 1141.926, 195.444 1140.977, 195.759 1140.028, 196.075 1139.079, 196.390 1138.130, 196.705 1137.181, 197.020 1136.232, 197.336 1135.283, 197.651 1134.334, 197.966 1133.385, 198.282 1132.436, 198.597 1131.487, 198.912 1130.538, 199.227 1129.589, 199.543 1128.640, 199.858 1127.691, 200.173 1126.742, 200.489 1125.793, 200.804 1124.844, 201.119 1123.895, 201.434 1122.946, 201.750 1121.997, 202.065 1121.048, 202.380 1120.099, 202.695 1119.150, 203.011 1118.201, 203.326 1117.252, 203.641 1116.303, 203.957 1115.354, 204.272 1114.405, 204.587 1113.456, 204.902 1112.507, 205.218 1111.558, 205.533 1110.609, 205.848 1109.660, 206.163 1108.711, 206.479 1107.762, 206.794 1106.813, 207.109 1105.864, 207.425 1104.915, 207.740 1103.966, 208.055 1103.017, 208.370 1102.068, 208.686 1101.119, 209.001 1100.170, 209.316 1099.221, 209.632 1098.272, 209.947 1097.323, 210.262 1096.374, 210.577 1095.425, 210.893 1094.476, 211.208 1093.527, 211.523 1092.578, 211.838 1091.629, 212.154 1090.680, 212.469 1089.731, 212.784 1088.782, 213.100 1087.833, 213.415 1086.884, 213.730 1085.935, 214.045 1084.986, 214.361 1084.037, 214.676 1083.088, 214.991 1082.139, 215.306 1081.190, 215.622 1080.241, 215.937 1079.292, 216.252 1078.343, 216.568 1077.394, 216.883 1076.445, 217.198 1075.496, 217.513 1074.547, 217.829 1073.598, 218.144 1072.649, 218.459 1071.700, 218.775 1070.751, 219.090 1069.802, 219.405 1068.853, 219.720 1067.904, 220.036 1066.955, 220.351 1066.006, 220.666 1065.057, 220.981 1064.108, 221.297 1063.159, 221.612 1062.210, 221.927 1061.261, 222.243 1060.312, 222.558 1059.363, 222.873 1058.414, 223.188 1057.465, 223.504 1056.516, 223.819 1055.567, 224.134 1054.618, 224.449 1053.669, 224.765 1052.720, 225.080 1051.771, 225.395 1050.822, 225.711 1049.873, 226.026 1048.924, 226.341 1047.975, 226.656 1047.026, 226.972 1046.077, 227.287 1045.128, 227.602 1044.179, 227.917 1043.230, 228.233 1042.281, 228.548 1041.332, 228.863 1040.383, 229.179 1039.434, 229.494 1038.485, 229.809 1037.536, 230.124 1036.587, 230.440 1035.638, 230.755 1034.689, 231.070 1033.740, 231.386 1032.791, 231.701 1031.842, 232.016 1030.893, 232.331 1029.944, 232.647 1028.995, 232.962 1028.046, 233.277 1027.097, 233.592 1026.148, 233.908 1025.199, 234.223 1024.250, 234.538 1023.301, 234.854 1022.352, 235.169 1021.403, 235.484 1020.454, 235.799 1019.505, 236.115 1018.556, 236.430 1017.607, 236.745 1016.658, 237.060 1015.709, 237.376 1014.760, 237.691 1013.811, 238.006 1012.862, 238.322 1011.913, 238.637 1010.964, 238.952 1010.015, 239.267 1009.066, 239.583 1006.956, 240.284 " />
            <path fill="none" stroke-width="2.0000009536743164" stroke-linecap="butt" stroke-opacity="1.0" stroke="rgb(0, 0, 0)" stroke-linejoin="round" d=" M 1342.676, 838.867 1341.676, 838.867 1340.676, 838.867 1339.676, 838.867 1338.676, 838.867 1337.708, 838.867 " />
            <path fill="none" stroke-width="2.0000009536743164" stroke-linecap="butt" stroke-opacity="1.0" stroke="rgb(0, 0, 0)" stroke-linejoin="round" d=" M 1337.708, 609.430 1338.708, 609.430 1339.708, 609.430 1340.708, 609.430 1341.708, 609.430 1342.708, 609.430 1343.708, 609.430 1343.910, 609.430 " />
        </g>
    </g>
</svg>
