<?xml version='1.0' encoding='ascii'?>
<svg xmlns="http://www.w3.org/2000/svg" version="1.1" width="1920" height="1080">
    <g id="ViewLayer_LineSet" xmlns:inkscape="http://www.inkscape.org/namespaces/inkscape" inkscape:groupmode="lineset" inkscape:label="ViewLayer_LineSet">
        <g xmlns:inkscape="http://www.inkscape.org/namespaces/inkscape" inkscape:groupmode="layer" id="strokes" inkscape:label="strokes">
            <path fill="none" stroke-width="2.0000009536743164" stroke-linecap="butt" stroke-opacity="1.0" stroke="rgb(0, 0, 0)" stroke-linejoin="round" d=" M 1872.925, 622.073 1872.925, 621.073 1872.925, 620.073 1872.925, 619.073 1872.925, 618.073 1872.925, 617.073 1872.925, 616.073 1872.925, 615.073 1872.925, 614.073 1872.925, 613.073 1872.925, 612.073 1872.925, 611.073 1872.925, 610.073 1872.925, 609.073 1872.925, 608.073 1872.925, 607.073 1872.925, 606.073 1872.925, 605.073 1872.925, 604.073 1872.925, 603.073 1872.925, 602.073 1872.925, 601.073 1872.925, 600.073 1872.925, 599.073 1872.925, 598.073 1872.925, 597.073 1872.925, 596.073 1872.925, 595.073 1872.925, 594.073 1872.925, 593.073 1872.925, 592.073 1872.925, 591.073 1872.925, 590.073 1872.925, 589.073 1872.925, 588.073 1872.925, 587.073 1872.925, 586.073 1872.925, 585.073 1872.925, 584.073 1872.925, 583.073 1872.925, 582.073 1872.925, 581.073 1872.925, 580.073 1872.925, 579.073 1872.925, 578.073 1872.925, 577.073 1872.925, 576.073 1872.925, 575.073 1872.925, 574.073 1872.925, 573.073 1872.925, 572.073 1872.925, 571.073 1872.925, 570.073 1872.925, 569.073 1872.925, 568.073 1872.925, 567.073 1872.925, 566.073 1872.925, 565.073 1872.925, 564.073 1872.925, 563.073 1872.925, 562.073 1872.925, 561.073 1872.925, 560.073 1872.925, 559.073 1872.925, 558.073 1872.925, 557.073 1872.925, 556.073 1872.925, 555.073 1872.925, 554.073 1872.925, 553.073 1872.925, 552.073 1872.925, 551.073 1872.925, 550.073 1872.925, 549.073 1872.925, 548.073 1872.925, 547.073 1872.925, 546.073 1872.925, 545.073 1872.925, 544.073 1872.925, 543.073 1872.925, 542.073 1872.925, 541.073 1872.925, 540.073 1872.925, 539.073 1872.925, 538.073 1872.925, 537.073 1872.925, 536.073 1872.925, 535.073 1872.925, 534.073 1872.925, 533.073 1872.925, 532.073 1872.925, 531.073 1872.925, 530.073 1872.925, 529.073 1872.925, 528.073 1872.925, 527.073 1872.925, 526.073 1872.925, 525.073 1872.925, 524.073 1872.925, 523.073 1872.925, 522.073 1872.925, 521.073 1872.925, 520.073 1872.925, 519.073 1872.925, 518.073 1872.925, 517.073 1872.925, 516.073 1872.925, 515.073 1872.925, 514.073 1872.925, 513.073 1872.925, 512.073 1872.925, 511.073 1872.925, 510.073 1872.925, 509.073 1872.925, 508.073 1872.925, 507.073 1872.925, 506.073 1872.925, 505.073 1872.925, 504.073 1872.925, 503.073 1872.925, 502.073 1872.925, 501.073 1872.925, 500.073 1872.925, 499.073 1872.925, 498.073 1872.925, 497.073 1872.925, 496.073 1872.925, 495.073 1872.925, 494.073 1872.925, 493.073 1872.925, 492.073 1872.925, 491.073 1872.925, 490.073 1872.925, 489.073 1872.925, 488.073 1872.925, 487.073 1872.925, 486.073 1872.925, 485.073 1872.925, 484.073 1872.925, 483.073 1872.925, 482.073 1872.925, 481.073 1872.925, 480.073 1872.925, 479.073 1872.925, 478.073 1872.925, 477.073 1872.925, 476.073 1872.925, 475.073 1872.925, 474.073 1872.925, 473.073 1872.925, 472.073 1872.925, 471.073 1872.925, 470.073 1872.925, 469.073 1872.925, 468.073 1872.925, 467.073 1872.925, 466.073 1872.925, 465.073 1872.925, 464.073 1872.925, 463.073 1872.925, 462.073 1872.925, 461.073 1872.925, 460.073 1872.925, 457.927 1871.925, 457.927 1870.925, 457.927 1869.925, 457.927 1868.925, 457.927 1867.925, 457.927 1866.925, 457.927 1865.925, 457.927 1864.925, 457.927 1863.925, 457.927 1862.925, 457.927 1861.925, 457.927 1860.925, 457.927 1859.925, 457.927 1858.925, 457.927 1857.925, 457.927 1856.925, 457.927 1855.925, 457.927 1854.925, 457.927 1853.925, 457.927 1852.925, 457.927 1851.925, 457.927 1850.925, 457.927 1849.925, 457.927 1848.925, 457.927 1847.925, 457.927 1846.925, 457.927 1845.925, 457.927 1844.925, 457.927 1843.925, 457.927 1842.925, 457.927 1841.925, 457.927 1840.925, 457.927 1839.925, 457.927 1838.925, 457.927 1837.925, 457.927 1836.925, 457.927 1835.925, 457.927 1834.925, 457.927 1833.925, 457.927 1832.925, 457.927 1831.925, 457.927 1830.925, 457.927 1829.925, 457.927 1828.925, 457.927 1827.925, 457.927 1826.925, 457.927 1825.925, 457.927 1824.925, 457.927 1823.925, 457.927 1822.925, 457.927 1821.925, 457.927 1820.925, 457.927 1819.925, 457.927 1818.925, 457.927 1817.925, 457.927 1816.925, 457.927 1815.925, 457.927 1814.925, 457.927 1813.925, 457.927 1812.925, 457.927 1811.925, 457.927 1810.925, 457.927 1809.925, 457.927 1808.925, 457.927 1807.925, 457.927 1806.925, 457.927 1805.925, 457.927 1804.925, 457.927 1803.925, 457.927 1802.925, 457.927 1801.925, 457.927 1800.925, 457.927 1799.925, 457.927 1798.925, 457.927 1797.925, 457.927 1796.925, 457.927 1795.925, 457.927 1794.925, 457.927 1793.925, 457.927 1792.925, 457.927 1791.925, 457.927 1790.925, 457.927 1789.925, 457.927 1788.925, 457.927 1787.925, 457.927 1786.925, 457.927 1785.925, 457.927 1784.925, 457.927 1783.925, 457.927 1782.925, 457.927 1781.925, 457.927 1780.925, 457.927 1779.925, 457.927 1778.925, 457.927 1777.925, 457.927 1776.925, 457.927 1775.925, 457.927 1774.925, 457.927 1773.925, 457.927 1772.925, 457.927 1771.925, 457.927 1770.925, 457.927 1769.925, 457.927 1768.925, 457.927 1767.925, 457.927 1766.925, 457.927 1765.925, 457.927 1764.925, 457.927 1763.925, 457.927 1762.925, 457.927 1761.925, 457.927 1760.925, 457.927 1759.925, 457.927 1758.925, 457.927 1757.925, 457.927 1756.924, 457.927 1755.925, 457.927 1754.925, 457.927 1753.925, 457.927 1752.925, 457.927 1751.925, 457.927 1750.925, 457.927 1749.925, 457.927 1748.925, 457.927 1747.925, 457.927 1746.925, 457.927 1745.925, 457.927 1744.925, 457.927 1743.925, 457.927 1742.925, 457.927 1741.924, 457.927 1740.925, 457.927 1739.924, 457.927 1738.925, 457.927 1737.924, 457.927 1736.925, 457.927 1735.925, 457.927 1734.925, 457.927 1733.925, 457.927 1732.925, 457.927 1731.925, 457.927 1730.925, 457.927 1729.925, 457.927 1728.925, 457.927 1727.925, 457.927 1726.925, 457.927 1725.925, 457.927 1724.924, 457.927 1723.925, 457.927 1722.924, 457.927 1721.925, 457.927 1720.924, 457.927 1719.925, 457.927 1718.924, 457.927 1717.925, 457.927 1716.925, 457.927 1715.925, 457.927 1714.925, 457.927 1713.925, 457.927 1712.925, 457.927 1711.925, 457.927 1710.925, 457.927 1709.925, 457.927 1708.925, 457.927 1707.924, 457.927 1706.925, 457.927 1705.924, 457.927 1704.925, 457.927 1703.924, 457.927 1702.925, 457.927 1701.924, 457.927 1700.925, 457.927 1699.924, 457.927 1698.925, 457.927 1697.925, 457.927 1696.925, 457.927 1695.925, 457.927 1694.925, 457.927 1693.925, 457.927 1692.924, 457.927 1691.925, 457.927 1690.924, 457.927 1689.925, 457.927 1688.924, 457.927 1687.925, 457.927 1686.924, 457.927 1685.925, 457.927 1684.924, 457.927 1683.925, 457.927 1682.924, 457.927 1681.925, 457.927 1680.925, 457.927 1679.925, 457.927 1678.925, 457.927 1677.925, 457.927 1676.925, 457.927 1675.924, 457.927 1674.925, 457.927 1673.924, 457.927 1672.925, 457.927 1671.924, 457.927 1670.925, 457.927 1669.924, 457.927 1668.925, 457.927 1667.924, 457.927 1666.925, 457.927 1665.924, 457.927 1664.925, 457.927 1663.924, 457.927 1662.925, 457.927 1661.925, 457.927 1660.925, 457.927 1659.925, 457.927 1658.924, 457.927 1657.925, 457.927 1656.924, 457.927 1655.925, 457.927 1654.924, 457.927 1653.925, 457.927 1652.924, 457.927 1651.925, 457.927 1650.924, 457.927 1649.925, 457.927 1648.924, 457.927 1647.925, 457.927 1646.924, 457.927 1645.924, 457.927 1644.925, 457.927 1643.925, 457.927 1642.925, 457.927 1641.924, 457.927 1640.924, 457.927 1639.925, 457.927 1638.925, 457.927 1637.924, 457.927 1636.924, 457.927 1635.925, 457.927 1634.925, 457.927 1633.924, 457.927 1632.924, 457.927 1631.925, 457.927 1630.925, 457.927 1629.924, 457.927 1628.924, 457.927 1627.925, 457.927 1626.925, 457.927 1625.925, 457.927 1624.924, 457.927 1623.924, 457.927 1622.925, 457.927 1621.925, 457.927 1620.924, 457.927 1619.924, 457.927 1618.925, 457.927 1617.925, 457.927 1616.924, 457.927 1615.924, 457.927 1614.925, 457.927 1613.925, 457.927 1612.924, 457.927 1611.924, 457.927 1610.924, 457.927 1609.925, 457.927 1608.924, 457.927 1607.924, 457.927 1606.924, 457.927 1605.925, 457.927 1604.925, 457.927 1603.924, 457.927 1602.924, 457.927 1601.925, 457.927 1600.925, 457.927 1599.924, 457.927 1598.924, 457.927 1597.925, 457.927 1596.925, 457.927 1595.924, 457.927 1594.924, 457.927 1593.924, 457.927 1592.925, 457.927 1591.924, 457.927 1590.924, 457.927 1589.924, 457.927 1588.925, 457.927 1587.925, 457.927 1586.924, 457.927 1585.924, 457.927 1584.925, 457.927 1583.925, 457.927 1582.924, 457.927 1581.924, 457.927 1580.925, 457.927 1579.925, 457.927 1578.924, 457.927 1577.924, 457.927 1576.924, 457.927 1575.925, 457.927 1574.924, 457.927 1573.924, 457.927 1572.924, 457.927 1571.925, 457.927 1570.925, 457.927 1569.924, 457.927 1568.924, 457.927 1567.925, 457.927 1566.925, 457.927 1565.924, 457.927 1564.924, 457.927 1563.925, 457.927 1562.925, 457.927 1561.924, 457.927 1560.924, 457.927 1559.924, 457.927 1558.925, 457.927 1557.924, 457.927 1556.924, 457.927 1555.924, 457.927 1554.925, 457.927 1553.924, 457.927 1552.924, 457.927 1551.924, 457.927 1550.925, 457.927 1549.925, 457.927 1548.924, 457.927 1547.924, 457.927 1546.925, 457.927 1545.925, 457.927 1544.924, 457.927 1543.924, 457.927 1542.924, 457.927 1541.925, 457.927 1540.924, 457.927 1539.924, 457.927 1538.924, 457.927 1537.925, 457.927 1536.924, 457.927 1535.924, 457.927 1534.924, 457.927 1533.925, 457.927 1532.925, 457.927 1531.924, 457.927 1530.924, 457.927 1529.925, 457.927 1528.925, 457.927 1527.924, 457.927 1526.924, 457.927 1525.924, 457.927 1524.925, 457.927 1523.924, 457.927 1522.924, 457.927 1521.924, 457.927 1520.925, 457.927 1519.924, 457.927 1518.924, 457.927 1517.924, 457.927 1516.925, 457.927 1515.925, 457.927 1514.924, 457.927 1513.924, 457.927 1512.924, 457.927 1511.925, 457.927 1510.924, 457.927 1509.924, 457.927 1508.924, 457.927 1507.925, 457.927 1506.924, 457.927 1505.924, 457.927 1504.924, 457.927 1503.925, 457.927 1502.924, 457.927 1501.924, 457.927 1500.924, 457.927 1499.925, 457.927 1498.924, 457.927 1497.924, 457.927 1496.924, 457.927 1495.924, 457.927 1494.925, 457.927 1493.924, 457.927 1492.924, 457.927 1491.924, 457.927 1490.925, 457.927 1489.924, 457.927 1488.924, 457.927 1487.924, 457.927 1486.925, 457.927 1485.924, 457.927 1484.924, 457.927 1483.924, 457.927 1482.925, 457.927 1481.924, 457.927 1480.924, 457.927 1479.924, 457.927 1478.924, 457.927 1477.925, 457.927 1476.924, 457.927 1475.924, 457.927 1474.924, 457.927 1473.925, 457.927 1472.924, 457.927 1471.924, 457.927 1470.924, 457.927 1469.925, 457.927 1468.924, 457.927 1467.924, 457.927 1466.924, 457.927 1465.925, 457.927 1464.924, 457.927 1463.924, 457.927 1462.924, 457.927 1461.924, 457.927 1460.924, 457.927 1459.924, 457.927 1458.924, 457.927 1457.924, 457.927 1456.925, 457.927 1455.924, 457.927 1454.924, 457.927 1453.924, 457.927 1452.925, 457.927 1451.924, 457.927 1450.924, 457.927 1449.924, 457.927 1448.925, 457.927 1447.924, 457.927 1446.924, 457.927 1445.924, 457.927 1444.924, 457.927 1443.924, 457.927 1442.924, 457.927 1441.924, 457.927 1440.924, 457.927 1439.925, 457.927 1438.924, 457.927 1437.924, 457.927 1436.924, 457.927 1435.925, 457.927 1434.924, 457.927 1433.924, 457.927 1432.924, 457.927 1431.925, 457.927 1430.924, 457.927 1429.924, 457.927 1428.924, 457.927 1427.924, 457.927 1426.924, 457.927 1425.924, 457.927 1424.924, 457.927 1423.924, 457.927 1422.925, 457.927 1421.924, 457.927 1420.924, 457.927 1419.925, 457.927 1418.924, 457.927 1417.924, 457.927 1416.925, 457.927 1415.924, 457.927 1414.925, 457.927 1413.924, 457.927 1412.924, 457.927 1411.925, 457.927 1410.924, 457.927 1409.924, 457.927 1408.924, 457.927 1407.924, 457.927 1406.925, 457.927 1405.924, 457.927 1404.924, 457.927 1403.925, 457.927 1402.924, 457.927 1401.925, 457.927 1400.924, 457.927 1399.924, 457.927 1398.925, 457.927 1397.924, 457.927 1396.924, 457.927 1395.924, 457.927 1394.924, 457.927 1393.925, 457.927 1392.924, 457.927 1391.924, 457.927 1390.925, 457.927 1389.924, 457.927 1388.924, 457.927 1387.924, 457.927 1386.924, 457.927 1385.925, 457.927 1384.924, 457.927 1383.924, 457.927 1382.925, 457.927 1381.924, 457.927 1380.925, 457.927 1379.924, 457.927 1378.924, 457.927 1377.925, 457.927 1376.924, 457.927 1375.924, 457.927 1374.924, 457.927 1373.924, 457.927 1372.925, 457.927 1371.924, 457.927 1370.924, 457.927 1369.925, 457.927 1368.924, 457.927 1367.925, 457.927 1366.924, 457.927 1365.924, 457.927 1364.925, 457.927 1363.924, 457.927 1362.924, 457.927 1361.924, 457.927 1360.924, 457.927 1359.925, 457.927 1358.924, 457.927 1357.924, 457.927 1356.925, 457.927 1355.924, 457.927 1354.924, 457.927 1353.924, 457.927 1352.924, 457.927 1351.925, 457.927 1350.924, 457.927 1349.924, 457.927 1348.924, 457.927 1347.924, 457.927 1346.925, 457.927 1345.924, 457.927 1344.924, 457.927 1343.925, 457.927 1342.924, 457.927 1341.924, 457.927 1340.924, 457.927 1339.924, 457.927 1338.925, 457.927 1337.924, 457.927 1336.924, 457.927 1335.925, 457.927 1334.924, 457.927 1333.924, 457.927 1332.924, 457.927 1331.924, 457.927 1330.925, 457.927 1329.924, 457.927 1328.924, 457.927 1327.924, 457.927 1326.924, 457.927 1325.925, 457.927 1324.924, 457.927 1323.924, 457.927 1322.925, 457.927 1321.924, 457.927 1320.924, 457.927 1319.924, 457.927 1318.924, 457.927 1317.925, 457.927 1316.924, 457.927 1315.924, 457.927 1314.924, 457.927 1313.924, 457.927 1312.925, 457.927 1311.924, 457.927 1310.924, 457.927 1309.925, 457.927 1308.924, 457.927 1307.924, 457.927 1306.924, 457.927 1305.924, 457.927 1304.925, 457.927 1303.924, 457.927 1302.924, 457.927 1301.925, 457.927 1300.924, 457.927 1299.924, 457.927 1298.924, 457.927 1297.924, 457.927 1296.925, 457.927 1295.924, 457.927 1294.924, 457.927 1293.924, 457.927 1292.924, 457.927 1291.925, 457.927 1290.924, 457.927 1289.924, 457.927 1288.925, 457.927 1287.924, 457.927 1286.924, 457.927 1285.924, 457.927 1284.924, 457.927 1283.925, 457.927 1282.924, 457.927 1281.924, 457.927 1280.924, 457.927 1279.924, 457.927 1278.924, 457.927 1277.924, 457.927 1276.924, 457.927 1275.925, 457.927 1274.924, 457.927 1273.924, 457.927 1272.924, 457.927 1271.924, 457.927 1270.925, 457.927 1269.924, 457.927 1268.924, 457.927 1267.925, 457.927 1266.924, 457.927 1265.924, 457.927 1264.924, 457.927 1263.924, 457.927 1262.925, 457.927 1261.924, 457.927 1260.924, 457.927 1259.924, 457.927 1258.924, 457.927 1257.925, 457.927 1256.924, 457.927 1255.924, 457.927 1254.925, 457.927 1253.924, 457.927 1252.924, 457.927 1251.924, 457.927 1250.924, 457.927 1249.925, 457.927 1248.924, 457.927 1247.924, 457.927 1246.924, 457.927 1245.924, 457.927 1244.924, 457.927 1243.924, 457.927 1242.924, 457.927 1241.925, 457.927 1240.924, 457.927 1239.924, 457.927 1238.924, 457.927 1237.924, 457.927 1236.925, 457.927 1235.924, 457.927 1234.924, 457.927 1233.924, 457.927 1232.924, 457.927 1231.924, 457.927 1230.924, 457.927 1229.924, 457.927 1228.925, 457.927 1227.924, 457.927 1226.924, 457.927 1225.924, 457.927 1224.924, 457.927 1223.924, 457.927 1222.924, 457.927 1221.924, 457.927 1220.925, 457.927 1219.924, 457.927 1218.924, 457.927 1217.924, 457.927 1216.924, 457.927 1215.925, 457.927 1214.924, 457.927 1213.924, 457.927 1212.924, 457.927 1211.924, 457.927 1210.924, 457.927 1209.924, 457.927 1208.924, 457.927 1207.925, 457.927 1206.924, 457.927 1205.924, 457.927 1204.924, 457.927 1203.924, 457.927 1202.925, 457.927 1201.924, 457.927 1200.924, 457.927 1199.924, 457.927 1198.924, 457.927 1197.924, 457.927 1196.924, 457.927 1195.924, 457.927 1194.925, 457.927 1193.924, 457.927 1192.924, 457.927 1191.924, 457.927 1190.924, 457.927 1189.924, 457.927 1188.924, 457.927 1187.924, 457.927 1186.925, 457.927 1185.924, 457.927 1184.924, 457.927 1183.924, 457.927 1182.924, 457.927 1181.925, 457.927 1180.924, 457.927 1179.924, 457.927 1178.924, 457.927 1177.924, 457.927 1176.924, 457.927 1175.924, 457.927 1174.924, 457.927 1173.925, 457.927 1172.924, 457.927 1171.924, 457.927 1170.924, 457.927 1169.924, 457.927 1168.924, 457.927 1167.924, 457.927 1166.924, 457.927 1165.924, 457.927 1164.924, 457.927 1163.924, 457.927 1162.924, 457.927 1161.924, 457.927 1160.925, 457.927 1159.924, 457.927 1158.924, 457.927 1157.924, 457.927 1156.924, 457.927 1155.924, 457.927 1154.924, 457.927 1153.924, 457.927 1152.924, 457.927 1151.924, 457.927 1150.924, 457.927 1149.924, 457.927 1148.924, 457.927 1147.925, 457.927 1146.924, 457.927 1145.924, 457.927 1144.924, 457.927 1143.924, 457.927 1142.924, 457.927 1141.924, 457.927 1140.924, 457.927 1139.925, 457.927 1138.924, 457.927 1137.924, 457.927 1136.924, 457.927 1135.924, 457.927 1134.924, 457.927 1133.924, 457.927 1132.924, 457.927 1131.924, 457.927 1130.924, 457.927 1129.924, 457.927 1128.924, 457.927 1127.924, 457.927 1126.925, 457.927 1125.924, 457.927 1124.924, 457.927 1123.924, 457.927 1122.924, 457.927 1121.924, 457.927 1120.924, 457.927 1119.924, 457.927 1118.924, 457.927 1117.924, 457.927 1116.924, 457.927 1115.924, 457.927 1114.924, 457.927 1113.924, 457.927 1112.924, 457.927 1111.924, 457.927 1110.924, 457.927 1109.924, 457.927 1108.924, 457.927 1107.924, 457.927 1106.924, 457.927 1105.925, 457.927 1104.924, 457.927 1103.924, 457.927 1102.924, 457.927 1101.924, 457.927 1100.924, 457.927 1099.924, 457.927 1098.924, 457.927 1097.924, 457.927 1096.924, 457.927 1095.924, 457.927 1094.924, 457.927 1093.924, 457.927 1092.925, 457.927 1091.924, 457.927 1090.924, 457.927 1089.924, 457.927 1088.924, 457.927 1087.924, 457.927 1086.924, 457.927 1085.924, 457.927 1084.924, 457.927 1083.924, 457.927 1082.924, 457.927 1081.924, 457.927 1080.924, 457.927 1079.924, 457.927 1078.924, 457.927 1077.924, 457.927 1076.924, 457.927 1075.924, 457.927 1074.924, 457.927 1073.924, 457.927 1072.924, 457.927 1071.925, 457.927 1070.924, 457.927 1069.924, 457.927 1068.924, 457.927 1067.924, 457.927 1066.924, 457.927 1065.924, 457.927 1064.924, 457.927 1063.924, 457.927 1062.924, 457.927 1061.924, 457.927 1060.924, 457.927 1059.924, 457.927 1058.924, 457.927 1057.924, 457.927 1056.924, 457.927 1055.924, 457.927 1054.924, 457.927 1053.924, 457.927 1052.924, 457.927 1051.924, 457.927 1050.924, 457.927 1049.924, 457.927 1048.924, 457.927 1047.924, 457.927 1046.924, 457.927 1045.924, 457.927 1044.924, 457.927 1043.924, 457.927 1042.924, 457.927 1041.924, 457.927 1040.924, 457.927 1039.924, 457.927 1038.924, 457.927 1037.924, 457.927 1036.924, 457.927 1035.924, 457.927 1034.924, 457.927 1033.924, 457.927 1032.924, 457.927 1031.924, 457.927 1030.924, 457.927 1029.924, 457.927 1028.924, 457.927 1027.924, 457.927 1026.924, 457.927 1025.924, 457.927 1024.924, 457.927 1023.924, 457.927 1022.924, 457.927 1021.924, 457.927 1020.924, 457.927 1019.924, 457.927 1018.924, 457.927 1017.924, 457.927 1016.924, 457.927 1015.924, 457.927 1014.924, 457.927 1013.924, 457.927 1012.924, 457.927 1011.924, 457.927 1010.924, 457.927 1009.924, 457.927 1008.924, 457.927 1007.924, 457.927 1006.924, 457.927 1005.924, 457.927 1004.924, 457.927 1003.924, 457.927 1002.924, 457.927 1001.924, 457.927 1000.924, 457.927 999.924, 457.927 998.924, 457.927 997.924, 457.927 996.924, 457.927 995.924, 457.927 994.924, 457.927 993.924, 457.927 992.924, 457.927 991.924, 457.927 990.924, 457.927 989.924, 457.927 988.924, 457.927 987.924, 457.927 986.924, 457.927 985.924, 457.927 984.924, 457.927 983.924, 457.927 982.924, 457.927 981.924, 457.927 980.924, 457.927 979.924, 457.927 978.924, 457.927 977.924, 457.927 976.924, 457.927 975.924, 457.927 974.924, 457.927 973.924, 457.927 972.924, 457.927 971.924, 457.927 970.924, 457.927 969.924, 457.927 968.924, 457.927 967.924, 457.927 966.924, 457.927 965.924, 457.927 964.924, 457.927 963.924, 457.927 962.924, 457.927 961.924, 457.927 960.924, 457.927 959.924, 457.927 958.924, 457.927 957.924, 457.927 956.924, 457.927 955.924, 457.927 954.924, 457.927 953.924, 457.927 952.924, 457.927 951.924, 457.927 950.924, 457.927 949.924, 457.927 948.924, 457.927 947.924, 457.927 946.924, 457.927 945.924, 457.927 944.924, 457.927 943.924, 457.927 942.924, 457.927 941.924, 457.927 940.924, 457.927 939.924, 457.927 938.924, 457.927 937.924, 457.927 936.924, 457.927 935.924, 457.927 934.924, 457.927 933.924, 457.927 932.924, 457.927 931.924, 457.927 930.924, 457.927 929.924, 457.927 928.924, 457.927 927.924, 457.927 926.924, 457.927 925.924, 457.927 924.924, 457.927 923.924, 457.927 922.924, 457.927 921.924, 457.927 920.924, 457.927 919.924, 457.927 918.924, 457.927 917.924, 457.927 916.924, 457.927 915.924, 457.927 914.924, 457.927 913.924, 457.927 912.924, 457.927 911.924, 457.927 910.924, 457.927 909.924, 457.927 908.924, 457.927 907.924, 457.927 906.924, 457.927 905.924, 457.927 904.924, 457.927 903.924, 457.927 902.924, 457.927 901.924, 457.927 900.924, 457.927 899.924, 457.927 898.924, 457.927 897.924, 457.927 896.924, 457.927 895.924, 457.927 894.924, 457.927 893.924, 457.927 892.924, 457.927 891.924, 457.927 890.924, 457.927 889.924, 457.927 888.924, 457.927 887.924, 457.927 886.924, 457.927 885.924, 457.927 884.924, 457.927 883.924, 457.927 882.924, 457.927 881.924, 457.927 880.924, 457.927 879.924, 457.927 878.924, 457.927 877.924, 457.927 876.924, 457.927 875.924, 457.927 874.924, 457.927 873.924, 457.927 872.924, 457.927 871.924, 457.927 870.924, 457.927 869.924, 457.927 868.924, 457.927 867.924, 457.927 866.924, 457.927 865.924, 457.927 864.924, 457.927 863.924, 457.927 862.924, 457.927 861.924, 457.927 860.924, 457.927 859.924, 457.927 858.924, 457.927 857.924, 457.927 856.924, 457.927 855.924, 457.927 854.924, 457.927 853.924, 457.927 852.924, 457.927 851.924, 457.927 850.924, 457.927 849.924, 457.927 848.924, 457.927 847.924, 457.927 846.924, 457.927 845.924, 457.927 844.924, 457.927 843.924, 457.927 842.924, 457.927 841.924, 457.927 840.924, 457.927 839.924, 457.927 838.924, 457.927 837.924, 457.927 836.924, 457.927 835.924, 457.927 834.924, 457.927 833.924, 457.927 832.924, 457.927 831.924, 457.927 830.924, 457.927 829.924, 457.927 828.924, 457.927 827.924, 457.927 826.924, 457.927 825.924, 457.927 824.924, 457.927 823.924, 457.927 822.924, 457.927 821.924, 457.927 820.924, 457.927 819.924, 457.927 818.924, 457.927 817.924, 457.927 816.924, 457.927 815.924, 457.927 814.924, 457.927 813.924, 457.927 812.924, 457.927 811.924, 457.927 810.924, 457.927 809.924, 457.927 808.924, 457.927 807.924, 457.927 806.924, 457.927 805.924, 457.927 804.924, 457.927 803.924, 457.927 802.924, 457.927 801.924, 457.927 800.924, 457.927 799.924, 457.927 798.924, 457.927 797.924, 457.927 796.924, 457.927 795.924, 457.927 794.924, 457.927 793.924, 457.927 792.924, 457.927 791.924, 457.927 790.924, 457.927 789.924, 457.927 788.924, 457.927 787.924, 457.927 786.924, 457.927 785.924, 457.927 784.924, 457.927 783.924, 457.927 782.924, 457.927 781.924, 457.927 780.924, 457.927 779.924, 457.927 778.924, 457.927 777.924, 457.927 776.924, 457.927 775.924, 457.927 774.924, 457.927 773.924, 457.927 772.924, 457.927 771.924, 457.927 770.924, 457.927 769.924, 457.927 768.924, 457.927 767.924, 457.927 766.924, 457.927 765.924, 457.927 764.924, 457.927 763.924, 457.927 762.924, 457.927 761.924, 457.927 760.924, 457.927 759.924, 457.927 758.924, 457.927 757.924, 457.927 756.924, 457.927 755.924, 457.927 754.924, 457.927 753.924, 457.927 752.924, 457.927 751.924, 457.927 750.924, 457.927 749.924, 457.927 748.924, 457.927 747.924, 457.927 746.924, 457.927 745.924, 457.927 744.924, 457.927 743.924, 457.927 742.924, 457.927 741.924, 457.927 740.924, 457.927 739.924, 457.927 738.924, 457.927 737.924, 457.927 736.924, 457.927 735.924, 457.927 734.924, 457.927 733.924, 457.927 732.924, 457.927 731.924, 457.927 730.924, 457.927 729.924, 457.927 728.924, 457.927 727.924, 457.927 726.924, 457.927 725.924, 457.927 724.924, 457.927 723.924, 457.927 722.924, 457.927 721.924, 457.927 720.924, 457.927 719.924, 457.927 718.924, 457.927 717.924, 457.927 716.924, 457.927 715.924, 457.927 714.924, 457.927 713.924, 457.927 712.924, 457.927 711.924, 457.927 710.924, 457.927 709.924, 457.927 708.924, 457.927 707.924, 457.927 706.924, 457.927 705.924, 457.927 704.924, 457.927 703.924, 457.927 702.924, 457.927 701.924, 457.927 700.924, 457.927 699.924, 457.927 698.924, 457.927 697.924, 457.927 696.924, 457.927 695.924, 457.927 694.924, 457.927 693.924, 457.927 692.924, 457.927 691.924, 457.927 690.924, 457.927 689.924, 457.927 688.924, 457.927 687.924, 457.927 686.924, 457.927 685.924, 457.927 684.924, 457.927 683.924, 457.927 682.924, 457.927 681.924, 457.927 680.924, 457.927 679.924, 457.927 678.924, 457.927 677.924, 457.927 676.924, 457.927 675.924, 457.927 674.924, 457.927 673.924, 457.927 672.924, 457.927 671.924, 457.927 670.924, 457.927 669.924, 457.927 668.924, 457.927 667.924, 457.927 666.924, 457.927 665.924, 457.927 664.924, 457.927 663.924, 457.927 662.924, 457.927 661.924, 457.927 660.924, 457.927 659.924, 457.927 658.924, 457.927 657.924, 457.927 656.924, 457.927 655.924, 457.927 654.924, 457.927 653.924, 457.927 652.924, 457.927 651.924, 457.927 650.924, 457.927 649.924, 457.927 648.924, 457.927 647.924, 457.927 646.924, 457.927 645.924, 457.927 644.924, 457.927 643.924, 457.927 642.924, 457.927 641.924, 457.927 640.924, 457.927 639.924, 457.927 638.924, 457.927 637.924, 457.927 636.924, 457.927 635.924, 457.927 634.924, 457.927 633.924, 457.927 632.924, 457.927 631.924, 457.927 630.924, 457.927 629.924, 457.927 628.924, 457.927 627.924, 457.927 626.924, 457.927 625.924, 457.927 624.924, 457.927 623.924, 457.927 622.924, 457.927 621.924, 457.927 620.924, 457.927 619.924, 457.927 618.924, 457.927 617.924, 457.927 616.924, 457.927 615.924, 457.927 614.924, 457.927 613.924, 457.927 612.924, 457.927 611.924, 457.927 610.924, 457.927 609.924, 457.927 608.924, 457.927 607.924, 457.927 606.924, 457.927 605.924, 457.927 604.924, 457.927 603.924, 457.927 602.924, 457.927 601.924, 457.927 600.924, 457.927 599.924, 457.927 598.924, 457.927 597.924, 457.927 596.924, 457.927 595.924, 457.927 594.924, 457.927 593.924, 457.927 592.924, 457.927 591.924, 457.927 590.924, 457.927 589.924, 457.927 588.924, 457.927 587.924, 457.927 586.924, 457.927 585.924, 457.927 584.924, 457.927 583.924, 457.927 582.924, 457.927 581.924, 457.927 580.924, 457.927 579.924, 457.927 578.924, 457.927 577.924, 457.927 576.924, 457.927 575.924, 457.927 574.924, 457.927 573.924, 457.927 572.924, 457.927 571.924, 457.927 570.924, 457.927 569.924, 457.927 568.924, 457.927 567.924, 457.927 566.924, 457.927 565.924, 457.927 564.924, 457.927 563.924, 457.927 562.924, 457.927 561.924, 457.927 560.924, 457.927 559.924, 457.927 558.924, 457.927 557.924, 457.927 556.924, 457.927 555.924, 457.927 554.924, 457.927 553.924, 457.927 552.924, 457.927 551.924, 457.927 550.924, 457.927 549.924, 457.927 548.924, 457.927 547.924, 457.927 546.924, 457.927 545.924, 457.927 544.924, 457.927 543.924, 457.927 542.924, 457.927 541.924, 457.927 540.924, 457.927 539.924, 457.927 538.924, 457.927 537.924, 457.927 536.924, 457.927 535.924, 457.927 534.924, 457.927 533.924, 457.927 532.924, 457.927 531.924, 457.927 530.924, 457.927 529.924, 457.927 528.924, 457.927 527.924, 457.927 526.924, 457.927 525.924, 457.927 524.924, 457.927 523.924, 457.927 522.924, 457.927 521.924, 457.927 520.924, 457.927 519.924, 457.927 518.924, 457.927 517.924, 457.927 516.924, 457.927 515.924, 457.927 514.924, 457.927 513.924, 457.927 512.924, 457.927 511.924, 457.927 510.924, 457.927 509.924, 457.927 508.924, 457.927 507.924, 457.927 506.924, 457.927 505.924, 457.927 504.924, 457.927 503.924, 457.927 502.924, 457.927 501.924, 457.927 500.924, 457.927 499.924, 457.927 498.924, 457.927 497.924, 457.927 496.924, 457.927 495.924, 457.927 494.924, 457.927 493.924, 457.927 492.924, 457.927 491.924, 457.927 490.924, 457.927 489.924, 457.927 488.924, 457.927 487.924, 457.927 486.924, 457.927 485.924, 457.927 484.924, 457.927 483.924, 457.927 482.924, 457.927 481.924, 457.927 480.924, 457.927 479.924, 457.927 478.924, 457.927 477.924, 457.927 476.924, 457.927 475.924, 457.927 474.924, 457.927 473.924, 457.927 472.924, 457.927 471.924, 457.927 470.924, 457.927 469.924, 457.927 468.924, 457.927 467.924, 457.927 466.924, 457.927 465.924, 457.927 464.924, 457.927 463.924, 457.927 462.924, 457.927 461.924, 457.927 460.924, 457.927 459.924, 457.927 458.924, 457.927 457.924, 457.927 456.924, 457.927 455.924, 457.927 454.924, 457.927 453.924, 457.927 452.924, 457.927 451.924, 457.927 450.924, 457.927 449.924, 457.927 448.924, 457.927 447.924, 457.927 446.924, 457.927 445.924, 457.927 444.924, 457.927 443.924, 457.927 442.924, 457.927 441.924, 457.927 440.924, 457.927 439.924, 457.927 438.924, 457.927 437.924, 457.927 436.924, 457.927 435.924, 457.927 434.924, 457.927 433.924, 457.927 432.924, 457.927 431.924, 457.927 430.924, 457.927 429.924, 457.927 428.924, 457.927 427.924, 457.927 426.924, 457.927 425.924, 457.927 424.924, 457.927 423.924, 457.927 422.924, 457.927 421.924, 457.927 420.924, 457.927 419.924, 457.927 418.924, 457.927 417.924, 457.927 416.924, 457.927 415.924, 457.927 414.924, 457.927 413.924, 457.927 412.924, 457.927 411.924, 457.927 410.924, 457.927 409.924, 457.927 408.924, 457.927 407.924, 457.927 406.924, 457.927 405.924, 457.927 404.924, 457.927 403.924, 457.927 402.924, 457.927 401.924, 457.927 400.924, 457.927 399.924, 457.927 398.924, 457.927 397.924, 457.927 396.924, 457.927 395.924, 457.927 394.924, 457.927 393.924, 457.927 392.924, 457.927 391.924, 457.927 390.924, 457.927 389.924, 457.927 388.924, 457.927 387.924, 457.927 386.924, 457.927 385.924, 457.927 384.924, 457.927 383.924, 457.927 382.924, 457.927 381.924, 457.927 380.924, 457.927 379.924, 457.927 378.924, 457.927 377.924, 457.927 376.924, 457.927 375.924, 457.927 374.924, 457.927 373.924, 457.927 372.924, 457.927 371.924, 457.927 370.924, 457.927 369.924, 457.927 368.924, 457.927 367.924, 457.927 366.924, 457.927 365.924, 457.927 364.924, 457.927 363.924, 457.927 362.924, 457.927 361.924, 457.927 360.924, 457.927 359.924, 457.927 358.924, 457.927 357.924, 457.927 356.924, 457.927 355.924, 457.927 354.924, 457.927 353.924, 457.927 352.924, 457.927 351.924, 457.927 350.924, 457.927 349.924, 457.927 348.924, 457.927 347.924, 457.927 346.924, 457.927 345.924, 457.927 344.924, 457.927 343.924, 457.927 342.924, 457.927 341.924, 457.927 340.924, 457.927 339.924, 457.927 338.924, 457.927 337.924, 457.927 336.924, 457.927 335.924, 457.927 334.924, 457.927 333.924, 457.927 332.924, 457.927 331.924, 457.927 330.924, 457.927 329.924, 457.927 328.924, 457.927 327.924, 457.927 326.924, 457.927 325.924, 457.927 324.924, 457.927 323.924, 457.927 322.924, 457.927 321.924, 457.927 320.924, 457.927 319.924, 457.927 318.924, 457.927 317.924, 457.927 316.924, 457.927 315.924, 457.927 314.924, 457.927 313.924, 457.927 312.924, 457.927 311.924, 457.927 310.924, 457.927 309.924, 457.927 308.924, 457.927 307.924, 457.927 306.924, 457.927 305.924, 457.927 304.924, 457.927 303.924, 457.927 302.924, 457.927 301.924, 457.927 300.924, 457.927 299.924, 457.927 298.924, 457.927 297.924, 457.927 296.924, 457.927 295.924, 457.927 294.924, 457.927 293.924, 457.927 292.924, 457.927 291.924, 457.927 290.924, 457.927 289.924, 457.927 288.924, 457.927 287.924, 457.927 286.924, 457.927 285.924, 457.927 284.924, 457.927 283.924, 457.927 282.924, 457.927 281.924, 457.927 280.924, 457.927 279.924, 457.927 278.924, 457.927 277.924, 457.927 276.924, 457.927 275.924, 457.927 274.924, 457.927 273.924, 457.927 272.924, 457.927 271.924, 457.927 270.924, 457.927 269.924, 457.927 268.924, 457.927 267.924, 457.927 266.924, 457.927 265.924, 457.927 264.924, 457.927 263.924, 457.927 262.924, 457.927 261.924, 457.927 260.924, 457.927 259.924, 457.927 258.924, 457.927 257.924, 457.927 256.924, 457.927 255.924, 457.927 254.924, 457.927 253.924, 457.927 252.924, 457.927 251.924, 457.927 250.924, 457.927 249.924, 457.927 248.924, 457.927 247.924, 457.927 246.924, 457.927 245.924, 457.927 244.924, 457.927 243.924, 457.927 242.924, 457.927 241.924, 457.927 240.924, 457.927 239.924, 457.927 238.924, 457.927 237.924, 457.927 236.924, 457.927 235.924, 457.927 234.924, 457.927 233.924, 457.927 232.924, 457.927 231.924, 457.927 230.924, 457.927 229.924, 457.927 228.924, 457.927 227.924, 457.927 226.924, 457.927 225.924, 457.927 224.924, 457.927 223.924, 457.927 222.924, 457.927 221.924, 457.927 220.924, 457.927 219.924, 457.927 218.924, 457.927 217.924, 457.927 216.924, 457.927 215.924, 457.927 214.924, 457.927 213.924, 457.927 212.924, 457.927 211.924, 457.927 210.924, 457.927 209.924, 457.927 208.924, 457.927 207.924, 457.927 206.924, 457.927 205.924, 457.927 204.924, 457.927 203.924, 457.927 202.924, 457.927 201.924, 457.927 200.924, 457.927 199.924, 457.927 198.924, 457.927 197.924, 457.927 196.924, 457.927 195.924, 457.927 194.924, 457.927 193.924, 457.927 192.924, 457.927 191.924, 457.927 190.924, 457.927 189.924, 457.927 188.924, 457.927 187.924, 457.927 186.924, 457.927 185.924, 457.927 184.924, 457.927 183.924, 457.927 182.924, 457.927 181.924, 457.927 180.924, 457.927 179.924, 457.927 178.924, 457.927 177.924, 457.927 176.924, 457.927 175.924, 457.927 174.924, 457.927 173.924, 457.927 172.924, 457.927 171.924, 457.927 170.924, 457.927 169.924, 457.927 168.924, 457.927 167.924, 457.927 166.924, 457.927 165.924, 457.927 164.924, 457.927 163.924, 457.927 162.924, 457.927 161.924, 457.927 160.924, 457.927 159.924, 457.927 158.924, 457.927 157.924, 457.927 156.924, 457.927 155.924, 457.927 154.924, 457.927 153.924, 457.927 152.924, 457.927 151.924, 457.927 150.924, 457.927 149.924, 457.927 148.924, 457.927 147.924, 457.927 146.924, 457.927 145.924, 457.927 144.924, 457.927 143.924, 457.927 142.924, 457.927 141.924, 457.927 140.924, 457.927 139.924, 457.927 138.924, 457.927 137.924, 457.927 136.924, 457.927 135.924, 457.927 134.924, 457.927 133.924, 457.927 132.924, 457.927 131.924, 457.927 130.924, 457.927 129.924, 457.927 128.924, 457.927 127.924, 457.927 126.924, 457.927 125.924, 457.927 124.924, 457.927 123.924, 457.927 122.924, 457.927 121.924, 457.927 120.924, 457.927 119.924, 457.927 118.924, 457.927 117.924, 457.927 116.924, 457.927 115.924, 457.927 114.924, 457.927 113.924, 457.927 112.924, 457.927 111.924, 457.927 110.924, 457.927 109.924, 457.927 108.924, 457.927 107.924, 457.927 106.924, 457.927 105.924, 457.927 104.924, 457.927 103.924, 457.927 102.924, 457.927 101.924, 457.927 100.924, 457.927 99.924, 457.927 98.924, 457.927 97.924, 457.927 96.924, 457.927 95.924, 457.927 94.924, 457.927 93.924, 457.927 92.924, 457.927 91.924, 457.927 90.924, 457.927 89.924, 457.927 88.924, 457.927 87.924, 457.927 86.924, 457.927 85.924, 457.927 67.310, 457.927 67.310, 458.927 67.310, 459.927 67.310, 460.927 67.310, 461.927 67.310, 462.927 67.310, 463.927 67.310, 464.927 67.310, 465.927 67.310, 466.927 67.310, 467.927 67.310, 468.927 67.310, 469.927 67.310, 470.927 67.310, 471.927 67.310, 472.927 67.310, 473.927 67.310, 474.927 67.310, 475.927 67.310, 476.927 67.310, 477.927 67.310, 478.927 67.310, 479.927 67.310, 480.927 67.310, 481.927 67.310, 482.927 67.310, 483.927 67.310, 484.927 67.310, 485.927 67.310, 486.927 67.310, 487.927 67.310, 488.927 67.310, 489.927 67.310, 490.927 67.310, 491.927 67.310, 492.927 67.310, 493.927 67.310, 494.927 67.310, 495.927 67.310, 496.927 67.310, 497.927 67.310, 498.927 67.310, 499.927 67.310, 500.927 67.310, 501.927 67.310, 502.927 67.310, 503.927 67.310, 504.927 67.310, 505.927 67.310, 506.927 67.310, 507.927 67.310, 508.927 67.310, 509.927 67.310, 510.927 67.310, 511.927 67.310, 512.927 67.310, 513.927 67.310, 514.927 67.310, 515.927 67.310, 516.927 67.310, 517.927 67.310, 518.927 67.310, 519.927 67.310, 520.927 67.310, 521.927 67.310, 522.927 67.310, 523.927 67.310, 524.927 67.310, 525.927 67.310, 526.927 67.310, 527.927 67.310, 528.927 67.310, 529.927 67.310, 530.927 67.310, 531.927 67.310, 532.927 67.310, 533.927 67.310, 534.927 67.310, 535.927 67.310, 536.927 67.310, 537.927 67.310, 538.927 67.310, 539.927 67.310, 540.927 67.310, 541.927 67.310, 542.927 67.310, 543.927 67.310, 544.927 67.310, 545.927 67.310, 546.927 67.310, 547.927 67.310, 548.927 67.310, 549.927 67.310, 550.927 67.310, 551.927 67.310, 552.927 67.310, 553.927 67.310, 554.927 67.310, 555.927 67.310, 556.927 67.310, 557.927 67.310, 558.927 67.310, 559.927 67.310, 560.927 67.310, 561.927 67.310, 562.927 67.310, 563.927 67.310, 564.927 67.310, 565.927 67.310, 566.927 67.310, 567.927 67.310, 568.927 67.310, 569.927 67.310, 570.927 67.310, 571.927 67.310, 572.927 67.310, 573.927 67.310, 574.927 67.310, 575.927 67.310, 576.927 67.310, 577.927 67.310, 578.927 67.310, 579.927 67.310, 580.927 67.310, 581.927 67.310, 582.927 67.310, 583.927 67.310, 584.927 67.310, 585.927 67.310, 586.927 67.310, 587.927 67.310, 588.927 67.310, 589.927 67.310, 590.927 67.310, 591.927 67.310, 592.927 67.310, 593.927 67.310, 594.927 67.310, 595.927 67.310, 596.927 67.310, 597.927 67.310, 598.927 67.310, 599.927 67.310, 600.927 67.310, 601.927 67.310, 602.927 67.310, 603.927 67.310, 604.927 67.310, 605.927 67.310, 606.927 67.310, 607.927 67.310, 608.927 67.310, 609.927 67.310, 610.927 67.310, 611.927 67.310, 612.927 67.310, 613.927 67.310, 614.927 67.310, 615.927 67.310, 616.927 67.310, 617.927 67.310, 618.927 67.310, 619.927 67.310, 622.073 68.310, 622.073 69.310, 622.073 70.310, 622.073 71.310, 622.073 72.310, 622.073 73.310, 622.073 74.310, 622.073 75.310, 622.073 76.310, 622.073 77.310, 622.073 78.310, 622.073 79.310, 622.073 80.310, 622.073 81.310, 622.073 82.310, 622.073 83.310, 622.073 84.310, 622.073 85.310, 622.073 86.310, 622.073 87.310, 622.073 88.310, 622.073 89.310, 622.073 90.310, 622.073 91.310, 622.073 92.310, 622.073 93.310, 622.073 94.310, 622.073 95.310, 622.073 96.310, 622.073 97.310, 622.073 98.310, 622.073 99.310, 622.073 100.310, 622.073 101.310, 622.073 102.310, 622.073 103.310, 622.073 104.310, 622.073 105.310, 622.073 106.310, 622.073 107.310, 622.073 108.310, 622.073 109.310, 622.073 110.310, 622.073 111.310, 622.073 112.310, 622.073 113.310, 622.073 114.310, 622.073 115.310, 622.073 116.310, 622.073 117.310, 622.073 118.310, 622.073 119.310, 622.073 120.310, 622.073 121.310, 622.073 122.310, 622.073 123.310, 622.073 124.310, 622.073 125.310, 622.073 126.310, 622.073 127.310, 622.073 128.310, 622.073 129.310, 622.073 130.310, 622.073 131.310, 622.073 132.310, 622.073 133.310, 622.073 134.310, 622.073 135.310, 622.073 136.310, 622.073 137.310, 622.073 138.310, 622.073 139.310, 622.073 140.310, 622.073 141.310, 622.073 142.310, 622.073 143.310, 622.073 144.310, 622.073 145.310, 622.073 146.310, 622.073 147.310, 622.073 148.310, 622.073 149.310, 622.073 150.310, 622.073 151.310, 622.073 152.310, 622.073 153.310, 622.073 154.310, 622.073 155.310, 622.073 156.310, 622.073 157.310, 622.073 158.310, 622.073 159.310, 622.073 160.310, 622.073 161.310, 622.073 162.310, 622.073 163.310, 622.073 164.310, 622.073 165.310, 622.073 166.310, 622.073 167.310, 622.073 168.310, 622.073 169.310, 622.073 170.310, 622.073 171.310, 622.073 172.310, 622.073 173.310, 622.073 174.310, 622.073 175.310, 622.073 176.310, 622.073 177.310, 622.073 178.310, 622.073 179.310, 622.073 180.310, 622.073 181.310, 622.073 182.310, 622.073 183.310, 622.073 184.310, 622.073 185.310, 622.073 186.310, 622.073 187.310, 622.073 188.310, 622.073 189.310, 622.073 190.310, 622.073 191.310, 622.073 192.310, 622.073 193.310, 622.073 194.310, 622.073 195.310, 622.073 196.310, 622.073 197.310, 622.073 198.310, 622.073 199.310, 622.073 200.310, 622.073 201.310, 622.073 202.310, 622.073 203.310, 622.073 204.310, 622.073 205.310, 622.073 206.310, 622.073 207.310, 622.073 208.310, 622.073 209.310, 622.073 210.310, 622.073 211.310, 622.073 212.310, 622.073 213.310, 622.073 214.310, 622.073 215.310, 622.073 216.310, 622.073 217.310, 622.073 218.310, 622.073 219.310, 622.073 220.310, 622.073 221.310, 622.073 222.310, 622.073 223.310, 622.073 224.310, 622.073 225.310, 622.073 226.310, 622.073 227.310, 622.073 228.310, 622.073 229.310, 622.073 230.310, 622.073 231.310, 622.073 232.310, 622.073 233.310, 622.073 234.310, 622.073 235.310, 622.073 236.310, 622.073 237.310, 622.073 238.310, 622.073 239.310, 622.073 240.310, 622.073 241.310, 622.073 242.310, 622.073 243.310, 622.073 244.310, 622.073 245.310, 622.073 246.310, 622.073 247.310, 622.073 248.310, 622.073 249.310, 622.073 250.310, 622.073 251.310, 622.073 252.310, 622.073 253.310, 622.073 254.310, 622.073 255.310, 622.073 256.310, 622.073 257.310, 622.073 258.310, 622.073 259.310, 622.073 260.310, 622.073 261.310, 622.073 262.310, 622.073 263.310, 622.073 264.310, 622.073 265.310, 622.073 266.310, 622.073 267.310, 622.073 268.310, 622.073 269.310, 622.073 270.310, 622.073 271.310, 622.073 272.310, 622.073 273.310, 622.073 274.310, 622.073 275.310, 622.073 276.310, 622.073 277.310, 622.073 278.310, 622.073 279.310, 622.073 280.310, 622.073 281.310, 622.073 282.310, 622.073 283.310, 622.073 284.310, 622.073 285.310, 622.073 286.310, 622.073 287.310, 622.073 288.310, 622.073 289.310, 622.073 290.310, 622.073 291.310, 622.073 292.310, 622.073 293.310, 622.073 294.310, 622.073 295.310, 622.073 296.310, 622.073 297.310, 622.073 298.310, 622.073 299.310, 622.073 300.310, 622.073 301.310, 622.073 302.310, 622.073 303.310, 622.073 304.310, 622.073 305.310, 622.073 306.310, 622.073 307.310, 622.073 308.310, 622.073 309.310, 622.073 310.310, 622.073 311.310, 622.073 312.310, 622.073 313.310, 622.073 314.310, 622.073 315.310, 622.073 316.310, 622.073 317.310, 622.073 318.310, 622.073 319.310, 622.073 320.310, 622.073 321.310, 622.073 322.310, 622.073 323.310, 622.073 324.310, 622.073 325.310, 622.073 326.310, 622.073 327.310, 622.073 328.310, 622.073 329.310, 622.073 330.310, 622.073 331.310, 622.073 332.310, 622.073 333.310, 622.073 334.310, 622.073 335.310, 622.073 336.310, 622.073 337.310, 622.073 338.310, 622.073 339.310, 622.073 340.310, 622.073 341.310, 622.073 342.310, 622.073 343.310, 622.073 344.310, 622.073 345.310, 622.073 346.310, 622.073 347.310, 622.073 348.310, 622.073 349.310, 622.073 350.310, 622.073 351.310, 622.073 352.310, 622.073 353.310, 622.073 354.310, 622.073 355.310, 622.073 356.310, 622.073 357.310, 622.073 358.310, 622.073 359.310, 622.073 360.310, 622.073 361.310, 622.073 362.310, 622.073 363.310, 622.073 364.310, 622.073 365.310, 622.073 366.310, 622.073 367.310, 622.073 368.310, 622.073 369.310, 622.073 370.310, 622.073 371.310, 622.073 372.310, 622.073 373.310, 622.073 374.310, 622.073 375.310, 622.073 376.310, 622.073 377.310, 622.073 378.310, 622.073 379.310, 622.073 380.310, 622.073 381.310, 622.073 382.310, 622.073 383.310, 622.073 384.310, 622.073 385.310, 622.073 386.310, 622.073 387.310, 622.073 388.310, 622.073 389.310, 622.073 390.310, 622.073 391.310, 622.073 392.310, 622.073 393.310, 622.073 394.310, 622.073 395.310, 622.073 396.310, 622.073 397.310, 622.073 398.310, 622.073 399.310, 622.073 400.310, 622.073 401.310, 622.073 402.310, 622.073 403.310, 622.073 404.310, 622.073 405.310, 622.073 406.310, 622.073 407.310, 622.073 408.310, 622.073 409.310, 622.073 410.310, 622.073 411.310, 622.073 412.310, 622.073 413.310, 622.073 414.310, 622.073 415.310, 622.073 416.310, 622.073 417.310, 622.073 418.310, 622.073 419.310, 622.073 420.310, 622.073 421.310, 622.073 422.310, 622.073 423.310, 622.073 424.310, 622.073 425.310, 622.073 426.310, 622.073 427.310, 622.073 428.310, 622.073 429.310, 622.073 430.310, 622.073 431.310, 622.073 432.310, 622.073 433.310, 622.073 434.310, 622.073 435.310, 622.073 436.310, 622.073 437.310, 622.073 438.310, 622.073 439.310, 622.073 440.310, 622.073 441.310, 622.073 442.310, 622.073 443.310, 622.073 444.310, 622.073 445.310, 622.073 446.310, 622.073 447.310, 622.073 448.310, 622.073 449.310, 622.073 450.310, 622.073 451.310, 622.073 452.310, 622.073 453.310, 622.073 454.310, 622.073 455.310, 622.073 456.310, 622.073 457.310, 622.073 458.310, 622.073 459.310, 622.073 460.310, 622.073 461.310, 622.073 462.310, 622.073 463.310, 622.073 464.310, 622.073 465.310, 622.073 466.310, 622.073 467.310, 622.073 468.310, 622.073 469.310, 622.073 470.310, 622.073 471.310, 622.073 472.310, 622.073 473.310, 622.073 474.310, 622.073 475.310, 622.073 476.310, 622.073 477.310, 622.073 478.310, 622.073 479.310, 622.073 480.310, 622.073 481.310, 622.073 482.310, 622.073 483.310, 622.073 484.310, 622.073 485.310, 622.073 486.310, 622.073 487.310, 622.073 488.310, 622.073 489.310, 622.073 490.310, 622.073 491.310, 622.073 492.310, 622.073 493.310, 622.073 494.310, 622.073 495.310, 622.073 496.310, 622.073 497.310, 622.073 498.310, 622.073 499.310, 622.073 500.310, 622.073 501.310, 622.073 502.310, 622.073 503.310, 622.073 504.310, 622.073 505.310, 622.073 506.310, 622.073 507.310, 622.073 508.310, 622.073 509.310, 622.073 510.310, 622.073 511.310, 622.073 512.310, 622.073 513.310, 622.073 514.310, 622.073 515.310, 622.073 516.310, 622.073 517.310, 622.073 518.310, 622.073 519.310, 622.073 520.310, 622.073 521.310, 622.073 522.310, 622.073 523.310, 622.073 524.310, 622.073 525.310, 622.073 526.310, 622.073 527.310, 622.073 528.310, 622.073 529.310, 622.073 530.310, 622.073 531.310, 622.073 532.310, 622.073 533.310, 622.073 534.310, 622.073 535.310, 622.073 536.310, 622.073 537.310, 622.073 538.310, 622.073 539.310, 622.073 540.310, 622.073 541.310, 622.073 542.310, 622.073 543.310, 622.073 544.310, 622.073 545.310, 622.073 546.310, 622.073 547.310, 622.073 548.310, 622.073 549.310, 622.073 550.310, 622.073 551.310, 622.073 552.310, 622.073 553.310, 622.073 554.310, 622.073 555.310, 622.073 556.310, 622.073 557.310, 622.073 558.310, 622.073 559.310, 622.073 560.310, 622.073 561.310, 622.073 562.310, 622.073 563.310, 622.073 564.310, 622.073 565.310, 622.073 566.310, 622.073 567.310, 622.073 568.310, 622.073 569.310, 622.073 570.310, 622.073 571.310, 622.073 572.310, 622.073 573.310, 622.073 574.310, 622.073 575.310, 622.073 576.310, 622.073 577.310, 622.073 578.310, 622.073 579.310, 622.073 580.310, 622.073 581.310, 622.073 582.310, 622.073 583.310, 622.073 584.310, 622.073 585.310, 622.073 586.310, 622.073 587.310, 622.073 588.310, 622.073 589.310, 622.073 590.310, 622.073 591.310, 622.073 592.310, 622.073 593.310, 622.073 594.310, 622.073 595.310, 622.073 596.310, 622.073 597.310, 622.073 598.310, 622.073 599.310, 622.073 600.310, 622.073 601.310, 622.073 602.310, 622.073 603.310, 622.073 604.310, 622.073 605.310, 622.073 606.310, 622.073 607.310, 622.073 608.310, 622.073 609.310, 622.073 610.310, 622.073 611.310, 622.073 612.310, 622.073 613.310, 622.073 614.310, 622.073 615.310, 622.073 616.310, 622.073 617.310, 622.073 618.310, 622.073 619.310, 622.073 620.310, 622.073 621.310, 622.073 622.310, 622.073 623.310, 622.073 624.310, 622.073 625.310, 622.073 626.310, 622.073 627.310, 622.073 628.310, 622.073 629.310, 622.073 630.310, 622.073 631.310, 622.073 632.310, 622.073 633.310, 622.073 634.310, 622.073 635.310, 622.073 636.310, 622.073 637.310, 622.073 638.310, 622.073 639.310, 622.073 640.310, 622.073 641.310, 622.073 642.310, 622.073 643.310, 622.073 644.310, 622.073 645.310, 622.073 646.310, 622.073 647.310, 622.073 648.310, 622.073 649.310, 622.073 650.310, 622.073 651.310, 622.073 652.310, 622.073 653.310, 622.073 654.310, 622.073 655.310, 622.073 656.310, 622.073 657.310, 622.073 658.310, 622.073 659.310, 622.073 660.310, 622.073 661.310, 622.073 662.310, 622.073 663.310, 622.073 664.310, 622.073 665.310, 622.073 666.310, 622.073 667.310, 622.073 668.310, 622.073 669.310, 622.073 670.310, 622.073 671.310, 622.073 672.310, 622.073 673.310, 622.073 674.310, 622.073 675.310, 622.073 676.310, 622.073 677.310, 622.073 678.310, 622.073 679.310, 622.073 680.310, 622.073 681.310, 622.073 682.310, 622.073 683.310, 622.073 684.310, 622.073 685.310, 622.073 686.310, 622.073 687.310, 622.073 688.310, 622.073 689.310, 622.073 690.310, 622.073 691.310, 622.073 692.310, 622.073 693.310, 622.073 694.310, 622.073 695.310, 622.073 696.310, 622.073 697.310, 622.073 698.310, 622.073 699.310, 622.073 700.310, 622.073 701.310, 622.073 702.310, 622.073 703.310, 622.073 704.310, 622.073 705.310, 622.073 706.310, 622.073 707.310, 622.073 708.310, 622.073 709.310, 622.073 710.310, 622.073 711.310, 622.073 712.310, 622.073 713.310, 622.073 714.310, 622.073 715.310, 622.073 716.310, 622.073 717.310, 622.073 718.310, 622.073 719.310, 622.073 720.310, 622.073 721.310, 622.073 722.310, 622.073 723.310, 622.073 724.310, 622.073 725.310, 622.073 726.310, 622.073 727.310, 622.073 728.310, 622.073 729.310, 622.073 730.310, 622.073 731.310, 622.073 732.310, 622.073 733.310, 622.073 734.310, 622.073 735.310, 622.073 736.310, 622.073 737.310, 622.073 738.310, 622.073 739.310, 622.073 740.310, 622.073 741.310, 622.073 742.310, 622.073 743.310, 622.073 744.310, 622.073 745.310, 622.073 746.310, 622.073 747.310, 622.073 748.310, 622.073 749.310, 622.073 750.310, 622.073 751.310, 622.073 752.310, 622.073 753.310, 622.073 754.310, 622.073 755.310, 622.073 756.310, 622.073 757.310, 622.073 758.310, 622.073 759.310, 622.073 760.310, 622.073 761.310, 622.073 762.310, 622.073 763.310, 622.073 764.310, 622.073 765.310, 622.073 766.310, 622.073 767.310, 622.073 768.310, 622.073 769.310, 622.073 770.310, 622.073 771.310, 622.073 772.310, 622.073 773.310, 622.073 774.310, 622.073 775.310, 622.073 776.310, 622.073 777.310, 622.073 778.310, 622.073 779.310, 622.073 780.310, 622.073 781.310, 622.073 782.310, 622.073 783.310, 622.073 784.310, 622.073 785.310, 622.073 786.310, 622.073 787.310, 622.073 788.310, 622.073 789.310, 622.073 790.310, 622.073 791.310, 622.073 792.310, 622.073 793.310, 622.073 794.310, 622.073 795.310, 622.073 796.310, 622.073 797.310, 622.073 798.310, 622.073 799.310, 622.073 800.310, 622.073 801.310, 622.073 802.310, 622.073 803.310, 622.073 804.310, 622.073 805.310, 622.073 806.310, 622.073 807.310, 622.073 808.310, 622.073 809.310, 622.073 810.310, 622.073 811.310, 622.073 812.310, 622.073 813.310, 622.073 814.310, 622.073 815.310, 622.073 816.310, 622.073 817.310, 622.073 818.310, 622.073 819.310, 622.073 820.310, 622.073 821.310, 622.073 822.310, 622.073 823.310, 622.073 824.310, 622.073 825.310, 622.073 826.310, 622.073 827.310, 622.073 828.310, 622.073 829.310, 622.073 830.310, 622.073 831.310, 622.073 832.310, 622.073 833.310, 622.073 834.310, 622.073 835.310, 622.073 836.310, 622.073 837.310, 622.073 838.310, 622.073 839.310, 622.073 840.310, 622.073 841.310, 622.073 842.310, 622.073 843.310, 622.073 844.310, 622.073 845.310, 622.073 846.310, 622.073 847.310, 622.073 848.310, 622.073 849.310, 622.073 850.310, 622.073 851.310, 622.073 852.310, 622.073 853.310, 622.073 854.310, 622.073 855.310, 622.073 856.310, 622.073 857.310, 622.073 858.310, 622.073 859.310, 622.073 860.310, 622.073 861.310, 622.073 862.310, 622.073 863.310, 622.073 864.310, 622.073 865.310, 622.073 866.310, 622.073 867.310, 622.073 868.310, 622.073 869.310, 622.073 870.310, 622.073 871.310, 622.073 872.310, 622.073 873.310, 622.073 874.310, 622.073 875.310, 622.073 876.310, 622.073 877.310, 622.073 878.310, 622.073 879.310, 622.073 880.310, 622.073 881.310, 622.073 882.310, 622.073 883.310, 622.073 884.310, 622.073 885.310, 622.073 886.310, 622.073 887.310, 622.073 888.310, 622.073 889.310, 622.073 890.310, 622.073 891.310, 622.073 892.310, 622.073 893.310, 622.073 894.310, 622.073 895.310, 622.073 896.310, 622.073 897.310, 622.073 898.310, 622.073 899.310, 622.073 900.310, 622.073 901.310, 622.073 902.310, 622.073 903.310, 622.073 904.310, 622.073 905.310, 622.073 906.310, 622.073 907.310, 622.073 908.310, 622.073 909.310, 622.073 910.310, 622.073 911.310, 622.073 912.310, 622.073 913.310, 622.073 914.310, 622.073 915.310, 622.073 916.310, 622.073 917.310, 622.073 918.310, 622.073 919.310, 622.073 920.310, 622.073 921.310, 622.073 922.310, 622.073 923.310, 622.073 924.310, 622.073 925.310, 622.073 926.310, 622.073 927.310, 622.073 928.310, 622.073 929.310, 622.073 930.310, 622.073 931.310, 622.073 932.310, 622.073 933.310, 622.073 934.310, 622.073 935.310, 622.073 936.310, 622.073 937.310, 622.073 938.310, 622.073 939.310, 622.073 940.310, 622.073 941.310, 622.073 942.310, 622.073 943.310, 622.073 944.310, 622.073 945.310, 622.073 946.310, 622.073 947.310, 622.073 948.310, 622.073 949.310, 622.073 950.310, 622.073 951.310, 622.073 952.310, 622.073 953.310, 622.073 954.310, 622.073 955.310, 622.073 956.310, 622.073 957.310, 622.073 958.310, 622.073 959.310, 622.073 960.310, 622.073 961.310, 622.073 962.310, 622.073 963.310, 622.073 964.310, 622.073 965.310, 622.073 966.310, 622.073 967.310, 622.073 968.310, 622.073 969.310, 622.073 970.310, 622.073 971.310, 622.073 972.310, 622.073 973.310, 622.073 974.310, 622.073 975.310, 622.073 976.310, 622.073 977.310, 622.073 978.310, 622.073 979.310, 622.073 980.310, 622.073 981.310, 622.073 982.310, 622.073 983.310, 622.073 984.310, 622.073 985.310, 622.073 986.310, 622.073 987.310, 622.073 988.310, 622.073 989.310, 622.073 990.310, 622.073 991.310, 622.073 992.310, 622.073 993.310, 622.073 994.310, 622.073 995.310, 622.073 996.310, 622.073 997.310, 622.073 998.310, 622.073 999.310, 622.073 1000.310, 622.073 1001.310, 622.073 1002.310, 622.073 1003.310, 622.073 1004.310, 622.073 1005.310, 622.073 1006.310, 622.073 1007.310, 622.073 1008.310, 622.073 1009.310, 622.073 1010.310, 622.073 1011.310, 622.073 1012.310, 622.073 1013.310, 622.073 1014.310, 622.073 1015.310, 622.073 1016.310, 622.073 1017.310, 622.073 1018.310, 622.073 1019.310, 622.073 1020.310, 622.073 1021.310, 622.073 1022.310, 622.073 1023.310, 622.073 1024.310, 622.073 1025.310, 622.073 1026.310, 622.073 1027.310, 622.073 1028.310, 622.073 1029.310, 622.073 1030.310, 622.073 1031.310, 622.073 1032.310, 622.073 1033.310, 622.073 1034.310, 622.073 1035.310, 622.073 1036.310, 622.073 1037.310, 622.073 1038.310, 622.073 1039.310, 622.073 1040.310, 622.073 1041.310, 622.073 1042.310, 622.073 1043.310, 622.073 1044.310, 622.073 1045.310, 622.073 1046.310, 622.073 1047.310, 622.073 1048.310, 622.073 1049.310, 622.073 1050.310, 622.073 1051.310, 622.073 1052.310, 622.073 1053.310, 622.073 1054.310, 622.073 1055.310, 622.073 1056.310, 622.073 1057.310, 622.073 1058.310, 622.073 1059.310, 622.073 1060.310, 622.073 1061.310, 622.073 1062.310, 622.073 1063.310, 622.073 1064.310, 622.073 1065.310, 622.073 1066.310, 622.073 1067.310, 622.073 1068.310, 622.073 1069.310, 622.073 1070.310, 622.073 1071.310, 622.073 1072.310, 622.073 1073.310, 622.073 1074.310, 622.073 1075.310, 622.073 1076.310, 622.073 1077.310, 622.073 1078.310, 622.073 1079.310, 622.073 1080.310, 622.073 1081.310, 622.073 1082.310, 622.073 1083.310, 622.073 1084.310, 622.073 1085.310, 622.073 1086.310, 622.073 1087.310, 622.073 1088.310, 622.073 1089.310, 622.073 1090.310, 622.073 1091.310, 622.073 1092.310, 622.073 1093.310, 622.073 1094.310, 622.073 1095.310, 622.073 1096.310, 622.073 1097.310, 622.073 1098.310, 622.073 1099.310, 622.073 1100.310, 622.073 1101.310, 622.073 1102.310, 622.073 1103.310, 622.073 1104.310, 622.073 1105.310, 622.073 1106.310, 622.073 1107.310, 622.073 1108.310, 622.073 1109.310, 622.073 1110.310, 622.073 1111.310, 622.073 1112.310, 622.073 1113.310, 622.073 1114.310, 622.073 1115.310, 622.073 1116.310, 622.073 1117.310, 622.073 1118.310, 622.073 1119.310, 622.073 1120.310, 622.073 1121.310, 622.073 1122.310, 622.073 1123.310, 622.073 1124.310, 622.073 1125.310, 622.073 1126.310, 622.073 1127.310, 622.073 1128.310, 622.073 1129.310, 622.073 1130.310, 622.073 1131.310, 622.073 1132.310, 622.073 1133.310, 622.073 1134.310, 622.073 1135.310, 622.073 1136.310, 622.073 1137.310, 622.073 1138.310, 622.073 1139.310, 622.073 1140.310, 622.073 1141.310, 622.073 1142.310, 622.073 1143.310, 622.073 1144.310, 622.073 1145.310, 622.073 1146.310, 622.073 1147.310, 622.073 1148.310, 622.073 1149.310, 622.073 1150.310, 622.073 1151.310, 622.073 1152.310, 622.073 1153.310, 622.073 1154.310, 622.073 1155.310, 622.073 1156.310, 622.073 1157.310, 622.073 1158.310, 622.073 1159.310, 622.073 1160.310, 622.073 1161.310, 622.073 1162.310, 622.073 1163.310, 622.073 1164.310, 622.073 1165.310, 622.073 1166.310, 622.073 1167.310, 622.073 1168.310, 622.073 1169.310, 622.073 1170.310, 622.073 1171.310, 622.073 1172.310, 622.073 1173.310, 622.073 1174.310, 622.073 1175.310, 622.073 1176.310, 622.073 1177.310, 622.073 1178.310, 622.073 1179.310, 622.073 1180.310, 622.073 1181.310, 622.073 1182.310, 622.073 1183.310, 622.073 1184.310, 622.073 1185.310, 622.073 1186.310, 622.073 1187.310, 622.073 1188.310, 622.073 1189.310, 622.073 1190.310, 622.073 1191.310, 622.073 1192.310, 622.073 1193.310, 622.073 1194.310, 622.073 1195.310, 622.073 1196.310, 622.073 1197.310, 622.073 1198.310, 622.073 1199.310, 622.073 1200.310, 622.073 1201.310, 622.073 1202.310, 622.073 1203.310, 622.073 1204.310, 622.073 1205.310, 622.073 1206.310, 622.073 1207.310, 622.073 1208.310, 622.073 1209.310, 622.073 1210.310, 622.073 1211.310, 622.073 1212.310, 622.073 1213.310, 622.073 1214.310, 622.073 1215.310, 622.073 1216.310, 622.073 1217.310, 622.073 1218.310, 622.073 1219.310, 622.073 1220.310, 622.073 1221.310, 622.073 1222.310, 622.073 1223.310, 622.073 1224.310, 622.073 1225.310, 622.073 1226.310, 622.073 1227.310, 622.073 1228.310, 622.073 1229.310, 622.073 1230.310, 622.073 1231.310, 622.073 1232.310, 622.073 1233.310, 622.073 1234.310, 622.073 1235.310, 622.073 1236.310, 622.073 1237.310, 622.073 1238.310, 622.073 1239.310, 622.073 1240.310, 622.073 1241.310, 622.073 1242.310, 622.073 1243.310, 622.073 1244.310, 622.073 1245.310, 622.073 1246.310, 622.073 1247.310, 622.073 1248.310, 622.073 1249.310, 622.073 1250.310, 622.073 1251.310, 622.073 1252.310, 622.073 1253.310, 622.073 1254.310, 622.073 1255.310, 622.073 1256.310, 622.073 1257.310, 622.073 1258.310, 622.073 1259.310, 622.073 1260.310, 622.073 1261.310, 622.073 1262.310, 622.073 1263.310, 622.073 1264.310, 622.073 1265.310, 622.073 1266.310, 622.073 1267.310, 622.073 1268.310, 622.073 1269.310, 622.073 1270.310, 622.073 1271.310, 622.073 1272.310, 622.073 1273.310, 622.073 1274.310, 622.073 1275.310, 622.073 1276.310, 622.073 1277.310, 622.073 1278.310, 622.073 1279.310, 622.073 1280.310, 622.073 1281.310, 622.073 1282.310, 622.073 1283.310, 622.073 1284.310, 622.073 1285.310, 622.073 1286.310, 622.073 1287.310, 622.073 1288.310, 622.073 1289.310, 622.073 1290.310, 622.073 1291.310, 622.073 1292.310, 622.073 1293.310, 622.073 1294.310, 622.073 1295.310, 622.073 1296.310, 622.073 1297.310, 622.073 1298.310, 622.073 1299.310, 622.073 1300.310, 622.073 1301.310, 622.073 1302.310, 622.073 1303.310, 622.073 1304.310, 622.073 1305.310, 622.073 1306.310, 622.073 1307.310, 622.073 1308.310, 622.073 1309.310, 622.073 1310.310, 622.073 1311.310, 622.073 1312.310, 622.073 1313.310, 622.073 1314.310, 622.073 1315.310, 622.073 1316.310, 622.073 1317.310, 622.073 1318.310, 622.073 1319.310, 622.073 1320.310, 622.073 1321.310, 622.073 1322.310, 622.073 1323.310, 622.073 1324.310, 622.073 1325.310, 622.073 1326.310, 622.073 1327.310, 622.073 1328.310, 622.073 1329.310, 622.073 1330.310, 622.073 1331.310, 622.073 1332.310, 622.073 1333.310, 622.073 1334.310, 622.073 1335.310, 622.073 1336.310, 622.073 1337.310, 622.073 1338.310, 622.073 1339.310, 622.073 1340.310, 622.073 1341.310, 622.073 1342.310, 622.073 1343.310, 622.073 1344.310, 622.073 1345.310, 622.073 1346.310, 622.073 1347.310, 622.073 1348.310, 622.073 1349.310, 622.073 1350.310, 622.073 1351.310, 622.073 1352.310, 622.073 1353.310, 622.073 1354.310, 622.073 1355.310, 622.073 1356.310, 622.073 1357.310, 622.073 1358.310, 622.073 1359.310, 622.073 1360.310, 622.073 1361.310, 622.073 1362.310, 622.073 1363.310, 622.073 1364.310, 622.073 1365.310, 622.073 1366.310, 622.073 1367.310, 622.073 1368.310, 622.073 1369.310, 622.073 1370.310, 622.073 1371.310, 622.073 1372.310, 622.073 1373.310, 622.073 1374.310, 622.073 1375.310, 622.073 1376.310, 622.073 1377.310, 622.073 1378.310, 622.073 1379.310, 622.073 1380.310, 622.073 1381.310, 622.073 1382.310, 622.073 1383.310, 622.073 1384.310, 622.073 1385.310, 622.073 1386.310, 622.073 1387.310, 622.073 1388.310, 622.073 1389.310, 622.073 1390.310, 622.073 1391.310, 622.073 1392.310, 622.073 1393.310, 622.073 1394.310, 622.073 1395.310, 622.073 1396.310, 622.073 1397.310, 622.073 1398.310, 622.073 1399.310, 622.073 1400.310, 622.073 1401.310, 622.073 1402.310, 622.073 1403.310, 622.073 1404.310, 622.073 1405.310, 622.073 1406.310, 622.073 1407.310, 622.073 1408.310, 622.073 1409.310, 622.073 1410.310, 622.073 1411.310, 622.073 1412.310, 622.073 1413.310, 622.073 1414.310, 622.073 1415.310, 622.073 1416.310, 622.073 1417.310, 622.073 1418.310, 622.073 1419.310, 622.073 1420.310, 622.073 1421.310, 622.073 1422.310, 622.073 1423.310, 622.073 1424.310, 622.073 1425.310, 622.073 1426.310, 622.073 1427.310, 622.073 1428.310, 622.073 1429.310, 622.073 1430.310, 622.073 1431.310, 622.073 1432.310, 622.073 1433.310, 622.073 1434.310, 622.073 1435.310, 622.073 1436.310, 622.073 1437.310, 622.073 1438.310, 622.073 1439.310, 622.073 1440.310, 622.073 1441.310, 622.073 1442.310, 622.073 1443.310, 622.073 1444.310, 622.073 1445.310, 622.073 1446.310, 622.073 1447.310, 622.073 1448.310, 622.073 1449.310, 622.073 1450.310, 622.073 1451.310, 622.073 1452.310, 622.073 1453.310, 622.073 1454.310, 622.073 1455.310, 622.073 1456.310, 622.073 1457.310, 622.073 1458.310, 622.073 1459.310, 622.073 1460.310, 622.073 1461.310, 622.073 1462.310, 622.073 1463.310, 622.073 1464.310, 622.073 1465.310, 622.073 1466.310, 622.073 1467.310, 622.073 1468.310, 622.073 1469.310, 622.073 1470.310, 622.073 1471.310, 622.073 1472.310, 622.073 1473.310, 622.073 1474.310, 622.073 1475.310, 622.073 1476.310, 622.073 1477.310, 622.073 1478.310, 622.073 1479.310, 622.073 1480.310, 622.073 1481.310, 622.073 1482.310, 622.073 1483.310, 622.073 1484.310, 622.073 1485.310, 622.073 1486.310, 622.073 1487.310, 622.073 1488.310, 622.073 1489.310, 622.073 1490.310, 622.073 1491.310, 622.073 1492.310, 622.073 1493.310, 622.073 1494.310, 622.073 1495.310, 622.073 1496.310, 622.073 1497.310, 622.073 1498.310, 622.073 1499.310, 622.073 1500.310, 622.073 1501.310, 622.073 1502.310, 622.073 1503.310, 622.073 1504.310, 622.073 1505.310, 622.073 1506.310, 622.073 1507.310, 622.073 1508.310, 622.073 1509.310, 622.073 1510.310, 622.073 1511.310, 622.073 1512.310, 622.073 1513.310, 622.073 1514.310, 622.073 1515.310, 622.073 1516.310, 622.073 1517.310, 622.073 1518.310, 622.073 1519.310, 622.073 1520.310, 622.073 1521.310, 622.073 1522.310, 622.073 1523.310, 622.073 1524.310, 622.073 1525.310, 622.073 1526.310, 622.073 1527.310, 622.073 1528.310, 622.073 1529.310, 622.073 1530.310, 622.073 1531.310, 622.073 1532.310, 622.073 1533.310, 622.073 1534.310, 622.073 1535.310, 622.073 1536.310, 622.073 1537.310, 622.073 1538.310, 622.073 1539.310, 622.073 1540.310, 622.073 1541.310, 622.073 1542.310, 622.073 1543.310, 622.073 1544.310, 622.073 1545.310, 622.073 1546.310, 622.073 1547.310, 622.073 1548.310, 622.073 1549.310, 622.073 1550.310, 622.073 1551.310, 622.073 1552.310, 622.073 1553.310, 622.073 1554.310, 622.073 1555.310, 622.073 1556.310, 622.073 1557.310, 622.073 1558.310, 622.073 1559.310, 622.073 1560.310, 622.073 1561.310, 622.073 1562.310, 622.073 1563.310, 622.073 1564.310, 622.073 1565.310, 622.073 1566.310, 622.073 1567.310, 622.073 1568.310, 622.073 1569.310, 622.073 1570.310, 622.073 1571.310, 622.073 1572.310, 622.073 1573.310, 622.073 1574.310, 622.073 1575.310, 622.073 1576.310, 622.073 1577.310, 622.073 1578.310, 622.073 1579.310, 622.073 1580.310, 622.073 1581.310, 622.073 1582.310, 622.073 1583.310, 622.073 1584.310, 622.073 1585.310, 622.073 1586.310, 622.073 1587.310, 622.073 1588.310, 622.073 1589.310, 622.073 1590.310, 622.073 1591.310, 622.073 1592.310, 622.073 1593.310, 622.073 1594.310, 622.073 1595.310, 622.073 1596.310, 622.073 1597.310, 622.073 1598.310, 622.073 1599.310, 622.073 1600.310, 622.073 1601.310, 622.073 1602.310, 622.073 1603.310, 622.073 1604.310, 622.073 1605.310, 622.073 1606.310, 622.073 1607.310, 622.073 1608.310, 622.073 1609.310, 622.073 1610.310, 622.073 1611.310, 622.073 1612.310, 622.073 1613.310, 622.073 1614.310, 622.073 1615.310, 622.073 1616.310, 622.073 1617.310, 622.073 1618.310, 622.073 1619.310, 622.073 1620.310, 622.073 1621.310, 622.073 1622.310, 622.073 1623.310, 622.073 1624.310, 622.073 1625.310, 622.073 1626.310, 622.073 1627.310, 622.073 1628.310, 622.073 1629.310, 622.073 1630.310, 622.073 1631.310, 622.073 1632.310, 622.073 1633.310, 622.073 1634.310, 622.073 1635.310, 622.073 1636.310, 622.073 1637.310, 622.073 1638.310, 622.073 1639.310, 622.073 1640.310, 622.073 1641.310, 622.073 1642.310, 622.073 1643.310, 622.073 1644.310, 622.073 1645.310, 622.073 1646.310, 622.073 1647.310, 622.073 1648.310, 622.073 1649.310, 622.073 1650.310, 622.073 1651.310, 622.073 1652.310, 622.073 1653.310, 622.073 1654.310, 622.073 1655.310, 622.073 1656.310, 622.073 1657.310, 622.073 1658.310, 622.073 1659.310, 622.073 1660.310, 622.073 1661.310, 622.073 1662.310, 622.073 1663.310, 622.073 1664.310, 622.073 1665.310, 622.073 1666.310, 622.073 1667.310, 622.073 1668.310, 622.073 1669.310, 622.073 1670.310, 622.073 1671.310, 622.073 1672.310, 622.073 1673.310, 622.073 1674.310, 622.073 1675.310, 622.073 1676.310, 622.073 1677.310, 622.073 1678.310, 622.073 1679.310, 622.073 1680.310, 622.073 1681.310, 622.073 1682.310, 622.073 1683.310, 622.073 1684.310, 622.073 1685.310, 622.073 1686.310, 622.073 1687.310, 622.073 1688.310, 622.073 1689.310, 622.073 1690.310, 622.073 1691.310, 622.073 1692.310, 622.073 1693.310, 622.073 1694.310, 622.073 1695.310, 622.073 1696.310, 622.073 1697.310, 622.073 1698.310, 622.073 1699.310, 622.073 1700.310, 622.073 1701.310, 622.073 1702.310, 622.073 1703.310, 622.073 1704.310, 622.073 1705.310, 622.073 1706.310, 622.073 1707.310, 622.073 1708.310, 622.073 1709.310, 622.073 1710.310, 622.073 1711.310, 622.073 1712.310, 622.073 1713.310, 622.073 1714.310, 622.073 1715.310, 622.073 1716.310, 622.073 1717.310, 622.073 1718.310, 622.073 1719.310, 622.073 1720.310, 622.073 1721.310, 622.073 1722.310, 622.073 1723.310, 622.073 1724.310, 622.073 1725.310, 622.073 1726.310, 622.073 1727.310, 622.073 1728.310, 622.073 1729.310, 622.073 1730.310, 622.073 1731.310, 622.073 1732.310, 622.073 1733.310, 622.073 1734.310, 622.073 1735.310, 622.073 1736.310, 622.073 1737.310, 622.073 1738.310, 622.073 1739.310, 622.073 1740.310, 622.073 1741.310, 622.073 1742.310, 622.073 1743.310, 622.073 1744.310, 622.073 1745.310, 622.073 1746.310, 622.073 1747.310, 622.073 1748.310, 622.073 1749.310, 622.073 1750.310, 622.073 1751.310, 622.073 1752.310, 622.073 1753.310, 622.073 1754.310, 622.073 1755.310, 622.073 1756.310, 622.073 1757.310, 622.073 1758.310, 622.073 1759.310, 622.073 1760.310, 622.073 1761.310, 622.073 1762.310, 622.073 1763.310, 622.073 1764.310, 622.073 1765.310, 622.073 1766.310, 622.073 1767.310, 622.073 1768.310, 622.073 1769.310, 622.073 1770.310, 622.073 1771.310, 622.073 1772.310, 622.073 1773.310, 622.073 1774.310, 622.073 1775.310, 622.073 1776.310, 622.073 1777.310, 622.073 1778.310, 622.073 1779.310, 622.073 1780.310, 622.073 1781.310, 622.073 1782.310, 622.073 1783.310, 622.073 1784.310, 622.073 1785.310, 622.073 1786.310, 622.073 1787.310, 622.073 1788.310, 622.073 1789.310, 622.073 1790.310, 622.073 1791.310, 622.073 1792.310, 622.073 1793.310, 622.073 1794.310, 622.073 1795.310, 622.073 1796.310, 622.073 1797.310, 622.073 1798.310, 622.073 1799.310, 622.073 1800.310, 622.073 1801.310, 622.073 1802.310, 622.073 1803.310, 622.073 1804.310, 622.073 1805.310, 622.073 1806.310, 622.073 1807.310, 622.073 1808.310, 622.073 1809.310, 622.073 1810.310, 622.073 1811.310, 622.073 1812.310, 622.073 1813.310, 622.073 1814.310, 622.073 1815.310, 622.073 1816.310, 622.073 1817.310, 622.073 1818.310, 622.073 1819.310, 622.073 1820.310, 622.073 1821.310, 622.073 1822.310, 622.073 1823.310, 622.073 1824.310, 622.073 1825.310, 622.073 1826.310, 622.073 1827.310, 622.073 1828.310, 622.073 1829.310, 622.073 1830.310, 622.073 1831.310, 622.073 1832.310, 622.073 1833.310, 622.073 1834.310, 622.073 1835.310, 622.073 1836.310, 622.073 1837.310, 622.073 1838.310, 622.073 1839.310, 622.073 1840.310, 622.073 1841.310, 622.073 1842.310, 622.073 1843.310, 622.073 1844.310, 622.073 1845.310, 622.073 1846.310, 622.073 1847.310, 622.073 1848.310, 622.073 1849.310, 622.073 1850.310, 622.073 1851.310, 622.073 1852.310, 622.073 1853.310, 622.073 1854.310, 622.073 1872.925, 622.073 " />
        </g>
    </g>
</svg>
