<?xml version='1.0' encoding='ascii'?>
<svg xmlns="http://www.w3.org/2000/svg" version="1.1" width="1920" height="1080">
    <g id="ViewLayer_LineSet" xmlns:inkscape="http://www.inkscape.org/namespaces/inkscape" inkscape:groupmode="lineset" inkscape:label="ViewLayer_LineSet">
        <g xmlns:inkscape="http://www.inkscape.org/namespaces/inkscape" inkscape:groupmode="layer" id="strokes" inkscape:label="strokes">
            <path fill="none" stroke-width="3.0" stroke-linecap="butt" stroke-opacity="1.0" stroke="rgb(0, 0, 0)" stroke-linejoin="round" d=" M 943.727, 788.502 943.727, 798.502 943.727, 808.502 943.727, 818.502 943.727, 821.049 " />
            <path fill="none" stroke-width="3.0" stroke-linecap="butt" stroke-opacity="1.0" stroke="rgb(0, 0, 0)" stroke-linejoin="round" d=" M 976.273, 821.049 986.273, 821.049 996.273, 821.049 1006.273, 821.049 1016.273, 821.049 1026.273, 821.049 1036.273, 821.049 1046.273, 821.049 1056.273, 821.049 1066.273, 821.049 1076.273, 821.049 1086.273, 821.049 1096.273, 821.049 1106.273, 821.049 1116.273, 821.049 1126.273, 821.049 1136.273, 821.049 1146.273, 821.049 1156.273, 821.049 1166.273, 821.049 1176.273, 821.049 1186.273, 821.049 1196.273, 821.049 1206.273, 821.049 1216.273, 821.049 1226.273, 821.049 1236.648, 821.049 1236.648, 811.049 1236.648, 801.049 1236.648, 791.049 1236.648, 788.502 1233.313, 785.506 1223.313, 785.506 1213.313, 785.506 1203.313, 785.506 1193.313, 785.506 1183.313, 785.506 1173.313, 785.506 1163.313, 785.506 1153.313, 785.506 1143.313, 785.506 1133.313, 785.506 1123.313, 785.506 1113.313, 785.506 1103.313, 785.506 1093.313, 785.506 1083.313, 785.506 1073.313, 785.506 1063.313, 785.506 1053.313, 785.506 1043.313, 785.506 1033.313, 785.506 1023.313, 785.506 1013.313, 785.506 1003.313, 785.506 993.313, 785.506 983.313, 785.506 976.273, 785.506 " />
            <path fill="none" stroke-width="3.0" stroke-linecap="butt" stroke-opacity="1.0" stroke="rgb(0, 0, 0)" stroke-linejoin="round" d=" M 976.273, 785.506 976.273, 775.506 976.273, 765.506 976.273, 755.506 976.273, 745.506 976.273, 735.506 976.273, 725.506 976.273, 723.408 976.077, 721.197 966.077, 721.197 956.077, 721.197 946.077, 721.197 943.923, 721.197 943.727, 723.408 943.727, 733.408 943.727, 743.408 943.727, 753.408 943.727, 763.408 943.727, 773.408 943.727, 783.408 943.727, 793.408 943.727, 803.408 943.727, 813.408 943.727, 823.408 943.727, 833.408 943.727, 843.408 943.727, 853.408 943.727, 863.408 943.727, 873.408 943.727, 883.408 943.727, 886.143 953.727, 886.143 963.727, 886.143 973.727, 886.143 976.273, 886.143 976.273, 876.143 976.273, 866.143 976.273, 856.143 976.273, 846.143 976.273, 836.143 976.273, 826.143 976.273, 821.049 " />
        </g>
    </g>
</svg>
